<?xml version="1.0" encoding="utf-8"?>
<!-- Generator: Adobe Illustrator 22.0.1, SVG Export Plug-In . SVG Version: 6.00 Build 0)  -->
<svg version="1.1" id="Layer_1" xmlns="http://www.w3.org/2000/svg" xmlns:xlink="http://www.w3.org/1999/xlink" x="0px" y="0px"
	 viewBox="0 0 2335.8 1514.8" style="enable-background:new 0 0 2335.8 1514.8;" xml:space="preserve">
<style type="text/css">
	.st0{fill:#FFFFFF;}
	.st1{fill:#513B7F;}
	.st2{fill:#F26C57;}
	.st3{fill:#4ED3D2;}
	.st4{fill:#FFFFFF;stroke:#FFFFFF;stroke-width:7.595;stroke-miterlimit:10;}
	.st5{fill:#DE3554;}
	.st6{fill:none;stroke:#FFFFFF;stroke-width:15.19;stroke-linecap:round;stroke-linejoin:round;stroke-miterlimit:10;}
	.st7{fill:#FFFFFF;stroke:#FFFFFF;stroke-width:7.595;stroke-linecap:round;stroke-linejoin:round;stroke-miterlimit:10;}
</style>
<path class="st0" d="M971.7,647c-1.4-1.5-3.4-2.4-5.5-2.4c-0.1,0-0.2,0-0.3,0c-9.6,0.4-19.1,0.8-28.7,1.3c0-1.6-0.1-3.2-0.4-4.8
	c-1.6-9-6.8-15.7-15.1-19.4c-3.6-1.6-7.8-2.7-12.8-3.2c1.2-1.9,2.4-3.8,3.3-5.9c4.2-9.5,3-19.1-3.3-27.7c-4.4-6-10.8-9.3-18.2-9.3
	c-6.9,0-14.2,3-20.7,7.8c-1.1-5.8-3.1-11.2-6.5-15.5c-4.2-5.3-10-8.2-16.6-8.2c-4.1,0-8.6,1.1-13.2,3.4
	c-15.5,7.6-21.1,33.6-26.9,61.1c-2.2,10.2-4.3,19.9-6.7,28.1c-8.3,0.4-16.7,0.8-25,1.2c8.5-20.7-1.2-47.5-9.1-69.4
	c-0.8-2.1-1.5-4.2-2.2-6.2c8,5.3,16.1,8.2,23.4,8.2c9.1,0,16.8-4.5,21.5-12.6c13-22.3,0-52.7-17.9-94.6
	c-5.2-12.1-11.1-25.9-16.8-40.5c-7.4-19.1-12-45.4-16.9-73.4c-3.9-22.4-8.3-47.7-14.8-72.5c13.2-17,19.3-38.7,17.6-63
	c-1.4-21.2-12.6-46.6-29.2-66.3c-17.7-21-39-33.3-60.7-35.2c-2.9-21.3-13.4-39.9-19.9-49.7c-4.4-6.6-19.6-28.2-32.2-28.2
	c0,0,0,0,0,0c-1.6,0-3.1,0.3-4.4,0.9c-11.3,5.1-12.6,18.8-13.9,33.3c-1.1,12-2.3,25.4-8.6,36.4c-11.6-3.5-23.8-6.3-36.5-8.4
	c-16.3-2.7-32.2-4-47.2-4c-20.5,0-40,2.5-58.3,7.5c-8.4-12.2-12.6-26.8-16-38.7c-3.9-13.7-6.8-23.5-15.1-26.3
	c-1.1-0.4-2.2-0.5-3.3-0.5c-4.9,0-10.3,3.2-17,9.9c-5.3,5.4-11.1,12.8-16.3,20.8c-11.2,17.4-18.4,35.6-20.4,51
	c-23.3,3.3-44.2,15.2-60.9,34.7c-15.4,18.1-26.6,42.1-31.6,67.6c-3.6,18.5-0.2,38.8,9.3,56.2c-6.4,11.6-12.6,22.7-18.9,32.5
	c-27.7,43.5-47.6,83.9-57.6,116.7c-10.1,33.2-8.9,55.9,3.4,65.5c5,3.9,11,5.9,17.8,5.9c8.8,0,17.7-3.5,25.1-7.4
	c-3.5,13.3-7.9,27.2-12.3,40.7c-14.3,44.2-27.8,85.9-6.4,107.3c4.6,4.6,9.8,7.8,15.4,9.4c-9.1,5.9-19.6,9.2-27.3,9.2
	c-3.1,0-5.8-0.6-7.4-1.6c-1.1-0.7-3.8-3.5-5-15c-1-9.5-0.8-21.3-0.5-33.8c0.6-28.1,1.1-54.7-12.2-65.6c-5.6-4.6-11.3-6.9-17-6.9
	c-8.7,0-16.4,5.5-21.6,15.4c-0.5,0.9-1,1.9-1.4,2.9c-0.5-0.6-1.1-1.3-1.7-1.9c-6.6-7.2-14.4-11.1-22.1-11.1
	c-5.3,0-10.3,1.9-14.5,5.5c-8.1,7-11.4,16-9.5,26.2c0.4,2.2,1,4.4,1.8,6.5c-2.1-0.3-4.2-0.4-6.3-0.4c-15.8,0-22.8,8.7-26,16.1
	c-3.7,8.7-2.4,19.8,3.6,28.8c4.4,6.7,10.7,11.3,17.6,13.2c2,11.6,5.9,21.9,11.6,31.4c2.3,3.8,4.6,7,7,9.8c-35.4,2.1-55.8,3.4-56,3.4
	c-2.2,0.1-4.1,1.2-5.5,2.9c-1.3,1.7-1.9,3.9-1.5,6c6.9,40.3,16.1,172.9,22.5,283.5c7.3,127.2,11.5,235.4,9.8,251.8
	c-0.2,2.2,0.5,4.4,2,6c1.4,1.5,3.5,2.4,5.6,2.4c0.1,0,0.2,0,0.3,0c94.9-3.4,305.7-9.9,347.7-11.2c2.3,41.6-0.1,100.4-1.1,120.5
	c-90.6,1.8-232.5,3.6-234,3.7c-2.8,0-5.3,1.6-6.6,4.1c-18.8,35.8-39.8,79.6-40,80c-1.1,2.3-1,5.1,0.4,7.3c1.4,2.2,3.7,3.6,6.3,3.6
	l685.4,11.4c0,0,0.1,0,0.1,0c2.7,0,5.2-1.5,6.6-3.8c1.4-2.4,1.3-5.4-0.1-7.7c-26.1-42.9-48.9-86.5-49.1-86.9c-1.3-2.5-3.8-4-6.6-4.1
	l-243.6-3.7c-3.5-57.9,3.9-108.4,6.8-125.4c144.3,0.2,353.9,7.5,356.1,7.6c0.1,0,0.2,0,0.3,0c1.9,0,3.8-0.7,5.2-2.1
	c1.5-1.4,2.3-3.3,2.4-5.4c3.7-170.5,47-576.3,47.4-580.4C973.9,650.8,973.2,648.6,971.7,647z M837,569.9c3.7-1.8,7-2.6,9.9-2.6
	c15,0,18.7,22.2,15,37.7c5.6-12.3,18.1-21.9,28.7-21.9c4.6,0,8.9,1.9,12,6.2c10.6,14.5-0.5,27.2-10.5,36.5c2.5-0.1,5.3-0.2,8.1-0.2
	c12.5,0,26.4,2.3,28.9,16.8c0.7,3.9,0,7.9-1.6,11.5c0.2,0,0.5,0,0.7,0c-40.8,1.8-81.9,3.8-122.8,5.7
	C815.7,631.1,818.8,578.8,837,569.9z M112.7,675.9c-5.7-9.5-9.7-20.4-11.4-34.2c-15.2,0-26.6-19-20.9-32.3c3.8-8.8,11-11.5,19-11.5
	c7,0,14.6,2.1,20.9,3.9c-7.6-11.4-15.5-26.3-1.9-38c3-2.5,6.2-3.7,9.5-3.7c11.5,0,23.6,13.6,26.6,28.4c0-14.8,7.4-33.7,20.1-33.7
	c3.6,0,7.7,1.5,12.2,5.2c20.9,17.1-1.9,102.5,18.7,115c3,1.8,6.9,2.7,11.4,2.7c15.2,0,36.6-9.9,47.6-25.5c-3.4,1.4-7.3,2.3-11.4,2.3
	c-6.1,0-12.7-2.1-18.9-8.4c-26.9-26.9,14.5-101.6,24.9-159.6c0,0-19.3,16.7-36.6,16.7c-4.7,0-9.2-1.2-13.1-4.3
	c-18.7-14.5-2.1-80.8,56-172.1c6.9-10.9,13.9-23.4,21.2-36.7c-10.1-16.5-14-36.4-10.5-54.7c8.8-45.4,40.2-93.2,92.1-96.9
	c1-35.4,36.1-81.1,46.7-81.1c0.3,0,0.7,0,0.9,0.1c10.1,3.4,9.8,40.9,30.6,66.6c18.3-5.6,38.5-8.7,61.2-8.7c14.3,0,29.6,1.3,45.9,3.9
	c14.8,2.4,28.4,5.8,40.9,9.9c19.5-25.8,7.2-64.9,22.4-71.7c0.4-0.2,0.8-0.3,1.3-0.3c10.6,0,43.3,40.2,45.1,77.7c0.4,0,0.8,0,1.2,0
	c46.9,0,85.4,55.7,88,94.6c1.5,22.8-4,43.9-18.4,60.7c15.3,56.7,18.8,114.3,32.9,150.5c24.5,62.7,49.8,103.6,35.2,128.5
	c-3.6,6.2-8.9,8.8-15,8.8c-11.6,0-26-9.8-36.9-23.4c0,22.8,34,73.7,14.5,101.6c-1.5,2.1-3.2,3.9-4.9,5.2c0.1,0,0.2,0,0.3,0
	c-166,8.2-326.6,16.9-452.2,24.1c0.2,0,0.3,0,0.5,0c-0.7-0.4-1.3-0.8-1.9-1.1c-0.9,0.5-1.9,0.9-2.9,1.4c-70.4,4-129.6,7.5-172.2,10
	c0.2,0,0.4,0,0.6,0C125.3,691.7,118.6,685.9,112.7,675.9z M446.3,1260.9c0.1,6.6,0.1,13.2,0.1,19.8
	C446.4,1274.1,446.4,1267.5,446.3,1260.9z M446.1,1252.6c0-1.8-0.1-3.7-0.2-5.5C446,1248.9,446.1,1250.7,446.1,1252.6z M445.7,1239
	c-0.1-1.7-0.2-3.3-0.2-4.9C445.5,1235.7,445.6,1237.3,445.7,1239z M123.4,696.6c-0.2,0-0.4,0-0.6,0
	C123,696.6,123.2,696.6,123.4,696.6z M120,696.8c-0.6,0-1.2,0.1-1.8,0.1C118.7,696.9,119.4,696.9,120,696.8z M62.2,737.2
	c0.1,1.2,0.3,2.5,0.4,3.8C62.5,739.7,62.3,738.5,62.2,737.2z M59.5,713.4c0,0.2,0.1,0.4,0.1,0.7C59.5,713.8,59.5,713.6,59.5,713.4z
	 M60.8,724.5c0,0.2,0,0.4,0.1,0.6C60.9,724.9,60.9,724.7,60.8,724.5z M66.2,779.9c0,0.2,0,0.5,0.1,0.7
	C66.2,780.4,66.2,780.2,66.2,779.9z M67.3,793.6c0.2,3,0.5,6.1,0.7,9.2C67.8,799.7,67.5,796.6,67.3,793.6z M74.6,895.3
	c0.2,3.7,0.5,7.3,0.7,11C75.1,902.6,74.9,899,74.6,895.3z M76.8,928.6c0.3,5.6,0.7,11.2,1,16.9C77.5,939.8,77.1,934.2,76.8,928.6z
	 M78.2,951.1c0.2,3.8,0.5,7.5,0.7,11.3C78.6,958.6,78.4,954.8,78.2,951.1z M79.8,979.3c6.1,105.2,10.6,207.5,10.5,245.5
	C90.4,1186.8,85.9,1084.5,79.8,979.3z M90.3,1224.8c0,1.3,0,2.6,0,3.8C90.3,1227.5,90.3,1226.2,90.3,1224.8z M90.3,1228.7
	c0,1.2,0,2.3-0.1,3.3C90.2,1230.9,90.2,1229.8,90.3,1228.7z M89.9,1237.9L89.9,1237.9c52.3-1.9,139.1-4.7,213.7-7
	C229,1233.3,142.2,1236.1,89.9,1237.9z M317.9,1230.5c2.3-0.1,4.5-0.1,6.8-0.2C322.5,1230.3,320.2,1230.4,317.9,1230.5z
	 M303.8,1230.9c4.7-0.1,9.3-0.3,13.9-0.4C313.1,1230.6,308.5,1230.8,303.8,1230.9z M334.9,1229.9c-2.2,0.1-4.4,0.1-6.6,0.2
	C330.5,1230.1,332.7,1230,334.9,1229.9c2.2-0.1,4.4-0.1,6.6-0.2c2.2-0.1,4.3-0.1,6.4-0.2c-2.1,0.1-4.3,0.1-6.4,0.2
	C339.3,1229.8,337.1,1229.9,334.9,1229.9z M354.4,1229.3c3.2-0.1,6.3-0.2,9.3-0.3C360.6,1229.1,357.5,1229.2,354.4,1229.3z
	 M444,1362.3c0,0,2.1-38.1,2.4-78.7C446.1,1324.2,444,1362.3,444,1362.3c-38.5,0.8-87.4,1.6-131.2,2.3
	C356.6,1363.9,405.5,1363.1,444,1362.3z M303.3,1364.7c-8,0.1-15.7,0.2-23.2,0.3C287.6,1364.9,295.4,1364.8,303.3,1364.7z
	 M271.6,1365.2c-1.5,0-2.9,0-4.4,0.1C268.6,1365.2,270.1,1365.2,271.6,1365.2z M259.1,1365.3c0,0-0.1,0-0.1,0
	C259,1365.3,259.1,1365.3,259.1,1365.3z M251.3,1365.4c-1.3,0-2.6,0-3.8,0.1C248.7,1365.5,250,1365.5,251.3,1365.4z M237.1,1365.6
	C237.1,1365.6,237,1365.6,237.1,1365.6C237,1365.6,237.1,1365.6,237.1,1365.6z M209.5,1366C209.5,1366,209.5,1366,209.5,1366
	C209.5,1366,209.5,1366,209.5,1366z M202.8,1366.1L202.8,1366.1c-0.4,0.8-0.9,1.7-1.3,2.5C202,1367.8,202.4,1366.9,202.8,1366.1z
	 M197.8,1375.8c-0.2,0.5-0.5,0.9-0.7,1.4C197.3,1376.8,197.5,1376.3,197.8,1375.8z M200.6,1370.4c-0.5,1-1.1,2.1-1.6,3.1
	C199.5,1372.4,200.1,1371.4,200.6,1370.4z M195.6,1380c-0.7,1.4-1.5,2.8-2.2,4.2C194.2,1382.8,194.9,1381.4,195.6,1380z
	 M189.9,1391.2c-0.3,0.6-0.6,1.1-0.9,1.7C189.3,1392.3,189.6,1391.8,189.9,1391.2z M163,1445.8L163,1445.8l685.4,11.4l0,0
	L163,1445.8z M815.5,1400.3c-0.9-1.6-1.7-3.1-2.6-4.7C813.8,1397.2,814.6,1398.7,815.5,1400.3z M810.5,1391.3
	c-0.8-1.4-1.5-2.7-2.2-4C809.1,1388.6,809.8,1389.9,810.5,1391.3z M805.7,1382.5c0.4,0.7,0.8,1.5,1.3,2.3
	C806.6,1384,806.1,1383.2,805.7,1382.5c-0.4-0.7-0.8-1.5-1.2-2.2C805,1381,805.3,1381.7,805.7,1382.5z M801.7,1374.9
	c0.7,1.2,1.4,2.7,2.3,4.4C803.2,1377.6,802.4,1376.2,801.7,1374.9c-1.7-3.2-2.7-5-2.7-5l-124.4-1.9l124.4,1.9
	C799.1,1369.9,800,1371.7,801.7,1374.9z M848,1230.9c1.9,0.1,3.7,0.1,5.6,0.2C851.8,1231.1,849.9,1231,848,1230.9z M833.6,1230.5
	c0.1,0,0.1,0,0.2,0C833.7,1230.5,833.7,1230.5,833.6,1230.5z M873.6,1231.7c0,0,0.1,0,0.1,0C873.7,1231.7,873.7,1231.7,873.6,1231.7
	z M878.2,1231.9c2.3,0.1,4.5,0.1,6.6,0.2C882.6,1232,880.4,1231.9,878.2,1231.9z M907.9,1232.8c-0.4,0-0.9,0-1.3,0
	C907,1232.8,907.5,1232.8,907.9,1232.8c7,0.2,10.8,0.4,10.8,0.4l0,0C918.7,1233.2,914.9,1233,907.9,1232.8z M894.2,1232.4
	c0,0,0.1,0,0.1,0C894.3,1232.4,894.3,1232.4,894.2,1232.4z M897.7,1232.5c0,0,0.1,0,0.1,0C897.8,1232.5,897.7,1232.5,897.7,1232.5z
	 M900.9,1232.6c1.1,0,2.1,0.1,3.1,0.1C903,1232.7,902,1232.6,900.9,1232.6z M925.6,1098.5c0.4-5.7,0.8-11.5,1.2-17.3
	C926.4,1087,926,1092.7,925.6,1098.5z M928.2,1063.2c0.3-3.8,0.6-7.6,0.9-11.4c0.3-3.8,0.6-7.6,0.9-11.5c-0.3,3.8-0.6,7.7-0.9,11.5
	C928.7,1055.6,928.4,1059.4,928.2,1063.2z M932.8,1003.7c-0.5,6.1-1,12.1-1.5,18.1c-0.3,4-0.6,8-1,12c0.3-4,0.6-8,1-12
	C931.8,1015.8,932.3,1009.8,932.8,1003.7c14.1-171.5,33.3-351.6,33.3-351.6c-0.1,0-0.3,0-0.4,0c0.1,0,0.3,0,0.4,0
	C966.1,652.2,946.9,832.2,932.8,1003.7z M946.8,653c0.1,0,0.2,0,0.3,0C947,653,946.9,653,946.8,653z"/>
<path class="st1" d="M455.4,133.8c-30.4-24.7-28.5-72.2-39.9-75.9c-11.4-3.8-65.8,69.6-41.5,104.1S455.4,133.8,455.4,133.8z"/>
<path class="st1" d="M586.4,137.6c30.4-24.7,13.3-72.2,30.2-79.7c11-4.9,62.9,60.8,41.5,104.1C639.3,199.8,586.4,137.6,586.4,137.6z
	"/>
<path class="st1" d="M153.5,775.6c7.6,85.4,7.6,370.3,7.6,370.3c113.9-7.6,579.1-19,662.7-11.4c4.7-105.4,39.9-402.5,39.9-402.5
	C717.4,731.9,284.5,771.8,153.5,775.6z"/>
<path class="st2" d="M316.3,679.6c-20.6,11.6-89.9,40.4-95.4,53.3c-11.4,26.6-52.6,20-57-1.9c-6.7-33.3-32.4-23.6-51.3-55.1
	c-5.7-9.5-9.7-20.4-11.4-34.2c-15.2,0-26.6-19-20.9-32.3c7.1-16.6,26.6-11.4,39.9-7.6c-7.6-11.4-15.5-26.3-1.9-38
	c13.3-11.4,32.3,5.7,36.1,24.7c0-19,12.3-44.8,32.3-28.5c20.9,17.1-1.9,102.5,18.7,115c15.3,9.3,55.5-6.7,64.3-33.3
	C278.6,615.2,351.8,659.6,316.3,679.6z"/>
<path class="st2" d="M683.5,656.6c17.4,16,78.3,59.9,80.7,73.7c5,28.5,46.6,31.5,55.9,11.2c14.1-30.9,36.9-15.5,62.5-41.9
	c7.7-7.9,14.1-17.6,18.9-30.7c14.8,3.5,30.2-12.4,27.7-26.6c-3.1-17.7-23.3-17.2-37.1-16.5c10-9.4,21.1-22.1,10.5-36.5
	c-10.3-14.1-32.7-1.8-40.8,15.8c4.3-18.5-1.7-46.5-24.9-35.1c-24.2,11.9-21.6,100.2-44.5,107.7c-17,5.5-52.5-19.2-55-47.1
	S653.5,629,683.5,656.6z"/>
<path class="st0" d="M664.1,857.4c-0.4-2.2-2.4-3.7-4.6-3.4l-50.7,8.1c-1.2,0.2-2.3,0.9-2.9,2c-0.4,0.7-40.4,71.1-55.1,87.3
	c-8.4,0.3-48.4,1.2-105.3-4.1c-0.1,0-0.3,0-0.4,0c-3.5,0-6.2,3-26,29.1c-10.8,14.3-24.1,31.8-31.7,39.2c-11.2-5.5-55.3-37-83.5-59.1
	l-20.5-24.2l25.5-68.8c0.3-0.7,0.3-1.5,0.2-2.2l-5.6-28.2l30.8-28.9c1.6-1.5,1.7-4.1,0.2-5.7c-1.5-1.6-4.1-1.7-5.7-0.2l-32.5,30.4
	c-1,1-1.5,2.4-1.2,3.8l5.9,29.3l-26,69.9c-0.5,1.4-0.2,2.9,0.7,4l20.4,24.2c-3.9,6.6-14.6,25.8-26.2,53.8
	c-8,19.3-33.1,29.6-59.7,40.4c-18.2,7.4-36.9,15-52.5,26.2c-1.8,1.3-2.2,3.8-0.9,5.7c0.8,1.1,2,1.7,3.3,1.7c0.8,0,1.6-0.2,2.4-0.8
	c14.8-10.6,33.1-18.1,50.8-25.2c28.2-11.5,54.9-22.3,64.2-44.8c10.4-25.4,20.4-43.7,24.8-51.3c26.2,20.4,75.7,56.4,85.1,58.7
	c1.3,0.3,2.6,0,3.6-0.9c7.8-6.7,22-25.5,34.6-42.1c7.8-10.2,17.3-22.8,20.5-25.8c63.7,5.9,106.3,4,106.7,3.9c1,0,2-0.5,2.7-1.2
	c13.4-13.4,49.9-76.9,56.5-88.4l48.8-7.8C663,861.7,664.5,859.6,664.1,857.4z"/>
<path class="st3" d="M553.3,119.7C364.6,88.6,315,248.7,265.1,327c-58,91.2-74.6,157.5-56,172.1c18.7,14.5,49.8-12.4,49.8-12.4
	c-10.4,58-51.8,132.7-24.9,159.6c19.9,19.9,43.5-2.1,43.5-2.1c0,47.7,95.8,77.1,223.1,71.7s206-38.6,212.3-73.8
	c8.3,16.6,37.3,35.2,51.8,14.5c19.5-27.9-14.5-78.8-14.5-101.6c16.6,20.7,41.3,32.5,51.8,14.5c14.5-24.9-10.8-65.9-35.2-128.5
	C733.6,356,759,153.6,553.3,119.7z"/>
<path class="st4" d="M661,135.3c48.3-2.6,88.5,54.7,91.2,94.6s-16.2,74.5-66.1,89.8s-108.3-27.6-110-75.2S598.3,138.8,661,135.3z"/>
<path class="st4" d="M371,138.6c47.6-1.7,90.6,52.7,82.4,103.5c-6.2,38.7-32.4,74.1-82.8,83.4c-65.6,12.1-103.7-44-94.9-89.9
	C284.7,189.3,317.3,140.5,371,138.6z"/>
<path class="st5" d="M549.5,504.4c9.4-15.4,62.7-26.4,61.4-46.2c-1.8-28-81.3-14.2-107.7,2.3c-44.5,27.7-36.5,54.2-89,73.5
	c42.3,7.2,91.9,10.3,137.6,7C546.9,526.3,545,511.8,549.5,504.4z"/>
<path class="st1" d="M379.9,214.4c-6,28.1-31.7,35-50.5,28.3c-18.8-6.7-28.2-28.3-17.4-52.6c8-18.2,28.7-32.1,47.4-25.4
	C378.1,171.4,384,194.9,379.9,214.4z"/>
<path class="st1" d="M656.2,216.3c6,28.1,31.7,35,50.5,28.3c18.8-6.7,28.2-28.3,17.4-52.6c-8-18.2-28.7-32.1-47.4-25.4
	C657.9,173.3,652,196.8,656.2,216.3z"/>
<path class="st1" d="M648.3,340.3c-1.2,6.5-3.5,11.9-6.9,15.7c-32.3,36.1-85.7,6-117.7,11.4c-42.9,7.1-117.7,37.8-134.3-12.4
	c-58,32-99.1,83-78.4,135.8c7.1,18.1,49.2,34.1,103.1,43.3c52.5-19.3,44.5-45.8,89-73.5c26.4-16.5,106-30.3,107.7-2.3
	c1.3,19.8-52,30.8-61.4,46.2c-4.5,7.3-2.7,21.9,2.3,36.6c66.8-4.8,125.4-23.1,140.9-61.7C728.5,390.7,681.7,357.2,648.3,340.3z"/>
<g>
	<path class="st0" d="M350.9,445.2c7.6,0,53.2-15.2,55.1-24.7c1.3-6.6-16.4-39.5-27.5-59.1c-16.8,10.4-31.8,22.4-43.7,35.5
		C338.6,421,345.3,445.2,350.9,445.2z"/>
	<path class="st0" d="M630.1,401.5c5.7,3.8,41.8,9.5,45.6,5.7c2.4-2.4,9.9-19.4,13.8-35.2c-11.6-15.1-27.5-24.9-41.1-31.8
		c-1.2,6.5-3.5,11.9-6.9,15.7c-3.3,3.7-6.9,6.7-10.6,9.1C628.1,380.6,625.9,398.7,630.1,401.5z"/>
	<path class="st0" d="M550.3,401.5c5.7,1.9,38,11.4,45.6,5.7c4.4-3.3,5.6-19.9,5.9-33.3c-17.2,0.9-35.4-3.3-51.7-5.6
		C548.3,382.2,546.8,400.4,550.3,401.5z"/>
	<path class="st0" d="M468.7,418.6c7.6,3.8,45.6,0,53.2-3.8c5-2.5,4.2-29.4,3.2-47.6c-0.4,0.1-0.8,0.1-1.3,0.2
		c-18.2,3-42.1,10.3-64.9,13.8C461.1,397.7,463.6,416.1,468.7,418.6z"/>
</g>
<path class="st2" d="M512.3,230.6c-71.1,12.2-133.1,61.2-125.3,113.9c9.5,64.6,91.1,30.4,136.7,22.8c32.1-5.3,85.4,24.7,117.7-11.4
	C666.4,328.1,633.9,209.8,512.3,230.6z"/>
<path class="st1" d="M444,316.1c-3.3,11.7,39.9,34.2,49.4,28.5C502.8,338.9,451.6,289.5,444,316.1z"/>
<path class="st1" d="M591.5,297c10.8,8.5-21,47.1-31.3,41.8C550,333.6,578.8,287,591.5,297z"/>
<path class="st2" d="M373.7,621.8c-5.7,34.2,81.6,104.4,67.4,137.7c-11.1,25.9-56,12.3-69.3,2.8c-13.3-9.5-57-87.3-53.2-125.3
	c15.2-13.3,32.3-32.3,34.2-41.8C360.4,614.2,373.7,621.8,373.7,621.8z"/>
<path class="st2" d="M615.3,625.6c4.4,44.6-83,109.2-63.6,137.7c15.9,23.3,60.4,7.6,73.7-1.9s48.8-82.6,45-120.6
	c-12.7-8.5-16.5-25.6-18.4-35.1C644.3,624.6,615.3,625.6,615.3,625.6z"/>
<g>
	<path class="st2" d="M516.2,976.7c-15.1-0.5-33.6-1.5-54.7-3.4c-2.3,2.1-7.9,9.4-13.6,16.8h68.2L516.2,976.7z"/>
	<path class="st2" d="M427.6,935.9c0.1,0,0.2,0,0.3,0c21.4,2,40.1,3,55.2,3.5l0.1-15.2H402c-8.7,0-17.5-3.3-22.8-8.8
		c-3.9-3.7-6-8.9-6-14.2c0.1-12.7,12.1-22.2,28.1-22.7v-36.4h-0.6c-37.8,0-67.6,25.7-67.9,58.6c-0.1,14.5,5.6,27.8,16.4,38.7
		c12.9,13,31.9,20.7,51,20.7h5.5C422.2,938.4,424.5,935.9,427.6,935.9z"/>
	<path class="st2" d="M570.3,990.2c8.7,0,17.2,3.3,22.5,8.7c3.8,3.7,5.9,8.7,5.9,14c-0.1,12.5-12.2,22-28.4,22.5v35.9
		c37-0.4,66.2-25.8,66.4-58.2c0.1-14.5-5.6-27.7-16.2-38.5c-11.3-11.4-27.5-19.1-44.2-20.2c-3.6-0.2-6,0.5-6,0.5L570.3,990.2z"/>
	<path class="st5" d="M523.1,976.9v57.9h-9.3c-17.7,0-32.6-10.2-32.6-22.5c0-2.1-0.1-10.3-0.1-15.1l-39.9-0.5l0.1,16.5
		c0,15.5,8,30.3,21.9,41.5c13.9,11.2,32.5,17.6,51,17.6h9.2v35.2h39.8V976.7L523.1,976.9z"/>
	<path class="st5" d="M530.4,939.8l-0.2-39.2c-0.1-32.3-32.5-58.5-72.2-58.5H448v-41.9h-39.8v117H448v-37.4h9.5
		c17.6,0,32.5,10.2,32.6,22.5v37.3L530.4,939.8z"/>
</g>
<path class="st6" d="M926.3,416.7c173.7-2.8,276.3-57.9,276.3-57.9l-24.7-214.6c146.2-15.2,1100.3-75,1100.3-75l-2.8,741.5
	l-1003.5-57.9l-36.1-199.4C1132.3,548.7,1012.7,493.6,926.3,416.7z"/>
<polygon class="st7" points="1405.1,218.7 1303.2,229.2 1306.7,471.8 1468.4,436.6 1440.3,675.7 1517.6,668.7 1549.3,218.7 
	1500,222.2 1475.4,387.4 1366.5,412 "/>
<polygon class="st7" points="1865.2,220.2 1796.8,231.6 1812,510.7 1957.4,456 1918.7,675.7 1985.5,668.7 2057.6,238 1985.5,215.1 
	1964.4,387.4 1878.2,412 "/>
<path class="st7" d="M1742.9,232.7l-140.6-14.1l-35.2,453.5l193.4,24.6L1742.9,232.7z M1630.4,566.7l14.1-284.8l45.7,24.6l3.5,270.7
	L1630.4,566.7z"/>
<polygon class="st7" points="2058.9,543 2113.9,195.5 2203.2,254.4 2121.5,573.4 "/>
<polygon class="st7" points="2051.3,571.5 2030.4,668.3 2104.4,698.7 2113.9,601.8 "/>
</svg>
