<?xml version="1.0" encoding="utf-8"?>
<!-- Generator: Adobe Illustrator 22.0.1, SVG Export Plug-In . SVG Version: 6.00 Build 0)  -->
<svg version="1.1" id="Layer_1" xmlns="http://www.w3.org/2000/svg" xmlns:xlink="http://www.w3.org/1999/xlink" x="0px" y="0px"
	 viewBox="0 0 576 144" style="enable-background:new 0 0 576 144;" xml:space="preserve">
<style type="text/css">
	.st0{fill:#00BABC;}
	.st1{fill:#C2C4C6;}
</style>
<g>
	<g>
		<path class="st0" d="M249.5,94.4h-16.4l30.5-75.1h13.3l29.7,75.1H290l-5.5-14.7h-29.6L249.5,94.4z M269.5,37.1l-10.7,30.5h21.6
			L269.5,37.1z"/>
		<path class="st0" d="M311.8,38.6h12.6v7.3c2.4-5,7-8.9,15.4-9v13.4h-0.6c-9.3,0-14.1,4.4-14.1,14v30.1h-13.3V38.6z"/>
		<path class="st0" d="M345,19.2h13.3v11.9H345V19.2z M345,38.6h13.3v55.7H345V38.6z"/>
		<path class="st0" d="M377.6,70.9c0.6,8.9,8.5,13.9,16.1,13.8c6.5,0,10.9-2.9,13.4-7.5h13.7c-2.6,6.2-6.6,10.9-11.3,14
			c-4.7,3.2-10.2,4.9-15.9,4.9c-17.2,0-29.4-13.9-29.4-29.4c0-15.8,12.4-29.7,29.2-29.7c8.3,0,15.6,3.1,20.8,8.5
			c6.8,7,9.3,15.7,8.2,25.5H377.6z M409.4,60.8c-0.5-5.3-6.1-12.7-15.8-12.6c-9.8,0-15.2,7.1-15.7,12.6H409.4z"/>
		<path class="st0" d="M453.3,53.7c-0.1-2.9-1.6-6-6.8-6c-4.5,0-6.6,2.8-6.6,5.6c0.1,3.6,4.2,5.5,9.4,7c8.9,2.4,18.6,5.1,18.7,17.1
			c0.2,11.5-9.4,18.8-21.1,18.8c-8.6,0-20.3-4.5-21.3-18h13.3c0.5,6,5.7,7.2,8.2,7.2c4.2,0,7.7-2.7,7.6-6.5c0-4.8-4.2-6.1-14.4-9.6
			c-7.5-2.3-13.6-6.5-13.7-14.5c0-11,9.2-17.8,20-17.8c7.5,0,18.7,3.4,19.8,16.8H453.3z"/>
	</g>
	<g>
		<path class="st1" d="M232.9,105.7h5.6c2.7,0,5.5,0.6,7.4,2.8c1.5,1.7,2.3,3.9,2.3,6.5c0,5.7-3.2,9.4-9.5,9.4h-5.7V105.7z
			 M235,122.7h3.7c4.8,0,7.3-3,7.3-7.5c0-2.2-0.6-4.1-1.8-5.5c-1.2-1.3-2.9-2.1-5.5-2.1H235V122.7z"/>
		<path class="st1" d="M251.8,115.2c0-5.8,4.5-9.8,9.8-9.8c5.5,0,9.8,4.2,9.8,9.7c0,5.5-4.3,9.7-9.8,9.7
			C256,124.9,251.8,120.6,251.8,115.2L251.8,115.2z M253.9,115.1c0,4.4,3.3,7.9,7.7,7.9c4.4,0,7.7-3.6,7.7-7.9
			c0-4.3-3.2-7.9-7.7-7.9C257.2,107.3,253.9,110.8,253.9,115.1L253.9,115.1z"/>
		<path class="st1" d="M291.3,110.6c-0.6-0.8-1.3-1.5-2.1-2c-1.2-0.8-2.7-1.3-4.4-1.3c-4.1,0-7.7,3.1-7.7,7.8c0,4.8,3.6,7.9,7.7,7.9
			c2,0,3.7-0.7,5-1.7c1.3-1,2.2-2.5,2.5-3.9h-9.3v-1.7h11.8c0,1.1-0.3,2.5-0.8,3.6c-1.6,3.5-5.4,5.6-9.2,5.6c-5.5,0-9.8-4.2-9.8-9.8
			c0-5.6,4.4-9.7,9.8-9.7c3.8,0,7.3,2.1,8.8,5.2H291.3z"/>
		<path class="st1" d="M323.5,110.6c-0.6-0.8-1.3-1.5-2.1-2c-1.2-0.8-2.7-1.3-4.4-1.3c-4.1,0-7.7,3.1-7.7,7.8c0,4.8,3.6,7.9,7.7,7.9
			c2,0,3.7-0.7,5-1.7c1.3-1,2.2-2.5,2.5-3.9h-9.3v-1.7H327c0,1.1-0.3,2.5-0.8,3.6c-1.6,3.5-5.4,5.6-9.2,5.6c-5.5,0-9.8-4.2-9.8-9.8
			c0-5.6,4.4-9.7,9.8-9.7c3.8,0,7.3,2.1,8.8,5.2H323.5z"/>
		<path class="st1" d="M331.2,105.7h4.9c2.9,0,4.3,0.4,5.3,1c1.5,0.9,2.6,2.9,2.6,5.1c0,1.3-0.3,2.6-1.1,3.7
			c-1.1,1.5-2.5,1.9-4.2,2.1l4.7,7H341l-5.3-8.2h0.6c1.3,0,3.1,0,4.2-1c1-1,1.4-2.1,1.4-3.5c0-1.4-0.7-2.9-1.9-3.6
			c-0.9-0.6-2.1-0.7-3.8-0.7h-2.9v16.9h-2.1V105.7z"/>
		<path class="st1" d="M347.1,115.2c0-5.8,4.5-9.8,9.8-9.8c5.5,0,9.8,4.2,9.8,9.7c0,5.5-4.3,9.7-9.8,9.7
			C351.4,124.9,347.1,120.6,347.1,115.2L347.1,115.2z M349.2,115.1c0,4.4,3.3,7.9,7.7,7.9c4.4,0,7.7-3.6,7.7-7.9
			c0-4.3-3.2-7.9-7.7-7.9C352.5,107.3,349.2,110.8,349.2,115.1L349.2,115.1z"/>
		<path class="st1" d="M370.4,115.2c0-5.8,4.5-9.8,9.8-9.8c5.5,0,9.8,4.2,9.8,9.7c0,5.5-4.3,9.7-9.8,9.7
			C374.6,124.9,370.4,120.6,370.4,115.2L370.4,115.2z M372.5,115.1c0,4.4,3.3,7.9,7.7,7.9c4.4,0,7.7-3.6,7.7-7.9
			c0-4.3-3.2-7.9-7.7-7.9C375.7,107.3,372.5,110.8,372.5,115.1L372.5,115.1z"/>
		<path class="st1" d="M394.4,124.5v-18.8h2.9l7,15.8l6.9-15.8h2.9v18.8h-2l0.1-16.7l-7.3,16.7h-1.3l-7.3-16.7l0.1,16.7H394.4z"/>
		<path class="st1" d="M419.4,105.7h2.1v18.8h-2.1V105.7z"/>
		<path class="st1" d="M439.9,121.4l0-15.7h2v18.8h-2l-11.1-15.8l0.1,15.8h-2v-18.8h2.1L439.9,121.4z"/>
		<path class="st1" d="M462.7,110.6c-0.6-0.8-1.3-1.5-2.1-2c-1.2-0.8-2.7-1.3-4.4-1.3c-4.1,0-7.7,3.1-7.7,7.8c0,4.8,3.6,7.9,7.7,7.9
			c2,0,3.7-0.7,5-1.7c1.3-1,2.2-2.5,2.5-3.9h-9.3v-1.7h11.8c0,1.1-0.3,2.5-0.8,3.6c-1.6,3.5-5.4,5.6-9.2,5.6c-5.5,0-9.8-4.2-9.8-9.8
			c0-5.6,4.4-9.7,9.8-9.7c3.8,0,7.3,2.1,8.8,5.2H462.7z"/>
	</g>
	<g>
		<path class="st0" d="M201.9,101.1c0-7.4-6-13.4-13.4-13.4c-0.7,0-1.5,0.1-2.2,0.2c-0.9-1.3-2-2.5-3.1-3.6c-0.4-3.5-0.6-8.4,1.2-10
			c3.8-3.5,15.4-2.1,20.7-3.4c4.4-1,10.7-12.4,6.9-17.6c-1.6-2.2-13.3-2.7-15.1-5.1c-1.7-2.2-2.7-6.7-6.1-9.3c-0.6-8,2.2-17.4-1-18
			c-2.7-0.5-8.8,5.6-11.3,13c-2.1,0-4.5-0.2-7.3-0.2c-2-4.9,0.5-14.3-2.4-14.4c-6.4-0.2-13,14.7-17.8,33.6c-1.7-2.6-3.9-4.8-6.4-6.6
			c0.1-0.7,0.2-1.4,0.2-2.1c0-7.4-6-13.4-13.4-13.4c-7.4,0-13.4,6-13.4,13.4c0,0.7,0.1,1.4,0.2,2.1C112,50.4,108,57.4,108,65.4
			c0,4.9,1.5,9.5,4.1,13.3c-2.6,4.5-4.1,9.7-4.1,15.3c0,16.8,13.7,30.5,30.5,30.5c5.6,0,10.8-1.5,15.3-4.1c3.8,2.6,8.3,4.1,13.3,4.1
			c8,0,15.1-4.1,19.3-10.2c0.7,0.1,1.4,0.2,2.1,0.2C195.9,114.5,201.9,108.4,201.9,101.1z M165.1,94c0,8.9-4.4,16.7-11.1,21.6
			c-3.9-3.6-6.4-8.7-6.4-14.4c0-9.1,6.3-16.8,14.7-18.9C164.1,85.8,165.1,89.8,165.1,94z M121.9,44c0-5.2,4.2-9.4,9.4-9.4
			c5.2,0,9.4,4.2,9.4,9.4c0,0,0,0,0,0c-2.9-1.3-6.1-2-9.4-2S124.8,42.8,121.9,44C121.9,44,121.9,44,121.9,44z M140,48
			c-1.5,3.2-4.8,5.5-8.6,5.5c-3.8,0-7.1-2.3-8.6-5.5c2.6-1.3,5.5-2,8.6-2C134.5,46,137.4,46.7,140,48z M111.9,65.4
			c0-6.2,2.9-11.8,7.5-15.3c2.2,4.3,6.7,7.3,11.9,7.3c5.2,0,9.7-3,11.9-7.3c4.6,3.6,7.5,9.1,7.5,15.3c0,0.2,0,0.4,0,0.6
			c-3.8-1.7-7.9-2.6-12.3-2.6c-9.7,0-18.4,4.6-24,11.7C112.9,72.3,111.9,69,111.9,65.4z M150.3,70.1c-2.1,8.5-9.8,14.7-18.9,14.7
			c-5.7,0-10.9-2.5-14.4-6.4c4.8-6.7,12.7-11.1,21.6-11.1C142.7,67.4,146.7,68.4,150.3,70.1z M138.5,120.6
			c-14.7,0-26.6-11.9-26.6-26.6c0-4.3,1-8.4,2.9-12c4.2,4.2,10.1,6.9,16.5,6.9c10.5,0,19.5-7,22.4-16.6c2.5,1.8,4.7,4,6.5,6.5
			c-9.6,2.9-16.6,11.8-16.6,22.4c0,6.5,2.6,12.3,6.9,16.5C147,119.5,142.9,120.6,138.5,120.6z M167.1,120.6c-3.5,0-6.8-1-9.7-2.6
			c7.1-5.6,11.7-14.3,11.7-24c0-4.4-0.9-8.5-2.6-12.3c0.2,0,0.4,0,0.6,0c6.2,0,11.7,2.9,15.3,7.5c-4.3,2.2-7.3,6.7-7.3,11.9
			c0,5.2,3,9.7,7.4,12C178.9,117.6,173.3,120.6,167.1,120.6z M186.5,101.1c0,3.1-0.7,5.9-2,8.5c-3.2-1.5-5.5-4.8-5.5-8.6
			c0-3.8,2.2-7,5.5-8.6C185.8,95.1,186.5,98,186.5,101.1z M188.4,91.6C188.5,91.6,188.5,91.6,188.4,91.6c5.3,0,9.5,4.2,9.5,9.4
			c0,5.2-4.2,9.4-9.4,9.4c1.3-2.9,2-6,2-9.4C190.5,97.7,189.7,94.5,188.4,91.6z"/>
		<path class="st0" d="M115.7,34.6c4.2,0,7.7-3.4,7.7-7.7s-3.4-7.7-7.7-7.7s-7.7,3.4-7.7,7.7S111.4,34.6,115.7,34.6z M115.7,22.8
			c2.3,0,4.1,1.9,4.1,4.1c0,2.3-1.9,4.1-4.1,4.1c-2.3,0-4.1-1.9-4.1-4.1C111.5,24.6,113.4,22.8,115.7,22.8z"/>
		<path class="st0" d="M205.6,109.2c-4.2,0-7.7,3.4-7.7,7.7c0,4.2,3.4,7.7,7.7,7.7s7.7-3.4,7.7-7.7
			C213.3,112.6,209.9,109.2,205.6,109.2z M205.6,120.9c-2.3,0-4.1-1.8-4.1-4.1c0-2.3,1.8-4.1,4.1-4.1c2.3,0,4.1,1.8,4.1,4.1
			C209.7,119.1,207.9,120.9,205.6,120.9z"/>
	</g>
</g>
</svg>
