<svg xmlns="http://www.w3.org/2000/svg" width="100%" height="100%" viewBox="0 0 490 408.6"><title>speech-bubbles</title><g id="bubble-top"><path d="M417.6,84.2C391.1,30.3,326.2-3.3,260.4,5.7,202.7,13.5,89.4-5.2,46.6,22.4,21.4,38.6-11.8,178.8,45.2,197.1c92.1,29.6,133.6,17.8,170.3,19.9,39.2,2.3,76.4-.8,94.8-11.6,12.1,16.7,62.1,25.7,76.1,54.7,11.1,22.9,13,54,31,76s62,40.6,65.7,53.5c-1.6-18.6-39.7-42.5-54.7-62.5s-12-60-24-80-54.3-53.5-54.3-53.5C379.8,181.9,443.7,137.2,417.6,84.2Z" fill="#ffc78b"/><path d="M485.9,390.5c-8.3-15.4-14.3-10-19.6-26.7-6.6-21.1-22.2-31.6-32.1-51.4-19.3-38.4-44.2-77-69-112.5a1,1,0,0,1,.6-1.5c5.1-1.2,10.2-2.8,15-4.3,10.6-3.1,21.5-7.4,28.6-15.9,14.5-17.4,26.1-92.3,16.1-112.1-4.6-9-13.7-14.8-22.8-19.3C383,37,379.6,24.1,358.2,19.4c-43-9.5-86.8-14.1-130.7-17.8-46.5-3.9-89.2.4-136,.9-7.8.1-15.9.3-23.3,2.9C57.5,9.1,49.1,17.4,41.8,26,9.7,64.5-5.2,116.7,1.6,166.3c1.5,10.3,4,21,11,28.6,10.7,11.7,28.3,13.2,44.1,13.5,13.7.2,27.3.1,41-.3s28.4.6,42.1-.5,30.4-.4,44-2c17-2,86-3.3,90.7-4,2.2-.4,9-2.1,8.3-4s-4-3-7.8-2.7c-6.2.5-44.2,1.7-60.2,1.7-55.1,0-130,18.7-177.7,3.3-5.9-1.9-11.8-4.4-16.2-8.7-6.9-6.9-9-17.2-10-26.9A189.5,189.5,0,0,1,52.5,26c4.6-5.5,9.7-11,16.2-14S83.4,8.7,90.9,8.6c63.7-.6,123.4-4.2,186.6,3.1,35.7,4.2,49.4,9.6,83.8,19.9,14.1,4.2,32.1,16.3,44.8,23.8,5,2.9,10,6.4,12.4,11.7s2.1,9.7,1.9,14.7a391.6,391.6,0,0,1-10.9,76.9c-1.6,6.5-3.5,13.2-8.1,18.1s-14.8,7.9-23.2,9.2c-6.8,1.1-13.6,2.2-20.4,3.5-2.1.4-5.6.1-7.2,1.6s-.7,13.3,1.7,15.7c6.6,6.7,13.5,13.2,20.3,19.8,25.8,25,42.6,61.4,58.1,93.8a174.1,174.1,0,0,0,17.4,28.7c5.7,7.6,12,15.5,16.4,24a1,1,0,0,1-1.3,1.4l-2.3-.9c-16-6.4-49.7-62-54.6-76.6-1.7-5.1-2.8-11.1-5.8-15.6-5.7-8.3-8.9-21.8-15.7-28.8S372.8,243,365,236s-24.1-13.5-33.4-20.5c-5-3.5-12.4-9-17.8-11.9-3.3-1.8-4.2-1.9-7.7-3.3-1.8-.8-5.1-1.8-7.4-1.4a2.9,2.9,0,0,0-2.6,2.4c-.4,3.3,5.3,5.9,7.7,7.3,7.2,4,13.9,4.4,20.6,9.4,4.3,3.2,10.1,5.5,14.4,8.6s11,6,17,10c17.3,11.5,27,23,38,43.7,2.3,4.5,6.9,19.7,9,24.3,5,11,9,15.3,14.3,24.5s15.9,20.7,22.2,30.8c14.4,23.4,29.8,24.1,45.2,46.9.6,1,1.7,2.1,2.8,1.8a2.2,2.2,0,0,0,1.2-1.1C491.9,402.5,488.8,395.8,485.9,390.5Z" fill="#fff"/></g></svg>
