<svg id="bubble-bottom" xmlns="http://www.w3.org/2000/svg" width="100%" height="100%" viewBox="0 0 542.9 343.8"><title>speech-bubbles</title><path d="M535.4,329.1c-1.3-12.9-15-25.1-25.3-32.3-28.9-20.3-68.6-22.7-101.8-32.5-57.3-16.8-116.5-3-174.6-6-12.7-.6-26.1-1-36.4-7.9-5.5-3.7-13.2-14.2-10.8-21.4,15.4-6.2,51.4-14.9,60.8-16.2,42.6-5.8,54.5-1.3,95.9-17.7,38.3-15.2,20.8-144.5-24-167-56.3-28.3-97-24.4-166-20C113.7,10.6,58.5-1.6,33.6,35.6c-32.2,39.2-15,116.6,11,155.1,12.9,19.2,31.4,33.8,53.6,40.6,15.2,4.7,18.4,1.5,32.7,1.3,4.4,9.5,14.6,35.5,40.3,41.5,62.4,14.6,126,2,192.8,3.3,42.8.8,87.5,8.1,127.7,23.2C507.8,306.7,520.9,314.8,535.4,329.1Z" fill="#ffc78b"/><path d="M524.3,327.1c-8.5-19.8-29.9-30.7-49.3-37.2-13-4.3-26.8-6.7-40.4-9a414.9,414.9,0,0,0-45.8-5.6c-51.6-3.4-157.1,13.3-229.6-15.6-6.2-2.5-11.2-7.3-15.5-12.4s-6.7-11.2-7.9-18.2c-.8-4.1-6.1-5.4-9.4-3.1H126c-20.5,3.2-40.6,9.8-60.7.6-31-14.3-52.7-60.6-54.8-93-1.3-20-.7-40.3,5-59.6,2.9-9.8,6.9-19.5,13.2-27.6,14.2-18,44.9-25.1,66.2-30.4A314.2,314.2,0,0,1,174,7.3c48,.6,95.6,10.9,141.4,25.4,8.2,2.7,16.7,5.6,23,11.5,11.3,10.7,12.5,27.7,12.2,43.5a1,1,0,0,0,1.9.5c6.5-14.1,1.8-32.1-8.6-44s-27.8-20.1-44.2-25.4C227.7-4.6,137.2-6.8,64.6,16c-11.7,3.7-24.5,6.7-34.4,14.2S14.7,46.8,10.2,57C1.5,77-1.1,99.7.4,121.3c.8,10.6,4,21.2,6.7,31.5a152.4,152.4,0,0,0,11,29.8A159.4,159.4,0,0,0,35.3,210c6.8,8.7,14.7,17.3,24.2,23s21.5,7.6,32.6,7.1c2.5-.1,26.1-4.6,31.4-7.2a1,1,0,0,1,1.4.6c2.6,10.6,10.4,20.2,18.7,26.8,10.7,8.4,42,15.4,55.1,18.3,29.6,6.5,42.4,6.3,72.7,6.4s61.3-3.2,92-2.2a587.4,587.4,0,0,1,91.7,10.1c25.1,4.8,55.6,9,68.1,34.7C523.5,328.2,524.6,327.8,524.3,327.1Z" fill="#fff"/><path d="M512.7,292.5c-4.8-6.2-12.4-10.8-19.3-14.3s-16.6-6.6-25-9.4A318,318,0,0,0,413.2,256c-38-5.1-76.4-4.8-114.6-2.6-21.4,1.2-42.5,5.6-63.8,8.1-.7.1-.4,1,.3,1,18.8-1.1,37.6-.5,56.4-1.3s37.6-2,56.4-1.9a495.3,495.3,0,0,1,59.6,3.6,454.3,454.3,0,0,1,59,11.1l8.5,2.3a56.3,56.3,0,0,1,7.7,3.1c5.4,2.3,11.1,4,16.5,6.4s8.5,4.8,12.7,7.5C512.5,293.7,513.2,293.1,512.7,292.5Z" fill="#fff"/><path d="M540.8,330.5a83.5,83.5,0,0,0-6.1-12.8c-4.6-8.1-10.9-14.4-18.3-20-.3-.3-.8.2-.5.5a77.8,77.8,0,0,1,15.5,20.9,59.5,59.5,0,0,1,4.7,12.1c.4,1.3.7,2.6,1,3.9a1,1,0,0,1-1.6,1l-.5-.4c-.6-.4-1.4.3-.9.9,1.7,2.3,4,4,5.6,6.4.6.8,2.5,1.3,2.8-.1C543.6,338.8,542.1,334.4,540.8,330.5Z" fill="#fff"/><path d="M355.6,135.4c-1.9.2-2.4,7.6-2.9,11.2-.7,5.4-3.2,8.8-6,13-6.6,9.8-10.2,15.2-18,23s-21.4,8.6-31,12.1c-24.2,8.7-49.7,0-74.4,6.5a225.2,225.2,0,0,0-41.1,15.1c-5.1,2.5-3.2,8.2.7,10.1a1.1,1.1,0,0,1,.6,1.1c-.8,6,1.1,12.8,3.3,17.9s17.3,12.7,24.1,12.5c.9,0-2.5-3.2-3.5-3.7-4.8-2.5-15.3-7.1-16.6-12.5s1-11.1.9-16.5a1.1,1.1,0,0,1,.6-1c22.2-11.4,47.9-4.1,72-9.9,14.6-3.6,29.1-7.4,43.2-12.7,12.3-4.7,24.3-6.3,33.2-17,5-6,10.7-13.4,14-21,1.8-4.2,2.5-9.2,2.8-13.8S357.7,135.2,355.6,135.4Z" fill="#fff"/></svg>
