<?xml version="1.0" encoding="utf-8"?>
<!-- Generator: Adobe Illustrator 22.0.1, SVG Export Plug-In . SVG Version: 6.00 Build 0)  -->
<svg version="1.1" id="Layer_1" xmlns="http://www.w3.org/2000/svg" xmlns:xlink="http://www.w3.org/1999/xlink" x="0px" y="0px"
	 viewBox="0 0 432 216" style="enable-background:new 0 0 432 216;" xml:space="preserve">
<style type="text/css">
	.st0{fill:#FFFFFF;}
	.st1{fill:#F26C57;}
	.st2{fill:#DE3554;}
</style>
<rect class="st0" width="432" height="216"/>
<g>
	<g>
		<path class="st1" d="M179.6,151.9c10.6-0.3,18.6-6.6,18.7-14.8c0-3.5-1.3-6.6-3.9-9.2c-3.5-3.5-9.2-5.7-14.8-5.8V98.3
			c12.4,0,24.7,5.1,33.1,13.5c7.1,7.1,10.8,15.9,10.7,25.4c-0.2,21.4-19.3,38.1-43.8,38.5V151.9z M89,122.1
			c-12.6,0-25.1-5.1-33.6-13.7c-7.1-7.2-10.9-16.1-10.8-25.6c0.2-21.7,19.8-38.7,44.8-38.7l0.4,0v24.1c-10.6,0.2-18.5,6.6-18.6,15
			c0,3.5,1.3,6.8,3.9,9.4c3.6,3.6,9.4,5.8,15.1,5.8c0.8,0,43.2,0,53.6,0l-0.1,23.7C133.3,122.1,90.4,122.1,89,122.1z"/>
		<path class="st2" d="M148.6,199.6l0-23.3l-6.1,0c-12.2,0-24.5-4.2-33.7-11.6c-9.3-7.5-14.5-17.2-14.5-27.4c0-2.2,0-7.5,0-10.6
			h26.4c0,3.2,0,8.6,0,10c0,8,9.9,14.8,21.5,14.8l6.2,0l0-2.3c0-41.3,0-62.7,0-65.4c0-8-9.9-14.8-21.5-14.8l-6.2,0
			c0,0,0,19.8,0,24.7H94.3V16.4l26.3,0l0,27.7l6.5,0c26.2,0,47.6,17.3,47.7,38.7l0,116.8L148.6,199.6z"/>
	</g>
	<g>
		<path class="st2" d="M209.2,80.9c-7,0-12.2-5.2-12.2-12.6c0-7.4,5.2-12.5,12.2-12.5c3,0,5.4,0.6,8,2.4v3.2
			c-2.3-1.8-5.1-2.6-7.6-2.6c-5.3,0-9.1,3.9-9.1,9.6c0,5.7,3.8,9.6,9.1,9.6c2.5,0,5.4-0.8,7.6-2.6v3.2
			C214.7,80.3,212.2,80.9,209.2,80.9z"/>
		<path class="st2" d="M258.2,66.1v14h-3.5V56.6h3.1l0.2,4.3c1.7-2.7,5.4-5.2,9.2-5.2v3.9C262.8,58.9,258.2,62,258.2,66.1z"/>
		<path class="st2" d="M273.4,48.7v-4.2h3.5v4.2H273.4z M273.4,80.1V56.6h3.5v23.5H273.4z"/>
		<path class="st2" d="M292.3,81c-4.2,0-7.5-1.9-8.4-2.4l0.7-2.9c1.8,1,4.6,2.3,7.8,2.3c3.2,0,5.4-1.2,5.4-4.2c0-2.2-1.8-3.2-6-4.3
			c-4.8-1.2-7.1-3.9-7.1-6.9c0-3.7,2.7-6.8,8.3-6.8c3.2,0,6.1,1.4,6.9,1.9l-0.7,2.8c-1.7-1-4.1-1.8-6.3-1.8c-3.5,0-5,1.4-5,3.6
			c0,2.2,1.7,3.2,5.1,4.1c5.2,1.2,8.1,3.8,8.1,7C301.2,78.1,297.6,81,292.3,81z"/>
		<path class="st2" d="M255.2,97.1c-3.9,0-7.6,2.3-9.2,5.2l0-36.1c0-6.5-2.8-10.4-8.8-10.4c-3.9,0-7.6,2.3-9.2,5.2V38.8h-3.5v41.3
			h3.5V67c0-4.1,4.2-8.1,8.3-8.1c3.9,0,6.3,2,6.3,7.6l0,54.9h3.5v-13.1c0-4.1,4.2-8.1,8.3-8.1c3.9,0,6.3,2,6.3,7.6v13.6h3.5v-14
			C264,101,261.2,97.1,255.2,97.1z"/>
		<path class="st2" d="M283.8,122.4c-7.4,0-12.7-5.8-12.7-12.7c0-7,5.4-12.7,12.7-12.7c7.4,0,12.7,5.7,12.7,12.7
			C296.6,116.7,291.3,122.4,283.8,122.4z M283.8,100.1c-5.2,0-9.2,3.9-9.2,9.6c0,5.6,4,9.7,9.2,9.7c5.3,0,9.2-4.1,9.2-9.7
			C293,104,289.1,100.1,283.8,100.1z"/>
		<path class="st2" d="M307.1,98v13.6c0,5.6,2.3,7.6,6.3,7.6c4.1,0,8.3-3.9,8.3-8.1V98h3.5v23.5h-3.1l-0.2-4.4
			c-1.7,3-5.5,5.3-9.4,5.3c-6,0-8.8-3.9-8.8-10.4V98H307.1z"/>
		<path class="st2" d="M344.4,135.2c-3.4,0-7.4-1.4-9.6-2.9v-3.2c3.1,1.9,6.1,3,10,3c4.3,0,8.8-2.4,8.8-10.2v-4.3
			c-1.9,3.2-5.8,4.7-9.2,4.7c-6.7,0-11.7-5.4-11.7-12.7c0-7.3,5-12.6,11.7-12.6c3.4,0,7.6,1.5,9.5,5.2L354,98h3v23.7
			C357,132.8,350,135.2,344.4,135.2z M344.9,100.1c-4.7,0-8.8,3.5-8.8,9.6c0,6.1,4.1,9.7,8.8,9.7c4.6,0,8.8-3.5,8.8-9.7
			C353.7,103.5,349.5,100.1,344.9,100.1z"/>
		<path class="st2" d="M383.9,121.5v-13.6c0-5.6-2.3-7.6-6.3-7.6c-4.1,0-8.3,3.9-8.3,8.1v13.1h-3.5V80.2h3.5v22.1
			c1.7-2.9,5.3-5.2,9.2-5.2c6,0,8.8,3.9,8.8,10.4v14H383.9z"/>
	</g>
</g>
</svg>
