<?xml version="1.0" encoding="utf-8"?>
<!-- Generator: Adobe Illustrator 22.0.1, SVG Export Plug-In . SVG Version: 6.00 Build 0)  -->
<svg version="1.1" id="Layer_1" xmlns="http://www.w3.org/2000/svg" xmlns:xlink="http://www.w3.org/1999/xlink" x="0px" y="0px"
	 viewBox="0 0 1500 1500" style="enable-background:new 0 0 1500 1500;" xml:space="preserve">
<style type="text/css">
	.st0{fill:#231F20;}
	.st1{fill:#FFFFFF;}
	.st2{fill:#DE3554;}
	.st3{fill:#F26C57;}
</style>
<g>
	<rect x="41" y="910" class="st0" width="711" height="500"/>
	<g>
		<path class="st1" d="M335.8,1143.5v40.6c9.7,0.1,19.4,3.9,25.3,9.9c4.3,4.4,6.6,9.8,6.6,15.7c-0.1,14.1-13.7,24.9-31.9,25.3v40.6
			c41.8-0.5,74.6-29.2,74.8-65.7c0.1-16.2-6.2-31.2-18.3-43.4C378.1,1152.1,357,1143.5,335.8,1143.5z"/>
		<path class="st1" d="M274.9,1143.6c-17.9,0-90.2-0.1-91.6-0.1c-9.8,0-19.7-3.8-25.8-9.9c-4.4-4.5-6.7-10-6.7-16.1
			c0.1-14.3,13.6-25.1,31.7-25.5v-41.1l-0.6,0c-42.6,0-76.2,29-76.5,66.1c-0.1,16.3,6.3,31.5,18.5,43.8
			c14.5,14.6,35.9,23.3,57.4,23.3c2.3,0,75.6,0,93.6,0.1L274.9,1143.6z"/>
		<path class="st1" d="M246.4,1050.9l-11.1,0l0-47.3l-45,0v132h45c0-8.3,0-42.1,0-42.1l10.6,0c19.9,0,36.7,11.6,36.8,25.3
			c0,4.7,0,41.2,0,111.7l0,4l-10.6,0c-19.9,0-36.7-11.6-36.8-25.3c0-2.4,0-11.7,0-17.1h-45c0,5.3,0,14.3,0,18.1
			c0,17.4,8.8,34,24.8,46.8c15.7,12.6,36.6,19.8,57.5,19.8l10.4,0l0,39.7l45,0l-0.1-199.5C327.7,1080.5,291.1,1050.9,246.4,1050.9z"
			/>
		<path class="st1" d="M386.5,1113.8c5.1,0,9.4-1.1,13.6-4v-5.5c-3.9,3.1-8.7,4.5-13,4.5c-9,0-15.5-6.7-15.5-16.4
			c0-9.8,6.5-16.3,15.5-16.3c4.3,0,9.2,1.4,13,4.5v-5.4c-4.3-3.1-8.6-4.1-13.6-4.1c-12,0-20.9,8.8-20.9,21.4
			C365.6,1104.9,374.5,1113.8,386.5,1113.8z"/>
		<path class="st1" d="M469.8,1079.6l-0.4-7.3h-5.3v40.1h6v-23.9c0-7.1,7.9-12.3,15.3-11.2v-6.6
			C479.1,1070.8,472.7,1075,469.8,1079.6z"/>
		<rect x="496" y="1051.5" class="st1" width="6" height="7.2"/>
		<rect x="496" y="1072.3" class="st1" width="6" height="40.1"/>
		<path class="st1" d="M529.7,1088.9c-5.8-1.5-8.7-3.3-8.7-7.1c0-3.6,2.5-6.1,8.5-6.1c3.6,0,7.8,1.4,10.7,3.1l1.2-4.8
			c-1.4-0.7-6.3-3.2-11.9-3.2c-9.5,0-14.1,5.3-14.1,11.6c0,5.2,3.9,9.8,12.1,11.9c7.2,1.9,10.2,3.6,10.2,7.4c0,5.1-3.8,7.2-9.2,7.2
			c-5.5,0-10.3-2.2-13.4-4l-1.2,4.9c1.5,0.9,7.2,4.1,14.3,4.1c9,0,15.2-4.9,15.2-13C543.4,1095.3,538.6,1091,529.7,1088.9z"/>
		<path class="st1" d="M464.9,1141.4c-6.7,0-12.9,3.9-15.7,8.8l0-61.7c0-11.2-4.8-17.7-15-17.7c-6.7,0-12.9,3.9-15.7,8.8v-37.7h-6
			v70.5h6v-22.4c0-7,7.2-13.7,14.1-13.7c6.7,0,10.7,3.4,10.7,13l0,93.8h6v-22.4c0-7,7.2-13.7,14.1-13.7c6.7,0,10.7,3.4,10.7,13v23.1
			h6v-23.9C480,1148,475.2,1141.4,464.9,1141.4z"/>
		<path class="st1" d="M513.8,1141.3c-12.6,0-21.7,9.8-21.7,21.6c0,11.9,9.2,21.7,21.7,21.7c12.7,0,21.7-9.9,21.7-21.7
			C535.6,1151.1,526.5,1141.3,513.8,1141.3z M513.8,1179.5c-8.9,0-15.7-6.9-15.7-16.6c0-9.8,6.8-16.5,15.7-16.5
			c9,0,15.7,6.7,15.7,16.5C529.6,1172.6,522.9,1179.5,513.8,1179.5z"/>
		<path class="st1" d="M578.4,1165.4c0,7-7.2,13.7-14.1,13.7c-6.7,0-10.7-3.4-10.7-13V1143h-6v23.9c0,11.2,4.8,17.7,15,17.7
			c6.7,0,13.3-4,16.1-9l0.4,7.5h5.3V1143h-6V1165.4z"/>
		<path class="st1" d="M633.3,1150.3c-3.2-6.2-10.3-8.8-16.2-8.8c-11.4,0-20,9-20,21.5c0,12.3,8.6,21.6,20,21.6
			c5.8,0,12.6-2.6,15.7-8v7.3c0,13.3-7.8,17.4-15,17.4c-6.7,0-11.8-1.9-17-5.2v5.4c3.9,2.6,10.6,4.9,16.5,4.9c9.6,0,21.6-4,21.6-23
			V1143h-5.2L633.3,1150.3z M618.2,1179.5c-8.1,0-15-6.1-15-16.6c0-10.5,6.9-16.5,15-16.5c7.9,0,15,5.8,15,16.5
			C633.2,1173.5,626,1179.5,618.2,1179.5z"/>
		<path class="st1" d="M675.6,1141.4c-6.7,0-12.9,3.9-15.7,8.8v-37.7h-6v70.5h6v-22.4c0-7,7.2-13.7,14.1-13.7
			c6.7,0,10.7,3.4,10.7,13v23.1h6v-23.9C690.7,1148,685.8,1141.4,675.6,1141.4z"/>
	</g>
</g>
<g>
	<g>
		<g>
			<path class="st0" d="M1040.8,1235c18.2-0.5,31.8-11.2,31.9-25.3c0-5.9-2.2-11.3-6.6-15.7c-6-6-15.6-9.8-25.3-9.9v-40.6
				c21.1,0,42.2,8.6,56.5,23c12.1,12.2,18.4,27.2,18.3,43.4c-0.3,36.5-33,65.1-74.8,65.7V1235z M886.2,1184
				c-21.4,0-42.9-8.7-57.4-23.3c-12.2-12.3-18.6-27.4-18.5-43.8c0.3-37,33.9-66.1,76.5-66.1l0.6,0v41.1c-18,0.4-31.6,11.3-31.7,25.5
				c0,6,2.3,11.6,6.7,16.1c6.1,6.1,16,9.9,25.8,9.9c1.4,0,73.7,0,91.6,0.1l-0.1,40.5C961.8,1184.1,888.5,1184,886.2,1184z"/>
			<path class="st0" d="M987.8,1316.4l0-39.7l-10.4,0c-20.9,0-41.8-7.2-57.5-19.8c-15.9-12.8-24.7-29.4-24.8-46.8
				c0-3.8,0-12.9,0-18.1h45c0,5.4,0,14.7,0,17.1c0.1,13.7,16.9,25.3,36.8,25.3l10.6,0l0-4c0-70.5,0-107.1,0-111.7
				c-0.1-13.7-16.9-25.3-36.8-25.3l-10.6,0c0,0,0,33.8,0,42.1h-45v-132l45,0l0,47.3l11.1,0c44.8,0,81.3,29.6,81.4,66l0.1,199.5
				L987.8,1316.4z"/>
		</g>
		<g>
			<path class="st0" d="M1070.5,1092.3c0,12.6,8.9,21.5,20.9,21.5c5.1,0,9.4-1.1,13.6-4v-5.5c-3.9,3.1-8.7,4.5-13,4.5
				c-9,0-15.5-6.7-15.5-16.4c0-9.8,6.5-16.3,15.5-16.3c4.3,0,9.2,1.4,13,4.5v-5.4c-4.3-3.1-8.6-4.1-13.6-4.1
				C1079.5,1070.9,1070.5,1079.7,1070.5,1092.3z"/>
			<path class="st0" d="M1174.7,1079.6l-0.4-7.3h-5.3v40.1h6v-23.9c0-7.1,7.9-12.3,15.3-11.2v-6.6
				C1184,1070.8,1177.7,1075,1174.7,1079.6z"/>
			<rect x="1200.9" y="1051.5" class="st0" width="6" height="7.2"/>
			<rect x="1200.9" y="1072.3" class="st0" width="6" height="40.1"/>
			<path class="st0" d="M1234.7,1088.9c-5.8-1.5-8.7-3.3-8.7-7.1c0-3.6,2.5-6.1,8.5-6.1c3.6,0,7.8,1.4,10.7,3.1l1.2-4.8
				c-1.4-0.7-6.3-3.2-11.9-3.2c-9.5,0-14.1,5.3-14.1,11.6c0,5.2,3.9,9.8,12.1,11.9c7.2,1.9,10.2,3.6,10.2,7.4c0,5.1-3.8,7.2-9.2,7.2
				c-5.5,0-10.3-2.2-13.4-4l-1.2,4.9c1.5,0.9,7.2,4.1,14.3,4.1c9,0,15.2-4.9,15.2-13C1248.4,1095.3,1243.6,1091,1234.7,1088.9z"/>
			<path class="st0" d="M1169.9,1141.4c-6.7,0-12.9,3.9-15.7,8.8l0-61.7c0-11.2-4.8-17.7-15-17.7c-6.7,0-12.9,3.9-15.7,8.8v-37.7h-6
				v70.5h6v-22.4c0-7,7.2-13.7,14.1-13.7c6.7,0,10.7,3.4,10.7,13l0,93.8h6v-22.4c0-7,7.2-13.7,14.1-13.7c6.7,0,10.7,3.4,10.7,13
				v23.1h6v-23.9C1185,1148,1180.1,1141.4,1169.9,1141.4z"/>
			<path class="st0" d="M1218.8,1141.3c-12.6,0-21.7,9.8-21.7,21.6c0,11.9,9.2,21.7,21.7,21.7c12.7,0,21.7-9.9,21.7-21.7
				C1240.5,1151.1,1231.5,1141.3,1218.8,1141.3z M1218.8,1179.5c-8.9,0-15.7-6.9-15.7-16.6c0-9.8,6.8-16.5,15.7-16.5
				c9,0,15.7,6.7,15.7,16.5C1234.5,1172.6,1227.8,1179.5,1218.8,1179.5z"/>
			<path class="st0" d="M1283.4,1165.4c0,7-7.2,13.7-14.1,13.7c-6.7,0-10.7-3.4-10.7-13V1143h-6v23.9c0,11.2,4.8,17.7,15,17.7
				c6.7,0,13.3-4,16.1-9l0.4,7.5h5.3V1143h-6V1165.4z"/>
			<path class="st0" d="M1338.3,1150.3c-3.2-6.2-10.3-8.8-16.2-8.8c-11.4,0-20,9-20,21.5c0,12.3,8.6,21.6,20,21.6
				c5.8,0,12.6-2.6,15.7-8v7.3c0,13.3-7.8,17.4-15,17.4c-6.7,0-11.8-1.9-17-5.2v5.4c3.9,2.6,10.6,4.9,16.5,4.9c9.6,0,21.6-4,21.6-23
				V1143h-5.2L1338.3,1150.3z M1323.1,1179.5c-8.1,0-15-6.1-15-16.6c0-10.5,6.9-16.5,15-16.5c7.9,0,15,5.8,15,16.5
				C1338.2,1173.5,1331,1179.5,1323.1,1179.5z"/>
			<path class="st0" d="M1380.6,1141.4c-6.7,0-12.9,3.9-15.7,8.8v-37.7h-6v70.5h6v-22.4c0-7,7.2-13.7,14.1-13.7
				c6.7,0,10.7,3.4,10.7,13v23.1h6v-23.9C1395.6,1148,1390.8,1141.4,1380.6,1141.4z"/>
		</g>
	</g>
</g>
<g>
	<g>
		<path class="st2" d="M191.6,678.8c-6.9,0-11.9-4.8-11.9-11.8c0-6.8,5-11.7,11.9-11.7c3,0,5.2,0.8,7.7,2.5v3.9
			c-2.1-2-4.7-2.8-7.3-2.8c-4.3,0-7.6,3.1-7.6,8c0,5,3.2,8.1,7.6,8.1c2.7,0,5.2-0.8,7.3-2.8v3.9C196.8,678,194.6,678.8,191.6,678.8z
			"/>
		<path class="st2" d="M201.8,678.3l18.6-40.2l2.6,0.9l-18.6,40.2L201.8,678.3z"/>
		<path class="st2" d="M224.2,658.5c0-12.8,6.5-20.6,14.7-20.6c8.3,0,14.7,7.8,14.7,20.6c0,12.9-6.4,20.6-14.7,20.6
			C230.6,679.1,224.2,671.4,224.2,658.5z M248.6,658.5c0-10.1-3.9-16.4-9.7-16.4c-5.8,0-9.7,6.3-9.7,16.4c0,10.1,3.9,16.5,9.7,16.5
			C244.7,675,248.6,668.7,248.6,658.5z"/>
		<path class="st2" d="M303.9,678V665c0-4.1-1.4-6-4.7-6c-3.2,0-6.6,2.8-6.6,6.5V678h-4.7V665c0-4.1-1.3-6-4.7-6
			c-3.2,0-6.5,2.8-6.5,6.5V678H272v-22h4.2l0.3,3.8c1.5-2.5,4.6-4.7,8.3-4.7c4.3,0,6.5,2.2,7.3,5c1.7-2.7,4.9-5,8.7-5
			c5.9,0,7.8,4.1,7.8,9.6V678H303.9z"/>
		<path class="st2" d="M312.7,678.3l18.6-40.2l2.6,0.9l-18.6,40.2L312.7,678.3z"/>
		<path class="st2" d="M363.6,656.3c0,13.7-5.2,22.8-16.2,22.8c-3.4,0-6.7-1.2-8.3-2.5v-4.5c2.1,1.5,5.1,2.8,8.3,2.8
			c6.5,0,11.1-4.3,11.4-16.3c-1.6,2.8-5.2,5.2-9.9,5.2c-6.9,0-12.1-5.1-12.1-13.1c0-7.3,5.9-12.8,13.1-12.8
			C355.6,638,363.6,641.2,363.6,656.3z M341.7,650.8c0,5.2,2.7,9.1,8.1,9.1c4.1,0,8.6-3.4,8.6-8c0-6.7-4.3-10-8.3-10
			C345,641.8,341.7,645.4,341.7,650.8z"/>
		<path class="st2" d="M369,674.5l11.2-11.6c3.6-3.7,7-7.8,7-13.1c0-5.6-3.2-7.5-7-7.5c-3.4,0-7,1.5-10.3,4.3V642
			c1.7-1.7,6.5-3.9,10.4-3.9c7.1,0,12,4.1,12,11.3c0,6.7-4.6,11.6-7.7,14.7l-9.8,9.6h18.3v4.3H369V674.5z"/>
		<path class="st2" d="M416.3,690.7h-4.7l6-13.6l-9.4-21h4.7l7,16.6l7-16.6h4.7L416.3,690.7z"/>
		<path class="st2" d="M429.7,678.3l18.6-40.2l2.6,0.9l-18.6,40.2L429.7,678.3z"/>
		<path class="st2" d="M454.1,675.3v-4.8c2.3,2.3,5.8,4.7,10.8,4.7c5.3,0,8.9-4.1,8.9-9.6c0-4.8-2.6-8.7-7.9-8.7
			c-3.7,0-6.3,1.6-7.9,5.1l-2.6-1.6v-21.1h21.7v4.3h-17.7v12c1.7-1.7,4.5-2.8,7.2-2.8c6.6,0,12,4.8,12,12.7
			c0,8.1-5.9,13.6-13.8,13.6C460.5,679.1,456.5,677.5,454.1,675.3z"/>
		<path class="st2" d="M484.4,675.3v-4.8c2.3,2.3,5.8,4.7,10.8,4.7c5.3,0,8.9-4.1,8.9-9.6c0-4.8-2.6-8.7-7.9-8.7
			c-3.7,0-6.3,1.6-7.9,5.1l-2.6-1.6v-21.1h21.7v4.3h-17.7v12c1.7-1.7,4.5-2.8,7.2-2.8c6.6,0,12,4.8,12,12.7
			c0,8.1-5.9,13.6-13.8,13.6C490.8,679.1,486.8,677.5,484.4,675.3z"/>
		<path class="st2" d="M541.8,678l-10.2-11.4V678h-4.7v-38.8h4.7v26.2l10.2-9.4h5.4l-10.9,9.8l11.3,12.2H541.8z"/>
		<path class="st2" d="M548.8,678.3l18.6-40.2l2.6,0.9l-18.6,40.2L548.8,678.3z"/>
		<path class="st2" d="M571.2,658.5c0-12.8,6.5-20.6,14.7-20.6c8.3,0,14.7,7.8,14.7,20.6c0,12.9-6.4,20.6-14.7,20.6
			C577.7,679.1,571.2,671.4,571.2,658.5z M595.7,658.5c0-10.1-3.9-16.4-9.7-16.4c-5.8,0-9.7,6.3-9.7,16.4c0,10.1,3.9,16.5,9.7,16.5
			C591.8,675,595.7,668.7,595.7,658.5z"/>
		<path class="st2" d="M185.7,737.1v12.8h-4.7v-22h4.2l0.3,3.8c1.5-2.5,4.8-4.7,8.6-4.7v4.8C189.9,731,185.7,733.4,185.7,737.1z"/>
		<path class="st2" d="M195.7,750.1l18.6-40.2l2.6,0.9L198.3,751L195.7,750.1z"/>
		<path class="st2" d="M219,746.3l11.2-11.6c3.6-3.7,7-7.8,7-13.1c0-5.6-3.2-7.5-7-7.5c-3.4,0-7,1.5-10.3,4.3v-4.7
			c1.7-1.7,6.5-3.9,10.4-3.9c7.1,0,12,4.1,12,11.3c0,6.7-4.6,11.6-7.7,14.7l-9.8,9.6h18.3v4.3H219V746.3z"/>
		<path class="st2" d="M248.3,746.3l11.2-11.6c3.6-3.7,7-7.8,7-13.1c0-5.6-3.2-7.5-7-7.5c-3.4,0-7,1.5-10.3,4.3v-4.7
			c1.7-1.7,6.5-3.9,10.4-3.9c7.1,0,12,4.1,12,11.3c0,6.7-4.6,11.6-7.7,14.7l-9.8,9.6h18.3v4.3h-24.2V746.3z"/>
		<path class="st2" d="M277.6,746.3l11.2-11.6c3.6-3.7,7-7.8,7-13.1c0-5.6-3.2-7.5-7-7.5c-3.4,0-7,1.5-10.3,4.3v-4.7
			c1.7-1.7,6.5-3.9,10.4-3.9c7.1,0,12,4.1,12,11.3c0,6.7-4.6,11.6-7.7,14.7l-9.8,9.6h18.3v4.3h-24.2V746.3z"/>
		<path class="st2" d="M330,762.7c-3.2,0-6.8-1.2-9.1-2.7v-4.1c3.3,2.1,5.7,3,9.6,3c3.7,0,7.4-2.2,7.4-8.7v-3.5
			c-1.9,2.8-5.4,4-8.3,4c-5.9,0-10.7-4.9-10.7-11.8c0-7,4.8-11.9,10.7-11.9c3,0,6.7,1.4,8.5,4.3l0.3-3.5h4.2v21.7
			C342.6,760.3,335.7,762.7,330,762.7z M330.7,730.6c-3.6,0-7.1,2.8-7.1,8.2c0,5.4,3.6,8.3,7.1,8.3c3.3,0,7.4-2.5,7.4-8.3
			C338.1,733.1,334,730.6,330.7,730.6z"/>
		<path class="st2" d="M346.7,750.1l18.6-40.2l2.6,0.9L349.3,751L346.7,750.1z"/>
		<path class="st2" d="M371.1,747.1v-4.8c2.3,2.3,5.8,4.7,10.8,4.7c5.3,0,8.9-4.1,8.9-9.6c0-4.8-2.6-8.7-7.9-8.7
			c-3.7,0-6.3,1.6-7.9,5.1l-2.6-1.6v-21.1h21.7v4.3h-17.7v12c1.7-1.7,4.5-2.8,7.2-2.8c6.6,0,12,4.8,12,12.7
			c0,8.1-5.9,13.6-13.8,13.6C377.5,751,373.5,749.3,371.1,747.1z"/>
		<path class="st2" d="M401.4,747.1v-4.8c2.6,2.4,5.8,4.7,10.8,4.7c5.3,0,8.9-3.7,8.9-9.2c0-4.8-2.6-8.5-7.9-8.5
			c-2.5,0-4.7,0.9-6.3,2.5l-2.1-2.3l13.9-14.1h-17.2v-4.3h24v2.6l-11.6,11.8c6.7,0.1,12.1,4.4,12.1,12.3c0,8.1-5.9,13.1-13.8,13.1
			C407.9,751,403.8,749.3,401.4,747.1z"/>
		<path class="st2" d="M457.4,750.7c-3,0-6.7-1.4-8.5-4.3l-0.3,3.5h-4.2v-38.8h4.7V731c1.9-2.8,5.4-4,8.3-4
			c5.9,0,10.7,4.9,10.7,11.8C468.1,745.9,463.2,750.7,457.4,750.7z M456.2,730.6c-3.2,0-7.4,2.5-7.4,8.3c0,5.8,4.1,8.2,7.4,8.2
			c3.6,0,7.2-2.8,7.2-8.2C463.4,733.4,459.8,730.6,456.2,730.6z"/>
		<path class="st2" d="M471,750.1l18.6-40.2l2.6,0.9L473.6,751L471,750.1z"/>
		<path class="st2" d="M493.4,739.5c0-5.8,3.8-9.7,8.9-11.3c-4.3-1.6-6.5-5-6.5-9.1c0-5.4,5.6-9.4,11.8-9.4c6.2,0,11.8,4,11.8,9.4
			c0,4-2.2,7.5-6.5,9.1c5,1.6,8.9,5.6,8.9,11.3c0,6.8-6.2,11.4-14.1,11.4C499.7,751,493.4,746.3,493.4,739.5z M516.8,738.9
			c0-5.1-4.1-8.4-9.2-8.4c-5,0-9.2,3.3-9.2,8.4c0,4.8,4.1,8.2,9.2,8.2S516.8,743.7,516.8,738.9z M514.6,719.8c0-3.9-3.1-6.3-7-6.3
			c-3.9,0-7,2.4-7,6.3c0,3.6,3.1,6.5,7,6.5C511.5,726.3,514.6,723.4,514.6,719.8z"/>
		<path class="st2" d="M544.9,739.8h-18.2v-2.8l20.1-26.6h3v25.4h7v4h-7v10.1h-4.9V739.8z M544.9,735.8v-16.9l-12.9,16.9H544.9z"/>
		<path class="st2" d="M193.9,822.5c-2.8,0-6.3-1.2-8.3-4v15.8h-4.7v-34.7h4.2l0.3,3.5c1.9-2.9,5.6-4.3,8.5-4.3
			c5.9,0,10.7,4.8,10.7,11.9C204.7,817.6,199.8,822.5,193.9,822.5z M192.8,802.4c-3.2,0-7.4,2.5-7.4,8.2c0,5.8,4.1,8.3,7.4,8.3
			c3.6,0,7.2-2.8,7.2-8.3C199.9,805.2,196.4,802.4,192.8,802.4z"/>
		<path class="st2" d="M229.9,821.7l-0.3-3.5c-1.9,2.9-5.6,4.3-8.5,4.3c-5.9,0-10.7-4.8-10.7-11.9c0-6.9,4.8-11.8,10.7-11.8
			c2.8,0,6.7,1.4,8.5,4.3l0.3-3.5h4.2v22H229.9z M215.1,810.7c0,5.4,3.6,8.2,7.1,8.2c3.3,0,7.4-2.5,7.4-8.2c0-5.8-4.1-8.3-7.4-8.3
			C218.6,802.4,215.1,805.3,215.1,810.7z"/>
		<path class="st2" d="M259.2,821.7v-13c0-4.2-1.7-6.1-5.1-6.1c-3.2,0-7.2,2.8-7.2,6.5v12.6h-4.7v-22h4.2l0.3,3.8
			c1.5-2.5,5.2-4.7,8.9-4.7c5.9,0,8.3,4.1,8.3,9.6v13.3H259.2z"/>
		<path class="st2" d="M279.4,802.7v18.9h-4.7v-18.9h-4.5v-3.1h4.5v-7.4h4.7v7.4h4.4v3.1H279.4z"/>
		<path class="st2" d="M301.4,822.6c-7.2,0-12.7-5.5-12.7-12c0-6.5,5.6-12,12.7-12c7.2,0,12.7,5.4,12.7,12
			C314.1,817.1,308.5,822.6,301.4,822.6z M301.4,802.3c-4.6,0-8,3.4-8,8.3c0,4.8,3.4,8.3,8,8.3c4.7,0,8-3.5,8-8.3
			C309.4,805.8,306,802.3,301.4,802.3z"/>
		<path class="st2" d="M337.7,821.7v-13c0-4.2-1.7-6.1-5.1-6.1c-3.2,0-7.2,2.8-7.2,6.5v12.6h-4.7v-22h4.2l0.3,3.8
			c1.5-2.5,5.2-4.7,8.9-4.7c5.9,0,8.3,4.1,8.3,9.6v13.3H337.7z"/>
		<path class="st2" d="M369.7,810h-15.8c-0.4,3.6,1.1,8.8,8.3,8.8c2.5,0,5.8-1.4,7.4-3.1v3.8c-1.9,1.9-5.6,3-8.8,3
			c-7.1,0-11.6-5-11.6-11.9c0-7.2,5-11.8,11-11.8c5.8,0,9.8,4.1,9.8,8.9C370,808.4,369.9,809.3,369.7,810z M360.2,802.2
			c-2.7,0-5.2,1.6-6,4.7h11.1c0,0,0.1-0.3,0.1-0.5C365.4,804.3,363.7,802.2,360.2,802.2z"/>
		<path class="st2" d="M373.3,821.9l18.6-40.2l2.6,0.9l-18.6,40.2L373.3,821.9z"/>
		<path class="st2" d="M399,782.9h12.8c8.9,0,12.7,5.4,12.7,11.7c0,6.3-3.8,11.7-12.7,11.7h-7.6v15.4H399V782.9z M411.8,802
			c5.8,0,7.6-3.8,7.6-7.4s-1.7-7.4-7.6-7.4h-7.6V802H411.8z"/>
		<path class="st2" d="M439.8,819v-4.8c2.3,2.3,5.8,4.7,10.8,4.7c5.3,0,8.9-4.1,8.9-9.6c0-4.8-2.6-8.7-7.9-8.7
			c-3.7,0-6.3,1.6-7.9,5.1l-2.6-1.6v-21.1h21.7v4.3h-17.7v12c1.7-1.7,4.5-2.8,7.2-2.8c6.6,0,12,4.8,12,12.7
			c0,8.1-5.9,13.6-13.8,13.6C446.2,822.8,442.2,821.1,439.8,819z"/>
		<path class="st2" d="M496.6,799.9c0,13.7-5.2,22.8-16.2,22.8c-3.4,0-6.7-1.2-8.3-2.5v-4.5c2.1,1.5,5.1,2.8,8.3,2.8
			c6.5,0,11.1-4.3,11.4-16.3c-1.6,2.8-5.2,5.2-9.9,5.2c-6.9,0-12.1-5.1-12.1-13.1c0-7.3,5.9-12.8,13.1-12.8
			C488.6,781.6,496.6,784.8,496.6,799.9z M474.7,794.4c0,5.2,2.7,9.1,8.1,9.1c4.1,0,8.6-3.4,8.6-8c0-6.7-4.3-10-8.3-10
			C478,785.5,474.7,789,474.7,794.4z"/>
		<path class="st2" d="M502.9,806.6h13.1v3.6h-13.1V806.6z"/>
		<path class="st2" d="M525.4,787.7h-4.1v-3.5l9.1-2.1v39.6h-4.9V787.7z"/>
		<path class="st2" d="M539.4,819v-4.8c2.3,2.3,5.8,4.7,10.8,4.7c5.3,0,8.9-4.1,8.9-9.6c0-4.8-2.6-8.7-7.9-8.7
			c-3.7,0-6.3,1.6-7.9,5.1l-2.6-1.6v-21.1h21.7v4.3h-17.7v12c1.7-1.7,4.5-2.8,7.2-2.8c6.6,0,12,4.8,12,12.7
			c0,8.1-5.9,13.6-13.8,13.6C545.9,822.8,541.8,821.1,539.4,819z"/>
		<path class="st2" d="M580.3,802.3c0-12.5,9.4-20.2,20.6-20.2c4.9,0,10.2,1.6,13.4,4.1v5.4c-3.2-2.8-7.4-5.1-13.4-5.1
			c-8.9,0-15.3,6.2-15.3,15.9c0,9.6,6.3,15.9,15.3,15.9c6,0,10.3-2.3,13.4-5.1v5.4c-3.2,2.5-8.5,4.1-13.4,4.1
			C589.8,822.5,580.3,814.8,580.3,802.3z"/>
	</g>
	<rect x="42.6" y="394" class="st2" width="709" height="196.3"/>
	<rect x="750" y="394" class="st3" width="710" height="196.3"/>
	<g>
		<path class="st3" d="M906.9,668.5c-6.9,0-11.9-4.9-11.9-11.8c0-6.8,5-11.7,11.9-11.7c3,0,5.2,0.8,7.7,2.5v3.9
			c-2.1-2-4.7-2.8-7.3-2.8c-4.3,0-7.6,3.1-7.6,8c0,5,3.2,8.1,7.6,8.1c2.7,0,5.2-0.8,7.3-2.8v3.9
			C912.1,667.7,909.8,668.5,906.9,668.5z"/>
		<path class="st3" d="M917,668l18.6-40.2l2.6,0.9l-18.6,40.2L917,668z"/>
		<path class="st3" d="M939.4,648.2c0-12.8,6.5-20.6,14.7-20.6c8.3,0,14.7,7.8,14.7,20.6c0,12.9-6.4,20.6-14.7,20.6
			C945.9,668.9,939.4,661.1,939.4,648.2z M963.9,648.2c0-10.1-3.9-16.4-9.7-16.4c-5.8,0-9.7,6.3-9.7,16.4c0,10.2,3.9,16.5,9.7,16.5
			C960,664.7,963.9,658.4,963.9,648.2z"/>
		<path class="st3" d="M1019.1,667.8v-13.1c0-4.1-1.4-6-4.7-6c-3.2,0-6.6,2.8-6.6,6.5v12.6h-4.7v-13.1c0-4.1-1.3-6-4.7-6
			c-3.2,0-6.5,2.8-6.5,6.5v12.6h-4.7v-22h4.2l0.3,3.8c1.5-2.5,4.6-4.7,8.3-4.7c4.3,0,6.5,2.2,7.3,5c1.7-2.7,4.9-5,8.7-5
			c5.9,0,7.8,4.1,7.8,9.6v13.3H1019.1z"/>
		<path class="st3" d="M1028,668l18.6-40.2l2.6,0.9l-18.6,40.2L1028,668z"/>
		<path class="st3" d="M1070.4,633.3h-19.9V629h25.5v2.5c-3.2,4.5-13.1,24.1-15.1,36.3h-5.4C1058,655.7,1068.3,636.3,1070.4,633.3z"
			/>
		<path class="st3" d="M1079.9,664.2l11.2-11.6c3.6-3.7,7-7.8,7-13.1c0-5.6-3.2-7.5-7-7.5c-3.4,0-7,1.5-10.3,4.3v-4.7
			c1.7-1.7,6.5-3.9,10.4-3.9c7.1,0,12,4.1,12,11.3c0,6.7-4.6,11.6-7.7,14.7l-9.8,9.6h18.3v4.3h-24.2V664.2z"/>
		<path class="st3" d="M1127.2,680.4h-4.7l6-13.6l-9.4-21h4.7l7,16.6l7-16.6h4.7L1127.2,680.4z"/>
		<path class="st3" d="M1140.6,668l18.6-40.2l2.6,0.9l-18.6,40.2L1140.6,668z"/>
		<path class="st3" d="M1163.4,650.6c0-13.7,5.2-22.8,16.2-22.8c3.4,0,6.7,1.2,8.3,2.5v4.5c-2.1-1.5-5.1-2.8-8.3-2.8
			c-6.5,0-11.1,4.3-11.4,16.3c1.6-2.8,5.2-5.2,9.9-5.2c6.9,0,12.1,5.1,12.1,13.1c0,7.3-5.9,12.8-13.1,12.8
			C1171.4,668.9,1163.4,665.6,1163.4,650.6z M1185.2,656.1c0-5.2-2.7-9.1-8.1-9.1c-4.1,0-8.6,3.4-8.6,8c0,6.7,4.3,10,8.3,10
			C1181.9,665,1185.2,661.4,1185.2,656.1z"/>
		<path class="st3" d="M1196.4,650.6c0-13.7,5.2-22.8,16.2-22.8c3.4,0,6.7,1.2,8.3,2.5v4.5c-2.1-1.5-5.1-2.8-8.3-2.8
			c-6.5,0-11.1,4.3-11.4,16.3c1.6-2.8,5.2-5.2,9.9-5.2c6.9,0,12.1,5.1,12.1,13.1c0,7.3-5.9,12.8-13.1,12.8
			C1204.4,668.9,1196.4,665.6,1196.4,650.6z M1218.2,656.1c0-5.2-2.7-9.1-8.1-9.1c-4.1,0-8.6,3.4-8.6,8c0,6.7,4.3,10,8.3,10
			C1214.9,665,1218.2,661.4,1218.2,656.1z"/>
		<path class="st3" d="M1256.2,667.8l-10.2-11.4v11.4h-4.7V629h4.7v26.2l10.2-9.4h5.4l-10.9,9.8l11.3,12.2H1256.2z"/>
		<path class="st3" d="M1263.2,668l18.6-40.2l2.6,0.9l-18.6,40.2L1263.2,668z"/>
		<path class="st3" d="M1285.6,648.2c0-12.8,6.5-20.6,14.7-20.6c8.3,0,14.7,7.8,14.7,20.6c0,12.9-6.4,20.6-14.7,20.6
			C1292.1,668.9,1285.6,661.1,1285.6,648.2z M1310.1,648.2c0-10.1-3.9-16.4-9.7-16.4c-5.8,0-9.7,6.3-9.7,16.4
			c0,10.2,3.9,16.5,9.7,16.5C1306.2,664.7,1310.1,658.4,1310.1,648.2z"/>
		<path class="st3" d="M900.9,726.8v12.8h-4.7v-22h4.2l0.3,3.8c1.5-2.5,4.8-4.7,8.6-4.7v4.8C905.1,720.7,900.9,723.1,900.9,726.8z"
			/>
		<path class="st3" d="M911,739.8l18.6-40.2l2.6,0.9l-18.6,40.2L911,739.8z"/>
		<path class="st3" d="M934.3,736l11.2-11.6c3.6-3.7,7-7.8,7-13.1c0-5.6-3.2-7.5-7-7.5c-3.4,0-7,1.5-10.3,4.3v-4.7
			c1.7-1.7,6.5-3.9,10.4-3.9c7.1,0,12,4.1,12,11.3c0,6.7-4.6,11.6-7.7,14.7l-9.8,9.6h18.3v4.3h-24.2V736z"/>
		<path class="st3" d="M981.7,729.5h-18.2v-2.8l20.1-26.6h3v25.4h7v4h-7v10.1h-4.9V729.5z M981.7,725.5v-16.9l-12.9,16.9H981.7z"/>
		<path class="st3" d="M996.7,736l11.2-11.6c3.6-3.7,7-7.8,7-13.1c0-5.6-3.2-7.5-7-7.5c-3.4,0-7,1.5-10.3,4.3v-4.7
			c1.7-1.7,6.5-3.9,10.4-3.9c7.1,0,12,4.1,12,11.3c0,6.7-4.6,11.6-7.7,14.7l-9.8,9.6h18.3v4.3h-24.2V736z"/>
		<path class="st3" d="M1049.2,752.4c-3.2,0-6.8-1.2-9.1-2.7v-4.1c3.3,2.1,5.7,3,9.6,3c3.7,0,7.4-2.2,7.4-8.7v-3.5
			c-1.9,2.8-5.4,4-8.3,4c-5.9,0-10.7-4.9-10.7-11.8c0-7,4.8-11.9,10.7-11.9c3,0,6.7,1.4,8.5,4.3l0.3-3.5h4.2v21.7
			C1061.8,750,1054.9,752.4,1049.2,752.4z M1049.9,720.3c-3.6,0-7.1,2.8-7.1,8.2c0,5.4,3.6,8.3,7.1,8.3c3.3,0,7.4-2.5,7.4-8.3
			C1057.3,722.8,1053.2,720.3,1049.9,720.3z"/>
		<path class="st3" d="M1065.9,739.8l18.6-40.2l2.6,0.9l-18.6,40.2L1065.9,739.8z"/>
		<path class="st3" d="M1093.8,705.6h-4.1v-3.5l9.1-2.1v39.6h-4.9V705.6z"/>
		<path class="st3" d="M1107.8,720c0-12.8,6.5-20.6,14.7-20.6c8.3,0,14.7,7.8,14.7,20.6c0,12.9-6.4,20.6-14.7,20.6
			C1114.3,740.7,1107.8,732.9,1107.8,720z M1132.3,720c0-10.1-3.9-16.4-9.7-16.4c-5.8,0-9.7,6.3-9.7,16.4c0,10.2,3.9,16.5,9.7,16.5
			C1128.4,736.5,1132.3,730.2,1132.3,720z"/>
		<path class="st3" d="M1143.5,729.2c0-5.8,3.8-9.7,8.9-11.3c-4.3-1.5-6.5-5-6.5-9.1c0-5.4,5.6-9.4,11.8-9.4c6.2,0,11.8,4,11.8,9.4
			c0,4-2.2,7.5-6.5,9.1c5,1.6,8.9,5.6,8.9,11.3c0,6.8-6.2,11.4-14.1,11.4C1149.8,740.7,1143.5,736,1143.5,729.2z M1166.9,728.6
			c0-5.1-4.1-8.4-9.2-8.4c-5,0-9.2,3.3-9.2,8.4c0,4.8,4.1,8.2,9.2,8.2C1162.8,736.8,1166.9,733.4,1166.9,728.6z M1164.7,709.5
			c0-3.9-3.1-6.3-7-6.3c-3.9,0-7,2.4-7,6.3c0,3.6,3.1,6.5,7,6.5C1161.6,716,1164.7,713.1,1164.7,709.5z"/>
		<path class="st3" d="M1203.1,740.4c-3,0-6.7-1.4-8.5-4.3l-0.3,3.5h-4.2v-38.8h4.7v19.9c1.9-2.8,5.4-4,8.3-4
			c5.9,0,10.7,4.9,10.7,11.8C1213.8,735.6,1209,740.4,1203.1,740.4z M1201.9,720.3c-3.2,0-7.4,2.5-7.4,8.3c0,5.8,4.1,8.2,7.4,8.2
			c3.6,0,7.2-2.8,7.2-8.2C1209.1,723.2,1205.6,720.3,1201.9,720.3z"/>
		<path class="st3" d="M1216.7,739.8l18.6-40.2l2.6,0.9l-18.6,40.2L1216.7,739.8z"/>
		<path class="st3" d="M1239.2,729.2c0-5.8,3.8-9.7,8.9-11.3c-4.3-1.5-6.5-5-6.5-9.1c0-5.4,5.6-9.4,11.8-9.4c6.2,0,11.8,4,11.8,9.4
			c0,4-2.2,7.5-6.5,9.1c5,1.6,8.9,5.6,8.9,11.3c0,6.8-6.2,11.4-14.1,11.4C1245.4,740.7,1239.2,736,1239.2,729.2z M1262.5,728.6
			c0-5.1-4.1-8.4-9.2-8.4c-5,0-9.2,3.3-9.2,8.4c0,4.8,4.1,8.2,9.2,8.2C1258.5,736.8,1262.5,733.4,1262.5,728.6z M1260.3,709.5
			c0-3.9-3.1-6.3-7-6.3c-3.9,0-7,2.4-7,6.3c0,3.6,3.1,6.5,7,6.5C1257.2,716,1260.3,713.1,1260.3,709.5z"/>
		<path class="st3" d="M1291.7,705.1h-19.9v-4.3h25.5v2.5c-3.2,4.5-13.1,24.1-15.1,36.3h-5.4
			C1279.2,727.5,1289.6,708.1,1291.7,705.1z"/>
		<path class="st3" d="M909.2,812.2c-2.8,0-6.3-1.2-8.3-4V824h-4.7v-34.7h4.2l0.3,3.5c1.9-2.9,5.6-4.3,8.5-4.3
			c5.9,0,10.7,4.8,10.7,11.9C919.9,807.3,915.1,812.2,909.2,812.2z M908,792.1c-3.2,0-7.4,2.5-7.4,8.2c0,5.8,4.1,8.3,7.4,8.3
			c3.6,0,7.2-2.8,7.2-8.3C915.2,794.9,911.6,792.1,908,792.1z"/>
		<path class="st3" d="M945.1,811.4l-0.3-3.5c-1.9,2.9-5.6,4.3-8.5,4.3c-5.9,0-10.7-4.8-10.7-11.9c0-6.9,4.8-11.8,10.7-11.8
			c2.8,0,6.7,1.4,8.5,4.3l0.3-3.5h4.2v22H945.1z M930.3,800.4c0,5.4,3.6,8.2,7.1,8.2c3.3,0,7.4-2.5,7.4-8.2c0-5.8-4.1-8.3-7.4-8.3
			C933.9,792.1,930.3,795,930.3,800.4z"/>
		<path class="st3" d="M974.5,811.4v-13c0-4.2-1.7-6.1-5.1-6.1c-3.2,0-7.2,2.8-7.2,6.5v12.6h-4.7v-22h4.2l0.3,3.8
			c1.5-2.5,5.2-4.7,8.9-4.7c5.9,0,8.3,4.1,8.3,9.6v13.3H974.5z"/>
		<path class="st3" d="M994.7,792.4v18.9H990v-18.9h-4.5v-3.1h4.5v-7.4h4.7v7.4h4.4v3.1H994.7z"/>
		<path class="st3" d="M1016.6,812.4c-7.2,0-12.7-5.5-12.7-12s5.6-12,12.7-12c7.2,0,12.7,5.4,12.7,12S1023.8,812.4,1016.6,812.4z
			 M1016.6,792.1c-4.6,0-8,3.4-8,8.3c0,4.8,3.4,8.3,8,8.3c4.7,0,8-3.5,8-8.3C1024.6,795.5,1021.3,792.1,1016.6,792.1z"/>
		<path class="st3" d="M1052.9,811.4v-13c0-4.2-1.7-6.1-5.1-6.1c-3.2,0-7.2,2.8-7.2,6.5v12.6h-4.7v-22h4.2l0.3,3.8
			c1.5-2.5,5.2-4.7,8.9-4.7c5.9,0,8.3,4.1,8.3,9.6v13.3H1052.9z"/>
		<path class="st3" d="M1084.9,799.7h-15.8c-0.4,3.6,1.1,8.8,8.3,8.8c2.5,0,5.8-1.4,7.4-3.1v3.8c-1.9,1.9-5.6,3-8.8,3
			c-7.1,0-11.6-5-11.6-11.9c0-7.2,5-11.8,11-11.8c5.8,0,9.8,4.1,9.8,8.9C1085.2,798.1,1085.1,799,1084.9,799.7z M1075.5,791.9
			c-2.7,0-5.2,1.6-6,4.7h11.1c0,0,0.1-0.3,0.1-0.5C1080.6,794,1078.9,791.9,1075.5,791.9z"/>
		<path class="st3" d="M1088.6,811.6l18.6-40.2l2.6,0.9l-18.6,40.2L1088.6,811.6z"/>
		<path class="st3" d="M1114.2,772.6h12.8c8.9,0,12.7,5.4,12.7,11.7c0,6.3-3.8,11.7-12.7,11.7h-7.6v15.4h-5.2V772.6z M1127,791.7
			c5.8,0,7.6-3.8,7.6-7.4s-1.7-7.4-7.6-7.4h-7.6v14.7H1127z"/>
		<path class="st3" d="M1172.1,801.3h-18.2v-2.8l20.1-26.6h3v25.4h7v4h-7v10.1h-4.9V801.3z M1172.1,797.3v-16.9l-12.9,16.9H1172.1z"
			/>
		<path class="st3" d="M1188.2,801c0-5.8,3.8-9.7,8.9-11.3c-4.3-1.5-6.5-5-6.5-9.1c0-5.4,5.6-9.4,11.8-9.4c6.2,0,11.8,4,11.8,9.4
			c0,4-2.2,7.5-6.5,9.1c5,1.6,8.9,5.6,8.9,11.3c0,6.8-6.2,11.4-14.1,11.4C1194.5,812.5,1188.2,807.8,1188.2,801z M1211.6,800.4
			c0-5.1-4.1-8.4-9.2-8.4c-5,0-9.2,3.3-9.2,8.4c0,4.8,4.1,8.2,9.2,8.2C1207.6,808.6,1211.6,805.2,1211.6,800.4z M1209.4,781.3
			c0-3.9-3.1-6.3-7-6.3c-3.9,0-7,2.4-7,6.3c0,3.6,3.1,6.5,7,6.5C1206.3,787.9,1209.4,784.9,1209.4,781.3z"/>
		<path class="st3" d="M1222.4,796.3h13.1v3.6h-13.1V796.3z"/>
		<path class="st3" d="M1241.8,794.2c0-13.7,5.2-22.8,16.2-22.8c3.4,0,6.7,1.2,8.3,2.5v4.5c-2.1-1.5-5.1-2.8-8.3-2.8
			c-6.5,0-11.1,4.3-11.4,16.3c1.6-2.8,5.2-5.2,9.9-5.2c6.9,0,12.1,5.1,12.1,13.1c0,7.3-5.9,12.8-13.1,12.8
			C1249.8,812.5,1241.8,809.3,1241.8,794.2z M1263.6,799.7c0-5.2-2.7-9.1-8.1-9.1c-4.1,0-8.6,3.4-8.6,8c0,6.7,4.3,10,8.3,10
			C1260.3,808.6,1263.6,805.1,1263.6,799.7z"/>
		<path class="st3" d="M1285.1,792c0-12.5,9.4-20.2,20.6-20.2c4.9,0,10.2,1.6,13.4,4.1v5.4c-3.2-2.8-7.4-5.1-13.4-5.1
			c-8.9,0-15.3,6.2-15.3,15.9c0,9.6,6.3,15.9,15.3,15.9c6,0,10.3-2.3,13.4-5.1v5.4c-3.2,2.5-8.5,4.1-13.4,4.1
			C1294.5,812.2,1285.1,804.5,1285.1,792z"/>
	</g>
</g>
<g>
	<path d="M48,85.8h10.5l31.2,67l31.2-67h10v80.8h-10.4v-55.1c0-2,0.3-6.6,0.3-6.7c-0.3,0.4-2,4.8-2.8,6.7l-25.2,55.1h-7.3
		l-25.2-55.1c-0.9-1.9-2.7-6.3-2.8-6.7c0,0.1,0.3,4.7,0.3,6.7v55.1H48V85.8z"/>
	<path d="M158.4,140v26.7h-9.8v-45.9h8.8l0.7,7.9c3.1-5.1,10.1-9.7,17.9-9.7v10C167.2,127.3,158.4,132.3,158.4,140z"/>
	<path d="M211.7,85.8h48.9v9h-38.1v24.6h31.4v9h-31.4v29.1h38.1v9h-48.9V85.8z"/>
	<path d="M311.1,166.6l-0.5-7.3c-3.9,6.1-11.6,9-17.8,9c-12.3,0-22.3-10.1-22.3-24.8c0-14.4,10.1-24.6,22.3-24.6
		c5.9,0,13.9,3,17.8,9l0.5-7.3h8.8v45.9H311.1z M280.2,143.7c0,11.3,7.4,17.1,14.8,17.1c6.9,0,15.5-5.1,15.5-17.1
		c0-12.1-8.6-17.2-15.5-17.2C287.7,126.5,280.2,132.4,280.2,143.7z"/>
	<path d="M357.8,167h-7.4l-20.6-46.3h9.7l14.7,34.6l14.5-34.6h9.7L357.8,167z"/>
	<path d="M426.9,142.4h-33c-0.8,7.4,2.3,18.3,17.4,18.3c5.1,0,12.1-2.8,15.5-6.5v7.8c-3.9,4-11.6,6.3-18.3,6.3
		c-14.8,0-24.2-10.5-24.2-24.8c0-14.9,10.4-24.6,22.9-24.6c12,0,20.5,8.6,20.5,18.4C427.5,139,427.3,140.8,426.9,142.4z
		 M407.2,126.1c-5.7,0-10.8,3.2-12.5,9.8h23.2c0,0,0.1-0.5,0.1-1.1C418,130.4,414.4,126.1,407.2,126.1z"/>
	<path d="M456.4,168.4c-9.6,0-16.6-4.6-17.5-5.1l1.9-7.4c3.1,1.9,8.9,5.3,15.8,5.3c5.4,0,8.8-2.2,8.8-6.6c0-3.4-2.6-5.7-10.1-7.4
		c-10.1-2.4-14.1-7.8-14.1-14.1c0-7.3,4.7-14,16.4-14c7.5,0,14,3.9,14.7,4.3l-1.7,6.9c-3.5-2.2-8.3-4.2-12.9-4.2
		c-5.7,0-7.8,2.4-7.8,5.8c0,3.5,3,5.3,8.5,6.6c10.9,2.6,15.8,7.8,15.8,14.9C473.9,162.3,467.5,168.4,456.4,168.4z"/>
	<path d="M512,85.8h10.5l31.2,67l31.2-67h10v80.8h-10.4v-55.1c0-2,0.3-6.6,0.3-6.7c-0.3,0.4-2,4.8-2.8,6.7l-25.2,55.1h-7.3
		l-25.2-55.1c-0.9-1.9-2.7-6.3-2.8-6.7c0,0.1,0.3,4.7,0.3,6.7v55.1H512V85.8z"/>
	<path d="M635.8,168.6c-14.9,0-26.5-11.4-26.5-25c0-13.6,11.6-24.9,26.5-24.9c14.9,0,26.5,11.3,26.5,24.9
		C662.4,157.2,650.8,168.6,635.8,168.6z M635.8,126.4c-9.6,0-16.7,7.1-16.7,17.2c0,10.1,7.1,17.4,16.7,17.4
		c9.7,0,16.7-7.3,16.7-17.4C652.5,133.5,645.5,126.4,635.8,126.4z"/>
	<path d="M714.2,166.6l-0.5-7.3c-3.9,6.1-11.6,9-17.8,9c-12.3,0-22.3-10.1-22.3-24.8c0-14.4,10.1-24.6,22.3-24.6
		c5.9,0,13.2,2.6,17.2,8.3V85.8h9.8v80.8H714.2z M683.4,143.7c0,11.3,7.4,17.1,14.8,17.1c6.9,0,15.5-5.1,15.5-17.1
		c0-12.1-8.6-17.2-15.5-17.2C690.8,126.5,683.4,132.4,683.4,143.7z"/>
	<path d="M760,126.2c0-24.8,18.2-42.7,42.9-42.7c24.6,0,42.8,17.9,42.8,42.7s-18.2,42.7-42.8,42.7C778.1,168.9,760,151,760,126.2z
		 M834.6,126.2c0-19.7-13.2-33.7-31.6-33.7c-18.6,0-31.8,14-31.8,33.7c0,19.5,13.2,33.7,31.8,33.7
		C821.4,159.9,834.6,145.7,834.6,126.2z"/>
	<path d="M875.9,94.9h-28.7v-9h68.1v9h-28.7v71.8h-10.8V94.9z"/>
	<path d="M949.5,85.8h26.7c18.4,0,26.4,10.6,26.4,23.7c0,10.5-5.1,19.4-16.7,22.5l24.5,34.6h-12.5l-23.2-33.4h-14.4v33.4h-10.8V85.8
		z M976.2,124.2c12.1,0,15.8-7.3,15.8-14.7c0-7.4-3.6-14.7-15.8-14.7h-15.9v29.3H976.2z"/>
	<path d="M1059,142.4h-33c-0.8,7.4,2.3,18.3,17.4,18.3c5.1,0,12.1-2.8,15.5-6.5v7.8c-3.9,4-11.6,6.3-18.3,6.3
		c-14.8,0-24.2-10.5-24.2-24.8c0-14.9,10.4-24.6,22.9-24.6c12,0,20.5,8.6,20.5,18.4C1059.7,139,1059.4,140.8,1059,142.4z
		 M1039.4,126.1c-5.7,0-10.8,3.2-12.5,9.8h23.2c0,0,0.1-0.5,0.1-1.1C1050.1,130.4,1046.5,126.1,1039.4,126.1z"/>
	<path d="M1095.6,193.4c-6.6,0-14.1-2.6-19-5.7v-8.5c6.9,4.4,11.8,6.2,20.1,6.2c7.7,0,15.3-4.6,15.3-18.2V160
		c-4,5.8-11.3,8.3-17.2,8.3c-12.3,0-22.3-10.2-22.3-24.6c0-14.7,10.1-24.8,22.3-24.8c6.2,0,13.9,3,17.8,9l0.5-7.3h8.8v45.1
		C1121.9,188.4,1107.6,193.4,1095.6,193.4z M1097.1,126.5c-7.4,0-14.8,5.8-14.8,17.1c0,11.3,7.4,17.2,14.8,17.2
		c6.9,0,15.5-5.1,15.5-17.2C1112.6,131.6,1104,126.5,1097.1,126.5z"/>
	<path d="M1175.3,166.6l-0.7-7.9c-3.1,5.1-10.9,9.7-18.6,9.7c-12.4,0-17.2-8.6-17.2-20.1v-27.6h9.8v27.1c0,8.8,3.6,12.7,10.6,12.7
		c6.6,0,14.9-5.8,14.9-13.5v-26.3h9.8v45.9H1175.3z"/>
	<path d="M1201.1,166.6V85.8h9.8v80.8H1201.1z"/>
	<path d="M1266,166.6l-0.5-7.3c-3.9,6.1-11.6,9-17.8,9c-12.3,0-22.3-10.1-22.3-24.8c0-14.4,10.1-24.6,22.3-24.6c5.9,0,13.9,3,17.8,9
		l0.5-7.3h8.8v45.9H1266z M1235.1,143.7c0,11.3,7.4,17.1,14.8,17.1c6.9,0,15.5-5.1,15.5-17.1c0-12.1-8.6-17.2-15.5-17.2
		C1242.5,126.5,1235.1,132.4,1235.1,143.7z"/>
	<path d="M1301.5,140v26.7h-9.8v-45.9h8.8l0.7,7.9c3.1-5.1,10.1-9.7,17.9-9.7v10C1310.2,127.3,1301.5,132.3,1301.5,140z"/>
	<path d="M100,287.8v-37.2c0-1.4,0.3-5.4,0.4-5.8l-2.2,5.8L82,287.8h-7.6l-16.3-37.2c-0.6-1.4-1.9-5.2-2.1-5.8
		c0,0.3,0.3,4.3,0.3,5.8v37.2H45.5v-60.6h13.1l20,44.3l19.9-44.3h12.7v60.6H100z"/>
	<path d="M135.3,270v17.8H124v-34.4h10.3l0.6,6.2c2.2-4.1,6.8-7.5,12.6-7.5v10.9C141.3,261.1,135.3,264.2,135.3,270z"/>
	<path d="M173.7,287.8v-60.6h39.5v9.6h-27.2V251h22.1v9.6h-22.1v17.6h27.2v9.6H173.7z"/>
	<path d="M236.4,252c4.3,0,9.5,1.6,12.4,5.9l0.3-4.5h10.5v34.4h-10.5l-0.3-4.5c-2.9,4.2-8.1,5.9-12.4,5.9c-9.2,0-16.4-7.5-16.4-18.6
		C220,259.6,227.2,252,236.4,252z M240,280.8c4.3,0,8.7-3.3,8.7-10.3s-4.3-10.2-8.7-10.2c-4.5,0-8.7,3.5-8.7,10.2
		C231.3,277.3,235.5,280.8,240,280.8z"/>
	<path d="M290.5,288h-8.8l-15.4-34.6h10.9l8.9,22.4l9-22.4h10.7L290.5,288z"/>
	<path d="M343.1,271.1h-22.4c0,5.2,2.6,10.1,11.2,10.1c3.8,0,8.6-1.8,11.1-4v7.5c-3,2.6-8.4,4.4-14.5,4.4c-11.4,0-18.9-8-18.9-18.8
		c0-11,8.4-18.3,18.1-18.3c9,0,16.1,5.9,16.1,14.1C343.7,267.8,343.4,269.9,343.1,271.1z M327.7,258.8c-3,0-5.8,1.8-6.7,6.7h12.2
		c0,0,0.1-0.6,0.1-1.4C333.4,261.1,331.5,258.8,327.7,258.8z"/>
	<path d="M366.1,289.1c-6.9,0-11.8-2.6-14.3-4.1l1.8-7.5c2.9,1.8,7.1,4.1,12.4,4.1c3.2,0,4.9-1,4.9-3.2c0-2-1.7-2.9-5.8-3.6
		c-9.2-1.7-12.2-6.5-12.2-11.6c0-5.6,3.8-11.1,13.8-11.1c5.7,0,10.3,2.3,12.3,3.4l-1.7,7.1c-3.4-1.9-7-3.1-10.4-3.1
		c-3,0-4.3,1-4.3,2.7c0,1.8,1.6,2.5,4.6,3.1c9.9,1.9,13.3,6.8,13.3,11.4C380.7,284.2,375.8,289.1,366.1,289.1z"/>
	<path d="M463,287.8v-37.2c0-1.4,0.3-5.4,0.4-5.8l-2.2,5.8l-16.3,37.2h-7.6l-16.3-37.2c-0.6-1.4-1.9-5.2-2.1-5.8
		c0,0.3,0.3,4.3,0.3,5.8v37.2h-10.8v-60.6h13.1l20,44.3l19.9-44.3h12.7v60.6H463z"/>
	<path d="M504.8,289.3c-11.3,0-20.3-8.1-20.3-18.8s9-18.7,20.3-18.7c11.2,0,20.3,8,20.3,18.7S516,289.3,504.8,289.3z M504.8,260.2
		c-5.4,0-9,4-9,10.3c0,6.4,3.6,10.4,9,10.4c5.5,0,9-4,9-10.4C513.8,264.3,510.2,260.2,504.8,260.2z"/>
	<path d="M548.9,252c4.2,0,8.8,1.4,11.9,5.2v-30h11.3v60.6h-10.5l-0.3-4.5c-2.9,4.2-8.1,5.9-12.4,5.9c-9.2,0-16.4-7.5-16.4-18.6
		C532.5,259.6,539.7,252,548.9,252z M552.5,280.8c4.3,0,8.7-3.3,8.7-10.3s-4.3-10.2-8.7-10.2c-4.5,0-8.7,3.5-8.7,10.2
		C543.8,277.3,548,280.8,552.5,280.8z"/>
	<path d="M632.3,289.5c-18.6,0-33-13.4-33-32c0-18.6,14.4-32,33-32c18.5,0,32.7,13.4,32.7,32C665,276.1,650.8,289.5,632.3,289.5z
		 M632.3,235.3c-12.1,0-20.1,9.1-20.1,22.2s8,22.2,20.1,22.2c11.9,0,19.8-9.1,19.8-22.2S644.2,235.3,632.3,235.3z"/>
	<path d="M699.4,236.8v51H687v-51h-20.5v-9.6h53.3v9.6H699.4z"/>
	<path d="M769.6,287.8h-24.5v-60.6h23.5c13,0,18.3,7.2,18.3,15.9c0,4.6-3,9.5-6.5,11.9c6,2.6,9.7,8.7,9.7,15
		C790.1,279.8,784.2,287.8,769.6,287.8z M757.4,251.5h9.2c6.2,0,8.7-3.4,8.7-7.9c0-4.4-2.5-7.9-8.7-7.9h-9.2V251.5z M767.5,260.1
		h-10.1v19.1h10.1c7.7,0,10.7-4.1,10.7-9.6C778.2,264.2,775.2,260.1,767.5,260.1z"/>
	<path d="M817.1,289.3c-11.3,0-20.3-8.1-20.3-18.8s9-18.7,20.3-18.7c11.2,0,20.3,8,20.3,18.7S828.3,289.3,817.1,289.3z M817.1,260.2
		c-5.4,0-9,4-9,10.3c0,6.4,3.6,10.4,9,10.4c5.5,0,9-4,9-10.4C826.1,264.3,822.6,260.2,817.1,260.2z"/>
	<path d="M846.9,287.8v-60.6h11.3v60.6H846.9z"/>
	<path d="M884.4,252c4.2,0,8.8,1.4,11.9,5.2v-30h11.3v60.6h-10.5l-0.3-4.5c-2.9,4.2-8.1,5.9-12.4,5.9c-9.2,0-16.4-7.5-16.4-18.6
		C868.1,259.6,875.3,252,884.4,252z M888.1,280.8c4.3,0,8.7-3.3,8.7-10.3s-4.3-10.2-8.7-10.2c-4.5,0-8.7,3.5-8.7,10.2
		C879.4,277.3,883.5,280.8,888.1,280.8z"/>
</g>
</svg>
