<svg id="Layer_1" data-name="Layer 1" xmlns="http://www.w3.org/2000/svg" width="2253" height="324.5" viewBox="0 0 2253 324.5"><title>dot-fade</title><path d="M742.2,279.1a5.8,5.8,0,0,1-5.7,5.8,5.8,5.8,0,1,1,5.7-5.8Zm9.3,25a3.6,3.6,0,1,0,3.6,3.6A3.6,3.6,0,0,0,751.5,304.1Zm0,15.4A2.5,2.5,0,1,0,754,322,2.5,2.5,0,0,0,751.5,319.5Zm0-46.1a5.8,5.8,0,0,0,0,11.5,5.8,5.8,0,0,0,0-11.5Zm15,30.7a3.6,3.6,0,1,0,3.6,3.6A3.6,3.6,0,0,0,766.5,304.1Zm0-15.3a4.7,4.7,0,1,0,0,9.3,4.7,4.7,0,0,0,0-9.3Zm0,30.7A2.5,2.5,0,1,0,769,322,2.5,2.5,0,0,0,766.5,319.5Zm-15-30.7a4.7,4.7,0,1,0,0,9.3,4.7,4.7,0,0,0,0-9.3Zm-15,0a4.7,4.7,0,1,0,0,9.3,4.7,4.7,0,0,0,0-9.3Zm-15,15.3a3.6,3.6,0,1,0,3.6,3.6A3.6,3.6,0,0,0,721.5,304.1Zm-15-30.7a5.8,5.8,0,0,0,0,11.5,5.8,5.8,0,0,0,0-11.5Zm15,46.1A2.5,2.5,0,1,0,724,322,2.5,2.5,0,0,0,721.5,319.5Zm-15-30.7a4.7,4.7,0,1,0,0,9.3,4.7,4.7,0,0,0,0-9.3Zm15-15.4a5.8,5.8,0,0,0,0,11.5,5.8,5.8,0,0,0,0-11.5Zm15,46.1A2.5,2.5,0,1,0,739,322,2.5,2.5,0,0,0,736.5,319.5Zm0-15.4a3.6,3.6,0,1,0,3.6,3.6A3.6,3.6,0,0,0,736.5,304.1Zm30-30.7a5.8,5.8,0,0,0,0,11.5,5.8,5.8,0,0,0,0-11.5Zm-45,15.4a4.7,4.7,0,1,0,0,9.3,4.7,4.7,0,0,0,0-9.3Zm60-15.4a5.8,5.8,0,0,0,0,11.5,5.8,5.8,0,0,0,0-11.5Zm45,46.1A2.5,2.5,0,1,0,829,322,2.5,2.5,0,0,0,826.5,319.5Zm-15-15.4a3.6,3.6,0,1,0,3.6,3.6A3.6,3.6,0,0,0,811.5,304.1Zm0-15.3a4.7,4.7,0,1,0,0,9.3,4.7,4.7,0,0,0,0-9.3Zm15,15.3a3.6,3.6,0,1,0,3.6,3.6A3.6,3.6,0,0,0,826.5,304.1Zm-45,15.4A2.5,2.5,0,1,0,784,322,2.5,2.5,0,0,0,781.5,319.5Zm45-30.7a4.7,4.7,0,1,0,0,9.3,4.7,4.7,0,0,0,0-9.3Zm15,15.3a3.6,3.6,0,1,0,3.6,3.6A3.6,3.6,0,0,0,841.5,304.1Zm0,15.4A2.5,2.5,0,1,0,844,322,2.5,2.5,0,0,0,841.5,319.5Zm-15-46.1a5.8,5.8,0,0,0,0,11.5,5.8,5.8,0,0,0,0-11.5Zm-15,0a5.8,5.8,0,0,0,0,11.5,5.8,5.8,0,0,0,0-11.5Zm-15,46.1A2.5,2.5,0,1,0,799,322,2.5,2.5,0,0,0,796.5,319.5Zm-15-30.7a4.7,4.7,0,1,0,0,9.3,4.7,4.7,0,0,0,0-9.3Zm30,30.7A2.5,2.5,0,1,0,814,322,2.5,2.5,0,0,0,811.5,319.5Zm-30-15.4a3.6,3.6,0,1,0,3.6,3.6A3.6,3.6,0,0,0,781.5,304.1Zm-75,0a3.6,3.6,0,1,0,3.6,3.6A3.6,3.6,0,0,0,706.5,304.1Zm90-30.7a5.8,5.8,0,0,0,0,11.5,5.8,5.8,0,0,0,0-11.5Zm0,15.4a4.7,4.7,0,1,0,0,9.3,4.7,4.7,0,0,0,0-9.3Zm0,15.3a3.6,3.6,0,1,0,3.6,3.6A3.6,3.6,0,0,0,796.5,304.1Zm-120,0a3.6,3.6,0,1,0,3.6,3.6A3.6,3.6,0,0,0,676.5,304.1Zm-75-15.3a4.7,4.7,0,1,0,0,9.3,4.7,4.7,0,0,0,0-9.3Zm-15-15.4a5.8,5.8,0,0,0,0,11.5,5.8,5.8,0,0,0,0-11.5Zm15,0a5.8,5.8,0,0,0,0,11.5,5.8,5.8,0,0,0,0-11.5Zm0,46.1A2.5,2.5,0,1,0,604,322,2.5,2.5,0,0,0,601.5,319.5Zm0-15.4a3.6,3.6,0,1,0,3.6,3.6A3.6,3.6,0,0,0,601.5,304.1Zm15-30.7a5.8,5.8,0,0,0,0,11.5,5.8,5.8,0,0,0,0-11.5Zm0,15.4a4.7,4.7,0,1,0,0,9.3,4.7,4.7,0,0,0,0-9.3Zm0,30.7A2.5,2.5,0,1,0,619,322,2.5,2.5,0,0,0,616.5,319.5Zm15,0A2.5,2.5,0,1,0,634,322,2.5,2.5,0,0,0,631.5,319.5Zm-15-15.4a3.6,3.6,0,1,0,3.6,3.6A3.6,3.6,0,0,0,616.5,304.1Zm-45,0a3.6,3.6,0,1,0,3.6,3.6A3.6,3.6,0,0,0,571.5,304.1Zm270-15.3a4.7,4.7,0,1,0,0,9.3,4.7,4.7,0,0,0,0-9.3Zm-270,0a4.7,4.7,0,1,0,0,9.3,4.7,4.7,0,0,0,0-9.3Zm0,30.7A2.5,2.5,0,1,0,574,322,2.5,2.5,0,0,0,571.5,319.5Zm15,0A2.5,2.5,0,1,0,589,322,2.5,2.5,0,0,0,586.5,319.5Zm0-15.4a3.6,3.6,0,1,0,3.6,3.6A3.6,3.6,0,0,0,586.5,304.1Zm0-15.3a4.7,4.7,0,1,0,0,9.3,4.7,4.7,0,0,0,0-9.3Zm-15-15.4a5.8,5.8,0,0,0,0,11.5,5.8,5.8,0,0,0,0-11.5Zm120,30.7a3.6,3.6,0,1,0,3.6,3.6A3.6,3.6,0,0,0,691.5,304.1Zm-135-30.7a5.8,5.8,0,0,0,0,11.5,5.8,5.8,0,0,0,0-11.5Zm120,15.4a4.7,4.7,0,1,0,0,9.3,4.7,4.7,0,0,0,0-9.3Zm-15-15.4a5.8,5.8,0,0,0,0,11.5,5.8,5.8,0,0,0,0-11.5Zm0,15.4a4.7,4.7,0,1,0,0,9.3,4.7,4.7,0,0,0,0-9.3Zm-30,15.3a3.6,3.6,0,1,0,3.6,3.6A3.6,3.6,0,0,0,631.5,304.1Zm60,15.4A2.5,2.5,0,1,0,694,322,2.5,2.5,0,0,0,691.5,319.5Zm0-30.7a4.7,4.7,0,1,0,0,9.3,4.7,4.7,0,0,0,0-9.3Zm0-15.4a5.8,5.8,0,0,0,0,11.5,5.8,5.8,0,0,0,0-11.5Zm15,46.1A2.5,2.5,0,1,0,709,322,2.5,2.5,0,0,0,706.5,319.5Zm-30-46.1a5.8,5.8,0,0,0,0,11.5,5.8,5.8,0,0,0,0-11.5Zm-45,0a5.8,5.8,0,0,0,0,11.5,5.8,5.8,0,0,0,0-11.5Zm15,46.1A2.5,2.5,0,1,0,649,322,2.5,2.5,0,0,0,646.5,319.5Zm0-15.4a3.6,3.6,0,1,0,3.6,3.6A3.6,3.6,0,0,0,646.5,304.1Zm15,0a3.6,3.6,0,1,0,3.6,3.6A3.6,3.6,0,0,0,661.5,304.1Zm-30-15.3a4.7,4.7,0,1,0,0,9.3,4.7,4.7,0,0,0,0-9.3Zm30,30.7A2.5,2.5,0,1,0,664,322,2.5,2.5,0,0,0,661.5,319.5Zm-15-30.7a4.7,4.7,0,1,0,0,9.3,4.7,4.7,0,0,0,0-9.3Zm0-15.4a5.8,5.8,0,0,0,0,11.5,5.8,5.8,0,0,0,0-11.5Zm30,46.1A2.5,2.5,0,1,0,679,322,2.5,2.5,0,0,0,676.5,319.5Zm345-46.1a5.8,5.8,0,0,0,0,11.5,5.8,5.8,0,0,0,0-11.5Zm15,30.7a3.6,3.6,0,1,0,3.6,3.6A3.6,3.6,0,0,0,1036.5,304.1Zm0,15.4a2.5,2.5,0,1,0,2.5,2.5A2.5,2.5,0,0,0,1036.5,319.5Zm-15-30.7a4.7,4.7,0,1,0,0,9.3,4.7,4.7,0,0,0,0-9.3Zm30,30.7a2.5,2.5,0,1,0,2.5,2.5A2.5,2.5,0,0,0,1051.5,319.5Zm-30-15.4a3.6,3.6,0,1,0,3.6,3.6A3.6,3.6,0,0,0,1021.5,304.1Zm30,0a3.6,3.6,0,1,0,3.6,3.6A3.6,3.6,0,0,0,1051.5,304.1Zm-15-30.7a5.8,5.8,0,0,0,0,11.5,5.8,5.8,0,0,0,0-11.5Zm0,15.4a4.7,4.7,0,1,0,0,9.3,4.7,4.7,0,0,0,0-9.3Zm-45,30.7A2.5,2.5,0,1,0,994,322,2.5,2.5,0,0,0,991.5,319.5Zm30,0a2.5,2.5,0,1,0,2.5,2.5A2.5,2.5,0,0,0,1021.5,319.5Zm-15,0a2.5,2.5,0,1,0,2.5,2.5A2.5,2.5,0,0,0,1006.5,319.5Zm-15-30.7a4.7,4.7,0,1,0,0,9.3,4.7,4.7,0,0,0,0-9.3Zm0,15.3a3.6,3.6,0,1,0,3.6,3.6A3.6,3.6,0,0,0,991.5,304.1Zm60-15.3a4.7,4.7,0,1,0,0,9.3,4.7,4.7,0,0,0,0-9.3Zm-45-15.4a5.8,5.8,0,0,0,0,11.5,5.8,5.8,0,0,0,0-11.5Zm0,30.7a3.6,3.6,0,1,0,3.6,3.6A3.6,3.6,0,0,0,1006.5,304.1Zm0-15.3a4.7,4.7,0,1,0,0,9.3,4.7,4.7,0,0,0,0-9.3Zm-15-15.4a5.8,5.8,0,0,0,0,11.5,5.8,5.8,0,0,0,0-11.5Zm120,46.1a2.5,2.5,0,1,0,2.5,2.5A2.5,2.5,0,0,0,1111.5,319.5Zm0-15.4a3.6,3.6,0,1,0,3.6,3.6A3.6,3.6,0,0,0,1111.5,304.1Zm-15-30.7a5.8,5.8,0,0,0,0,11.5,5.8,5.8,0,0,0,0-11.5Zm0,15.4a4.7,4.7,0,1,0,0,9.3,4.7,4.7,0,0,0,0-9.3Zm0,15.3a3.6,3.6,0,1,0,3.6,3.6A3.6,3.6,0,0,0,1096.5,304.1Zm30,0a3.6,3.6,0,1,0,3.6,3.6A3.6,3.6,0,0,0,1126.5,304.1Zm0,15.4a2.5,2.5,0,1,0,2.5,2.5A2.5,2.5,0,0,0,1126.5,319.5Zm-15-30.7a4.7,4.7,0,1,0,0,9.3,4.7,4.7,0,0,0,0-9.3Zm0-15.4a5.8,5.8,0,0,0,0,11.5,5.8,5.8,0,0,0,0-11.5Zm-30,0a5.8,5.8,0,0,0,0,11.5,5.8,5.8,0,0,0,0-11.5Zm-15,0a5.8,5.8,0,0,0,0,11.5,5.8,5.8,0,0,0,0-11.5Zm0,15.4a4.7,4.7,0,1,0,0,9.3,4.7,4.7,0,0,0,0-9.3Zm0,15.3a3.6,3.6,0,1,0,3.6,3.6A3.6,3.6,0,0,0,1066.5,304.1Zm0,15.4a2.5,2.5,0,1,0,2.5,2.5A2.5,2.5,0,0,0,1066.5,319.5Zm15-15.4a3.6,3.6,0,1,0,3.6,3.6A3.6,3.6,0,0,0,1081.5,304.1Zm0,15.4a2.5,2.5,0,1,0,2.5,2.5A2.5,2.5,0,0,0,1081.5,319.5Zm0-30.7a4.7,4.7,0,1,0,0,9.3,4.7,4.7,0,0,0,0-9.3Zm-30-15.4a5.8,5.8,0,0,0,0,11.5,5.8,5.8,0,0,0,0-11.5Zm-195,15.4a4.7,4.7,0,1,0,0,9.3,4.7,4.7,0,0,0,0-9.3Zm45,30.7A2.5,2.5,0,1,0,904,322,2.5,2.5,0,0,0,901.5,319.5Zm-15-46.1a5.8,5.8,0,0,0,0,11.5,5.8,5.8,0,0,0,0-11.5Zm0,15.4a4.7,4.7,0,1,0,0,9.3,4.7,4.7,0,0,0,0-9.3Zm0,15.3a3.6,3.6,0,1,0,3.6,3.6A3.6,3.6,0,0,0,886.5,304.1Zm30,15.4A2.5,2.5,0,1,0,919,322,2.5,2.5,0,0,0,916.5,319.5Zm-30,0A2.5,2.5,0,1,0,889,322,2.5,2.5,0,0,0,886.5,319.5Zm15-46.1a5.8,5.8,0,0,0,0,11.5,5.8,5.8,0,0,0,0-11.5Zm0,30.7a3.6,3.6,0,1,0,3.6,3.6A3.6,3.6,0,0,0,901.5,304.1Zm0-15.3a4.7,4.7,0,1,0,0,9.3,4.7,4.7,0,0,0,0-9.3Zm-45-15.4a5.8,5.8,0,0,0,0,11.5,5.8,5.8,0,0,0,0-11.5Zm-15,0a5.8,5.8,0,0,0,0,11.5,5.8,5.8,0,0,0,0-11.5Zm15,30.7a3.6,3.6,0,1,0,3.6,3.6A3.6,3.6,0,0,0,856.5,304.1Zm0,15.4A2.5,2.5,0,1,0,859,322,2.5,2.5,0,0,0,856.5,319.5Zm60-15.4a3.6,3.6,0,1,0,3.6,3.6A3.6,3.6,0,0,0,916.5,304.1Zm-45,0a3.6,3.6,0,1,0,3.6,3.6A3.6,3.6,0,0,0,871.5,304.1Zm0,15.4A2.5,2.5,0,1,0,874,322,2.5,2.5,0,0,0,871.5,319.5Zm0-30.7a4.7,4.7,0,1,0,0,9.3,4.7,4.7,0,0,0,0-9.3Zm0-15.4a5.8,5.8,0,0,0,0,11.5,5.8,5.8,0,0,0,0-11.5Zm90,30.7a3.6,3.6,0,1,0,3.6,3.6A3.6,3.6,0,0,0,961.5,304.1Zm0-15.3a4.7,4.7,0,1,0,0,9.3,4.7,4.7,0,0,0,0-9.3Zm0-15.4a5.8,5.8,0,0,0,0,11.5,5.8,5.8,0,0,0,0-11.5Zm15,0a5.8,5.8,0,0,0,0,11.5,5.8,5.8,0,0,0,0-11.5Zm-15,46.1A2.5,2.5,0,1,0,964,322,2.5,2.5,0,0,0,961.5,319.5Zm15,0A2.5,2.5,0,1,0,979,322,2.5,2.5,0,0,0,976.5,319.5Zm0-30.7a4.7,4.7,0,1,0,0,9.3,4.7,4.7,0,0,0,0-9.3Zm0,15.3a3.6,3.6,0,1,0,3.6,3.6A3.6,3.6,0,0,0,976.5,304.1Zm-30-30.7a5.8,5.8,0,0,0,0,11.5,5.8,5.8,0,0,0,0-11.5Zm-15,30.7a3.6,3.6,0,1,0,3.6,3.6A3.6,3.6,0,0,0,931.5,304.1Zm0-15.3a4.7,4.7,0,1,0,0,9.3,4.7,4.7,0,0,0,0-9.3Zm0,30.7A2.5,2.5,0,1,0,934,322,2.5,2.5,0,0,0,931.5,319.5Zm-15-30.7a4.7,4.7,0,1,0,0,9.3,4.7,4.7,0,0,0,0-9.3Zm30,0a4.7,4.7,0,1,0,0,9.3,4.7,4.7,0,0,0,0-9.3Zm-30-15.4a5.8,5.8,0,0,0,0,11.5,5.8,5.8,0,0,0,0-11.5Zm30,30.7a3.6,3.6,0,1,0,3.6,3.6A3.6,3.6,0,0,0,946.5,304.1Zm0,15.4A2.5,2.5,0,1,0,949,322,2.5,2.5,0,0,0,946.5,319.5Zm-15-46.1a5.8,5.8,0,0,0,0,11.5,5.8,5.8,0,0,0,0-11.5Zm165,46.1a2.5,2.5,0,1,0,2.5,2.5A2.5,2.5,0,0,0,1096.5,319.5Zm-915,0A2.5,2.5,0,1,0,184,322,2.5,2.5,0,0,0,181.5,319.5Zm0-15.4a3.6,3.6,0,1,0,3.6,3.6A3.6,3.6,0,0,0,181.5,304.1Zm-15-15.3a4.7,4.7,0,1,0,0,9.3,4.7,4.7,0,0,0,0-9.3Zm0-15.4a5.8,5.8,0,0,0,0,11.5,5.8,5.8,0,0,0,0-11.5Zm105,15.4a4.7,4.7,0,1,0,0,9.3,4.7,4.7,0,0,0,0-9.3Zm-75,0a4.7,4.7,0,1,0,0,9.3,4.7,4.7,0,0,0,0-9.3Zm0,15.3a3.6,3.6,0,1,0,3.6,3.6A3.6,3.6,0,0,0,196.5,304.1Zm-15-30.7a5.8,5.8,0,0,0,0,11.5,5.8,5.8,0,0,0,0-11.5Zm15,0a5.8,5.8,0,0,0,0,11.5,5.8,5.8,0,0,0,0-11.5Zm0,46.1A2.5,2.5,0,1,0,199,322,2.5,2.5,0,0,0,196.5,319.5Zm-45,0A2.5,2.5,0,1,0,154,322,2.5,2.5,0,0,0,151.5,319.5Zm0-15.4a3.6,3.6,0,1,0,3.6,3.6A3.6,3.6,0,0,0,151.5,304.1Zm-15-30.7a5.8,5.8,0,0,0,0,11.5,5.8,5.8,0,0,0,0-11.5Zm0,15.4a4.7,4.7,0,1,0,0,9.3,4.7,4.7,0,0,0,0-9.3Zm15,0a4.7,4.7,0,1,0,0,9.3,4.7,4.7,0,0,0,0-9.3Zm15,15.3a3.6,3.6,0,1,0,3.6,3.6A3.6,3.6,0,0,0,166.5,304.1Zm0,15.4A2.5,2.5,0,1,0,169,322,2.5,2.5,0,0,0,166.5,319.5Zm-15-46.1a5.8,5.8,0,0,0,0,11.5,5.8,5.8,0,0,0,0-11.5Zm60,15.4a4.7,4.7,0,1,0,0,9.3,4.7,4.7,0,0,0,0-9.3Zm0,30.7A2.5,2.5,0,1,0,214,322,2.5,2.5,0,0,0,211.5,319.5Zm45-15.4a3.6,3.6,0,1,0,3.6,3.6A3.6,3.6,0,0,0,256.5,304.1Zm-15,0a3.6,3.6,0,1,0,3.6,3.6A3.6,3.6,0,0,0,241.5,304.1Zm0-15.3a4.7,4.7,0,1,0,0,9.3,4.7,4.7,0,0,0,0-9.3Zm15,30.7A2.5,2.5,0,1,0,259,322,2.5,2.5,0,0,0,256.5,319.5Zm15,0A2.5,2.5,0,1,0,274,322,2.5,2.5,0,0,0,271.5,319.5Zm0-15.4a3.6,3.6,0,1,0,3.6,3.6A3.6,3.6,0,0,0,271.5,304.1Zm-15-30.7a5.8,5.8,0,0,0,0,11.5,5.8,5.8,0,0,0,0-11.5Zm0,15.4a4.7,4.7,0,1,0,0,9.3,4.7,4.7,0,0,0,0-9.3Zm-15-15.4a5.8,5.8,0,0,0,0,11.5,5.8,5.8,0,0,0,0-11.5Zm-30,0a5.8,5.8,0,0,0,0,11.5,5.8,5.8,0,0,0,0-11.5Zm-75,30.7a3.6,3.6,0,1,0,3.6,3.6A3.6,3.6,0,0,0,136.5,304.1Zm90,15.4A2.5,2.5,0,1,0,229,322,2.5,2.5,0,0,0,226.5,319.5Zm15,0A2.5,2.5,0,1,0,244,322,2.5,2.5,0,0,0,241.5,319.5Zm-30-15.4a3.6,3.6,0,1,0,3.6,3.6A3.6,3.6,0,0,0,211.5,304.1Zm15-30.7a5.8,5.8,0,0,0,0,11.5,5.8,5.8,0,0,0,0-11.5Zm0,30.7a3.6,3.6,0,1,0,3.6,3.6A3.6,3.6,0,0,0,226.5,304.1Zm0-15.3a4.7,4.7,0,1,0,0,9.3,4.7,4.7,0,0,0,0-9.3Zm-45,0a4.7,4.7,0,1,0,0,9.3,4.7,4.7,0,0,0,0-9.3Zm-150,0a4.7,4.7,0,1,0,0,9.3,4.7,4.7,0,0,0,0-9.3Zm0-15.4a5.8,5.8,0,0,0,0,11.5,5.8,5.8,0,0,0,0-11.5Zm15,46.1A2.5,2.5,0,1,0,49,322,2.5,2.5,0,0,0,46.5,319.5Zm-15-15.4a3.6,3.6,0,1,0,3.6,3.6A3.6,3.6,0,0,0,31.5,304.1Zm0,15.4A2.5,2.5,0,1,0,34,322,2.5,2.5,0,0,0,31.5,319.5Zm15-46.1a5.8,5.8,0,0,0,0,11.5,5.8,5.8,0,0,0,0-11.5Zm15,46.1A2.5,2.5,0,1,0,64,322,2.5,2.5,0,0,0,61.5,319.5Zm-15-30.7a4.7,4.7,0,1,0,0,9.3,4.7,4.7,0,0,0,0-9.3Zm0,15.3a3.6,3.6,0,1,0,3.6,3.6A3.6,3.6,0,0,0,46.5,304.1Zm-45,0H1v7h.5a3.6,3.6,0,0,0,0-7.2Zm0-15.3H1V298h.5a4.6,4.6,0,0,0,4.6-4.7A4.6,4.6,0,0,0,1.5,288.8Zm60,15.3a3.6,3.6,0,1,0,3.6,3.6A3.6,3.6,0,0,0,61.5,304.1Zm1065-15.3a4.7,4.7,0,1,0,0,9.3,4.7,4.7,0,0,0,0-9.3ZM1.5,273.4H1v11.3h.5a5.8,5.8,0,0,0,5.7-5.8A5.8,5.8,0,0,0,1.5,273.4Zm15,0a5.8,5.8,0,0,0,0,11.5,5.8,5.8,0,0,0,0-11.5Zm0,15.4a4.7,4.7,0,1,0,0,9.3,4.7,4.7,0,0,0,0-9.3Zm0,15.3a3.6,3.6,0,1,0,3.6,3.6A3.6,3.6,0,0,0,16.5,304.1Zm0,15.4A2.5,2.5,0,1,0,19,322,2.5,2.5,0,0,0,16.5,319.5Zm75-30.7a4.7,4.7,0,1,0,0,9.3,4.7,4.7,0,0,0,0-9.3Zm15,15.3a3.6,3.6,0,1,0,3.6,3.6A3.6,3.6,0,0,0,106.5,304.1Zm0-30.7a5.8,5.8,0,0,0,0,11.5,5.8,5.8,0,0,0,0-11.5Zm0,15.4a4.7,4.7,0,1,0,0,9.3,4.7,4.7,0,0,0,0-9.3Zm-45,0a4.7,4.7,0,1,0,0,9.3,4.7,4.7,0,0,0,0-9.3Zm495,0a4.7,4.7,0,1,0,0,9.3,4.7,4.7,0,0,0,0-9.3Zm-435,30.7A2.5,2.5,0,1,0,124,322,2.5,2.5,0,0,0,121.5,319.5Zm0-30.7a4.7,4.7,0,1,0,0,9.3,4.7,4.7,0,0,0,0-9.3Zm0-15.4a5.8,5.8,0,0,0,0,11.5,5.8,5.8,0,0,0,0-11.5Zm0,30.7a3.6,3.6,0,1,0,3.6,3.6A3.6,3.6,0,0,0,121.5,304.1Zm-30-30.7a5.8,5.8,0,0,0,0,11.5,5.8,5.8,0,0,0,0-11.5Zm-15,30.7a3.6,3.6,0,1,0,3.6,3.6A3.6,3.6,0,0,0,76.5,304.1Zm60,15.4A2.5,2.5,0,1,0,139,322,2.5,2.5,0,0,0,136.5,319.5Zm-60-30.7a4.7,4.7,0,1,0,0,9.3,4.7,4.7,0,0,0,0-9.3Zm-15-15.4a5.8,5.8,0,0,0,0,11.5,5.8,5.8,0,0,0,0-11.5Zm15,46.1A2.5,2.5,0,1,0,79,322,2.5,2.5,0,0,0,76.5,319.5Zm15-15.4a3.6,3.6,0,1,0,3.6,3.6A3.6,3.6,0,0,0,91.5,304.1Zm-15-30.7a5.8,5.8,0,0,0,0,11.5,5.8,5.8,0,0,0,0-11.5Zm15,46.1A2.5,2.5,0,1,0,94,322,2.5,2.5,0,0,0,91.5,319.5Zm15,0A2.5,2.5,0,1,0,109,322,2.5,2.5,0,0,0,106.5,319.5Zm360-15.4a3.6,3.6,0,1,0,3.6,3.6A3.6,3.6,0,0,0,466.5,304.1Zm-15-15.3a4.7,4.7,0,1,0,0,9.3,4.7,4.7,0,0,0,0-9.3Zm15,0a4.7,4.7,0,1,0,0,9.3,4.7,4.7,0,0,0,0-9.3Zm-15-15.4a5.8,5.8,0,0,0,0,11.5,5.8,5.8,0,0,0,0-11.5Zm15,46.1A2.5,2.5,0,1,0,469,322,2.5,2.5,0,0,0,466.5,319.5Zm0-46.1a5.8,5.8,0,0,0,0,11.5,5.8,5.8,0,0,0,0-11.5Zm15,15.4a4.7,4.7,0,1,0,0,9.3,4.7,4.7,0,0,0,0-9.3Zm0,15.3a3.6,3.6,0,1,0,3.6,3.6A3.6,3.6,0,0,0,481.5,304.1Zm0,15.4A2.5,2.5,0,1,0,484,322,2.5,2.5,0,0,0,481.5,319.5Zm0-46.1a5.8,5.8,0,0,0,0,11.5,5.8,5.8,0,0,0,0-11.5Zm-45,46.1A2.5,2.5,0,1,0,439,322,2.5,2.5,0,0,0,436.5,319.5Zm0-15.4a3.6,3.6,0,1,0,3.6,3.6A3.6,3.6,0,0,0,436.5,304.1Zm-15-30.7a5.8,5.8,0,0,0,0,11.5,5.8,5.8,0,0,0,0-11.5Zm0,15.4a4.7,4.7,0,1,0,0,9.3,4.7,4.7,0,0,0,0-9.3Zm15,0a4.7,4.7,0,1,0,0,9.3,4.7,4.7,0,0,0,0-9.3Zm15,30.7A2.5,2.5,0,1,0,454,322,2.5,2.5,0,0,0,451.5,319.5Zm-15-46.1a5.8,5.8,0,0,0,0,11.5,5.8,5.8,0,0,0,0-11.5Zm15,30.7a3.6,3.6,0,1,0,3.6,3.6A3.6,3.6,0,0,0,451.5,304.1Zm90-30.7a5.8,5.8,0,0,0,0,11.5,5.8,5.8,0,0,0,0-11.5Zm-15,30.7a3.6,3.6,0,1,0,3.6,3.6A3.6,3.6,0,0,0,526.5,304.1Zm0-30.7a5.8,5.8,0,0,0,0,11.5,5.8,5.8,0,0,0,0-11.5Zm0,15.4a4.7,4.7,0,1,0,0,9.3,4.7,4.7,0,0,0,0-9.3Zm15,15.3a3.6,3.6,0,1,0,3.6,3.6A3.6,3.6,0,0,0,541.5,304.1Zm0,15.4A2.5,2.5,0,1,0,544,322,2.5,2.5,0,0,0,541.5,319.5Zm15-15.4a3.6,3.6,0,1,0,3.6,3.6A3.6,3.6,0,0,0,556.5,304.1Zm-15-15.3a4.7,4.7,0,1,0,0,9.3,4.7,4.7,0,0,0,0-9.3Zm-45,30.7A2.5,2.5,0,1,0,499,322,2.5,2.5,0,0,0,496.5,319.5Zm-75-15.4a3.6,3.6,0,1,0,3.6,3.6A3.6,3.6,0,0,0,421.5,304.1Zm135,15.4A2.5,2.5,0,1,0,559,322,2.5,2.5,0,0,0,556.5,319.5Zm-60-30.7a4.7,4.7,0,1,0,0,9.3,4.7,4.7,0,0,0,0-9.3Zm15,30.7A2.5,2.5,0,1,0,514,322,2.5,2.5,0,0,0,511.5,319.5Zm-15-46.1a5.8,5.8,0,0,0,0,11.5,5.8,5.8,0,0,0,0-11.5Zm0,30.7a3.6,3.6,0,1,0,3.6,3.6A3.6,3.6,0,0,0,496.5,304.1Zm15-15.3a4.7,4.7,0,1,0,0,9.3,4.7,4.7,0,0,0,0-9.3Zm0,15.3a3.6,3.6,0,1,0,3.6,3.6A3.6,3.6,0,0,0,511.5,304.1Zm0-30.7a5.8,5.8,0,0,0,0,11.5,5.8,5.8,0,0,0,0-11.5Zm15,46.1A2.5,2.5,0,1,0,529,322,2.5,2.5,0,0,0,526.5,319.5Zm-240-30.7a4.7,4.7,0,1,0,0,9.3,4.7,4.7,0,0,0,0-9.3Zm30,0a4.7,4.7,0,1,0,0,9.3,4.7,4.7,0,0,0,0-9.3Zm0,30.7A2.5,2.5,0,1,0,319,322,2.5,2.5,0,0,0,316.5,319.5Zm0-46.1a5.8,5.8,0,0,0,0,11.5,5.8,5.8,0,0,0,0-11.5Zm0,30.7a3.6,3.6,0,1,0,3.6,3.6A3.6,3.6,0,0,0,316.5,304.1Zm15,15.4A2.5,2.5,0,1,0,334,322,2.5,2.5,0,0,0,331.5,319.5Zm0-46.1a5.8,5.8,0,0,0,0,11.5,5.8,5.8,0,0,0,0-11.5Zm15,46.1A2.5,2.5,0,1,0,349,322,2.5,2.5,0,0,0,346.5,319.5Zm-15-15.4a3.6,3.6,0,1,0,3.6,3.6A3.6,3.6,0,0,0,331.5,304.1Zm0-15.3a4.7,4.7,0,1,0,0,9.3,4.7,4.7,0,0,0,0-9.3Zm-45-15.4a5.8,5.8,0,0,0,0,11.5,5.8,5.8,0,0,0,0-11.5Zm60,30.7a3.6,3.6,0,1,0,3.6,3.6A3.6,3.6,0,0,0,346.5,304.1Zm-75-30.7a5.8,5.8,0,0,0,0,11.5,5.8,5.8,0,0,0,0-11.5Zm15,30.7a3.6,3.6,0,1,0,3.6,3.6A3.6,3.6,0,0,0,286.5,304.1Zm15-30.7a5.8,5.8,0,0,0,0,11.5,5.8,5.8,0,0,0,0-11.5Zm-15,46.1A2.5,2.5,0,1,0,289,322,2.5,2.5,0,0,0,286.5,319.5Zm15,0A2.5,2.5,0,1,0,304,322,2.5,2.5,0,0,0,301.5,319.5Zm0-30.7a4.7,4.7,0,1,0,0,9.3,4.7,4.7,0,0,0,0-9.3Zm0,15.3a3.6,3.6,0,1,0,3.6,3.6A3.6,3.6,0,0,0,301.5,304.1Zm105-15.3a4.7,4.7,0,1,0,0,9.3,4.7,4.7,0,0,0,0-9.3Zm-15,15.3a3.6,3.6,0,1,0,3.6,3.6A3.6,3.6,0,0,0,391.5,304.1Zm0-30.7a5.8,5.8,0,0,0,0,11.5,5.8,5.8,0,0,0,0-11.5Zm0,15.4a4.7,4.7,0,1,0,0,9.3,4.7,4.7,0,0,0,0-9.3Zm0,30.7A2.5,2.5,0,1,0,394,322,2.5,2.5,0,0,0,391.5,319.5Zm-15-46.1a5.8,5.8,0,0,0,0,11.5,5.8,5.8,0,0,0,0-11.5Zm45,46.1A2.5,2.5,0,1,0,424,322,2.5,2.5,0,0,0,421.5,319.5Zm-15,0A2.5,2.5,0,1,0,409,322,2.5,2.5,0,0,0,406.5,319.5Zm0-46.1a5.8,5.8,0,0,0,0,11.5,5.8,5.8,0,0,0,0-11.5Zm0,30.7a3.6,3.6,0,1,0,3.6,3.6A3.6,3.6,0,0,0,406.5,304.1Zm-45-15.3a4.7,4.7,0,1,0,0,9.3,4.7,4.7,0,0,0,0-9.3Zm0,30.7A2.5,2.5,0,1,0,364,322,2.5,2.5,0,0,0,361.5,319.5Zm15-30.7a4.7,4.7,0,1,0,0,9.3,4.7,4.7,0,0,0,0-9.3Zm-15,15.3a3.6,3.6,0,1,0,3.6,3.6A3.6,3.6,0,0,0,361.5,304.1Zm-15-30.7a5.8,5.8,0,0,0,0,11.5,5.8,5.8,0,0,0,0-11.5Zm0,15.4a4.7,4.7,0,1,0,0,9.3,4.7,4.7,0,0,0,0-9.3Zm30,15.3a3.6,3.6,0,1,0,3.6,3.6A3.6,3.6,0,0,0,376.5,304.1Zm-15-30.7a5.8,5.8,0,0,0,0,11.5,5.8,5.8,0,0,0,0-11.5Zm15,46.1A2.5,2.5,0,1,0,379,322,2.5,2.5,0,0,0,376.5,319.5Zm-375,0H1V324H0a2.5,2.5,0,0,0,1.5.5,2.5,2.5,0,0,0,0-5Zm1875-46.1a5.8,5.8,0,0,0,0,11.5,5.8,5.8,0,0,0,0-11.5Zm15,46.1a2.5,2.5,0,1,0,2.5,2.5A2.5,2.5,0,0,0,1891.5,319.5Zm0-15.4a3.6,3.6,0,1,0,3.6,3.6A3.6,3.6,0,0,0,1891.5,304.1Zm-15-15.3a4.7,4.7,0,1,0,0,9.3,4.7,4.7,0,0,0,0-9.3Zm15-15.4a5.8,5.8,0,0,0,0,11.5,5.8,5.8,0,0,0,0-11.5Zm-45,46.1a2.5,2.5,0,1,0,2.5,2.5A2.5,2.5,0,0,0,1846.5,319.5Zm45-30.7a4.7,4.7,0,1,0,0,9.3,4.7,4.7,0,0,0,0-9.3Zm15,15.3a3.6,3.6,0,1,0,3.6,3.6A3.6,3.6,0,0,0,1906.5,304.1Zm-30,0a3.6,3.6,0,1,0,3.6,3.6A3.6,3.6,0,0,0,1876.5,304.1Zm-30-30.7a5.8,5.8,0,0,0,0,11.5,5.8,5.8,0,0,0,0-11.5Zm0,15.4a4.7,4.7,0,1,0,0,9.3,4.7,4.7,0,0,0,0-9.3Zm60,0a4.7,4.7,0,1,0,0,9.3,4.7,4.7,0,0,0,0-9.3Zm-60,15.3a3.6,3.6,0,1,0,3.6,3.6A3.6,3.6,0,0,0,1846.5,304.1Zm15,15.4a2.5,2.5,0,1,0,2.5,2.5A2.5,2.5,0,0,0,1861.5,319.5Zm0-15.4a3.6,3.6,0,1,0,3.6,3.6A3.6,3.6,0,0,0,1861.5,304.1Zm15,15.4a2.5,2.5,0,1,0,2.5,2.5A2.5,2.5,0,0,0,1876.5,319.5Zm-15-46.1a5.8,5.8,0,0,0,0,11.5,5.8,5.8,0,0,0,0-11.5Zm0,15.4a4.7,4.7,0,1,0,0,9.3,4.7,4.7,0,0,0,0-9.3Zm45,30.7a2.5,2.5,0,1,0,2.5,2.5A2.5,2.5,0,0,0,1906.5,319.5Zm45-46.1a5.8,5.8,0,0,0,0,11.5,5.8,5.8,0,0,0,0-11.5Zm0,15.4a4.7,4.7,0,1,0,0,9.3,4.7,4.7,0,0,0,0-9.3Zm15,30.7a2.5,2.5,0,1,0,2.5,2.5A2.5,2.5,0,0,0,1966.5,319.5Zm-15-15.4a3.6,3.6,0,1,0,3.6,3.6A3.6,3.6,0,0,0,1951.5,304.1Zm0,15.4a2.5,2.5,0,1,0,2.5,2.5A2.5,2.5,0,0,0,1951.5,319.5Zm15-15.4a3.6,3.6,0,1,0,3.6,3.6A3.6,3.6,0,0,0,1966.5,304.1Zm0-30.7a5.8,5.8,0,0,0,0,11.5,5.8,5.8,0,0,0,0-11.5Zm15,46.1a2.5,2.5,0,1,0,2.5,2.5A2.5,2.5,0,0,0,1981.5,319.5Zm-15-30.7a4.7,4.7,0,1,0,0,9.3,4.7,4.7,0,0,0,0-9.3Zm-45,30.7a2.5,2.5,0,1,0,2.5,2.5A2.5,2.5,0,0,0,1921.5,319.5Zm0-46.1a5.8,5.8,0,0,0,0,11.5,5.8,5.8,0,0,0,0-11.5Zm15,0a5.8,5.8,0,0,0,0,11.5,5.8,5.8,0,0,0,0-11.5Zm-15,15.4a4.7,4.7,0,1,0,0,9.3,4.7,4.7,0,0,0,0-9.3Zm-15-15.4a5.8,5.8,0,0,0,0,11.5,5.8,5.8,0,0,0,0-11.5Zm15,30.7a3.6,3.6,0,1,0,3.6,3.6A3.6,3.6,0,0,0,1921.5,304.1Zm15-15.3a4.7,4.7,0,1,0,0,9.3,4.7,4.7,0,0,0,0-9.3Zm0,30.7a2.5,2.5,0,1,0,2.5,2.5A2.5,2.5,0,0,0,1936.5,319.5Zm0-15.4a3.6,3.6,0,1,0,3.6,3.6A3.6,3.6,0,0,0,1936.5,304.1Zm-105,0a3.6,3.6,0,1,0,3.6,3.6A3.6,3.6,0,0,0,1831.5,304.1Zm-90-30.7a5.8,5.8,0,0,0,0,11.5,5.8,5.8,0,0,0,0-11.5Zm0,30.7a3.6,3.6,0,1,0,3.6,3.6A3.6,3.6,0,0,0,1741.5,304.1Zm0-15.3a4.7,4.7,0,1,0,0,9.3,4.7,4.7,0,0,0,0-9.3Zm0,30.7a2.5,2.5,0,1,0,2.5,2.5A2.5,2.5,0,0,0,1741.5,319.5Zm15-46.1a5.8,5.8,0,0,0,0,11.5,5.8,5.8,0,0,0,0-11.5Zm0,15.4a4.7,4.7,0,1,0,0,9.3,4.7,4.7,0,0,0,0-9.3Zm-30-15.4a5.8,5.8,0,0,0,0,11.5,5.8,5.8,0,0,0,0-11.5Zm30,30.7a3.6,3.6,0,1,0,3.6,3.6A3.6,3.6,0,0,0,1756.5,304.1Zm0,15.4a2.5,2.5,0,1,0,2.5,2.5A2.5,2.5,0,0,0,1756.5,319.5Zm15,0a2.5,2.5,0,1,0,2.5,2.5A2.5,2.5,0,0,0,1771.5,319.5Zm-60-15.4a3.6,3.6,0,1,0,3.6,3.6A3.6,3.6,0,0,0,1711.5,304.1Zm0,15.4a2.5,2.5,0,1,0,2.5,2.5A2.5,2.5,0,0,0,1711.5,319.5Zm120-46.1a5.8,5.8,0,0,0,0,11.5,5.8,5.8,0,0,0,0-11.5Zm-105,15.4a4.7,4.7,0,1,0,0,9.3,4.7,4.7,0,0,0,0-9.3Zm-15,0a4.7,4.7,0,1,0,0,9.3,4.7,4.7,0,0,0,0-9.3Zm0-15.4a5.8,5.8,0,0,0,0,11.5,5.8,5.8,0,0,0,0-11.5Zm15,30.7a3.6,3.6,0,1,0,3.6,3.6A3.6,3.6,0,0,0,1726.5,304.1Zm0,15.4a2.5,2.5,0,1,0,2.5,2.5A2.5,2.5,0,0,0,1726.5,319.5Zm-30-46.1a5.8,5.8,0,0,0,0,11.5,5.8,5.8,0,0,0,0-11.5Zm105,15.4a4.7,4.7,0,1,0,0,9.3,4.7,4.7,0,0,0,0-9.3Zm15,0a4.7,4.7,0,1,0,0,9.3,4.7,4.7,0,0,0,0-9.3Zm0,30.7a2.5,2.5,0,1,0,2.5,2.5A2.5,2.5,0,0,0,1816.5,319.5Zm-15-46.1a5.8,5.8,0,0,0,0,11.5,5.8,5.8,0,0,0,0-11.5Zm15,30.7a3.6,3.6,0,1,0,3.6,3.6A3.6,3.6,0,0,0,1816.5,304.1Zm15-15.3a4.7,4.7,0,1,0,0,9.3,4.7,4.7,0,0,0,0-9.3Zm150,15.3a3.6,3.6,0,1,0,3.6,3.6A3.6,3.6,0,0,0,1981.5,304.1Zm-165-30.7a5.8,5.8,0,0,0,0,11.5,5.8,5.8,0,0,0,0-11.5Zm15,46.1a2.5,2.5,0,1,0,2.5,2.5A2.5,2.5,0,0,0,1831.5,319.5Zm-60-15.4a3.6,3.6,0,1,0,3.6,3.6A3.6,3.6,0,0,0,1771.5,304.1Zm0-30.7a5.8,5.8,0,0,0,0,11.5,5.8,5.8,0,0,0,0-11.5Zm15,30.7a3.6,3.6,0,1,0,3.6,3.6A3.6,3.6,0,0,0,1786.5,304.1Zm0,15.4a2.5,2.5,0,1,0,2.5,2.5A2.5,2.5,0,0,0,1786.5,319.5Zm-15-30.7a4.7,4.7,0,1,0,0,9.3,4.7,4.7,0,0,0,0-9.3Zm15,0a4.7,4.7,0,1,0,0,9.3,4.7,4.7,0,0,0,0-9.3Zm15,15.3a3.6,3.6,0,1,0,3.6,3.6A3.6,3.6,0,0,0,1801.5,304.1Zm0,15.4a2.5,2.5,0,1,0,2.5,2.5A2.5,2.5,0,0,0,1801.5,319.5Zm-15-46.1a5.8,5.8,0,0,0,0,11.5,5.8,5.8,0,0,0,0-11.5Zm225,0a5.8,5.8,0,0,0,0,11.5,5.8,5.8,0,0,0,0-11.5Zm165,46.1a2.5,2.5,0,1,0,2.5,2.5A2.5,2.5,0,0,0,2176.5,319.5Zm-15-46.1a5.8,5.8,0,0,0,0,11.5,5.8,5.8,0,0,0,0-11.5Zm15,30.7a3.6,3.6,0,1,0,3.6,3.6A3.6,3.6,0,0,0,2176.5,304.1Zm-15-15.3a4.7,4.7,0,1,0,0,9.3,4.7,4.7,0,0,0,0-9.3Zm30,0a4.7,4.7,0,1,0,0,9.3,4.7,4.7,0,0,0,0-9.3Zm0,15.3a3.6,3.6,0,1,0,3.6,3.6A3.6,3.6,0,0,0,2191.5,304.1Zm0,15.4a2.5,2.5,0,1,0,2.5,2.5A2.5,2.5,0,0,0,2191.5,319.5Zm-60,0a2.5,2.5,0,1,0,2.5,2.5A2.5,2.5,0,0,0,2131.5,319.5Zm45-30.7a4.7,4.7,0,1,0,0,9.3,4.7,4.7,0,0,0,0-9.3Zm0-15.4a5.8,5.8,0,0,0,0,11.5,5.8,5.8,0,0,0,0-11.5Zm-195,15.4a4.7,4.7,0,1,0,0,9.3,4.7,4.7,0,0,0,0-9.3Zm150-15.4a5.8,5.8,0,0,0,0,11.5,5.8,5.8,0,0,0,0-11.5Zm0,15.4a4.7,4.7,0,1,0,0,9.3,4.7,4.7,0,0,0,0-9.3Zm0,15.3a3.6,3.6,0,1,0,3.6,3.6A3.6,3.6,0,0,0,2131.5,304.1Zm15,0a3.6,3.6,0,1,0,3.6,3.6A3.6,3.6,0,0,0,2146.5,304.1Zm0-30.7a5.8,5.8,0,0,0,0,11.5,5.8,5.8,0,0,0,0-11.5Zm0,15.4a4.7,4.7,0,1,0,0,9.3,4.7,4.7,0,0,0,0-9.3Zm15,30.7a2.5,2.5,0,1,0,2.5,2.5A2.5,2.5,0,0,0,2161.5,319.5Zm0-15.4a3.6,3.6,0,1,0,3.6,3.6A3.6,3.6,0,0,0,2161.5,304.1Zm30-30.7a5.8,5.8,0,0,0,0,11.5,5.8,5.8,0,0,0,0-11.5Zm45,0a5.8,5.8,0,0,0,0,11.5,5.8,5.8,0,0,0,0-11.5Zm0,15.4a4.7,4.7,0,1,0,0,9.3,4.7,4.7,0,0,0,0-9.3Zm0,15.3a3.6,3.6,0,1,0,3.6,3.6A3.6,3.6,0,0,0,2236.5,304.1Zm0,15.4a2.5,2.5,0,1,0,2.5,2.5A2.5,2.5,0,0,0,2236.5,319.5ZM2251,0V271.6a6.7,6.7,0,0,1-1.1-13.3,7.9,7.9,0,0,1-5.9-5.4,8.1,8.1,0,0,1-5.9,5.4,6.8,6.8,0,1,1-3.2,0,7.9,7.9,0,0,1-5.9-5.4,8.1,8.1,0,0,1-5.9,5.4,6.8,6.8,0,1,1-3.2,0,7.9,7.9,0,0,1-5.9-5.4,8.1,8.1,0,0,1-5.9,5.4,6.8,6.8,0,1,1-3.2,0,7.9,7.9,0,0,1-5.9-5.4,8.1,8.1,0,0,1-5.9,5.4,6.8,6.8,0,1,1-3.2,0,7.9,7.9,0,0,1-5.9-5.4,8.1,8.1,0,0,1-5.9,5.4,6.8,6.8,0,1,1-3.2,0,7.9,7.9,0,0,1-5.9-5.4,8.1,8.1,0,0,1-5.9,5.4,6.8,6.8,0,1,1-3.2,0,7.9,7.9,0,0,1-5.9-5.4,8.1,8.1,0,0,1-5.9,5.4,6.8,6.8,0,1,1-3.2,0,7.9,7.9,0,0,1-5.9-5.4,8.1,8.1,0,0,1-5.9,5.4,6.8,6.8,0,1,1-3.2,0,7.9,7.9,0,0,1-5.9-5.4,8.1,8.1,0,0,1-5.9,5.4,6.8,6.8,0,1,1-3.2,0,7.9,7.9,0,0,1-5.9-5.4,8.1,8.1,0,0,1-5.9,5.4,6.8,6.8,0,1,1-3.2,0,7.9,7.9,0,0,1-5.9-5.4,8.1,8.1,0,0,1-5.9,5.4,6.8,6.8,0,1,1-3.2,0,7.9,7.9,0,0,1-5.9-5.4,8.1,8.1,0,0,1-5.9,5.4,6.8,6.8,0,1,1-3.2,0,7.9,7.9,0,0,1-5.9-5.4,8.1,8.1,0,0,1-5.9,5.4,6.8,6.8,0,1,1-3.2,0,7.9,7.9,0,0,1-5.9-5.4,8.1,8.1,0,0,1-5.9,5.4,6.8,6.8,0,1,1-3.2,0,7.9,7.9,0,0,1-5.9-5.4,8.1,8.1,0,0,1-5.9,5.4,6.8,6.8,0,1,1-3.2,0,7.9,7.9,0,0,1-5.9-5.4,8.1,8.1,0,0,1-5.9,5.4,6.8,6.8,0,1,1-3.2,0,7.9,7.9,0,0,1-5.9-5.4,8.1,8.1,0,0,1-5.9,5.4,6.8,6.8,0,1,1-3.2,0,7.9,7.9,0,0,1-5.9-5.4,8.1,8.1,0,0,1-5.9,5.4,6.8,6.8,0,1,1-3.2,0,7.9,7.9,0,0,1-5.9-5.4,8.1,8.1,0,0,1-5.9,5.4,6.8,6.8,0,1,1-3.2,0,7.9,7.9,0,0,1-5.9-5.4,8.1,8.1,0,0,1-5.9,5.4,6.8,6.8,0,1,1-3.2,0,7.9,7.9,0,0,1-5.9-5.4,8.1,8.1,0,0,1-5.9,5.4,6.8,6.8,0,1,1-3.2,0,7.9,7.9,0,0,1-5.9-5.4,8.1,8.1,0,0,1-5.9,5.4,6.8,6.8,0,1,1-3.2,0,7.9,7.9,0,0,1-5.9-5.4,8.1,8.1,0,0,1-5.9,5.4,6.8,6.8,0,1,1-3.2,0,7.9,7.9,0,0,1-5.9-5.4,8.1,8.1,0,0,1-5.9,5.4,6.8,6.8,0,1,1-3.2,0,7.9,7.9,0,0,1-5.9-5.4,8.1,8.1,0,0,1-5.9,5.4,6.8,6.8,0,1,1-3.2,0,7.9,7.9,0,0,1-5.9-5.4,8.1,8.1,0,0,1-5.9,5.4,6.8,6.8,0,1,1-3.2,0,7.9,7.9,0,0,1-5.9-5.4,8.1,8.1,0,0,1-5.9,5.4,6.8,6.8,0,1,1-3.2,0,7.9,7.9,0,0,1-5.9-5.4,8.1,8.1,0,0,1-5.9,5.4,6.8,6.8,0,1,1-3.2,0,7.9,7.9,0,0,1-5.9-5.4,8.1,8.1,0,0,1-5.9,5.4,6.8,6.8,0,1,1-3.2,0,7.9,7.9,0,0,1-5.9-5.4,8.1,8.1,0,0,1-5.9,5.4,6.8,6.8,0,1,1-3.2,0,7.9,7.9,0,0,1-5.9-5.4,8.1,8.1,0,0,1-5.9,5.4,6.8,6.8,0,1,1-3.2,0,7.9,7.9,0,0,1-5.9-5.4,8.1,8.1,0,0,1-5.9,5.4,6.8,6.8,0,1,1-3.2,0,7.9,7.9,0,0,1-5.9-5.4,8.1,8.1,0,0,1-5.9,5.4,6.8,6.8,0,1,1-3.2,0,7.9,7.9,0,0,1-5.9-5.4,8.1,8.1,0,0,1-5.9,5.4,6.8,6.8,0,1,1-3.2,0,7.9,7.9,0,0,1-5.9-5.4,8.1,8.1,0,0,1-5.9,5.4,6.8,6.8,0,1,1-3.2,0,7.9,7.9,0,0,1-5.9-5.4,8.1,8.1,0,0,1-5.9,5.4,6.8,6.8,0,1,1-3.2,0,7.9,7.9,0,0,1-5.9-5.4,8.1,8.1,0,0,1-5.9,5.4,6.8,6.8,0,1,1-3.2,0,7.9,7.9,0,0,1-5.9-5.4,8.1,8.1,0,0,1-5.9,5.4,6.8,6.8,0,1,1-3.2,0,7.9,7.9,0,0,1-5.9-5.4,8.1,8.1,0,0,1-5.9,5.4,6.8,6.8,0,1,1-3.2,0,7.9,7.9,0,0,1-5.9-5.4,8.1,8.1,0,0,1-5.9,5.4,6.8,6.8,0,1,1-3.2,0,7.9,7.9,0,0,1-5.9-5.4,8.1,8.1,0,0,1-5.9,5.4,6.8,6.8,0,1,1-3.2,0,7.9,7.9,0,0,1-5.9-5.4,8.1,8.1,0,0,1-5.9,5.4,6.8,6.8,0,1,1-3.2,0,7.9,7.9,0,0,1-5.9-5.4,8.1,8.1,0,0,1-5.9,5.4,6.8,6.8,0,1,1-3.2,0,7.9,7.9,0,0,1-5.9-5.4,8.1,8.1,0,0,1-5.9,5.4,6.8,6.8,0,1,1-3.2,0,7.9,7.9,0,0,1-5.9-5.4,8.1,8.1,0,0,1-5.9,5.4,6.8,6.8,0,1,1-3.2,0,7.9,7.9,0,0,1-5.9-5.4,8.1,8.1,0,0,1-5.9,5.4,6.8,6.8,0,1,1-3.2,0,7.9,7.9,0,0,1-5.9-5.4,8.1,8.1,0,0,1-5.9,5.4,6.8,6.8,0,1,1-3.2,0,7.9,7.9,0,0,1-5.9-5.4,8.1,8.1,0,0,1-5.9,5.4,6.8,6.8,0,1,1-3.2,0,7.9,7.9,0,0,1-5.9-5.4,8.1,8.1,0,0,1-5.9,5.4,6.8,6.8,0,1,1-3.2,0,7.9,7.9,0,0,1-5.9-5.4,8.1,8.1,0,0,1-5.9,5.4,6.8,6.8,0,1,1-3.2,0,7.9,7.9,0,0,1-5.9-5.4,8.1,8.1,0,0,1-5.9,5.4,6.8,6.8,0,1,1-3.2,0,7.9,7.9,0,0,1-5.9-5.4,8.1,8.1,0,0,1-5.9,5.4,6.8,6.8,0,1,1-3.2,0,7.9,7.9,0,0,1-5.9-5.4,8.1,8.1,0,0,1-5.9,5.4,6.8,6.8,0,1,1-3.2,0,7.9,7.9,0,0,1-5.9-5.4,8.1,8.1,0,0,1-5.9,5.4,6.8,6.8,0,1,1-3.2,0,7.9,7.9,0,0,1-5.9-5.4,8.1,8.1,0,0,1-5.9,5.4,6.8,6.8,0,1,1-3.2,0,7.9,7.9,0,0,1-5.9-5.4,8.1,8.1,0,0,1-5.9,5.4,6.8,6.8,0,1,1-3.2,0,7.9,7.9,0,0,1-5.9-5.4,8.1,8.1,0,0,1-5.9,5.4,6.8,6.8,0,1,1-3.2,0,7.9,7.9,0,0,1-5.9-5.4,8.1,8.1,0,0,1-5.9,5.4,6.8,6.8,0,1,1-3.2,0,7.9,7.9,0,0,1-5.9-5.4,8.1,8.1,0,0,1-5.9,5.4,6.8,6.8,0,1,1-3.2,0,7.9,7.9,0,0,1-5.9-5.4,8.1,8.1,0,0,1-5.9,5.4,6.8,6.8,0,1,1-3.2,0,7.9,7.9,0,0,1-5.9-5.4,8.1,8.1,0,0,1-5.9,5.4,6.8,6.8,0,1,1-3.2,0,7.9,7.9,0,0,1-5.9-5.4,8.1,8.1,0,0,1-5.9,5.4,6.8,6.8,0,1,1-3.2,0,7.9,7.9,0,0,1-5.9-5.4,8.1,8.1,0,0,1-5.9,5.4,6.8,6.8,0,1,1-3.2,0,7.9,7.9,0,0,1-5.9-5.4,8.1,8.1,0,0,1-5.9,5.4,6.8,6.8,0,1,1-3.2,0,7.9,7.9,0,0,1-5.9-5.4,8.1,8.1,0,0,1-5.9,5.4,6.8,6.8,0,1,1-3.2,0,7.9,7.9,0,0,1-5.9-5.4,8.1,8.1,0,0,1-5.9,5.4,6.8,6.8,0,1,1-3.2,0,7.9,7.9,0,0,1-5.9-5.4,8.1,8.1,0,0,1-5.9,5.4,6.8,6.8,0,1,1-3.2,0,7.9,7.9,0,0,1-5.9-5.4,8.1,8.1,0,0,1-5.9,5.4,6.8,6.8,0,1,1-3.2,0,7.9,7.9,0,0,1-5.9-5.4,8.1,8.1,0,0,1-5.9,5.4,6.8,6.8,0,1,1-3.2,0,7.9,7.9,0,0,1-5.9-5.4,8.1,8.1,0,0,1-5.9,5.4,6.8,6.8,0,1,1-3.2,0,7.9,7.9,0,0,1-5.9-5.4,8.1,8.1,0,0,1-5.9,5.4,6.8,6.8,0,1,1-3.2,0,7.9,7.9,0,0,1-5.9-5.4,8.1,8.1,0,0,1-5.9,5.4,6.8,6.8,0,1,1-3.2,0,7.9,7.9,0,0,1-5.9-5.4,8.1,8.1,0,0,1-5.9,5.4,6.8,6.8,0,1,1-3.2,0,7.9,7.9,0,0,1-5.9-5.4,8.1,8.1,0,0,1-5.9,5.4,6.8,6.8,0,1,1-3.2,0,7.9,7.9,0,0,1-5.9-5.4,8.1,8.1,0,0,1-5.9,5.4,6.8,6.8,0,1,1-3.2,0,7.9,7.9,0,0,1-5.9-5.4,8.1,8.1,0,0,1-5.9,5.4,6.8,6.8,0,1,1-3.2,0,7.9,7.9,0,0,1-5.9-5.4,8.1,8.1,0,0,1-5.9,5.4,6.8,6.8,0,1,1-3.2,0,7.9,7.9,0,0,1-5.9-5.4,8.1,8.1,0,0,1-5.9,5.4,6.8,6.8,0,1,1-3.2,0,7.9,7.9,0,0,1-5.9-5.4,8.1,8.1,0,0,1-5.9,5.4,6.8,6.8,0,1,1-3.2,0,7.9,7.9,0,0,1-5.9-5.4,8.1,8.1,0,0,1-5.9,5.4,6.8,6.8,0,1,1-3.2,0,7.9,7.9,0,0,1-5.9-5.4,8.1,8.1,0,0,1-5.9,5.4,6.8,6.8,0,1,1-3.2,0,7.9,7.9,0,0,1-5.9-5.4,8.1,8.1,0,0,1-5.9,5.4,6.8,6.8,0,1,1-3.2,0,7.9,7.9,0,0,1-5.9-5.4,8.1,8.1,0,0,1-5.9,5.4,6.8,6.8,0,1,1-3.2,0,7.9,7.9,0,0,1-5.9-5.4,8.1,8.1,0,0,1-5.9,5.4,6.8,6.8,0,1,1-3.2,0,7.9,7.9,0,0,1-5.9-5.4,8.1,8.1,0,0,1-5.9,5.4,6.8,6.8,0,1,1-3.2,0,7.9,7.9,0,0,1-5.9-5.4,8.1,8.1,0,0,1-5.9,5.4,6.8,6.8,0,1,1-3.2,0,7.9,7.9,0,0,1-5.9-5.4,8.1,8.1,0,0,1-5.9,5.4,6.8,6.8,0,1,1-3.2,0,7.9,7.9,0,0,1-5.9-5.4,8.1,8.1,0,0,1-5.9,5.4,6.8,6.8,0,1,1-3.2,0,7.9,7.9,0,0,1-5.9-5.4,8.1,8.1,0,0,1-5.9,5.4,6.8,6.8,0,1,1-3.2,0,7.9,7.9,0,0,1-5.9-5.4,8.1,8.1,0,0,1-5.9,5.4,6.8,6.8,0,1,1-3.2,0,7.9,7.9,0,0,1-5.9-5.4,8.1,8.1,0,0,1-5.9,5.4,6.8,6.8,0,1,1-3.2,0,7.9,7.9,0,0,1-5.9-5.4,8.1,8.1,0,0,1-5.9,5.4,6.8,6.8,0,1,1-3.2,0,7.9,7.9,0,0,1-5.9-5.4,8.1,8.1,0,0,1-5.9,5.4,6.8,6.8,0,1,1-3.2,0,7.9,7.9,0,0,1-5.9-5.4,8.1,8.1,0,0,1-5.9,5.4,6.8,6.8,0,1,1-3.2,0,7.9,7.9,0,0,1-5.9-5.4,8.1,8.1,0,0,1-5.9,5.4,6.8,6.8,0,1,1-3.2,0,7.9,7.9,0,0,1-5.9-5.4,8.1,8.1,0,0,1-5.9,5.4,6.8,6.8,0,1,1-3.2,0,7.9,7.9,0,0,1-5.9-5.4,8.1,8.1,0,0,1-5.9,5.4,6.8,6.8,0,1,1-3.2,0,7.9,7.9,0,0,1-5.9-5.4,8.1,8.1,0,0,1-5.9,5.4,6.8,6.8,0,1,1-3.2,0,7.9,7.9,0,0,1-5.9-5.4,8.1,8.1,0,0,1-5.9,5.4,6.8,6.8,0,1,1-3.2,0,7.9,7.9,0,0,1-5.9-5.4,8.1,8.1,0,0,1-5.9,5.4,6.8,6.8,0,1,1-3.2,0,7.9,7.9,0,0,1-5.9-5.4,8.1,8.1,0,0,1-5.9,5.4,6.8,6.8,0,1,1-3.2,0,7.9,7.9,0,0,1-5.9-5.4,8.1,8.1,0,0,1-5.9,5.4,6.8,6.8,0,1,1-3.2,0,7.9,7.9,0,0,1-5.9-5.4,8.1,8.1,0,0,1-5.9,5.4,6.8,6.8,0,1,1-3.2,0,7.9,7.9,0,0,1-5.9-5.4,8.1,8.1,0,0,1-5.9,5.4,6.8,6.8,0,1,1-3.2,0,7.9,7.9,0,0,1-5.9-5.4,8.1,8.1,0,0,1-5.9,5.4,6.8,6.8,0,1,1-3.2,0,7.9,7.9,0,0,1-5.9-5.4,8.1,8.1,0,0,1-5.9,5.4,6.8,6.8,0,1,1-3.2,0,7.9,7.9,0,0,1-5.9-5.4,8.1,8.1,0,0,1-5.9,5.4,6.8,6.8,0,1,1-3.2,0,7.9,7.9,0,0,1-5.9-5.4,8.1,8.1,0,0,1-5.9,5.4,6.8,6.8,0,1,1-3.2,0,7.9,7.9,0,0,1-5.9-5.4,8.1,8.1,0,0,1-5.9,5.4,6.8,6.8,0,1,1-3.2,0,7.9,7.9,0,0,1-5.9-5.4,8.1,8.1,0,0,1-5.9,5.4,6.8,6.8,0,1,1-3.2,0,7.9,7.9,0,0,1-5.9-5.4,8.1,8.1,0,0,1-5.9,5.4,6.8,6.8,0,1,1-3.2,0,7.9,7.9,0,0,1-5.9-5.4,8.1,8.1,0,0,1-5.9,5.4,6.8,6.8,0,1,1-3.2,0,7.9,7.9,0,0,1-5.9-5.4,8.1,8.1,0,0,1-5.9,5.4,6.8,6.8,0,1,1-3.2,0,7.9,7.9,0,0,1-5.9-5.4,8.1,8.1,0,0,1-5.9,5.4,6.8,6.8,0,1,1-3.2,0,7.9,7.9,0,0,1-5.9-5.4,8.1,8.1,0,0,1-5.9,5.4,6.8,6.8,0,1,1-3.2,0,7.9,7.9,0,0,1-5.9-5.4,8.1,8.1,0,0,1-5.9,5.4,6.8,6.8,0,1,1-3.2,0,7.9,7.9,0,0,1-5.9-5.4,8.1,8.1,0,0,1-5.9,5.4,6.8,6.8,0,1,1-3.2,0,7.9,7.9,0,0,1-5.9-5.4,8.1,8.1,0,0,1-5.9,5.4,6.8,6.8,0,1,1-3.2,0,7.9,7.9,0,0,1-5.9-5.4,8.1,8.1,0,0,1-5.9,5.4,6.8,6.8,0,1,1-3.2,0,7.9,7.9,0,0,1-5.9-5.4,8.1,8.1,0,0,1-5.9,5.4,6.8,6.8,0,1,1-3.2,0,7.9,7.9,0,0,1-5.9-5.4,8.1,8.1,0,0,1-5.9,5.4,6.8,6.8,0,1,1-3.2,0,7.9,7.9,0,0,1-5.9-5.4,8.1,8.1,0,0,1-5.9,5.4,6.8,6.8,0,1,1-3.2,0,7.9,7.9,0,0,1-5.9-5.4,8.1,8.1,0,0,1-5.9,5.4,6.8,6.8,0,1,1-3.2,0,7.9,7.9,0,0,1-5.9-5.4,8.1,8.1,0,0,1-5.9,5.4,6.8,6.8,0,1,1-3.2,0,7.9,7.9,0,0,1-5.9-5.4,8.1,8.1,0,0,1-5.9,5.4,6.8,6.8,0,1,1-3.2,0,7.9,7.9,0,0,1-5.9-5.4,8.1,8.1,0,0,1-5.9,5.4,6.8,6.8,0,1,1-3.2,0,7.9,7.9,0,0,1-5.9-5.4,8.1,8.1,0,0,1-5.9,5.4,6.8,6.8,0,1,1-3.2,0,7.9,7.9,0,0,1-5.9-5.4,8.1,8.1,0,0,1-5.9,5.4,6.8,6.8,0,1,1-3.2,0,7.9,7.9,0,0,1-5.9-5.4,8.1,8.1,0,0,1-5.9,5.4,6.8,6.8,0,1,1-3.2,0,7.9,7.9,0,0,1-5.9-5.4,8.1,8.1,0,0,1-5.9,5.4,6.8,6.8,0,1,1-3.2,0,7.9,7.9,0,0,1-5.9-5.4,8.1,8.1,0,0,1-5.9,5.4,6.8,6.8,0,1,1-3.2,0,7.9,7.9,0,0,1-5.9-5.4,8.1,8.1,0,0,1-5.9,5.4,6.8,6.8,0,1,1-3.2,0,7.9,7.9,0,0,1-5.9-5.4,8.1,8.1,0,0,1-5.9,5.4,6.8,6.8,0,1,1-3.2,0,7.9,7.9,0,0,1-5.9-5.4,8.1,8.1,0,0,1-5.9,5.4,6.8,6.8,0,1,1-3.2,0,7.9,7.9,0,0,1-5.9-5.4,8.1,8.1,0,0,1-5.9,5.4,6.8,6.8,0,1,1-3.2,0,7.9,7.9,0,0,1-5.9-5.4,8.1,8.1,0,0,1-5.9,5.4,6.8,6.8,0,1,1-3.2,0,7.9,7.9,0,0,1-5.9-5.4,8.1,8.1,0,0,1-5.9,5.4,6.8,6.8,0,1,1-3.2,0,7.9,7.9,0,0,1-5.9-5.4,8.1,8.1,0,0,1-5.9,5.4,6.8,6.8,0,1,1-3.2,0,7.9,7.9,0,0,1-5.9-5.4,8.1,8.1,0,0,1-5.9,5.4,6.8,6.8,0,1,1-3.2,0,7.9,7.9,0,0,1-5.9-5.4,8.1,8.1,0,0,1-5.9,5.4,6.8,6.8,0,1,1-3.2,0,7.9,7.9,0,0,1-5.9-5.4,8.1,8.1,0,0,1-5.9,5.4,6.8,6.8,0,1,1-3.2,0,7.9,7.9,0,0,1-5.9-5.4,8.1,8.1,0,0,1-5.9,5.4,6.8,6.8,0,1,1-3.2,0,7.9,7.9,0,0,1-5.9-5.4,8.1,8.1,0,0,1-5.9,5.4,6.8,6.8,0,1,1-3.2,0,7.9,7.9,0,0,1-5.9-5.4,8.1,8.1,0,0,1-5.9,5.4,6.8,6.8,0,1,1-3.2,0,7.9,7.9,0,0,1-5.9-5.4,8.1,8.1,0,0,1-5.9,5.4,6.8,6.8,0,1,1-3.2,0,7.9,7.9,0,0,1-5.9-5.4,8.1,8.1,0,0,1-5.9,5.4,6.8,6.8,0,1,1-3.2,0,7.9,7.9,0,0,1-5.9-5.4,8.1,8.1,0,0,1-5.9,5.4,6.8,6.8,0,1,1-3.2,0,7.9,7.9,0,0,1-5.9-5.4,8.1,8.1,0,0,1-5.9,5.4,6.8,6.8,0,1,1-3.2,0,7.9,7.9,0,0,1-5.9-5.4,8.1,8.1,0,0,1-5.9,5.4,6.8,6.8,0,1,1-3.2,0A7.9,7.9,0,0,1,9,252.9a8.1,8.1,0,0,1-5.9,5.4,6.8,6.8,0,0,1,5.2,6.6,6.8,6.8,0,0,1-6.8,6.7H1V0ZM12.1,244.1a9.9,9.9,0,0,1-3.1-3,11.1,11.1,0,0,1-3.1,3A8.1,8.1,0,0,1,9,248.2,7.1,7.1,0,0,1,12.1,244.1Zm15,0a9.9,9.9,0,0,1-3.1-3,11.1,11.1,0,0,1-3.1,3,8.1,8.1,0,0,1,3.1,4.1A7.1,7.1,0,0,1,27.1,244.1Zm15,0a9.9,9.9,0,0,1-3.1-3,11.1,11.1,0,0,1-3.1,3,8.1,8.1,0,0,1,3.1,4.1A7.1,7.1,0,0,1,42.1,244.1Zm15,0a9.9,9.9,0,0,1-3.1-3,11.1,11.1,0,0,1-3.1,3,8.1,8.1,0,0,1,3.1,4.1A7.1,7.1,0,0,1,57.1,244.1Zm15,0a9.9,9.9,0,0,1-3.1-3,11.1,11.1,0,0,1-3.1,3,8.1,8.1,0,0,1,3.1,4.1A7.1,7.1,0,0,1,72.1,244.1Zm15,0a9.9,9.9,0,0,1-3.1-3,11.1,11.1,0,0,1-3.1,3,8.1,8.1,0,0,1,3.1,4.1A7.1,7.1,0,0,1,87.1,244.1Zm15,0a9.9,9.9,0,0,1-3.1-3,11.1,11.1,0,0,1-3.1,3,8.1,8.1,0,0,1,3.1,4.1A7.1,7.1,0,0,1,102.1,244.1Zm15,0a9.9,9.9,0,0,1-3.1-3,11.1,11.1,0,0,1-3.1,3,8.1,8.1,0,0,1,3.1,4.1A7.1,7.1,0,0,1,117.1,244.1Zm15,0a9.9,9.9,0,0,1-3.1-3,11.1,11.1,0,0,1-3.1,3,8.1,8.1,0,0,1,3.1,4.1A7.1,7.1,0,0,1,132.1,244.1Zm15,0a9.9,9.9,0,0,1-3.1-3,11.1,11.1,0,0,1-3.1,3,8.1,8.1,0,0,1,3.1,4.1A7.1,7.1,0,0,1,147.1,244.1Zm15,0a9.9,9.9,0,0,1-3.1-3,11.1,11.1,0,0,1-3.1,3,8.1,8.1,0,0,1,3.1,4.1A7.1,7.1,0,0,1,162.1,244.1Zm15,0a9.9,9.9,0,0,1-3.1-3,11.1,11.1,0,0,1-3.1,3,8.1,8.1,0,0,1,3.1,4.1A7.1,7.1,0,0,1,177.1,244.1Zm15,0a9.9,9.9,0,0,1-3.1-3,11.1,11.1,0,0,1-3.1,3,8.1,8.1,0,0,1,3.1,4.1A7.1,7.1,0,0,1,192.1,244.1Zm15,0a9.9,9.9,0,0,1-3.1-3,11.1,11.1,0,0,1-3.1,3,8.1,8.1,0,0,1,3.1,4.1A7.1,7.1,0,0,1,207.1,244.1Zm15,0a9.9,9.9,0,0,1-3.1-3,11.1,11.1,0,0,1-3.1,3,8.1,8.1,0,0,1,3.1,4.1A7.1,7.1,0,0,1,222.1,244.1Zm15,0a9.9,9.9,0,0,1-3.1-3,11.1,11.1,0,0,1-3.1,3,8.1,8.1,0,0,1,3.1,4.1A7.1,7.1,0,0,1,237.1,244.1Zm15,0a9.9,9.9,0,0,1-3.1-3,11.1,11.1,0,0,1-3.1,3,8.1,8.1,0,0,1,3.1,4.1A7.1,7.1,0,0,1,252.1,244.1Zm15,0a9.9,9.9,0,0,1-3.1-3,11.1,11.1,0,0,1-3.1,3,8.1,8.1,0,0,1,3.1,4.1A7.1,7.1,0,0,1,267.1,244.1Zm15,0a9.9,9.9,0,0,1-3.1-3,11.1,11.1,0,0,1-3.1,3,8.1,8.1,0,0,1,3.1,4.1A7.1,7.1,0,0,1,282.1,244.1Zm15,0a9.9,9.9,0,0,1-3.1-3,11.1,11.1,0,0,1-3.1,3,8.1,8.1,0,0,1,3.1,4.1A7.1,7.1,0,0,1,297.1,244.1Zm15,0a9.9,9.9,0,0,1-3.1-3,11.1,11.1,0,0,1-3.1,3,8.1,8.1,0,0,1,3.1,4.1A7.1,7.1,0,0,1,312.1,244.1Zm15,0a9.9,9.9,0,0,1-3.1-3,11.1,11.1,0,0,1-3.1,3,8.1,8.1,0,0,1,3.1,4.1A7.1,7.1,0,0,1,327.1,244.1Zm15,0a9.9,9.9,0,0,1-3.1-3,11.1,11.1,0,0,1-3.1,3,8.1,8.1,0,0,1,3.1,4.1A7.1,7.1,0,0,1,342.1,244.1Zm15,0a9.9,9.9,0,0,1-3.1-3,11.1,11.1,0,0,1-3.1,3,8.1,8.1,0,0,1,3.1,4.1A7.1,7.1,0,0,1,357.1,244.1Zm15,0a9.9,9.9,0,0,1-3.1-3,11.1,11.1,0,0,1-3.1,3,8.1,8.1,0,0,1,3.1,4.1A7.1,7.1,0,0,1,372.1,244.1Zm15,0a9.9,9.9,0,0,1-3.1-3,11.1,11.1,0,0,1-3.1,3,8.1,8.1,0,0,1,3.1,4.1A7.1,7.1,0,0,1,387.1,244.1Zm15,0a9.9,9.9,0,0,1-3.1-3,11.1,11.1,0,0,1-3.1,3,8.1,8.1,0,0,1,3.1,4.1A7.1,7.1,0,0,1,402.1,244.1Zm15,0a9.9,9.9,0,0,1-3.1-3,11.1,11.1,0,0,1-3.1,3,8.1,8.1,0,0,1,3.1,4.1A7.1,7.1,0,0,1,417.1,244.1Zm15,0a9.9,9.9,0,0,1-3.1-3,11.1,11.1,0,0,1-3.1,3,8.1,8.1,0,0,1,3.1,4.1A7.1,7.1,0,0,1,432.1,244.1Zm15,0a9.9,9.9,0,0,1-3.1-3,11.1,11.1,0,0,1-3.1,3,8.1,8.1,0,0,1,3.1,4.1A7.1,7.1,0,0,1,447.1,244.1Zm15,0a9.9,9.9,0,0,1-3.1-3,11.1,11.1,0,0,1-3.1,3,8.1,8.1,0,0,1,3.1,4.1A7.1,7.1,0,0,1,462.1,244.1Zm15,0a9.9,9.9,0,0,1-3.1-3,11.1,11.1,0,0,1-3.1,3,8.1,8.1,0,0,1,3.1,4.1A7.1,7.1,0,0,1,477.1,244.1Zm15,0a9.9,9.9,0,0,1-3.1-3,11.1,11.1,0,0,1-3.1,3,8.1,8.1,0,0,1,3.1,4.1A7.1,7.1,0,0,1,492.1,244.1Zm15,0a9.9,9.9,0,0,1-3.1-3,11.1,11.1,0,0,1-3.1,3,8.1,8.1,0,0,1,3.1,4.1A7.1,7.1,0,0,1,507.1,244.1Zm15,0a9.9,9.9,0,0,1-3.1-3,11.1,11.1,0,0,1-3.1,3,8.1,8.1,0,0,1,3.1,4.1A7.1,7.1,0,0,1,522.1,244.1Zm15,0a9.9,9.9,0,0,1-3.1-3,11.1,11.1,0,0,1-3.1,3,8.1,8.1,0,0,1,3.1,4.1A7.1,7.1,0,0,1,537.1,244.1Zm15,0a9.9,9.9,0,0,1-3.1-3,11.1,11.1,0,0,1-3.1,3,8.1,8.1,0,0,1,3.1,4.1A7.1,7.1,0,0,1,552.1,244.1Zm15,0a9.9,9.9,0,0,1-3.1-3,11.1,11.1,0,0,1-3.1,3,8.1,8.1,0,0,1,3.1,4.1A7.1,7.1,0,0,1,567.1,244.1Zm15,0a9.9,9.9,0,0,1-3.1-3,11.1,11.1,0,0,1-3.1,3,8.1,8.1,0,0,1,3.1,4.1A7.1,7.1,0,0,1,582.1,244.1Zm15,0a9.9,9.9,0,0,1-3.1-3,11.1,11.1,0,0,1-3.1,3,8.1,8.1,0,0,1,3.1,4.1A7.1,7.1,0,0,1,597.1,244.1Zm15,0a9.9,9.9,0,0,1-3.1-3,11.1,11.1,0,0,1-3.1,3,8.1,8.1,0,0,1,3.1,4.1A7.1,7.1,0,0,1,612.1,244.1Zm15,0a9.9,9.9,0,0,1-3.1-3,11.1,11.1,0,0,1-3.1,3,8.1,8.1,0,0,1,3.1,4.1A7.1,7.1,0,0,1,627.1,244.1Zm15,0a9.9,9.9,0,0,1-3.1-3,11.1,11.1,0,0,1-3.1,3,8.1,8.1,0,0,1,3.1,4.1A7.1,7.1,0,0,1,642.1,244.1Zm15,0a9.9,9.9,0,0,1-3.1-3,11.1,11.1,0,0,1-3.1,3,8.1,8.1,0,0,1,3.1,4.1A7.1,7.1,0,0,1,657.1,244.1Zm15,0a9.9,9.9,0,0,1-3.1-3,11.1,11.1,0,0,1-3.1,3,8.1,8.1,0,0,1,3.1,4.1A7.1,7.1,0,0,1,672.1,244.1Zm15,0a9.9,9.9,0,0,1-3.1-3,11.1,11.1,0,0,1-3.1,3,8.1,8.1,0,0,1,3.1,4.1A7.1,7.1,0,0,1,687.1,244.1Zm15,0a9.9,9.9,0,0,1-3.1-3,11.1,11.1,0,0,1-3.1,3,8.1,8.1,0,0,1,3.1,4.1A7.1,7.1,0,0,1,702.1,244.1Zm15,0a9.9,9.9,0,0,1-3.1-3,11.1,11.1,0,0,1-3.1,3,8.1,8.1,0,0,1,3.1,4.1A7.1,7.1,0,0,1,717.1,244.1Zm15,0a9.9,9.9,0,0,1-3.1-3,11.1,11.1,0,0,1-3.1,3,8.1,8.1,0,0,1,3.1,4.1A7.1,7.1,0,0,1,732.1,244.1Zm15,0a9.9,9.9,0,0,1-3.1-3,11.1,11.1,0,0,1-3.1,3,8.1,8.1,0,0,1,3.1,4.1A7.1,7.1,0,0,1,747.1,244.1Zm15,0a9.9,9.9,0,0,1-3.1-3,11.1,11.1,0,0,1-3.1,3,8.1,8.1,0,0,1,3.1,4.1A7.1,7.1,0,0,1,762.1,244.1Zm15,0a9.9,9.9,0,0,1-3.1-3,11.1,11.1,0,0,1-3.1,3,8.1,8.1,0,0,1,3.1,4.1A7.1,7.1,0,0,1,777.1,244.1Zm15,0a9.9,9.9,0,0,1-3.1-3,11.1,11.1,0,0,1-3.1,3,8.1,8.1,0,0,1,3.1,4.1A7.1,7.1,0,0,1,792.1,244.1Zm15,0a9.9,9.9,0,0,1-3.1-3,11.1,11.1,0,0,1-3.1,3,8.1,8.1,0,0,1,3.1,4.1A7.1,7.1,0,0,1,807.1,244.1Zm15,0a9.9,9.9,0,0,1-3.1-3,11.1,11.1,0,0,1-3.1,3,8.1,8.1,0,0,1,3.1,4.1A7.1,7.1,0,0,1,822.1,244.1Zm15,0a9.9,9.9,0,0,1-3.1-3,11.1,11.1,0,0,1-3.1,3,8.1,8.1,0,0,1,3.1,4.1A7.1,7.1,0,0,1,837.1,244.1Zm15,0a9.9,9.9,0,0,1-3.1-3,11.1,11.1,0,0,1-3.1,3,8.1,8.1,0,0,1,3.1,4.1A7.1,7.1,0,0,1,852.1,244.1Zm15,0a9.9,9.9,0,0,1-3.1-3,11.1,11.1,0,0,1-3.1,3,8.1,8.1,0,0,1,3.1,4.1A7.1,7.1,0,0,1,867.1,244.1Zm15,0a9.9,9.9,0,0,1-3.1-3,11.1,11.1,0,0,1-3.1,3,8.1,8.1,0,0,1,3.1,4.1A7.1,7.1,0,0,1,882.1,244.1Zm15,0a9.9,9.9,0,0,1-3.1-3,11.1,11.1,0,0,1-3.1,3,8.1,8.1,0,0,1,3.1,4.1A7.1,7.1,0,0,1,897.1,244.1Zm15,0a9.9,9.9,0,0,1-3.1-3,11.1,11.1,0,0,1-3.1,3,8.1,8.1,0,0,1,3.1,4.1A7.1,7.1,0,0,1,912.1,244.1Zm15,0a9.9,9.9,0,0,1-3.1-3,11.1,11.1,0,0,1-3.1,3,8.1,8.1,0,0,1,3.1,4.1A7.1,7.1,0,0,1,927.1,244.1Zm15,0a9.9,9.9,0,0,1-3.1-3,11.1,11.1,0,0,1-3.1,3,8.1,8.1,0,0,1,3.1,4.1A7.1,7.1,0,0,1,942.1,244.1Zm15,0a9.9,9.9,0,0,1-3.1-3,11.1,11.1,0,0,1-3.1,3,8.1,8.1,0,0,1,3.1,4.1A7.1,7.1,0,0,1,957.1,244.1Zm15,0a9.9,9.9,0,0,1-3.1-3,11.1,11.1,0,0,1-3.1,3,8.1,8.1,0,0,1,3.1,4.1A7.1,7.1,0,0,1,972.1,244.1Zm15,0a9.9,9.9,0,0,1-3.1-3,11.1,11.1,0,0,1-3.1,3,8.1,8.1,0,0,1,3.1,4.1A7.1,7.1,0,0,1,987.1,244.1Zm15,0a9.9,9.9,0,0,1-3.1-3,11.1,11.1,0,0,1-3.1,3,8.1,8.1,0,0,1,3.1,4.1A7.1,7.1,0,0,1,1002.1,244.1Zm15,0a9.9,9.9,0,0,1-3.1-3,11.1,11.1,0,0,1-3.1,3,8.1,8.1,0,0,1,3.1,4.1A7.1,7.1,0,0,1,1017.1,244.1Zm15,0a9.9,9.9,0,0,1-3.1-3,11.1,11.1,0,0,1-3.1,3,8.1,8.1,0,0,1,3.1,4.1A7.1,7.1,0,0,1,1032.1,244.1Zm15,0a9.9,9.9,0,0,1-3.1-3,11.1,11.1,0,0,1-3.1,3,8.1,8.1,0,0,1,3.1,4.1A7.1,7.1,0,0,1,1047.1,244.1Zm15,0a9.9,9.9,0,0,1-3.1-3,11.1,11.1,0,0,1-3.1,3,8.1,8.1,0,0,1,3.1,4.1A7.1,7.1,0,0,1,1062.1,244.1Zm15,0a9.9,9.9,0,0,1-3.1-3,11.1,11.1,0,0,1-3.1,3,8.1,8.1,0,0,1,3.1,4.1A7.1,7.1,0,0,1,1077.1,244.1Zm15,0a9.9,9.9,0,0,1-3.1-3,11.1,11.1,0,0,1-3.1,3,8.1,8.1,0,0,1,3.1,4.1A7.1,7.1,0,0,1,1092.1,244.1Zm15,0a9.9,9.9,0,0,1-3.1-3,11.1,11.1,0,0,1-3.1,3,8.1,8.1,0,0,1,3.1,4.1A7.1,7.1,0,0,1,1107.1,244.1Zm15,0a9.9,9.9,0,0,1-3.1-3,11.1,11.1,0,0,1-3.1,3,8.1,8.1,0,0,1,3.1,4.1A7.1,7.1,0,0,1,1122.1,244.1Zm15,0a9.9,9.9,0,0,1-3.1-3,11.1,11.1,0,0,1-3.1,3,8.1,8.1,0,0,1,3.1,4.1A7.1,7.1,0,0,1,1137.1,244.1Zm15,0a9.9,9.9,0,0,1-3.1-3,11.1,11.1,0,0,1-3.1,3,8.1,8.1,0,0,1,3.1,4.1A7.1,7.1,0,0,1,1152.1,244.1Zm15,0a9.9,9.9,0,0,1-3.1-3,11.1,11.1,0,0,1-3.1,3,8.1,8.1,0,0,1,3.1,4.1A7.1,7.1,0,0,1,1167.1,244.1Zm15,0a9.9,9.9,0,0,1-3.1-3,11.1,11.1,0,0,1-3.1,3,8.1,8.1,0,0,1,3.1,4.1A7.1,7.1,0,0,1,1182.1,244.1Zm15,0a9.9,9.9,0,0,1-3.1-3,11.1,11.1,0,0,1-3.1,3,8.1,8.1,0,0,1,3.1,4.1A7.1,7.1,0,0,1,1197.1,244.1Zm15,0a9.9,9.9,0,0,1-3.1-3,11.1,11.1,0,0,1-3.1,3,8.1,8.1,0,0,1,3.1,4.1A7.1,7.1,0,0,1,1212.1,244.1Zm15,0a9.9,9.9,0,0,1-3.1-3,11.1,11.1,0,0,1-3.1,3,8.1,8.1,0,0,1,3.1,4.1A7.1,7.1,0,0,1,1227.1,244.1Zm15,0a9.9,9.9,0,0,1-3.1-3,11.1,11.1,0,0,1-3.1,3,8.1,8.1,0,0,1,3.1,4.1A7.1,7.1,0,0,1,1242.1,244.1Zm15,0a9.9,9.9,0,0,1-3.1-3,11.1,11.1,0,0,1-3.1,3,8.1,8.1,0,0,1,3.1,4.1A7.1,7.1,0,0,1,1257.1,244.1Zm15,0a9.9,9.9,0,0,1-3.1-3,11.1,11.1,0,0,1-3.1,3,8.1,8.1,0,0,1,3.1,4.1A7.1,7.1,0,0,1,1272.1,244.1Zm15,0a9.9,9.9,0,0,1-3.1-3,11.1,11.1,0,0,1-3.1,3,8.1,8.1,0,0,1,3.1,4.1A7.1,7.1,0,0,1,1287.1,244.1Zm15,0a9.9,9.9,0,0,1-3.1-3,11.1,11.1,0,0,1-3.1,3,8.1,8.1,0,0,1,3.1,4.1A7.1,7.1,0,0,1,1302.1,244.1Zm15,0a9.9,9.9,0,0,1-3.1-3,11.1,11.1,0,0,1-3.1,3,8.1,8.1,0,0,1,3.1,4.1A7.1,7.1,0,0,1,1317.1,244.1Zm15,0a9.9,9.9,0,0,1-3.1-3,11.1,11.1,0,0,1-3.1,3,8.1,8.1,0,0,1,3.1,4.1A7.1,7.1,0,0,1,1332.1,244.1Zm15,0a9.9,9.9,0,0,1-3.1-3,11.1,11.1,0,0,1-3.1,3,8.1,8.1,0,0,1,3.1,4.1A7.1,7.1,0,0,1,1347.1,244.1Zm15,0a9.9,9.9,0,0,1-3.1-3,11.1,11.1,0,0,1-3.1,3,8.1,8.1,0,0,1,3.1,4.1A7.1,7.1,0,0,1,1362.1,244.1Zm15,0a9.9,9.9,0,0,1-3.1-3,11.1,11.1,0,0,1-3.1,3,8.1,8.1,0,0,1,3.1,4.1A7.1,7.1,0,0,1,1377.1,244.1Zm15,0a9.9,9.9,0,0,1-3.1-3,11.1,11.1,0,0,1-3.1,3,8.1,8.1,0,0,1,3.1,4.1A7.1,7.1,0,0,1,1392.1,244.1Zm15,0a9.9,9.9,0,0,1-3.1-3,11.1,11.1,0,0,1-3.1,3,8.1,8.1,0,0,1,3.1,4.1A7.1,7.1,0,0,1,1407.1,244.1Zm15,0a9.9,9.9,0,0,1-3.1-3,11.1,11.1,0,0,1-3.1,3,8.1,8.1,0,0,1,3.1,4.1A7.1,7.1,0,0,1,1422.1,244.1Zm15,0a9.9,9.9,0,0,1-3.1-3,11.1,11.1,0,0,1-3.1,3,8.1,8.1,0,0,1,3.1,4.1A7.1,7.1,0,0,1,1437.1,244.1Zm15,0a9.9,9.9,0,0,1-3.1-3,11.1,11.1,0,0,1-3.1,3,8.1,8.1,0,0,1,3.1,4.1A7.1,7.1,0,0,1,1452.1,244.1Zm15,0a9.9,9.9,0,0,1-3.1-3,11.1,11.1,0,0,1-3.1,3,8.1,8.1,0,0,1,3.1,4.1A7.1,7.1,0,0,1,1467.1,244.1Zm15,0a9.9,9.9,0,0,1-3.1-3,11.1,11.1,0,0,1-3.1,3,8.1,8.1,0,0,1,3.1,4.1A7.1,7.1,0,0,1,1482.1,244.1Zm15,0a9.9,9.9,0,0,1-3.1-3,11.1,11.1,0,0,1-3.1,3,8.1,8.1,0,0,1,3.1,4.1A7.1,7.1,0,0,1,1497.1,244.1Zm15,0a9.9,9.9,0,0,1-3.1-3,11.1,11.1,0,0,1-3.1,3,8.1,8.1,0,0,1,3.1,4.1A7.1,7.1,0,0,1,1512.1,244.1Zm15,0a9.9,9.9,0,0,1-3.1-3,11.1,11.1,0,0,1-3.1,3,8.1,8.1,0,0,1,3.1,4.1A7.1,7.1,0,0,1,1527.1,244.1Zm15,0a9.9,9.9,0,0,1-3.1-3,11.1,11.1,0,0,1-3.1,3,8.1,8.1,0,0,1,3.1,4.1A7.1,7.1,0,0,1,1542.1,244.1Zm15,0a9.9,9.9,0,0,1-3.1-3,11.1,11.1,0,0,1-3.1,3,8.1,8.1,0,0,1,3.1,4.1A7.1,7.1,0,0,1,1557.1,244.1Zm15,0a9.9,9.9,0,0,1-3.1-3,11.1,11.1,0,0,1-3.1,3,8.1,8.1,0,0,1,3.1,4.1A7.1,7.1,0,0,1,1572.1,244.1Zm15,0a9.9,9.9,0,0,1-3.1-3,11.1,11.1,0,0,1-3.1,3,8.1,8.1,0,0,1,3.1,4.1A7.1,7.1,0,0,1,1587.1,244.1Zm15,0a9.9,9.9,0,0,1-3.1-3,11.1,11.1,0,0,1-3.1,3,8.1,8.1,0,0,1,3.1,4.1A7.1,7.1,0,0,1,1602.1,244.1Zm15,0a9.9,9.9,0,0,1-3.1-3,11.1,11.1,0,0,1-3.1,3,8.1,8.1,0,0,1,3.1,4.1A7.1,7.1,0,0,1,1617.1,244.1Zm15,0a9.9,9.9,0,0,1-3.1-3,11.1,11.1,0,0,1-3.1,3,8.1,8.1,0,0,1,3.1,4.1A7.1,7.1,0,0,1,1632.1,244.1Zm15,0a9.9,9.9,0,0,1-3.1-3,11.1,11.1,0,0,1-3.1,3,8.1,8.1,0,0,1,3.1,4.1A7.1,7.1,0,0,1,1647.1,244.1Zm15,0a9.9,9.9,0,0,1-3.1-3,11.1,11.1,0,0,1-3.1,3,8.1,8.1,0,0,1,3.1,4.1A7.1,7.1,0,0,1,1662.1,244.1Zm15,0a9.9,9.9,0,0,1-3.1-3,11.1,11.1,0,0,1-3.1,3,8.1,8.1,0,0,1,3.1,4.1A7.1,7.1,0,0,1,1677.1,244.1Zm15,0a9.9,9.9,0,0,1-3.1-3,11.1,11.1,0,0,1-3.1,3,8.1,8.1,0,0,1,3.1,4.1A7.1,7.1,0,0,1,1692.1,244.1Zm15,0a9.9,9.9,0,0,1-3.1-3,11.1,11.1,0,0,1-3.1,3,8.1,8.1,0,0,1,3.1,4.1A7.1,7.1,0,0,1,1707.1,244.1Zm15,0a9.9,9.9,0,0,1-3.1-3,11.1,11.1,0,0,1-3.1,3,8.1,8.1,0,0,1,3.1,4.1A7.1,7.1,0,0,1,1722.1,244.1Zm15,0a9.9,9.9,0,0,1-3.1-3,11.1,11.1,0,0,1-3.1,3,8.1,8.1,0,0,1,3.1,4.1A7.1,7.1,0,0,1,1737.1,244.1Zm15,0a9.9,9.9,0,0,1-3.1-3,11.1,11.1,0,0,1-3.1,3,8.1,8.1,0,0,1,3.1,4.1A7.1,7.1,0,0,1,1752.1,244.1Zm15,0a9.9,9.9,0,0,1-3.1-3,11.1,11.1,0,0,1-3.1,3,8.1,8.1,0,0,1,3.1,4.1A7.1,7.1,0,0,1,1767.1,244.1Zm15,0a9.9,9.9,0,0,1-3.1-3,11.1,11.1,0,0,1-3.1,3,8.1,8.1,0,0,1,3.1,4.1A7.1,7.1,0,0,1,1782.1,244.1Zm15,0a9.9,9.9,0,0,1-3.1-3,11.1,11.1,0,0,1-3.1,3,8.1,8.1,0,0,1,3.1,4.1A7.1,7.1,0,0,1,1797.1,244.1Zm15,0a9.9,9.9,0,0,1-3.1-3,11.1,11.1,0,0,1-3.1,3,8.1,8.1,0,0,1,3.1,4.1A7.1,7.1,0,0,1,1812.1,244.1Zm15,0a9.9,9.9,0,0,1-3.1-3,11.1,11.1,0,0,1-3.1,3,8.1,8.1,0,0,1,3.1,4.1A7.1,7.1,0,0,1,1827.1,244.1Zm15,0a9.9,9.9,0,0,1-3.1-3,11.1,11.1,0,0,1-3.1,3,8.1,8.1,0,0,1,3.1,4.1A7.1,7.1,0,0,1,1842.1,244.1Zm15,0a9.9,9.9,0,0,1-3.1-3,11.1,11.1,0,0,1-3.1,3,8.1,8.1,0,0,1,3.1,4.1A7.1,7.1,0,0,1,1857.1,244.1Zm15,0a9.9,9.9,0,0,1-3.1-3,11.1,11.1,0,0,1-3.1,3,8.1,8.1,0,0,1,3.1,4.1A7.1,7.1,0,0,1,1872.1,244.1Zm15,0a9.9,9.9,0,0,1-3.1-3,11.1,11.1,0,0,1-3.1,3,8.1,8.1,0,0,1,3.1,4.1A7.1,7.1,0,0,1,1887.1,244.1Zm15,0a9.9,9.9,0,0,1-3.1-3,11.1,11.1,0,0,1-3.1,3,8.1,8.1,0,0,1,3.1,4.1A7.1,7.1,0,0,1,1902.1,244.1Zm15,0a9.9,9.9,0,0,1-3.1-3,11.1,11.1,0,0,1-3.1,3,8.1,8.1,0,0,1,3.1,4.1A7.1,7.1,0,0,1,1917.1,244.1Zm15,0a9.9,9.9,0,0,1-3.1-3,11.1,11.1,0,0,1-3.1,3,8.1,8.1,0,0,1,3.1,4.1A7.1,7.1,0,0,1,1932.1,244.1Zm15,0a9.9,9.9,0,0,1-3.1-3,11.1,11.1,0,0,1-3.1,3,8.1,8.1,0,0,1,3.1,4.1A7.1,7.1,0,0,1,1947.1,244.1Zm15,0a9.9,9.9,0,0,1-3.1-3,11.1,11.1,0,0,1-3.1,3,8.1,8.1,0,0,1,3.1,4.1A7.1,7.1,0,0,1,1962.1,244.1Zm15,0a9.9,9.9,0,0,1-3.1-3,11.1,11.1,0,0,1-3.1,3,8.1,8.1,0,0,1,3.1,4.1A7.1,7.1,0,0,1,1977.1,244.1Zm15,0a9.9,9.9,0,0,1-3.1-3,11.1,11.1,0,0,1-3.1,3,8.1,8.1,0,0,1,3.1,4.1A7.1,7.1,0,0,1,1992.1,244.1Zm15,0a9.9,9.9,0,0,1-3.1-3,11.1,11.1,0,0,1-3.1,3,8.1,8.1,0,0,1,3.1,4.1A7.1,7.1,0,0,1,2007.1,244.1Zm15,0a9.9,9.9,0,0,1-3.1-3,11.1,11.1,0,0,1-3.1,3,8.1,8.1,0,0,1,3.1,4.1A7.1,7.1,0,0,1,2022.1,244.1Zm15,0a9.9,9.9,0,0,1-3.1-3,11.1,11.1,0,0,1-3.1,3,8.1,8.1,0,0,1,3.1,4.1A7.1,7.1,0,0,1,2037.1,244.1Zm15,0a9.9,9.9,0,0,1-3.1-3,11.1,11.1,0,0,1-3.1,3,8.1,8.1,0,0,1,3.1,4.1A7.1,7.1,0,0,1,2052.1,244.1Zm15,0a9.9,9.9,0,0,1-3.1-3,11.1,11.1,0,0,1-3.1,3,8.1,8.1,0,0,1,3.1,4.1A7.1,7.1,0,0,1,2067.1,244.1Zm15,0a9.9,9.9,0,0,1-3.1-3,11.1,11.1,0,0,1-3.1,3,8.1,8.1,0,0,1,3.1,4.1A7.1,7.1,0,0,1,2082.1,244.1Zm15,0a9.9,9.9,0,0,1-3.1-3,11.1,11.1,0,0,1-3.1,3,8.1,8.1,0,0,1,3.1,4.1A7.1,7.1,0,0,1,2097.1,244.1Zm15,0a9.9,9.9,0,0,1-3.1-3,11.1,11.1,0,0,1-3.1,3,8.1,8.1,0,0,1,3.1,4.1A7.1,7.1,0,0,1,2112.1,244.1Zm15,0a9.9,9.9,0,0,1-3.1-3,11.1,11.1,0,0,1-3.1,3,8.1,8.1,0,0,1,3.1,4.1A7.1,7.1,0,0,1,2127.1,244.1Zm15,0a9.9,9.9,0,0,1-3.1-3,11.1,11.1,0,0,1-3.1,3,8.1,8.1,0,0,1,3.1,4.1A7.1,7.1,0,0,1,2142.1,244.1Zm15,0a9.9,9.9,0,0,1-3.1-3,11.1,11.1,0,0,1-3.1,3,8.1,8.1,0,0,1,3.1,4.1A7.1,7.1,0,0,1,2157.1,244.1Zm15,0a9.9,9.9,0,0,1-3.1-3,11.1,11.1,0,0,1-3.1,3,8.1,8.1,0,0,1,3.1,4.1A7.1,7.1,0,0,1,2172.1,244.1Zm15,0a9.9,9.9,0,0,1-3.1-3,11.1,11.1,0,0,1-3.1,3,8.1,8.1,0,0,1,3.1,4.1A7.1,7.1,0,0,1,2187.1,244.1Zm15,0a9.9,9.9,0,0,1-3.1-3,11.1,11.1,0,0,1-3.1,3,8.1,8.1,0,0,1,3.1,4.1A7.1,7.1,0,0,1,2202.1,244.1Zm15,0a9.9,9.9,0,0,1-3.1-3,11.1,11.1,0,0,1-3.1,3,8.1,8.1,0,0,1,3.1,4.1A7.1,7.1,0,0,1,2217.1,244.1Zm15,0a9.9,9.9,0,0,1-3.1-3,11.1,11.1,0,0,1-3.1,3,8.1,8.1,0,0,1,3.1,4.1A7.1,7.1,0,0,1,2232.1,244.1Zm15,0a9.9,9.9,0,0,1-3.1-3,11.1,11.1,0,0,1-3.1,3,8.1,8.1,0,0,1,3.1,4.1A7.1,7.1,0,0,1,2247.1,244.1Zm3.9,40.7V273.5a5.7,5.7,0,0,0,0,11.3Zm0,13.2v-9.2a4.7,4.7,0,0,0-4.2,4.6A4.7,4.7,0,0,0,2251,298Zm0,6.2a3.5,3.5,0,0,0,0,7Zm0,19.8v-4.4a2.4,2.4,0,0,0-2,2.4,2.5,2.5,0,0,0,2.5,2.5,2.7,2.7,0,0,0,1.5-.5Zm-44.5-50.6a5.8,5.8,0,0,0,0,11.5,5.8,5.8,0,0,0,0-11.5Zm0,30.7a3.6,3.6,0,1,0,3.6,3.6A3.6,3.6,0,0,0,2206.5,304.1Zm0-15.3a4.7,4.7,0,1,0,0,9.3,4.7,4.7,0,0,0,0-9.3Zm0,30.7a2.5,2.5,0,1,0,2.5,2.5A2.5,2.5,0,0,0,2206.5,319.5Zm15,0a2.5,2.5,0,1,0,2.5,2.5A2.5,2.5,0,0,0,2221.5,319.5Zm0-30.7a4.7,4.7,0,1,0,0,9.3,4.7,4.7,0,0,0,0-9.3Zm0-15.4a5.8,5.8,0,0,0,0,11.5,5.8,5.8,0,0,0,0-11.5Zm0,30.7a3.6,3.6,0,1,0,3.6,3.6A3.6,3.6,0,0,0,2221.5,304.1Zm-75,15.4a2.5,2.5,0,1,0,2.5,2.5A2.5,2.5,0,0,0,2146.5,319.5Zm-120-15.4a3.6,3.6,0,1,0,3.6,3.6A3.6,3.6,0,0,0,2026.5,304.1Zm-330-15.3a4.7,4.7,0,1,0,0,9.3,4.7,4.7,0,0,0,0-9.3Zm330-15.4a5.8,5.8,0,0,0,0,11.5,5.8,5.8,0,0,0,0-11.5Zm0,46.1a2.5,2.5,0,1,0,2.5,2.5A2.5,2.5,0,0,0,2026.5,319.5Zm0-30.7a4.7,4.7,0,1,0,0,9.3,4.7,4.7,0,0,0,0-9.3Zm15,0a4.7,4.7,0,1,0,0,9.3,4.7,4.7,0,0,0,0-9.3Zm0-15.4a5.8,5.8,0,0,0,0,11.5,5.8,5.8,0,0,0,0-11.5Zm0,30.7a3.6,3.6,0,1,0,3.6,3.6A3.6,3.6,0,0,0,2041.5,304.1Zm0,15.4a2.5,2.5,0,1,0,2.5,2.5A2.5,2.5,0,0,0,2041.5,319.5Zm-45,0a2.5,2.5,0,1,0,2.5,2.5A2.5,2.5,0,0,0,1996.5,319.5Zm60,0a2.5,2.5,0,1,0,2.5,2.5A2.5,2.5,0,0,0,2056.5,319.5Zm-60-15.4a3.6,3.6,0,1,0,3.6,3.6A3.6,3.6,0,0,0,1996.5,304.1Zm0-15.3a4.7,4.7,0,1,0,0,9.3,4.7,4.7,0,0,0,0-9.3Zm-15-15.4a5.8,5.8,0,0,0,0,11.5,5.8,5.8,0,0,0,0-11.5Zm30,15.4a4.7,4.7,0,1,0,0,9.3,4.7,4.7,0,0,0,0-9.3Zm0,15.3a3.6,3.6,0,1,0,3.6,3.6A3.6,3.6,0,0,0,2011.5,304.1Zm0,15.4a2.5,2.5,0,1,0,2.5,2.5A2.5,2.5,0,0,0,2011.5,319.5Zm-15-46.1a5.8,5.8,0,0,0,0,11.5,5.8,5.8,0,0,0,0-11.5Zm105,46.1a2.5,2.5,0,1,0,2.5,2.5A2.5,2.5,0,0,0,2101.5,319.5Zm15-46.1a5.8,5.8,0,0,0,0,11.5,5.8,5.8,0,0,0,0-11.5Zm-15,30.7a3.6,3.6,0,1,0,3.6,3.6A3.6,3.6,0,0,0,2101.5,304.1Zm0-15.3a4.7,4.7,0,1,0,0,9.3,4.7,4.7,0,0,0,0-9.3Zm-15,0a4.7,4.7,0,1,0,0,9.3,4.7,4.7,0,0,0,0-9.3Zm0-15.4a5.8,5.8,0,0,0,0,11.5,5.8,5.8,0,0,0,0-11.5Zm15,0a5.8,5.8,0,0,0,0,11.5,5.8,5.8,0,0,0,0-11.5Zm15,30.7a3.6,3.6,0,1,0,3.6,3.6A3.6,3.6,0,0,0,2116.5,304.1Zm0-15.3a4.7,4.7,0,1,0,0,9.3,4.7,4.7,0,0,0,0-9.3Zm0,30.7a2.5,2.5,0,1,0,2.5,2.5A2.5,2.5,0,0,0,2116.5,319.5Zm-60-15.4a3.6,3.6,0,1,0,3.6,3.6A3.6,3.6,0,0,0,2056.5,304.1Zm15,15.4a2.5,2.5,0,1,0,2.5,2.5A2.5,2.5,0,0,0,2071.5,319.5Zm-15-46.1a5.8,5.8,0,0,0,0,11.5,5.8,5.8,0,0,0,0-11.5Zm0,15.4a4.7,4.7,0,1,0,0,9.3,4.7,4.7,0,0,0,0-9.3Zm15,15.3a3.6,3.6,0,1,0,3.6,3.6A3.6,3.6,0,0,0,2071.5,304.1Zm15,0a3.6,3.6,0,1,0,3.6,3.6A3.6,3.6,0,0,0,2086.5,304.1Zm0,15.4a2.5,2.5,0,1,0,2.5,2.5A2.5,2.5,0,0,0,2086.5,319.5Zm-15-46.1a5.8,5.8,0,0,0,0,11.5,5.8,5.8,0,0,0,0-11.5Zm0,15.4a4.7,4.7,0,1,0,0,9.3,4.7,4.7,0,0,0,0-9.3Zm-825,15.3a3.6,3.6,0,1,0,3.6,3.6A3.6,3.6,0,0,0,1246.5,304.1Zm60-15.3a4.7,4.7,0,1,0,0,9.3,4.7,4.7,0,0,0,0-9.3Zm-30,15.3a3.6,3.6,0,1,0,3.6,3.6A3.6,3.6,0,0,0,1276.5,304.1Zm45,15.4a2.5,2.5,0,1,0,2.5,2.5A2.5,2.5,0,0,0,1321.5,319.5Zm-15-46.1a5.8,5.8,0,0,0,0,11.5,5.8,5.8,0,0,0,0-11.5Zm15,15.4a4.7,4.7,0,1,0,0,9.3,4.7,4.7,0,0,0,0-9.3Zm15,15.3a3.6,3.6,0,1,0,3.6,3.6A3.6,3.6,0,0,0,1336.5,304.1Zm0-15.3a4.7,4.7,0,1,0,0,9.3,4.7,4.7,0,0,0,0-9.3Zm0,30.7a2.5,2.5,0,1,0,2.5,2.5A2.5,2.5,0,0,0,1336.5,319.5Zm-15-46.1a5.8,5.8,0,0,0,0,11.5,5.8,5.8,0,0,0,0-11.5Zm-30,30.7a3.6,3.6,0,1,0,3.6,3.6A3.6,3.6,0,0,0,1291.5,304.1Zm-15-30.7a5.8,5.8,0,0,0,0,11.5,5.8,5.8,0,0,0,0-11.5Zm30,30.7a3.6,3.6,0,1,0,3.6,3.6A3.6,3.6,0,0,0,1306.5,304.1Zm-30-15.3a4.7,4.7,0,1,0,0,9.3,4.7,4.7,0,0,0,0-9.3Zm60-15.4a5.8,5.8,0,0,0,0,11.5,5.8,5.8,0,0,0,0-11.5Zm-45,46.1a2.5,2.5,0,1,0,2.5,2.5A2.5,2.5,0,0,0,1291.5,319.5Zm15,0a2.5,2.5,0,1,0,2.5,2.5A2.5,2.5,0,0,0,1306.5,319.5Zm-15-30.7a4.7,4.7,0,1,0,0,9.3,4.7,4.7,0,0,0,0-9.3Zm0-15.4a5.8,5.8,0,0,0,0,11.5,5.8,5.8,0,0,0,0-11.5Zm30,30.7a3.6,3.6,0,1,0,3.6,3.6A3.6,3.6,0,0,0,1321.5,304.1Zm75,0a3.6,3.6,0,1,0,3.6,3.6A3.6,3.6,0,0,0,1396.5,304.1Zm-15-30.7a5.8,5.8,0,0,0,0,11.5,5.8,5.8,0,0,0,0-11.5Zm15,46.1a2.5,2.5,0,1,0,2.5,2.5A2.5,2.5,0,0,0,1396.5,319.5Zm-15-30.7a4.7,4.7,0,1,0,0,9.3,4.7,4.7,0,0,0,0-9.3Zm15,0a4.7,4.7,0,1,0,0,9.3,4.7,4.7,0,0,0,0-9.3Zm15,15.3a3.6,3.6,0,1,0,3.6,3.6A3.6,3.6,0,0,0,1411.5,304.1Zm-30,0a3.6,3.6,0,1,0,3.6,3.6A3.6,3.6,0,0,0,1381.5,304.1Zm-30,15.4a2.5,2.5,0,1,0,2.5,2.5A2.5,2.5,0,0,0,1351.5,319.5Zm45-46.1a5.8,5.8,0,0,0,0,11.5,5.8,5.8,0,0,0,0-11.5Zm15,46.1a2.5,2.5,0,1,0,2.5,2.5A2.5,2.5,0,0,0,1411.5,319.5Zm-60-30.7a4.7,4.7,0,1,0,0,9.3,4.7,4.7,0,0,0,0-9.3Zm30,30.7a2.5,2.5,0,1,0,2.5,2.5A2.5,2.5,0,0,0,1381.5,319.5Zm-30-15.4a3.6,3.6,0,1,0,3.6,3.6A3.6,3.6,0,0,0,1351.5,304.1Zm15,15.4a2.5,2.5,0,1,0,2.5,2.5A2.5,2.5,0,0,0,1366.5,319.5Zm-15-46.1a5.8,5.8,0,0,0,0,11.5,5.8,5.8,0,0,0,0-11.5Zm15,0a5.8,5.8,0,0,0,0,11.5,5.8,5.8,0,0,0,0-11.5Zm0,15.4a4.7,4.7,0,1,0,0,9.3,4.7,4.7,0,0,0,0-9.3Zm45,0a4.7,4.7,0,1,0,0,9.3,4.7,4.7,0,0,0,0-9.3Zm-45,15.3a3.6,3.6,0,1,0,3.6,3.6A3.6,3.6,0,0,0,1366.5,304.1Zm-165,0a3.6,3.6,0,1,0,3.6,3.6A3.6,3.6,0,0,0,1201.5,304.1Zm-30,15.4a2.5,2.5,0,1,0,2.5,2.5A2.5,2.5,0,0,0,1171.5,319.5Zm0-30.7a4.7,4.7,0,1,0,0,9.3,4.7,4.7,0,0,0,0-9.3Zm0,15.3a3.6,3.6,0,1,0,3.6,3.6A3.6,3.6,0,0,0,1171.5,304.1Zm15,15.4a2.5,2.5,0,1,0,2.5,2.5A2.5,2.5,0,0,0,1186.5,319.5Zm15,0a2.5,2.5,0,1,0,2.5,2.5A2.5,2.5,0,0,0,1201.5,319.5Zm-15-15.4a3.6,3.6,0,1,0,3.6,3.6A3.6,3.6,0,0,0,1186.5,304.1Zm0-30.7a5.8,5.8,0,0,0,0,11.5,5.8,5.8,0,0,0,0-11.5Zm0,15.4a4.7,4.7,0,1,0,0,9.3,4.7,4.7,0,0,0,0-9.3Zm-15-15.4a5.8,5.8,0,0,0,0,11.5,5.8,5.8,0,0,0,0-11.5Zm-30,15.4a4.7,4.7,0,1,0,0,9.3,4.7,4.7,0,0,0,0-9.3Zm15-15.4a5.8,5.8,0,0,0,0,11.5,5.8,5.8,0,0,0,0-11.5Zm-15,0a5.8,5.8,0,0,0,0,11.5,5.8,5.8,0,0,0,0-11.5Zm0,46.1a2.5,2.5,0,1,0,2.5,2.5A2.5,2.5,0,0,0,1141.5,319.5Zm0-15.4a3.6,3.6,0,1,0,3.6,3.6A3.6,3.6,0,0,0,1141.5,304.1Zm15,15.4a2.5,2.5,0,1,0,2.5,2.5A2.5,2.5,0,0,0,1156.5,319.5Zm0-30.7a4.7,4.7,0,1,0,0,9.3,4.7,4.7,0,0,0,0-9.3Zm0,15.3a3.6,3.6,0,1,0,3.6,3.6A3.6,3.6,0,0,0,1156.5,304.1Zm60,15.4a2.5,2.5,0,1,0,2.5,2.5A2.5,2.5,0,0,0,1216.5,319.5Zm30-30.7a4.7,4.7,0,1,0,0,9.3,4.7,4.7,0,0,0,0-9.3Zm-120-15.4a5.8,5.8,0,0,0,0,11.5,5.8,5.8,0,0,0,0-11.5Zm120,0a5.8,5.8,0,0,0,0,11.5,5.8,5.8,0,0,0,0-11.5Zm0,46.1a2.5,2.5,0,1,0,2.5,2.5A2.5,2.5,0,0,0,1246.5,319.5Zm-45-30.7a4.7,4.7,0,1,0,0,9.3,4.7,4.7,0,0,0,0-9.3Zm60-15.4a5.8,5.8,0,0,0,0,11.5,5.8,5.8,0,0,0,0-11.5Zm0,15.4a4.7,4.7,0,1,0,0,9.3,4.7,4.7,0,0,0,0-9.3Zm0,15.3a3.6,3.6,0,1,0,3.6,3.6A3.6,3.6,0,0,0,1261.5,304.1Zm0,15.4a2.5,2.5,0,1,0,2.5,2.5A2.5,2.5,0,0,0,1261.5,319.5Zm-30-46.1a5.8,5.8,0,0,0,0,11.5,5.8,5.8,0,0,0,0-11.5Zm-15,30.7a3.6,3.6,0,1,0,3.6,3.6A3.6,3.6,0,0,0,1216.5,304.1Zm0-15.3a4.7,4.7,0,1,0,0,9.3,4.7,4.7,0,0,0,0-9.3Zm60,30.7a2.5,2.5,0,1,0,2.5,2.5A2.5,2.5,0,0,0,1276.5,319.5Zm-75-46.1a5.8,5.8,0,0,0,0,11.5,5.8,5.8,0,0,0,0-11.5Zm15,0a5.8,5.8,0,0,0,0,11.5,5.8,5.8,0,0,0,0-11.5Zm15,15.4a4.7,4.7,0,1,0,0,9.3,4.7,4.7,0,0,0,0-9.3Zm0,15.3a3.6,3.6,0,1,0,3.6,3.6A3.6,3.6,0,0,0,1231.5,304.1Zm0,15.4a2.5,2.5,0,1,0,2.5,2.5A2.5,2.5,0,0,0,1231.5,319.5Zm300,0a2.5,2.5,0,1,0,2.5,2.5A2.5,2.5,0,0,0,1531.5,319.5Zm60-46.1a5.8,5.8,0,0,0,0,11.5,5.8,5.8,0,0,0,0-11.5Zm-30,46.1a2.5,2.5,0,1,0,2.5,2.5A2.5,2.5,0,0,0,1561.5,319.5Zm45,0a2.5,2.5,0,1,0,2.5,2.5A2.5,2.5,0,0,0,1606.5,319.5Zm-15-30.7a4.7,4.7,0,1,0,0,9.3,4.7,4.7,0,0,0,0-9.3Zm15,0a4.7,4.7,0,1,0,0,9.3,4.7,4.7,0,0,0,0-9.3Zm15,15.3a3.6,3.6,0,1,0,3.6,3.6A3.6,3.6,0,0,0,1621.5,304.1Zm0,15.4a2.5,2.5,0,1,0,2.5,2.5A2.5,2.5,0,0,0,1621.5,319.5Zm-30-15.4a3.6,3.6,0,1,0,3.6,3.6A3.6,3.6,0,0,0,1591.5,304.1Zm15-30.7a5.8,5.8,0,0,0,0,11.5,5.8,5.8,0,0,0,0-11.5Zm-45,0a5.8,5.8,0,0,0,0,11.5,5.8,5.8,0,0,0,0-11.5Zm15,46.1a2.5,2.5,0,1,0,2.5,2.5A2.5,2.5,0,0,0,1576.5,319.5Zm-15-30.7a4.7,4.7,0,1,0,0,9.3,4.7,4.7,0,0,0,0-9.3Zm60,0a4.7,4.7,0,1,0,0,9.3,4.7,4.7,0,0,0,0-9.3Zm-60,15.3a3.6,3.6,0,1,0,3.6,3.6A3.6,3.6,0,0,0,1561.5,304.1Zm15-15.3a4.7,4.7,0,1,0,0,9.3,4.7,4.7,0,0,0,0-9.3Zm0,15.3a3.6,3.6,0,1,0,3.6,3.6A3.6,3.6,0,0,0,1576.5,304.1Zm0-30.7a5.8,5.8,0,0,0,0,11.5,5.8,5.8,0,0,0,0-11.5Zm15,46.1a2.5,2.5,0,1,0,2.5,2.5A2.5,2.5,0,0,0,1591.5,319.5Zm15-15.4a3.6,3.6,0,1,0,3.6,3.6A3.6,3.6,0,0,0,1606.5,304.1Zm75,15.4a2.5,2.5,0,1,0,2.5,2.5A2.5,2.5,0,0,0,1681.5,319.5Zm-15-46.1a5.8,5.8,0,0,0,0,11.5,5.8,5.8,0,0,0,0-11.5Zm0,15.4a4.7,4.7,0,1,0,0,9.3,4.7,4.7,0,0,0,0-9.3Zm0,15.3a3.6,3.6,0,1,0,3.6,3.6A3.6,3.6,0,0,0,1666.5,304.1Zm0,15.4a2.5,2.5,0,1,0,2.5,2.5A2.5,2.5,0,0,0,1666.5,319.5Zm30,0a2.5,2.5,0,1,0,2.5,2.5A2.5,2.5,0,0,0,1696.5,319.5Zm-15-46.1a5.8,5.8,0,0,0,0,11.5,5.8,5.8,0,0,0,0-11.5Zm0,15.4a4.7,4.7,0,1,0,0,9.3,4.7,4.7,0,0,0,0-9.3Zm0,15.3a3.6,3.6,0,1,0,3.6,3.6A3.6,3.6,0,0,0,1681.5,304.1Zm-45,0a3.6,3.6,0,1,0,3.6,3.6A3.6,3.6,0,0,0,1636.5,304.1Zm0-15.3a4.7,4.7,0,1,0,0,9.3,4.7,4.7,0,0,0,0-9.3Zm-15-15.4a5.8,5.8,0,0,0,0,11.5,5.8,5.8,0,0,0,0-11.5Zm15,0a5.8,5.8,0,0,0,0,11.5,5.8,5.8,0,0,0,0-11.5Zm15,0a5.8,5.8,0,0,0,0,11.5,5.8,5.8,0,0,0,0-11.5Zm-15,46.1a2.5,2.5,0,1,0,2.5,2.5A2.5,2.5,0,0,0,1636.5,319.5Zm15,0a2.5,2.5,0,1,0,2.5,2.5A2.5,2.5,0,0,0,1651.5,319.5Zm0-30.7a4.7,4.7,0,1,0,0,9.3,4.7,4.7,0,0,0,0-9.3Zm0,15.3a3.6,3.6,0,1,0,3.6,3.6A3.6,3.6,0,0,0,1651.5,304.1Zm-120-30.7a5.8,5.8,0,0,0,0,11.5,5.8,5.8,0,0,0,0-11.5Zm-75,15.4a4.7,4.7,0,1,0,0,9.3,4.7,4.7,0,0,0,0-9.3Zm15,30.7a2.5,2.5,0,1,0,2.5,2.5A2.5,2.5,0,0,0,1471.5,319.5Zm-15-46.1a5.8,5.8,0,0,0,0,11.5,5.8,5.8,0,0,0,0-11.5Zm0,30.7a3.6,3.6,0,1,0,3.6,3.6A3.6,3.6,0,0,0,1456.5,304.1Zm15-30.7a5.8,5.8,0,0,0,0,11.5,5.8,5.8,0,0,0,0-11.5Zm15,46.1a2.5,2.5,0,1,0,2.5,2.5A2.5,2.5,0,0,0,1486.5,319.5Zm-30,0a2.5,2.5,0,1,0,2.5,2.5A2.5,2.5,0,0,0,1456.5,319.5Zm15-15.4a3.6,3.6,0,1,0,3.6,3.6A3.6,3.6,0,0,0,1471.5,304.1Zm0-15.3a4.7,4.7,0,1,0,0,9.3,4.7,4.7,0,0,0,0-9.3Zm-30-15.4a5.8,5.8,0,0,0,0,11.5,5.8,5.8,0,0,0,0-11.5Zm45,30.7a3.6,3.6,0,1,0,3.6,3.6A3.6,3.6,0,0,0,1486.5,304.1Zm-60-30.7a5.8,5.8,0,0,0,0,11.5,5.8,5.8,0,0,0,0-11.5Zm0,15.4a4.7,4.7,0,1,0,0,9.3,4.7,4.7,0,0,0,0-9.3Zm0,30.7a2.5,2.5,0,1,0,2.5,2.5A2.5,2.5,0,0,0,1426.5,319.5Zm0-15.4a3.6,3.6,0,1,0,3.6,3.6A3.6,3.6,0,0,0,1426.5,304.1Zm15,15.4a2.5,2.5,0,1,0,2.5,2.5A2.5,2.5,0,0,0,1441.5,319.5Zm0-30.7a4.7,4.7,0,1,0,0,9.3,4.7,4.7,0,0,0,0-9.3Zm0,15.3a3.6,3.6,0,1,0,3.6,3.6A3.6,3.6,0,0,0,1441.5,304.1Zm105,0a3.6,3.6,0,1,0,3.6,3.6A3.6,3.6,0,0,0,1546.5,304.1Zm-30-30.7a5.8,5.8,0,0,0,0,11.5,5.8,5.8,0,0,0,0-11.5Zm15,15.4a4.7,4.7,0,1,0,0,9.3,4.7,4.7,0,0,0,0-9.3Zm0,15.3a3.6,3.6,0,1,0,3.6,3.6A3.6,3.6,0,0,0,1531.5,304.1Zm165,0a3.6,3.6,0,1,0,3.6,3.6A3.6,3.6,0,0,0,1696.5,304.1Zm-285-30.7a5.8,5.8,0,0,0,0,11.5,5.8,5.8,0,0,0,0-11.5Zm135,15.4a4.7,4.7,0,1,0,0,9.3,4.7,4.7,0,0,0,0-9.3Zm0-15.4a5.8,5.8,0,0,0,0,11.5,5.8,5.8,0,0,0,0-11.5Zm0,46.1a2.5,2.5,0,1,0,2.5,2.5A2.5,2.5,0,0,0,1546.5,319.5Zm-45-46.1a5.8,5.8,0,0,0,0,11.5,5.8,5.8,0,0,0,0-11.5Zm0,15.4a4.7,4.7,0,1,0,0,9.3,4.7,4.7,0,0,0,0-9.3Zm0,30.7a2.5,2.5,0,1,0,2.5,2.5A2.5,2.5,0,0,0,1501.5,319.5Zm0-15.4a3.6,3.6,0,1,0,3.6,3.6A3.6,3.6,0,0,0,1501.5,304.1Zm15-15.3a4.7,4.7,0,1,0,0,9.3,4.7,4.7,0,0,0,0-9.3Zm-30-15.4a5.8,5.8,0,0,0,0,11.5,5.8,5.8,0,0,0,0-11.5Zm30,30.7a3.6,3.6,0,1,0,3.6,3.6A3.6,3.6,0,0,0,1516.5,304.1Zm-30-15.3a4.7,4.7,0,1,0,0,9.3,4.7,4.7,0,0,0,0-9.3Zm30,30.7a2.5,2.5,0,1,0,2.5,2.5A2.5,2.5,0,0,0,1516.5,319.5Z" fill="#fff"/></svg>
