<?xml version="1.0" encoding="utf-8"?>
<!-- Generator: Adobe Illustrator 22.0.1, SVG Export Plug-In . SVG Version: 6.00 Build 0)  -->
<svg version="1.1" id="Layer_1" xmlns="http://www.w3.org/2000/svg" xmlns:xlink="http://www.w3.org/1999/xlink" x="0px" y="0px"
	 viewBox="0 0 1920 1080" style="enable-background:new 0 0 1920 1080;" xml:space="preserve">
<style type="text/css">
	.st0{fill:#FFFFFF;}
</style>
<g>
	<path class="st0" d="M60,1080H0V598h60V1080z M180,0h-60v298h60V0z M180,1006h-60v74h60V1006z M180,334h-60v561h60V334z M300,540
		h-60v504.4h60V540z M420,185h-60v746.4h60V185z M660,46h-60v334h60V46z M660,564h-60v334h60V564z M780,185h-60v859h60V185z
		 M900,334h-60v746.4h60V334z M900,0.2h-60V298h60V0.2z M1140,0h-60v792.4h60V0z M1140,1006h-60v74h60V1006z M1260,334h-60v230h60
		V334z M1260,0.2h-60V298h60V0.2z M1380,298h-60v597h60V298z M1620,334h-60v746.4h60V334z M1740,598h-60v300.4h60V598z M1740,185
		h-60v300.4h60V185z M1860,0h-60v746.4h60V0z"/>
</g>
</svg>
