<svg id="Layer_1" data-name="Layer 1" xmlns="http://www.w3.org/2000/svg" width="466.6" height="249.3" viewBox="0 0 466.6 249.3"><title>logo</title><path d="M183.7,184.5c14.5-.4,25.4-9,25.5-20.2a17.4,17.4,0,0,0-5.3-12.6c-4.7-4.8-12.4-7.8-20.2-7.8V111.5c16.8,0,33.7,6.9,45.1,18.4,9.6,9.7,14.7,21.6,14.6,34.6-.2,29.1-26.4,51.9-59.7,52.3ZM60.5,143.8c-17.1,0-34.2-6.9-45.8-18.6C5,115.4-.1,103.4,0,90.4.2,60.8,27,37.7,61,37.7h.5V70.4c-14.4.4-25.2,9-25.3,20.4a17.7,17.7,0,0,0,5.4,12.8c4.8,4.9,12.7,7.9,20.5,7.9h73.1l-.2,32.3Z" fill="rgb(242, 108, 87)"/><path d="M141.5,249.3V217.7h-8.3c-16.6,0-33.3-5.7-45.8-15.8s-19.7-23.4-19.7-37.3V150.2h35.8c0,4.3.1,11.7.1,13.6,0,11,13.4,20.2,29.3,20.2h8.4V91.8c-.1-11-13.5-20.2-29.3-20.2h-8.5v33.6H67.7V0h35.8V37.7h8.9c35.7,0,64.8,23.6,64.9,52.6v159Z" fill="#de3554"/><path d="M224.1,87.8c-9.6,0-16.7-7.1-16.7-17.1s7.1-17.1,16.7-17.1a17.7,17.7,0,0,1,10.8,3.3v4.3a17.1,17.1,0,0,0-10.4-3.5c-7.2,0-12.3,5.2-12.3,13s5.1,13.1,12.3,13.1a16.6,16.6,0,0,0,10.4-3.6v4.4A17.4,17.4,0,0,1,224.1,87.8Z" fill="#de3554"/><path d="M290.8,67.7v19H286V54.8h4.2l.3,5.8c2.3-3.7,7.4-7.1,12.4-7.1v5.3C297,57.9,290.8,62.1,290.8,67.7Z" fill="#de3554"/><path d="M311.4,43.9V38.2h4.7v5.7Zm0,42.8V54.8h4.7V86.7Z" fill="#de3554"/><path d="M337.1,87.9a22.1,22.1,0,0,1-11.4-3.3l.9-3.9a22.2,22.2,0,0,0,10.7,3.2c4.3,0,7.3-1.7,7.3-5.7s-2.4-4.4-8.1-5.9-9.7-5.4-9.7-9.5,3.7-9.3,11.3-9.3a20.9,20.9,0,0,1,9.4,2.6l-.9,3.8a19,19,0,0,0-8.5-2.4c-4.8,0-6.8,1.9-6.8,4.8s2.4,4.4,6.9,5.7c7.2,1.7,11,5.1,11,9.5C349.2,84,344.3,87.9,337.1,87.9Z" fill="#de3554"/><path d="M286.6,109.9a14.8,14.8,0,0,0-12.5,7V67.7c0-8.9-3.9-14.2-12-14.2a15,15,0,0,0-12.6,7.1V30.5h-4.7V86.7h4.7V68.8c0-5.6,5.8-10.9,11.3-10.9s8.5,2.7,8.5,10.3V143h4.8V125.1c0-5.6,5.7-10.9,11.2-10.9s8.5,2.7,8.5,10.4V143h4.8V124C298.6,115.1,294.8,109.9,286.6,109.9Z" fill="#de3554"/><path d="M325.6,144.3A17.3,17.3,0,1,1,342.9,127,17.1,17.1,0,0,1,325.6,144.3Zm0-30.4c-7.1,0-12.6,5.3-12.6,13.1s5.5,13.2,12.6,13.2,12.5-5.5,12.5-13.2S332.8,113.9,325.6,113.9Z" fill="#de3554"/><path d="M357.3,111.1v18.4c0,7.7,3.2,10.4,8.6,10.4s11.2-5.3,11.2-10.9V111.1h4.8V143h-4.2l-.3-6a15.2,15.2,0,0,1-12.8,7.2c-8.2,0-12-5.2-12-14.1v-19Z" fill="#de3554"/><path d="M408,161.7a25.7,25.7,0,0,1-13.1-4v-4.3a24.2,24.2,0,0,0,13.6,4.1c5.8,0,12-3.2,12-13.8v-5.8c-2.6,4.3-8,6.3-12.6,6.3-9.1,0-15.9-7.4-15.9-17.2s6.8-17.1,15.9-17.1c4.7,0,10.4,2,12.9,7l.3-5.8h4.2v32.2C425.3,158.5,415.7,161.7,408,161.7Zm.8-47.8c-6.5,0-12,4.8-12,13.1s5.5,13.2,12,13.2,12-4.8,12-13.2S415,113.9,408.8,113.9Z" fill="#de3554"/><path d="M461.8,143V124.6c0-7.7-3.2-10.4-8.5-10.4S442,119.5,442,125.1V143h-4.8V86.8H442v30.1a15,15,0,0,1,12.6-7c8.1,0,12,5.2,12,14.1v19Z" fill="#de3554"/></svg>
