<?xml version="1.0" encoding="utf-8"?>
<!-- Generator: Adobe Illustrator 22.0.1, SVG Export Plug-In . SVG Version: 6.00 Build 0)  -->
<svg version="1.1" id="Layer_1" xmlns="http://www.w3.org/2000/svg" xmlns:xlink="http://www.w3.org/1999/xlink" x="0px" y="0px"
	 viewBox="0 0 300 300" style="enable-background:new 0 0 300 300;" xml:space="preserve">
<style type="text/css">
	.st0{fill:#DE3554;}
	.st1{fill:#F26C57;}
</style>
<rect class="st0" width="300" height="300"/>
<title>logo</title>
<g>
	<path class="st1" d="M212,209.9c14.5-0.4,25.4-9,25.5-20.2c0-4.7-1.9-9.3-5.3-12.6c-4.7-4.8-12.4-7.8-20.2-7.8v-32.4
		c16.8,0,33.7,6.9,45.1,18.4c9.6,9.7,14.7,21.6,14.6,34.6c-0.2,29.1-26.4,51.9-59.7,52.3V209.9z M88.8,169.2
		c-17.1,0-34.2-6.9-45.8-18.6c-9.7-9.8-14.8-21.8-14.7-34.8c0.2-29.6,27-52.7,61-52.7h0.5v32.7c-14.4,0.4-25.2,9-25.3,20.4
		c0,4.8,1.9,9.4,5.4,12.8c4.8,4.9,12.7,7.9,20.5,7.9h73.1l-0.2,32.3H88.8z"/>
	<path class="st1" d="M169.8,274.6v-31.6h-8.3c-16.6,0-33.3-5.7-45.8-15.8S96,203.9,96,189.9v-14.4h35.8c0,4.3,0.1,11.7,0.1,13.6
		c0,11,13.4,20.2,29.3,20.2h8.4v-92.2c-0.1-11-13.5-20.2-29.3-20.2h-8.5v33.6H96V25.3h35.8V63h8.9c35.7,0,64.8,23.6,64.9,52.6v159
		H169.8z"/>
</g>
</svg>
