<?xml version="1.0" encoding="utf-8"?>
<!-- Generator: Adobe Illustrator 22.0.1, SVG Export Plug-In . SVG Version: 6.00 Build 0)  -->
<svg version="1.1" id="Layer_1" xmlns="http://www.w3.org/2000/svg" xmlns:xlink="http://www.w3.org/1999/xlink" x="0px" y="0px"
	 viewBox="0 0 2500 833" style="enable-background:new 0 0 2500 833;" xml:space="preserve">
<style type="text/css">
	.st0{clip-path:url(#SVGID_2_);fill:#DE3554;}
	.st1{clip-path:url(#SVGID_2_);}
	.st2{fill:#FFFFFF;}
	.st3{clip-path:url(#SVGID_2_);fill:#FFFFFF;}
</style>
<g>
	<defs>
		<rect id="SVGID_1_" x="1.5" width="2498.5" height="833"/>
	</defs>
	<clipPath id="SVGID_2_">
		<use xlink:href="#SVGID_1_"  style="overflow:visible;"/>
	</clipPath>
	<rect x="1.5" y="-9.6" class="st0" width="2498.5" height="1405.7"/>
	<g class="st1">
		<path class="st2" d="M693.4-374v572.6h-70.3V-374H693.4 M697.3-377.9h-78.1v580.4h78.1V-377.9L697.3-377.9z"/>
	</g>
	<g class="st1">
		<path class="st2" d="M231.8,234.8v380h-70.3v-380H231.8 M235.7,230.9h-78.1v387.8h78.1V230.9L235.7,230.9z"/>
	</g>
	<g class="st1">
		<path class="st2" d="M231.8,1303.1v88.5h-70.3v-88.5H231.8 M235.7,1299.2h-78.1v96.3h78.1V1299.2L235.7,1299.2z"/>
	</g>
	<g class="st1">
		<path class="st2" d="M231.8,669.4v722.2h-70.3V669.4H231.8 M235.7,665.5h-78.1v730h78.1V665.5L235.7,665.5z"/>
	</g>
	<g class="st1">
		<path class="st2" d="M388-5.7v426.6h-70.3V-5.7H388 M391.9-9.6h-78.1v434.4h78.1V-9.6L391.9-9.6z"/>
	</g>
	<g class="st1">
		<path class="st2" d="M544.1,669.4v575.7h-70.3V669.4H544.1 M548,665.5h-78.1V1249H548V665.5L548,665.5z"/>
	</g>
	<g class="st1">
		<path class="st2" d="M856.4,845.2V1272h-70.3V845.2H856.4 M860.3,841.3h-78.1v434.6h78.1V841.3L860.3,841.3z"/>
	</g>
	<g class="st1">
		<path class="st2" d="M1012.6,786.6V1462h-70.3V786.6H1012.6 M1016.5,782.7h-78.1v683.2h78.1V782.7L1016.5,782.7z"/>
	</g>
	<g class="st1">
		<path class="st2" d="M1012.6-5.9v251.4h-70.3V-5.9H1012.6 M1016.5-9.8h-78.1v259.2h78.1V-9.8L1016.5-9.8z"/>
	</g>
	<g class="st1">
		<path class="st2" d="M1168.8,428.7v963.5h-70.3V428.7H1168.8 M1172.7,424.8h-78.1v971.3h78.1V424.8L1172.7,424.8z"/>
	</g>
	<g class="st1">
		<path class="st2" d="M1168.8-5.7V374h-70.3V-5.7H1168.8 M1172.7-9.6h-78.1v387.5h78.1V-9.6L1172.7-9.6z"/>
	</g>
	<g class="st1">
		<path class="st2" d="M1481.1-6v1023.4h-70.3V-6H1481.1 M1485-9.9h-78.1v1031.2h78.1V-9.9L1485-9.9z"/>
	</g>
	<g class="st1">
		<path class="st2" d="M1481.1,1303.1v88.5h-70.3v-88.5H1481.1 M1485,1299.2h-78.1v96.3h78.1V1299.2L1485,1299.2z"/>
	</g>
	<g class="st1">
		<path class="st2" d="M1637.2,428.7v291.5H1567V428.7H1637.2 M1641.1,424.8h-78.1v299.3h78.1V424.8L1641.1,424.8z"/>
	</g>
	<g class="st1">
		<path class="st2" d="M1637.2-5.7V374H1567V-5.7H1637.2 M1641.1-9.6h-78.1v387.5h78.1V-9.6L1641.1-9.6z"/>
	</g>
	<g class="st1">
		<path class="st2" d="M1793.4,381.8v769.1h-70.3V381.8H1793.4 M1797.3,377.9h-78.1v776.9h78.1V377.9L1797.3,377.9z"/>
	</g>
	<g class="st1">
		<path class="st2" d="M2105.7,428.7v963.5h-70.3V428.7H2105.7 M2109.6,424.8h-78.1v971.3h78.1V424.8L2109.6,424.8z"/>
	</g>
	<g class="st1">
		<path class="st2" d="M2261.9,772.2v383.1h-70.3V772.2H2261.9 M2265.8,768.3h-78.1v390.9h78.1V768.3L2265.8,768.3z"/>
	</g>
	<g class="st1">
		<path class="st2" d="M2261.9,234.8v383.1h-70.3V234.8H2261.9 M2265.8,230.9h-78.1v390.9h78.1V230.9L2265.8,230.9z"/>
	</g>
	<g class="st1">
		<path class="st2" d="M2418-6v963.5h-70.3V-6H2418 M2421.9-9.9h-78.1v971.3h78.1V-9.9L2421.9-9.9z"/>
	</g>
	<path class="st3" d="M873,652.7c31.7-0.8,55.5-19.5,55.6-44.2c0.1-10.3-3.9-19.8-11.5-27.4c-10.4-10.5-27.3-17-44.2-17.2v-70.7
		c36.8,0,73.6,15,98.5,40.1c21.1,21.2,32.1,47.4,31.9,75.7c-0.5,63.6-57.6,113.5-130.4,114.5V652.7z M603.5,563.9
		c-37.4,0-74.8-15.2-100-40.6c-21.3-21.4-32.4-47.8-32.2-76.3c0.5-64.6,59-115.2,133.4-115.2l1.1,0v71.6
		c-31.4,0.7-55.1,19.6-55.2,44.5c-0.1,10.5,4,20.2,11.7,28c10.6,10.7,27.8,17.3,44.9,17.3c2.4,0,128.5,0.1,159.7,0.1l-0.2,70.6
		C735.2,564,607.5,563.9,603.5,563.9z"/>
	<path class="st3" d="M780.7,794.6l0-69.3l-18,0.1c-36.4,0-72.9-12.6-100.2-34.5c-27.8-22.3-43.1-51.2-43.2-81.6
		c0-6.6,0-22.4,0-31.6h78.5c0,9.4,0,25.7,0,29.8c0.1,23.9,29.4,44.1,64.1,44.1l18.5-0.1l0-6.9c0-122.9-0.1-186.7-0.1-194.8
		c-0.1-23.9-29.4-44.1-64.1-44.1l-18.5,0.1c0,0,0,59,0,73.5h-78.4V249.3l78.4,0l0,82.5l19.4-0.1c78,0,141.7,51.6,141.9,115.1
		l0.1,347.8L780.7,794.6z"/>
</g>
</svg>
