<?xml version="1.0" encoding="utf-8"?>
<!-- Generator: Adobe Illustrator 22.0.1, SVG Export Plug-In . SVG Version: 6.00 Build 0)  -->
<svg version="1.1" id="Layer_1" xmlns="http://www.w3.org/2000/svg" xmlns:xlink="http://www.w3.org/1999/xlink" x="0px" y="0px"
	 viewBox="0 0 770 1048" style="enable-background:new 0 0 770 1048;" xml:space="preserve">
<style type="text/css">
	.st0{fill:#FFFFFF;}
	.st1{fill:#DE3554;}
</style>
<path class="st0" d="M488.1,801.3c-13.2-9.4-26.3-17.9-39.2-25.3c-3.5-31.8-6.8-66.5-2.9-111.9c41-3,109-11,152-68
	c22.7-30,33.3-125.6,28.6-219.5c5.5-7.1,7.5-16,5.8-25.6c-0.1-0.6-0.2-1.2-0.4-1.8c-1.4-6-4.4-11.2-8.7-15.6
	c-1-9.7-2.2-19.2-3.5-28.5c0.1,0,0.1,0,0.2,0.1c4-5,3.8-28.8-5.4-37.7c-0.6-0.6-1.2-1.2-1.9-1.7c-5.8-26.5-13.5-49.8-23-67.7
	c0,0,0,0,0,0c0.4,0.1,0.8,0.1,1.3,0.2c83,11,94-68,102-102c-10,12-52,33-86,24c11-7,38-39,37-65c-11,10-65,23-116,11
	c11-9,15-33,4-61c0,0-30,41-78,48c-40.6,5.9-121-32-194-9S138,84,117,151c-11-3-23-18-37-54c0,0-34,72,32,105c-29,1-50,29-57,74
	c0,0,21-32,43-25c-11.4,46.8,0.1,107.7,21,162.6c-5.4,31.7,10.7,86.6,53,113.4c15.2,9.6,17.6,44.9,48.8,46.2
	c20.8,30.8,36,63.6,51.9,89.6c3.6,40.3,2.1,81-1.1,108.4c-13.8,6.6-28.2,14.3-42.8,22.8C121.6,857,3.6,966.9,5,1043c0,0,443,0,675,0
	C682,982.6,584.1,869.4,488.1,801.3z"/>
<path class="st1" d="M680,1048H5c-2.7,0-5-2.2-5-4.9c-0.8-46,39-97.7,72.6-132.9c41.4-43.5,97.4-87.4,153.7-120.4
	c13.8-8.1,27.5-15.5,40.7-21.8c3.5-31.2,3.8-69.6,0.9-103.5c-6.1-10.1-12.1-21-18.4-32.6c-9.6-17.7-19.6-36-31.5-53.8
	c-20.8-2.1-29.7-18-36.9-30.8c-3.8-6.8-7.3-13.1-11.8-15.9c-41.5-26.2-60.9-80.8-55.5-117.1C83.8,334.5,86.5,281.8,92,255
	c-16.5-0.4-32.6,23.5-32.8,23.7c-1.3,2-3.8,2.8-6,1.9c-2.2-0.8-3.5-3.1-3.1-5.4c6.3-40.5,23.8-67.6,47.9-75.7
	c-26.2-18.2-31.9-43.4-31.7-62.4c0.3-23,8.9-41.4,9.2-42.2c0.9-1.8,2.7-2.9,4.7-2.9c2,0.1,3.8,1.3,4.5,3.2
	c10.4,26.7,20.2,43.2,29.3,49c23.3-66.8,77-83.7,144.5-105c46.6-14.7,96.1-5.2,135.9,2.4c23.8,4.6,44.4,8.5,58.9,6.4
	c45.4-6.6,74.4-45.6,74.7-46c1.1-1.5,2.9-2.2,4.7-2c1.8,0.2,3.3,1.4,4,3.1c10.3,26.2,7.9,47.4,0.5,59.6
	c47.2,8.7,94.4-3.2,103.5-11.5c1.4-1.3,3.5-1.7,5.3-0.9c1.8,0.8,3,2.5,3.1,4.4c0.9,22.6-17.3,48.7-30.7,62.1
	c29.6,2.7,62.6-14.3,70.8-24.1c1.5-1.8,4-2.3,6.1-1.3c2.1,1,3.2,3.4,2.6,5.6c-0.6,2.4-1.1,5-1.7,7.7c-4.2,19.2-10.1,45.5-25,66.6
	c-15.4,21.7-37.3,32.6-65,32.6c-2.5,0-5.1-0.1-7.8-0.3c7.4,16,13.8,35.8,19,59.1c0.3,0.3,0.6,0.5,0.8,0.8c9.9,9.7,11.5,33.3,7,42.6
	c1.2,8.1,2.2,16.5,3.1,25c4.4,4.9,7.3,10.5,8.7,16.7c0.2,0.7,0.3,1.4,0.4,2.1c1.9,10.4-0.1,20.1-5.6,28.1
	c2.2,46.3,0.7,93.4-4.2,132.8c-3.7,29.7-11.1,69.1-25.5,88.2c-44.8,59.4-116.8,67-151.4,69.7c-3.1,41.1-0.4,72.9,3,104.2
	c12.1,7.1,24.7,15.3,37.4,24.3c95.4,67.8,196,182.8,194,246C684.9,1045.9,682.7,1048,680,1048z M10.1,1038H675
	c-1.5-26.9-21.9-65.5-58-109.8c-36.2-44.4-84.2-89.2-131.7-122.9l0,0c-13.2-9.4-26.3-17.8-38.8-25.1c-1.4-0.8-2.3-2.2-2.5-3.8
	c-3.7-33.7-6.8-67.7-2.9-112.9c0.2-2.5,2.2-4.4,4.6-4.6c31.2-2.3,104.3-7.6,148.4-66c20.9-27.7,32.5-118.6,27.6-216.3
	c-0.1-1.2,0.3-2.4,1.1-3.3c4.6-5.9,6.3-13.4,4.8-21.7c-0.1-0.5-0.2-1.1-0.3-1.6c-1.1-4.9-3.6-9.3-7.4-13.2c-0.8-0.8-1.3-1.9-1.4-3
	c-1-9.6-2.2-19.1-3.5-28.3c-0.2-1.6,0.3-3.3,1.5-4.4c1.9-4.6,1.9-23.4-5.3-30.4c-0.5-0.4-1-0.9-1.6-1.5c-0.8-0.7-1.4-1.7-1.6-2.7
	c-6-27.1-13.5-49.3-22.3-66.1c-0.6-1-0.9-2.2-0.8-3.4c0.4-2.7,2.9-4.6,5.6-4.3c0,0,0.1,0,0.1,0l1.2,0.2
	c68.7,9.1,84.8-46.4,93.3-84.1c-6.8,4.4-15.4,8.5-24.3,11.6c-13.9,4.9-34.7,9.6-54.9,4.2c-1.9-0.5-3.4-2.1-3.7-4.1
	c-0.3-2,0.6-3.9,2.3-5c9.4-6,29.5-30.2,33.9-51.6c-21,9.4-67,17.1-111.3,6.6c-1.9-0.4-3.3-1.9-3.7-3.7c-0.4-1.9,0.2-3.8,1.7-5
	c7.9-6.5,11.9-24.6,5.3-47.1c-11.2,12.5-37.9,37.4-75.4,42.9c-16.2,2.4-37.5-1.7-62.3-6.5c-38.7-7.4-86.8-16.6-131-2.7
	c-76,23.9-119.9,40.6-139.7,103.7c-0.8,2.6-3.5,4-6.1,3.3c-12.2-3.3-23.5-17.7-35.4-44.9c-2,6.9-4,16.3-4.1,26.6
	c-0.2,27.1,12.6,47.3,38,60c2,1,3.1,3.3,2.6,5.5c-0.5,2.2-2.4,3.9-4.7,3.9c-22,0.8-39.3,19.5-48.2,51c9.1-8.3,21.9-16.1,35.5-11.8
	c2.5,0.8,4,3.4,3.3,6c-10.1,41.2-2.7,97.9,20.8,159.7c0.3,0.8,0.4,1.7,0.3,2.6c-2.7,15.8,0.4,36.6,8.3,55.8
	c6.5,15.8,19.1,37.8,42.4,52.5c6.6,4.2,10.8,11.6,15.2,19.5c7.2,12.9,14.1,25.2,31.1,25.9c1.6,0.1,3,0.9,3.9,2.2
	c12.8,18.9,23.2,38.1,33.3,56.7c6.4,11.8,12.5,23,18.7,33.2c0.4,0.7,0.6,1.4,0.7,2.2c3.2,35.9,2.7,76.8-1.2,109.5
	c-0.2,1.7-1.3,3.2-2.8,3.9c-13.7,6.5-27.9,14.1-42.4,22.6C175.8,831,120.6,874.2,79.8,917.1C35.8,963.3,11.8,1005,10.1,1038z"/>
<path class="st0" d="M444,179c-41.5,3-75,42-157,26c27,27-1,129-18,154s-17,68,0,84c-34-5-41-24-41-24s-14.2-20.9-20-27
	c-15.6-16.5-66-23-84,7c-15.3,25.6-2,96.4,48,128c19,12,18,64,78,40c32,65,27,187,18,226c-14.4,62.4,48,93,89,93
	c48,0,98.6-45.5,95-82c-4-40-11-81-6-140c41-3,109-11,152-68c39.4-52.2,42.5-302.5-8.2-398.2C507.8,186.9,484.8,176,444,179z"/>
<path class="st1" d="M357,887.5c-24.9,0-58.7-11-78.2-35.4c-13.2-16.6-17.4-37.1-12.3-59.4c8.1-35.2,14.9-156.6-17.3-223.8
	c-10.6,4.1-19.3,5.8-26.6,5.8c-22.1,0-31-15.9-38.5-29.3c-4-7.2-7.8-13.9-13-17.2c-30.7-19.4-44-50.3-49.1-67.1
	c-7.7-24.8-7.4-49.6,0.6-63c7.1-11.9,20.2-19.5,36.7-21.3c19.1-2.1,40,3.8,49.6,14c5.8,6.1,19.6,26.3,20.1,27.2
	c0.1,0.1,0.1,0.2,0.2,0.3c2.2,5.9,12.5,17.8,35.6,22.3c-6.5-8.3-10.2-21.3-10.2-36.4c0-17.2,4.7-34.1,13-46.2
	c7.7-11.3,19.2-41.7,25.3-75.7c9.2-51.1-0.5-69.8-7.1-76.4c-0.5-0.5-0.6-1.2-0.3-1.8c0.3-0.6,1-0.9,1.6-0.8
	c53.3,10.4,85.4-2.4,113.8-13.7c14.6-5.8,28.3-11.3,42.8-12.3l0.1,1.5l-0.1-1.5c25.2-1.8,43.2,1.5,73,7c18.4,3.4,41.4,7.6,73,11.9
	c0.5,0.1,0.9,0.4,1.1,0.8c23.1,43.6,37.4,124.4,38.1,216.1c0.7,86.5-11.1,158.6-30,183.7c-45.2,60-119,66.1-151.8,68.5
	c-4,48.1,0,83.5,3.9,117.8c0.8,7.1,1.6,13.8,2.2,20.7c1.5,14.8-5.4,31.5-19.5,47C413.9,873.1,383.6,887.5,357,887.5z M250,565.5
	c0.6,0,1.1,0.3,1.3,0.8c33.2,67.5,26.3,191.3,18.1,227c-5,21.7-1.1,40.8,11.7,56.8c18.8,23.6,52.5,34.3,75.8,34.3
	c25.8,0,55.2-14,74.8-35.7c13.3-14.7,20.1-30.9,18.7-44.7c-0.7-6.8-1.4-13.5-2.2-20.6c-3.9-34.7-7.9-70.6-3.8-119.6
	c0.1-0.7,0.6-1.3,1.4-1.4c31.7-2.3,105.9-7.7,150.9-67.4c18.5-24.6,30.1-95.9,29.4-181.9c-0.7-90.7-14.7-170.6-37.4-214
	c-31.4-4.2-54.1-8.4-72.4-11.8c-29.6-5.5-47.5-8.8-72.3-6.9c-14.1,1-27,6.2-41.9,12.1c-28,11.1-59.6,23.7-111.3,14.6
	c13,17.9,8.9,54.6,5.1,75.8c-5.4,30.2-16.5,63.2-25.7,76.8c-16.6,24.4-16.7,66.6-0.2,82.1c0.5,0.4,0.6,1.2,0.3,1.7
	c-0.3,0.6-0.9,0.9-1.6,0.8c-33.1-4.9-41.2-22.6-42.1-24.8c-1.2-1.8-14.4-21-19.8-26.7c-8.9-9.4-29.2-15-47.1-13.1
	c-15.6,1.7-27.8,8.7-34.5,19.8c-7.6,12.7-7.8,36.5-0.3,60.5c5,16.3,18,46.5,47.9,65.4c5.8,3.7,9.8,10.8,14,18.3
	c10,17.9,21.3,38.1,62.7,21.6C249.6,565.5,249.8,565.5,250,565.5z"/>
<path class="st0" d="M537,334c7,49,56,107,48,146s-58,26-58,26"/>
<path class="st1" d="M545,510.1c-1,0-2,0-2.9-0.1c-8.8-0.3-15.4-2-15.6-2.1c-1.1-0.3-1.7-1.4-1.4-2.4c0.3-1.1,1.4-1.7,2.4-1.4
	c0.3,0.1,25.5,6.4,42-3.9c7.1-4.4,11.6-11.3,13.5-20.6c4.3-21.2-8.8-48.4-22.6-77.1c-11-22.8-22.3-46.3-25.4-68.2
	c-0.2-1.1,0.6-2.1,1.7-2.3c1.1-0.2,2.1,0.6,2.3,1.7c3,21.3,14.2,44.5,25.1,67c14.2,29.4,27.5,57.2,22.9,79.7
	c-2.1,10.4-7.3,18.1-15.3,23.2C563.2,508.8,553,510.1,545,510.1z"/>
<path class="st1" d="M158,413c-22,11-11,58,3,67s55-6,53-24S192.1,396,158,413z"/>
<path class="st1" d="M220,487c-24.9,7.9-23,41-14,46s42,0,41.5-15.5S239,481,220,487z"/>
<path class="st0" d="M330,523c24,43,157,31,214,25"/>
<path class="st1" d="M443.8,556.2c-6.4,0-12.9-0.1-19.2-0.3c-53.2-2-85.6-12.7-96.3-31.9c-0.5-1-0.2-2.2,0.8-2.7
	c1-0.5,2.2-0.2,2.7,0.8c10,17.9,41.2,27.9,93,29.9c41.9,1.6,88-2.6,119.1-5.9c1.1-0.1,2.1,0.7,2.2,1.8c0.1,1.1-0.7,2.1-1.8,2.2
	C517.7,552.8,480.3,556.2,443.8,556.2z"/>
<path class="st0" d="M532,574c-5,8-22,21-22,21"/>
<path class="st1" d="M510,597c-0.6,0-1.2-0.3-1.6-0.8c-0.7-0.9-0.5-2.1,0.4-2.8c0.2-0.1,16.8-12.9,21.5-20.5
	c0.6-0.9,1.8-1.2,2.8-0.6c0.9,0.6,1.2,1.8,0.6,2.8c-5.1,8.2-21.8,21-22.5,21.5C510.9,596.9,510.4,597,510,597z"/>
<path class="st0" d="M446,666c-20,1-50,0-50,0"/>
<path class="st1" d="M424.2,669.9c-14.8,0-28.1-0.4-28.3-0.4c-1.9-0.1-3.4-1.7-3.4-3.6s1.7-3.4,3.6-3.4c0.3,0,30.1,1,49.7,0
	c2-0.1,3.6,1.4,3.7,3.3c0.1,1.9-1.4,3.6-3.3,3.7C439.5,669.8,431.7,669.9,424.2,669.9z"/>
<path class="st1" d="M409.8,396.1c-21.7,0-57.2-6.8-72-22.8c-5.2-5.6-7.4-11.8-6.7-18.5c0.1-0.9,0.2-1.9,0.4-2.8
	c0.1-0.8,0.7-1.4,1.4-1.6c45.9-12.9,98.1-25,136.6-5.5c0.5,0.3,0.9,0.7,1,1.2c1.3,4.5,1.8,9.2,1.5,14c-0.5,10-7.4,19.1-19.4,25.8
	c-10.7,5.9-25.1,9.6-39.5,10.1C412,396,410.9,396.1,409.8,396.1z M335.2,353.9c-0.1,0.4-0.1,0.9-0.2,1.3c-0.6,5.5,1.3,10.7,5.7,15.4
	c14.1,15.2,51,22.2,72.3,21.4c26.3-0.9,54.1-13.2,55.1-32.1c0.2-4.1-0.2-8-1.2-11.8C430,330,379.7,341.5,335.2,353.9z"/>
<path class="st1" d="M331,320c42-26,106-28,123-27s27-31,6-45C446.6,239.1,340,254,331,320z"/>
<path class="st1" d="M560.2,250.9c-16.2,1.4-16.5,41.3-2.2,42c13.9,0.7,37.4,2.3,62,12.1c4-5,3.8-28.8-5.4-37.7
	C599,252,569.5,250.1,560.2,250.9z"/>
<g>
	<path class="st0" d="M540.4,341.4c-0.4,1.5-0.7,3-0.9,4.7c3.2,12.2,8.4,24.9,14.2,37.5c8.9,6.2,21.5,9.4,37.3,8.4
		c31.1-1.9,45.2-19.9,41.4-41.2C598.5,333.8,564,333.2,540.4,341.4z"/>
	<path class="st1" d="M585.5,394.2c-13.2,0-24.5-3.1-32.9-8.9c-0.3-0.2-0.5-0.5-0.7-0.8c-7.1-15.5-11.6-27.2-14.3-37.8
		c-0.1-0.3-0.1-0.5,0-0.8c0.2-1.7,0.6-3.3,1-4.9c0.2-0.6,0.6-1.2,1.3-1.4c27.5-9.6,62.5-6.1,93.5,9.5c0.6,0.3,1,0.8,1.1,1.4
		c1.9,10.3-0.3,19.8-6.2,27.3c-7.5,9.6-20.3,15.2-37,16.2C589.2,394.1,587.3,394.2,585.5,394.2z M555.3,382.3
		c8.8,6,21.1,8.6,35.6,7.7c15.6-1,27.4-6,34.1-14.7c5-6.4,6.9-14.4,5.6-23.1c-29.4-14.6-62.3-18-88.5-9.2c-0.2,1-0.4,2-0.6,3
		C544.2,356.2,548.5,367.4,555.3,382.3z"/>
</g>
<ellipse class="st1" cx="406.5" cy="351" rx="18.5" ry="20"/>
<ellipse class="st1" cx="583" cy="346.6" rx="17" ry="18.4"/>
<path class="st0" d="M468.5,346.7c-4.5-15.9-19.3-30.3-51.5-29.7c-46.4,1-78.8,9.4-83.6,35.3C384,338.2,432.4,328.4,468.5,346.7z"/>
<path class="st1" d="M333.4,354.3c-0.5,0-1-0.2-1.3-0.5c-0.5-0.5-0.7-1.2-0.6-1.8c2.4-13.1,11.4-22.5,27.4-28.5
	c13.6-5.2,32.6-7.9,58.1-8.4c15.3-0.3,27.9,2.7,37.3,9c8,5.3,13.6,13,16.2,22.2c0.2,0.8,0,1.6-0.7,2.1s-1.5,0.6-2.2,0.2
	c-37.2-18.8-88.5-6.9-133.7,5.8C333.8,354.3,333.6,354.3,333.4,354.3z M419.2,319c-0.7,0-1.4,0-2.1,0c-49.1,1-75,10.7-80.9,30.5
	c43.4-12,91.9-22.7,128.9-6.7C460.6,332.4,449.1,319,419.2,319z"/>
<path class="st0" d="M632.4,350.9c-0.1-0.6-0.2-1.2-0.4-1.8c-5-22-32-33-61-32c-15.6,0.5-26.7,9.7-30.6,24.4
	C564,333.2,598.5,333.8,632.4,350.9z"/>
<path class="st1" d="M632.4,352.9c-0.3,0-0.6-0.1-0.9-0.2c-30.1-15.1-63.8-18.6-90.4-9.3c-0.7,0.2-1.5,0.1-2-0.4
	c-0.5-0.5-0.8-1.3-0.6-2c4.1-15.7,16.2-25.4,32.4-25.9c27.4-0.9,57.5,9.1,63,33.6c0.1,0.6,0.3,1.3,0.4,1.9c0.1,0.7-0.2,1.5-0.8,2
	C633.2,352.7,632.8,352.9,632.4,352.9z M572.9,334.2c18.5,0,38.1,4.4,56.5,13c-4.9-15.2-24.3-29.4-58.4-28.2
	c-13.3,0.5-23.1,7.4-27.6,19.3C552.7,335.6,562.7,334.2,572.9,334.2z"/>
<g>
	<g>
		<path class="st1" d="M3.5,1044.5l0-1.5C2.7,998.2,42,947.3,75.1,912.6c41.2-43.3,96.9-86.9,152.9-119.8
			c14.1-8.3,28-15.7,41.2-22.1l2.5-1.2l-0.3,2.7c-1,8.3-2.2,15.5-3.4,20.8c-5,21.8-0.9,41.9,12,58.1c19.2,24.1,52.5,34.9,77,34.9
			c26.2,0,56-14.2,75.9-36.2c13.8-15.2,20.5-31.5,19.1-45.8c-0.7-6.9-1.4-13.6-2.2-20.7l-1-9.3l2.6,1.5
			c12.2,7.1,24.9,15.4,37.7,24.5c94.6,67.3,194.5,181,192.5,243l0,1.5H3.5z"/>
		<path class="st1" d="M269.9,772.1c-1,8.4-2.2,15.4-3.4,20.6c-5.1,22.3-0.9,42.8,12.3,59.4c19.5,24.5,53.3,35.4,78.2,35.4
			c26.6,0,56.9-14.4,77-36.7c14-15.5,21-32.2,19.5-47c-0.7-6.8-1.4-13.6-2.2-20.7c-0.2-2.1-0.5-4.2-0.7-6.3
			c12.3,7.2,24.9,15.4,37.6,24.4C584.1,869.4,682,982.6,680,1043c-232,0-675,0-675,0c-1.4-76.1,116.6-186,223.8-248.9
			C242.8,785.9,256.6,778.5,269.9,772.1 M273.6,767l-4.9,2.4c-13.3,6.4-27.2,13.9-41.3,22.2c-56.1,32.9-112,76.7-153.2,120
			C13.7,974.9,1.6,1018,2,1043.1l0.1,2.9H5h675h2.9l0.1-2.9c2.1-62.6-98.2-176.8-193.1-244.3c-12.8-9.1-25.6-17.4-37.8-24.5l-5.2-3
			l0.7,5.9c0.2,2.1,0.5,4.2,0.7,6.3c0.8,7.1,1.5,13.8,2.2,20.6c1.4,13.9-5.3,29.8-18.7,44.7c-19.6,21.7-49,35.7-74.8,35.7
			c-24.2,0-57-10.6-75.8-34.3c-12.6-15.8-16.6-35.5-11.7-56.8c1.2-5.3,2.4-12.6,3.4-20.9L273.6,767L273.6,767z"/>
	</g>
</g>
<path class="st1" d="M220.8,573.2c20.8,30.8,36,63.6,51.9,89.6c-3.1-35.1-10-70-22.7-95.8C238.1,571.8,228.5,573.5,220.8,573.2z"/>
<path class="st1" d="M607,120c11-7,38-39,37-65c-11,10-65,23-116,11c11-9,15-33,4-61c0,0-30,41-78,48c-40.6,5.9-121-32-194-9
	S138,84,117,151c-11-3-23-18-37-54c0,0-34,72,32,105c-29,1-50,29-57,74c0,0,21-32,43-25c-11.4,46.8,0.1,107.7,21,162.6
	c1-5.7,2.6-10.7,5-14.6c18-30,68.4-23.5,84-7c5.8,6.1,20,27,20,27s7,19,41,24c-17-16-17-59,0-84s45-127,18-154
	c82,16,115.5-23,157-26c0.6,0,1.3-0.1,1.9-0.1c0.3,0,0.5,0,0.8,0c0.4,0,0.7,0,1.1-0.1c0.3,0,0.6,0,0.8,0c0.3,0,0.7,0,1,0
	c0.3,0,0.5,0,0.8,0c0.4,0,0.7,0,1.1,0c0.2,0,0.5,0,0.7,0c0.4,0,0.7,0,1.1,0c0.3,0,0.5,0,0.8,0c0.3,0,0.7,0,1,0c0.3,0,0.6,0,0.9,0
	c0.3,0,0.6,0,0.9,0c0.3,0,0.5,0,0.8,0c0.3,0,0.7,0,1,0c0.3,0,0.5,0,0.8,0c0.3,0,0.7,0,1,0c0.3,0,0.5,0,0.8,0c0.3,0,0.7,0,1,0
	c0.3,0,0.5,0,0.8,0c0.3,0,0.6,0,1,0c0.3,0,0.5,0,0.8,0c0.3,0,0.6,0,0.9,0c0.3,0,0.5,0,0.8,0c0.3,0,0.6,0,1,0.1c0.2,0,0.5,0,0.7,0
	c0.3,0,0.7,0,1,0.1c0.2,0,0.5,0,0.7,0c0.3,0,0.7,0,1,0.1c0.2,0,0.4,0,0.7,0.1c0.4,0,0.7,0.1,1.1,0.1c0.2,0,0.4,0,0.6,0.1
	c0.4,0,0.7,0.1,1.1,0.1c0.2,0,0.4,0,0.6,0.1c0.4,0,0.8,0.1,1.1,0.1c0.2,0,0.4,0,0.6,0.1c0.4,0,0.8,0.1,1.1,0.1c0.2,0,0.4,0,0.6,0.1
	c0.4,0,0.8,0.1,1.2,0.1c0.1,0,0.3,0,0.4,0.1c0.4,0.1,0.9,0.1,1.3,0.2c0.1,0,0.2,0,0.3,0c0.5,0.1,0.9,0.1,1.4,0.2c0.1,0,0.2,0,0.3,0
	c0.5,0.1,1,0.1,1.5,0.2c0.1,0,0.1,0,0.2,0c0.5,0.1,1.1,0.1,1.6,0.2c0.1,0,0.1,0,0.2,0c0.6,0.1,1.1,0.2,1.7,0.2c0,0,0.1,0,0.1,0
	c23.5,3.5,51.5,10.1,101.2,16.8c0.4,0.1,0.8,0.1,1.3,0.2c83,11,94-68,102-102C683,108,641,129,607,120z"/>
</svg>
