<?xml version="1.0" encoding="utf-8"?>
<!-- Generator: Adobe Illustrator 22.0.1, SVG Export Plug-In . SVG Version: 6.00 Build 0)  -->
<svg version="1.1" id="Layer_1" xmlns="http://www.w3.org/2000/svg" xmlns:xlink="http://www.w3.org/1999/xlink" x="0px" y="0px"
	 viewBox="0 0 1000 1130" style="enable-background:new 0 0 1000 1130;" xml:space="preserve">
<style type="text/css">
	.st0{fill:#FFFFFF;}
	.st1{clip-path:url(#SVGID_2_);fill:#FFFFFF;}
	.st2{clip-path:url(#SVGID_4_);fill:#DE3554;}
	.st3{clip-path:url(#SVGID_6_);fill:#FFFFFF;}
	.st4{clip-path:url(#SVGID_8_);fill:#DE3554;}
	.st5{clip-path:url(#SVGID_10_);fill:#FFFFFF;}
	.st6{clip-path:url(#SVGID_12_);fill:#DE3554;}
	.st7{clip-path:url(#SVGID_14_);}
	.st8{fill:#DE3554;}
	.st9{clip-path:url(#SVGID_16_);}
	.st10{clip-path:url(#SVGID_18_);fill:#FFFFFF;}
	.st11{clip-path:url(#SVGID_20_);fill:#DE3554;}
	.st12{clip-path:url(#SVGID_22_);fill:#FFFFFF;}
	.st13{clip-path:url(#SVGID_24_);fill:#DE3554;}
	.st14{clip-path:url(#SVGID_26_);fill:#FFFFFF;}
	.st15{clip-path:url(#SVGID_28_);fill:#DE3554;}
	.st16{clip-path:url(#SVGID_30_);fill:#DE3554;}
	.st17{clip-path:url(#SVGID_32_);fill:#DE3554;}
	.st18{clip-path:url(#SVGID_34_);fill:#DE3554;}
	.st19{clip-path:url(#SVGID_36_);}
	.st20{clip-path:url(#SVGID_38_);fill:#DE3554;}
	.st21{clip-path:url(#SVGID_40_);fill:#DE3554;}
	.st22{clip-path:url(#SVGID_42_);fill:#FFFFFF;}
	.st23{clip-path:url(#SVGID_44_);fill:#DE3554;}
	.st24{clip-path:url(#SVGID_46_);fill:#FFFFFF;}
	.st25{clip-path:url(#SVGID_48_);fill:#DE3554;}
	.st26{clip-path:url(#SVGID_50_);}
	.st27{clip-path:url(#SVGID_52_);fill:#DE3554;}
	.st28{clip-path:url(#SVGID_54_);fill:#DE3554;}
</style>
<ellipse class="st0" cx="452.2" cy="560" rx="449.2" ry="560"/>
<g>
	<g>
		<defs>
			<ellipse id="SVGID_1_" cx="452.2" cy="560" rx="449.2" ry="560"/>
		</defs>
		<clipPath id="SVGID_2_">
			<use xlink:href="#SVGID_1_"  style="overflow:visible;"/>
		</clipPath>
		<path class="st1" d="M555.2,923.6c-13.2-9.4-26.3-17.9-39.2-25.3c-3.5-31.8-6.8-66.5-2.9-111.9c41-3,109-11,152-68
			c22.7-30,33.3-125.6,28.6-219.5c5.5-7.1,7.5-16,5.8-25.6c-0.1-0.6-0.2-1.2-0.4-1.8c-1.4-6-4.4-11.2-8.7-15.6
			c-1-9.7-2.2-19.2-3.5-28.5c0.1,0,0.1,0,0.2,0.1c4-5,3.8-28.8-5.4-37.7c-0.6-0.6-1.2-1.2-1.9-1.7c-5.8-26.5-13.5-49.8-23-67.7l0,0
			c0.4,0.1,0.8,0.1,1.3,0.2c83,11,94-68,102-102c-10,12-52,33-86,24c11-7,38-39,37-65c-11,10-65,23-116,11c11-9,15-33,4-61
			c0,0-30,41-78,48c-40.6,5.9-121-32-194-9s-122,39.7-143,106.7c-11-3-23-18-37-54c0,0-34,72,32,105c-29,1-50,29-57,74
			c0,0,21-32,43-25c-11.4,46.8,0.1,107.7,21,162.6c-5.4,31.7,10.7,86.6,53,113.4c15.2,9.6,17.6,44.9,48.8,46.2
			c20.8,30.8,36,63.6,51.9,89.6c3.6,40.3,2.1,81-1.1,108.4c-13.8,6.6-28.2,14.3-42.8,22.8c-107.2,63-225.2,172.9-223.8,249
			c0,0,443,0,675,0C749.1,1104.9,651.2,991.7,555.2,923.6z"/>
	</g>
	<g>
		<defs>
			<ellipse id="SVGID_3_" cx="452.2" cy="560" rx="449.2" ry="560"/>
		</defs>
		<clipPath id="SVGID_4_">
			<use xlink:href="#SVGID_3_"  style="overflow:visible;"/>
		</clipPath>
		<path class="st2" d="M747.1,1170.3h-675c-2.7,0-5-2.2-5-4.9c-0.8-46,39-97.7,72.6-132.9c41.4-43.5,97.4-87.4,153.7-120.4
			c13.8-8.1,27.5-15.5,40.7-21.8c3.5-31.2,3.8-69.6,0.9-103.5c-6.1-10.1-12.1-21-18.4-32.6c-9.6-17.7-19.6-36-31.5-53.8
			c-20.8-2.1-29.7-18-36.9-30.8c-3.8-6.8-7.3-13.1-11.8-15.9c-41.5-26.2-60.9-80.8-55.5-117.1c-30-79.8-27.3-132.5-21.8-159.3
			c-16.5-0.4-32.6,23.5-32.8,23.7c-1.3,2-3.8,2.8-6,1.9c-2.2-0.8-3.5-3.1-3.1-5.4c6.3-40.5,23.8-67.6,47.9-75.7
			c-26.2-18.2-31.9-43.4-31.7-62.4c0.3-23,8.9-41.4,9.2-42.2c0.9-1.8,2.7-2.9,4.7-2.9c2,0.1,3.8,1.3,4.5,3.2
			c10.4,26.7,20.2,43.2,29.3,49c23.3-66.8,77-83.7,144.5-105c46.6-14.7,96.1-5.2,135.9,2.4c23.8,4.6,44.4,8.5,58.9,6.4
			c45.4-6.6,74.4-45.6,74.7-46c1.1-1.5,2.9-2.2,4.7-2s3.3,1.4,4,3.1c10.3,26.2,7.9,47.4,0.5,59.6c47.2,8.7,94.4-3.2,103.5-11.5
			c1.4-1.3,3.5-1.7,5.3-0.9s3,2.5,3.1,4.4c0.9,22.6-17.3,48.7-30.7,62.1c29.6,2.7,62.6-14.3,70.8-24.1c1.5-1.8,4-2.3,6.1-1.3
			s3.2,3.4,2.6,5.6c-0.6,2.4-1.1,5-1.7,7.7c-4.2,19.2-10.1,45.5-25,66.6c-15.4,21.7-37.3,32.6-65,32.6c-2.5,0-5.1-0.1-7.8-0.3
			c7.4,16,13.8,35.8,19,59.1c0.3,0.3,0.6,0.5,0.8,0.8c9.9,9.7,11.5,33.3,7,42.6c1.2,8.1,2.2,16.5,3.1,25c4.4,4.9,7.3,10.5,8.7,16.7
			c0.2,0.7,0.3,1.4,0.4,2.1c1.9,10.4-0.1,20.1-5.6,28.1c2.2,46.3,0.7,93.4-4.2,132.8c-3.7,29.7-11.1,69.1-25.5,88.2
			c-44.8,59.4-116.8,67-151.4,69.7c-3.1,41.1-0.4,72.9,3,104.2c12.1,7.1,24.7,15.3,37.4,24.3c95.4,67.8,196,182.8,194,246
			C752,1168.2,749.8,1170.3,747.1,1170.3z M77.2,1160.3h664.9c-1.5-26.9-21.9-65.5-58-109.8c-36.2-44.4-84.2-89.2-131.7-122.9l0,0
			c-13.2-9.4-26.3-17.8-38.8-25.1c-1.4-0.8-2.3-2.2-2.5-3.8c-3.7-33.7-6.8-67.7-2.9-112.9c0.2-2.5,2.2-4.4,4.6-4.6
			c31.2-2.3,104.3-7.6,148.4-66c20.9-27.7,32.5-118.6,27.6-216.3c-0.1-1.2,0.3-2.4,1.1-3.3c4.6-5.9,6.3-13.4,4.8-21.7
			c-0.1-0.5-0.2-1.1-0.3-1.6c-1.1-4.9-3.6-9.3-7.4-13.2c-0.8-0.8-1.3-1.9-1.4-3c-1-9.6-2.2-19.1-3.5-28.3c-0.2-1.6,0.3-3.3,1.5-4.4
			c1.9-4.6,1.9-23.4-5.3-30.4c-0.5-0.4-1-0.9-1.6-1.5c-0.8-0.7-1.4-1.7-1.6-2.7c-6-27.1-13.5-49.3-22.3-66.1c-0.6-1-0.9-2.2-0.8-3.4
			c0.4-2.7,2.9-4.6,5.6-4.3h0.1l1.2,0.2c68.7,9.1,84.8-46.4,93.3-84.1c-6.8,4.4-15.4,8.5-24.3,11.6c-13.9,4.9-34.7,9.6-54.9,4.2
			c-1.9-0.5-3.4-2.1-3.7-4.1s0.6-3.9,2.3-5c9.4-6,29.5-30.2,33.9-51.6c-21,9.4-67,17.1-111.3,6.6c-1.9-0.4-3.3-1.9-3.7-3.7
			c-0.4-1.9,0.2-3.8,1.7-5c7.9-6.5,11.9-24.6,5.3-47.1c-11.2,12.5-37.9,37.4-75.4,42.9c-16.2,2.4-37.5-1.7-62.3-6.5
			c-38.7-7.4-86.8-16.6-131-2.7c-76,23.9-119.9,40.6-139.7,103.7c-0.8,2.6-3.5,4-6.1,3.3c-12.2-3.3-23.5-17.7-35.4-44.9
			c-2,6.9-4,16.3-4.1,26.6c-0.2,27.1,12.6,47.3,38,60c2,1,3.1,3.3,2.6,5.5s-2.4,3.9-4.7,3.9c-22,0.8-39.3,19.5-48.2,51
			c9.1-8.3,21.9-16.1,35.5-11.8c2.5,0.8,4,3.4,3.3,6c-10.1,41.2-2.7,97.9,20.8,159.7c0.3,0.8,0.4,1.7,0.3,2.6
			c-2.7,15.8,0.4,36.6,8.3,55.8c6.5,15.8,19.1,37.8,42.4,52.5c6.6,4.2,10.8,11.6,15.2,19.5c7.2,12.9,14.1,25.2,31.1,25.9
			c1.6,0.1,3,0.9,3.9,2.2c12.8,18.9,23.2,38.1,33.3,56.7c6.4,11.8,12.5,23,18.7,33.2c0.4,0.7,0.6,1.4,0.7,2.2
			c3.2,35.9,2.7,76.8-1.2,109.5c-0.2,1.7-1.3,3.2-2.8,3.9c-13.7,6.5-27.9,14.1-42.4,22.6c-55.4,33-110.6,76.2-151.4,119.1
			C102.9,1085.6,78.9,1127.3,77.2,1160.3z"/>
	</g>
	<g>
		<defs>
			<ellipse id="SVGID_5_" cx="452.2" cy="560" rx="449.2" ry="560"/>
		</defs>
		<clipPath id="SVGID_6_">
			<use xlink:href="#SVGID_5_"  style="overflow:visible;"/>
		</clipPath>
		<path class="st3" d="M511.1,301.3c-41.5,3-75,42-157,26c27,27-1,129-18,154s-17,68,0,84c-34-5-41-24-41-24s-14.2-20.9-20-27
			c-15.6-16.5-66-23-84,7c-15.3,25.6-2,96.4,48,128c19,12,18,64,78,40c32,65,27,187,18,226c-14.4,62.4,48,93,89,93
			c48,0,98.6-45.5,95-82c-4-40-11-81-6-140c41-3,109-11,152-68c39.4-52.2,42.5-302.5-8.2-398.2C574.9,309.2,551.9,298.3,511.1,301.3
			z"/>
	</g>
	<g>
		<defs>
			<ellipse id="SVGID_7_" cx="452.2" cy="560" rx="449.2" ry="560"/>
		</defs>
		<clipPath id="SVGID_8_">
			<use xlink:href="#SVGID_7_"  style="overflow:visible;"/>
		</clipPath>
		<path class="st4" d="M424.1,1009.8c-24.9,0-58.7-11-78.2-35.4c-13.2-16.6-17.4-37.1-12.3-59.4c8.1-35.2,14.9-156.6-17.3-223.8
			c-10.6,4.1-19.3,5.8-26.6,5.8c-22.1,0-31-15.9-38.5-29.3c-4-7.2-7.8-13.9-13-17.2c-30.7-19.4-44-50.3-49.1-67.1
			c-7.7-24.8-7.4-49.6,0.6-63c7.1-11.9,20.2-19.5,36.7-21.3c19.1-2.1,40,3.8,49.6,14c5.8,6.1,19.6,26.3,20.1,27.2
			c0.1,0.1,0.1,0.2,0.2,0.3c2.2,5.9,12.5,17.8,35.6,22.3c-6.5-8.3-10.2-21.3-10.2-36.4c0-17.2,4.7-34.1,13-46.2
			c7.7-11.3,19.2-41.7,25.3-75.7c9.2-51.1-0.5-69.8-7.1-76.4c-0.5-0.5-0.6-1.2-0.3-1.8c0.3-0.6,1-0.9,1.6-0.8
			c53.3,10.4,85.4-2.4,113.8-13.7c14.6-5.8,28.3-11.3,42.8-12.3l0.1,1.5l-0.1-1.5c25.2-1.8,43.2,1.5,73,7c18.4,3.4,41.4,7.6,73,11.9
			c0.5,0.1,0.9,0.4,1.1,0.8c23.1,43.6,37.4,124.4,38.1,216.1c0.7,86.5-11.1,158.6-30,183.7c-45.2,60-119,66.1-151.8,68.5
			c-4,48.1,0,83.5,3.9,117.8c0.8,7.1,1.6,13.8,2.2,20.7c1.5,14.8-5.4,31.5-19.5,47C481,995.4,450.7,1009.8,424.1,1009.8z
			 M317.1,687.8c0.6,0,1.1,0.3,1.3,0.8c33.2,67.5,26.3,191.3,18.1,227c-5,21.7-1.1,40.8,11.7,56.8c18.8,23.6,52.5,34.3,75.8,34.3
			c25.8,0,55.2-14,74.8-35.7c13.3-14.7,20.1-30.9,18.7-44.7c-0.7-6.8-1.4-13.5-2.2-20.6c-3.9-34.7-7.9-70.6-3.8-119.6
			c0.1-0.7,0.6-1.3,1.4-1.4c31.7-2.3,105.9-7.7,150.9-67.4c18.5-24.6,30.1-95.9,29.4-181.9c-0.7-90.7-14.7-170.6-37.4-214
			c-31.4-4.2-54.1-8.4-72.4-11.8c-29.6-5.5-47.5-8.8-72.3-6.9c-14.1,1-27,6.2-41.9,12.1c-28,11.1-59.6,23.7-111.3,14.6
			c13,17.9,8.9,54.6,5.1,75.8c-5.4,30.2-16.5,63.2-25.7,76.8c-16.6,24.4-16.7,66.6-0.2,82.1c0.5,0.4,0.6,1.2,0.3,1.7
			c-0.3,0.6-0.9,0.9-1.6,0.8c-33.1-4.9-41.2-22.6-42.1-24.8c-1.2-1.8-14.4-21-19.8-26.7c-8.9-9.4-29.2-15-47.1-13.1
			c-15.6,1.7-27.8,8.7-34.5,19.8c-7.6,12.7-7.8,36.5-0.3,60.5c5,16.3,18,46.5,47.9,65.4c5.8,3.7,9.8,10.8,14,18.3
			c10,17.9,21.3,38.1,62.7,21.6C316.7,687.8,316.9,687.8,317.1,687.8z"/>
	</g>
	<g>
		<defs>
			<ellipse id="SVGID_9_" cx="452.2" cy="560" rx="449.2" ry="560"/>
		</defs>
		<clipPath id="SVGID_10_">
			<use xlink:href="#SVGID_9_"  style="overflow:visible;"/>
		</clipPath>
		<path class="st5" d="M604.1,456.3c7,49,56,107,48,146s-58,26-58,26"/>
	</g>
	<g>
		<defs>
			<ellipse id="SVGID_11_" cx="452.2" cy="560" rx="449.2" ry="560"/>
		</defs>
		<clipPath id="SVGID_12_">
			<use xlink:href="#SVGID_11_"  style="overflow:visible;"/>
		</clipPath>
		<path class="st6" d="M612.1,632.4c-1,0-2,0-2.9-0.1c-8.8-0.3-15.4-2-15.6-2.1c-1.1-0.3-1.7-1.4-1.4-2.4c0.3-1.1,1.4-1.7,2.4-1.4
			c0.3,0.1,25.5,6.4,42-3.9c7.1-4.4,11.6-11.3,13.5-20.6c4.3-21.2-8.8-48.4-22.6-77.1c-11-22.8-22.3-46.3-25.4-68.2
			c-0.2-1.1,0.6-2.1,1.7-2.3c1.1-0.2,2.1,0.6,2.3,1.7c3,21.3,14.2,44.5,25.1,67c14.2,29.4,27.5,57.2,22.9,79.7
			c-2.1,10.4-7.3,18.1-15.3,23.2C630.3,631.1,620.1,632.4,612.1,632.4z"/>
	</g>
	<g>
		<defs>
			<ellipse id="SVGID_13_" cx="452.2" cy="560" rx="449.2" ry="560"/>
		</defs>
		<clipPath id="SVGID_14_">
			<use xlink:href="#SVGID_13_"  style="overflow:visible;"/>
		</clipPath>
		<g class="st7">
			<path class="st8" d="M234.5,602c-4.9,0-9.3-0.9-12.5-3c-9.5-6.1-17.3-27.6-16.3-45.2c0.7-12.5,5.3-21.2,13.5-25.3l0,0
				c11-5.5,21.5-5.6,31.2-0.3c16.5,9,26.3,32.1,27.7,44.9c0.8,7-4,14.1-13.3,19.9C256.2,598.3,244.4,602,234.5,602z M221,532.1
				c-8.6,4.3-10.9,14.3-11.3,21.9c-0.9,16,6.2,36.2,14.5,41.6c7.5,4.8,25.5,2,38.5-6c4.6-2.9,12.3-8.8,11.5-16.1
				c-1.3-12-10.4-33.5-25.7-41.8C240,527.1,230.8,527.2,221,532.1L221,532.1z"/>
		</g>
	</g>
	<g>
		<defs>
			<ellipse id="SVGID_15_" cx="452.2" cy="560" rx="449.2" ry="560"/>
		</defs>
		<clipPath id="SVGID_16_">
			<use xlink:href="#SVGID_15_"  style="overflow:visible;"/>
		</clipPath>
		<g class="st9">
			<path class="st8" d="M285.5,653.3c-0.7,0-1.5,0-2.3-0.1c-13.6-0.8-24.2-8.3-28.5-20.2l0,0c-2.3-6.5-1.9-12.3,1.4-17.4
				c5.9-9.2,19.7-13.3,29.6-14c5.1-0.4,9.8,2.4,13.5,7.9c7.1,10.7,9.1,28.9,5.6,35.8C302.5,650.1,294.5,653.3,285.5,653.3z
				 M258.4,631.7c5.4,14.8,19.3,17.2,25,17.5c9,0.5,16.3-2.5,17.9-5.7c2.6-5.2,1.2-21.9-5.4-31.8c-2.9-4.4-6.3-6.4-9.9-6.2
				c-9,0.7-21.4,4.3-26.6,12.2C256.9,621.8,256.5,626.5,258.4,631.7L258.4,631.7z"/>
		</g>
	</g>
	<g>
		<defs>
			<ellipse id="SVGID_17_" cx="452.2" cy="560" rx="449.2" ry="560"/>
		</defs>
		<clipPath id="SVGID_18_">
			<use xlink:href="#SVGID_17_"  style="overflow:visible;"/>
		</clipPath>
		<path class="st10" d="M397.1,645.3c24,43,157,31,214,25"/>
	</g>
	<g>
		<defs>
			<ellipse id="SVGID_19_" cx="452.2" cy="560" rx="449.2" ry="560"/>
		</defs>
		<clipPath id="SVGID_20_">
			<use xlink:href="#SVGID_19_"  style="overflow:visible;"/>
		</clipPath>
		<path class="st11" d="M510.9,678.5c-6.4,0-12.9-0.1-19.2-0.3c-53.2-2-85.6-12.7-96.3-31.9c-0.5-1-0.2-2.2,0.8-2.7s2.2-0.2,2.7,0.8
			c10,17.9,41.2,27.9,93,29.9c41.9,1.6,88-2.6,119.1-5.9c1.1-0.1,2.1,0.7,2.2,1.8c0.1,1.1-0.7,2.1-1.8,2.2
			C584.8,675.1,547.4,678.5,510.9,678.5z"/>
	</g>
	<g>
		<defs>
			<ellipse id="SVGID_21_" cx="452.2" cy="560" rx="449.2" ry="560"/>
		</defs>
		<clipPath id="SVGID_22_">
			<use xlink:href="#SVGID_21_"  style="overflow:visible;"/>
		</clipPath>
		<path class="st12" d="M599.1,696.3c-5,8-22,21-22,21"/>
	</g>
	<g>
		<defs>
			<ellipse id="SVGID_23_" cx="452.2" cy="560" rx="449.2" ry="560"/>
		</defs>
		<clipPath id="SVGID_24_">
			<use xlink:href="#SVGID_23_"  style="overflow:visible;"/>
		</clipPath>
		<path class="st13" d="M577.1,719.3c-0.6,0-1.2-0.3-1.6-0.8c-0.7-0.9-0.5-2.1,0.4-2.8c0.2-0.1,16.8-12.9,21.5-20.5
			c0.6-0.9,1.8-1.2,2.8-0.6c0.9,0.6,1.2,1.8,0.6,2.8c-5.1,8.2-21.8,21-22.5,21.5C578,719.2,577.5,719.3,577.1,719.3z"/>
	</g>
	<g>
		<defs>
			<ellipse id="SVGID_25_" cx="452.2" cy="560" rx="449.2" ry="560"/>
		</defs>
		<clipPath id="SVGID_26_">
			<use xlink:href="#SVGID_25_"  style="overflow:visible;"/>
		</clipPath>
		<path class="st14" d="M513.1,788.3c-20,1-50,0-50,0"/>
	</g>
	<g>
		<defs>
			<ellipse id="SVGID_27_" cx="452.2" cy="560" rx="449.2" ry="560"/>
		</defs>
		<clipPath id="SVGID_28_">
			<use xlink:href="#SVGID_27_"  style="overflow:visible;"/>
		</clipPath>
		<path class="st15" d="M491.3,792.2c-14.8,0-28.1-0.4-28.3-0.4c-1.9-0.1-3.4-1.7-3.4-3.6s1.7-3.4,3.6-3.4c0.3,0,30.1,1,49.7,0
			c2-0.1,3.6,1.4,3.7,3.3c0.1,1.9-1.4,3.6-3.3,3.7C506.6,792.1,498.8,792.2,491.3,792.2z"/>
	</g>
	<g>
		<defs>
			<ellipse id="SVGID_29_" cx="452.2" cy="560" rx="449.2" ry="560"/>
		</defs>
		<clipPath id="SVGID_30_">
			<use xlink:href="#SVGID_29_"  style="overflow:visible;"/>
		</clipPath>
		<path class="st16" d="M476.9,518.4c-21.7,0-57.2-6.8-72-22.8c-5.2-5.6-7.4-11.8-6.7-18.5c0.1-0.9,0.2-1.9,0.4-2.8
			c0.1-0.8,0.7-1.4,1.4-1.6c45.9-12.9,98.1-25,136.6-5.5c0.5,0.3,0.9,0.7,1,1.2c1.3,4.5,1.8,9.2,1.5,14c-0.5,10-7.4,19.1-19.4,25.8
			c-10.7,5.9-25.1,9.6-39.5,10.1C479.1,518.3,478,518.4,476.9,518.4z M402.3,476.2c-0.1,0.4-0.1,0.9-0.2,1.3
			c-0.6,5.5,1.3,10.7,5.7,15.4c14.1,15.2,51,22.2,72.3,21.4c26.3-0.9,54.1-13.2,55.1-32.1c0.2-4.1-0.2-8-1.2-11.8
			C497.1,452.3,446.8,463.8,402.3,476.2z"/>
	</g>
	<g>
		<defs>
			<ellipse id="SVGID_31_" cx="452.2" cy="560" rx="449.2" ry="560"/>
		</defs>
		<clipPath id="SVGID_32_">
			<use xlink:href="#SVGID_31_"  style="overflow:visible;"/>
		</clipPath>
		<path class="st17" d="M398.1,442.3c42-26,106-28,123-27c17,1,27-31,6-45C513.7,361.4,407.1,376.3,398.1,442.3z"/>
	</g>
	<g>
		<defs>
			<ellipse id="SVGID_33_" cx="452.2" cy="560" rx="449.2" ry="560"/>
		</defs>
		<clipPath id="SVGID_34_">
			<use xlink:href="#SVGID_33_"  style="overflow:visible;"/>
		</clipPath>
		<path class="st18" d="M627.3,373.2c-16.2,1.4-16.5,41.3-2.2,42c13.9,0.7,37.4,2.3,62,12.1c4-5,3.8-28.8-5.4-37.7
			C666.1,374.3,636.6,372.4,627.3,373.2z"/>
	</g>
	<g>
		<defs>
			<ellipse id="SVGID_35_" cx="452.2" cy="560" rx="449.2" ry="560"/>
		</defs>
		<clipPath id="SVGID_36_">
			<use xlink:href="#SVGID_35_"  style="overflow:visible;"/>
		</clipPath>
		<g class="st19">
			<path class="st0" d="M607.5,463.7c-0.4,1.5-0.7,3-0.9,4.7c3.2,12.2,8.4,24.9,14.2,37.5c8.9,6.2,21.5,9.4,37.3,8.4
				c31.1-1.9,45.2-19.9,41.4-41.2C665.6,456.1,631.1,455.5,607.5,463.7z"/>
			<path class="st8" d="M652.6,516.5c-13.2,0-24.5-3.1-32.9-8.9c-0.3-0.2-0.5-0.5-0.7-0.8c-7.1-15.5-11.6-27.2-14.3-37.8
				c-0.1-0.3-0.1-0.5,0-0.8c0.2-1.7,0.6-3.3,1-4.9c0.2-0.6,0.6-1.2,1.3-1.4c27.5-9.6,62.5-6.1,93.5,9.5c0.6,0.3,1,0.8,1.1,1.4
				c1.9,10.3-0.3,19.8-6.2,27.3c-7.5,9.6-20.3,15.2-37,16.2C656.3,516.4,654.4,516.5,652.6,516.5z M622.4,504.6
				c8.8,6,21.1,8.6,35.6,7.7c15.6-1,27.4-6,34.1-14.7c5-6.4,6.9-14.4,5.6-23.1c-29.4-14.6-62.3-18-88.5-9.2c-0.2,1-0.4,2-0.6,3
				C611.3,478.5,615.6,489.7,622.4,504.6z"/>
		</g>
	</g>
	<g>
		<defs>
			<ellipse id="SVGID_37_" cx="452.2" cy="560" rx="449.2" ry="560"/>
		</defs>
		<clipPath id="SVGID_38_">
			<use xlink:href="#SVGID_37_"  style="overflow:visible;"/>
		</clipPath>
		<ellipse class="st20" cx="473.6" cy="473.3" rx="18.5" ry="20"/>
	</g>
	<g>
		<defs>
			<ellipse id="SVGID_39_" cx="452.2" cy="560" rx="449.2" ry="560"/>
		</defs>
		<clipPath id="SVGID_40_">
			<use xlink:href="#SVGID_39_"  style="overflow:visible;"/>
		</clipPath>
		<ellipse class="st21" cx="650.1" cy="468.9" rx="17" ry="18.4"/>
	</g>
	<g>
		<defs>
			<ellipse id="SVGID_41_" cx="452.2" cy="560" rx="449.2" ry="560"/>
		</defs>
		<clipPath id="SVGID_42_">
			<use xlink:href="#SVGID_41_"  style="overflow:visible;"/>
		</clipPath>
		<path class="st22" d="M535.6,469c-4.5-15.9-19.3-30.3-51.5-29.7c-46.4,1-78.8,9.4-83.6,35.3C451.1,460.5,499.5,450.7,535.6,469z"
			/>
	</g>
	<g>
		<defs>
			<ellipse id="SVGID_43_" cx="452.2" cy="560" rx="449.2" ry="560"/>
		</defs>
		<clipPath id="SVGID_44_">
			<use xlink:href="#SVGID_43_"  style="overflow:visible;"/>
		</clipPath>
		<path class="st23" d="M400.5,476.6c-0.5,0-1-0.2-1.3-0.5c-0.5-0.5-0.7-1.2-0.6-1.8c2.4-13.1,11.4-22.5,27.4-28.5
			c13.6-5.2,32.6-7.9,58.1-8.4c15.3-0.3,27.9,2.7,37.3,9c8,5.3,13.6,13,16.2,22.2c0.2,0.8,0,1.6-0.7,2.1s-1.5,0.6-2.2,0.2
			c-37.2-18.8-88.5-6.9-133.7,5.8C400.9,476.6,400.7,476.6,400.5,476.6z M486.3,441.3c-0.7,0-1.4,0-2.1,0c-49.1,1-75,10.7-80.9,30.5
			c43.4-12,91.9-22.7,128.9-6.7C527.7,454.7,516.2,441.3,486.3,441.3z"/>
	</g>
	<g>
		<defs>
			<ellipse id="SVGID_45_" cx="452.2" cy="560" rx="449.2" ry="560"/>
		</defs>
		<clipPath id="SVGID_46_">
			<use xlink:href="#SVGID_45_"  style="overflow:visible;"/>
		</clipPath>
		<path class="st24" d="M699.5,473.2c-0.1-0.6-0.2-1.2-0.4-1.8c-5-22-32-33-61-32c-15.6,0.5-26.7,9.7-30.6,24.4
			C631.1,455.5,665.6,456.1,699.5,473.2z"/>
	</g>
	<g>
		<defs>
			<ellipse id="SVGID_47_" cx="452.2" cy="560" rx="449.2" ry="560"/>
		</defs>
		<clipPath id="SVGID_48_">
			<use xlink:href="#SVGID_47_"  style="overflow:visible;"/>
		</clipPath>
		<path class="st25" d="M699.5,475.2c-0.3,0-0.6-0.1-0.9-0.2c-30.1-15.1-63.8-18.6-90.4-9.3c-0.7,0.2-1.5,0.1-2-0.4s-0.8-1.3-0.6-2
			c4.1-15.7,16.2-25.4,32.4-25.9c27.4-0.9,57.5,9.1,63,33.6c0.1,0.6,0.3,1.3,0.4,1.9c0.1,0.7-0.2,1.5-0.8,2
			C700.3,475,699.9,475.2,699.5,475.2z M640,456.5c18.5,0,38.1,4.4,56.5,13c-4.9-15.2-24.3-29.4-58.4-28.2
			c-13.3,0.5-23.1,7.4-27.6,19.3C619.8,457.9,629.8,456.5,640,456.5z"/>
	</g>
	<g>
		<defs>
			<ellipse id="SVGID_49_" cx="452.2" cy="560" rx="449.2" ry="560"/>
		</defs>
		<clipPath id="SVGID_50_">
			<use xlink:href="#SVGID_49_"  style="overflow:visible;"/>
		</clipPath>
		<g class="st26">
			<g>
				<path class="st8" d="M70.6,1166.8v-1.5c-0.8-44.8,38.5-95.7,71.6-130.4c41.2-43.3,96.9-86.9,152.9-119.8
					c14.1-8.3,28-15.7,41.2-22.1l2.5-1.2l-0.3,2.7c-1,8.3-2.2,15.5-3.4,20.8c-5,21.8-0.9,41.9,12,58.1c19.2,24.1,52.5,34.9,77,34.9
					c26.2,0,56-14.2,75.9-36.2c13.8-15.2,20.5-31.5,19.1-45.8c-0.7-6.9-1.4-13.6-2.2-20.7l-1-9.3l2.6,1.5
					c12.2,7.1,24.9,15.4,37.7,24.5c94.6,67.3,194.5,181,192.5,243v1.5H70.6z"/>
				<path class="st8" d="M337,894.4c-1,8.4-2.2,15.4-3.4,20.6c-5.1,22.3-0.9,42.8,12.3,59.4c19.5,24.5,53.3,35.4,78.2,35.4
					c26.6,0,56.9-14.4,77-36.7c14-15.5,21-32.2,19.5-47c-0.7-6.8-1.4-13.6-2.2-20.7c-0.2-2.1-0.5-4.2-0.7-6.3
					c12.3,7.2,24.9,15.4,37.6,24.4c95.9,68.2,193.8,181.4,191.8,241.8c-232,0-675,0-675,0c-1.4-76.1,116.6-186,223.8-248.9
					C309.9,908.2,323.7,900.8,337,894.4 M340.7,889.3l-4.9,2.4c-13.3,6.4-27.2,13.9-41.3,22.2c-56.1,32.9-112,76.7-153.2,120
					c-60.5,63.3-72.6,106.4-72.2,131.5l0.1,2.9h2.9h675h2.9l0.1-2.9c2.1-62.6-98.2-176.8-193.1-244.3c-12.8-9.1-25.6-17.4-37.8-24.5
					l-5.2-3l0.7,5.9c0.2,2.1,0.5,4.2,0.7,6.3c0.8,7.1,1.5,13.8,2.2,20.6c1.4,13.9-5.3,29.8-18.7,44.7c-19.6,21.7-49,35.7-74.8,35.7
					c-24.2,0-57-10.6-75.8-34.3c-12.6-15.8-16.6-35.5-11.7-56.8c1.2-5.3,2.4-12.6,3.4-20.9L340.7,889.3L340.7,889.3z"/>
			</g>
		</g>
	</g>
	<g>
		<defs>
			<ellipse id="SVGID_51_" cx="452.2" cy="560" rx="449.2" ry="560"/>
		</defs>
		<clipPath id="SVGID_52_">
			<use xlink:href="#SVGID_51_"  style="overflow:visible;"/>
		</clipPath>
		<path class="st27" d="M287.9,695.5c20.8,30.8,36,63.6,51.9,89.6c-3.1-35.1-10-70-22.7-95.8C305.2,694.1,295.6,695.8,287.9,695.5z"
			/>
	</g>
	<g>
		<defs>
			<ellipse id="SVGID_53_" cx="452.2" cy="560" rx="449.2" ry="560"/>
		</defs>
		<clipPath id="SVGID_54_">
			<use xlink:href="#SVGID_53_"  style="overflow:visible;"/>
		</clipPath>
		<path class="st28" d="M674.1,242.3c11-7,38-39,37-65c-11,10-65,23-116,11c11-9,15-33,4-61c0,0-30,41-78,48c-40.6,5.9-121-32-194-9
			s-122,40-143,107c-11-3-23-18-37-54c0,0-34,72,32,105c-29,1-50,29-57,74c0,0,21-32,43-25c-11.4,46.8,0.1,107.7,21,162.6
			c1-5.7,2.6-10.7,5-14.6c18-30,68.4-23.5,84-7c5.8,6.1,20,27,20,27s7,19,41,24c-17-16-17-59,0-84s45-127,18-154
			c82,16,115.5-23,157-26c0.6,0,1.3-0.1,1.9-0.1c0.3,0,0.5,0,0.8,0c0.4,0,0.7,0,1.1-0.1c0.3,0,0.6,0,0.8,0c0.3,0,0.7,0,1,0
			s0.5,0,0.8,0c0.4,0,0.7,0,1.1,0c0.2,0,0.5,0,0.7,0c0.4,0,0.7,0,1.1,0c0.3,0,0.5,0,0.8,0s0.7,0,1,0s0.6,0,0.9,0s0.6,0,0.9,0
			s0.5,0,0.8,0s0.7,0,1,0s0.5,0,0.8,0s0.7,0,1,0s0.5,0,0.8,0s0.7,0,1,0s0.5,0,0.8,0s0.6,0,1,0c0.3,0,0.5,0,0.8,0s0.6,0,0.9,0
			s0.5,0,0.8,0s0.6,0,1,0.1c0.2,0,0.5,0,0.7,0c0.3,0,0.7,0,1,0.1c0.2,0,0.5,0,0.7,0c0.3,0,0.7,0,1,0.1c0.2,0,0.4,0,0.7,0.1
			c0.4,0,0.7,0.1,1.1,0.1c0.2,0,0.4,0,0.6,0.1c0.4,0,0.7,0.1,1.1,0.1c0.2,0,0.4,0,0.6,0.1c0.4,0,0.8,0.1,1.1,0.1
			c0.2,0,0.4,0,0.6,0.1c0.4,0,0.8,0.1,1.1,0.1c0.2,0,0.4,0,0.6,0.1c0.4,0,0.8,0.1,1.2,0.1c0.1,0,0.3,0,0.4,0.1
			c0.4,0.1,0.9,0.1,1.3,0.2c0.1,0,0.2,0,0.3,0c0.5,0.1,0.9,0.1,1.4,0.2c0.1,0,0.2,0,0.3,0c0.5,0.1,1,0.1,1.5,0.2c0.1,0,0.1,0,0.2,0
			c0.5,0.1,1.1,0.1,1.6,0.2c0.1,0,0.1,0,0.2,0c0.6,0.1,1.1,0.2,1.7,0.2h0.1c23.5,3.5,51.5,10.1,101.2,16.8c0.4,0.1,0.8,0.1,1.3,0.2
			c83,11,94-68,102-102C750.1,230.3,708.1,251.3,674.1,242.3z"/>
	</g>
</g>
</svg>
