<?xml version="1.0" encoding="utf-8"?>
<!-- Generator: Adobe Illustrator 22.0.1, SVG Export Plug-In . SVG Version: 6.00 Build 0)  -->
<svg version="1.1" id="Layer_1" xmlns="http://www.w3.org/2000/svg" xmlns:xlink="http://www.w3.org/1999/xlink" x="0px" y="0px"
	 viewBox="0 0 2400 1200" style="enable-background:new 0 0 2400 1200;" xml:space="preserve">
<style type="text/css">
	.st0{fill:#F26322;}
	.st1{fill:#221F1F;}
	.st2{fill:#FFFFFF;}
</style>
<g>
	<g id="XMLID_1_">
		<g>
			<g>
				<path class="st0" d="M274.9,620.3c-4.1-1.3-7.2-2.6-8.9-3.7c-10.3-7.1-21-51.2-25.2-71.1c-1.3-6,3.3-11.7,9.4-11.7l5.3,0
					c-2-4.3-4.9-18.2-5.3-21.7c-0.5-3.8,1-9.6,1-13s-1-10.6-1-15.4c0-4.8,3.8-14.4,3.8-18.7s10.6-18.7,12.5-23
					c0.5-1,1.5-2.6,2.9-4.6c1.4-2,3.3-4.3,5.5-6.9V229.4l43.9-0.1l33.1-36.9l33.6,19.7c6-4.6,6.6-5.4,13-9.6l-4.8-39.3l88.8-40.3
					l21.1,27.8c12.4-3.3,24.1-6.8,36.9-8.6l6.9-28.8h106.3l7.7,29.3c12.3,2.1,24.5,5.1,36.5,8.6l21.1-28.3l89.3,40.8l-5.3,38.9
					c4.3,3.1,8.3,5.8,12.5,9.1l34.1-19.2l33.6,36.9l44-0.1v405.3h139.3l-46.9,171.2c-3.8,13.8-16.3,23.3-30.6,23.3h-61.6v49.4
					c0,11.7-6.4,22.3-16.5,27.8l-299,162.8l-10.7,5.8l-10.7-5.8l-299-162.8c-10.2-5.5-16.5-16.3-16.5-27.8V829H214
					c-14.1,0-26.7-9.5-30.5-23.1l-47.9-171.2h139.3V620.3z M752.5,397.9c2.7,4.5,5.1,8.6,6.6,11.1c2.9,4.9,12.9,13.3,20.7,20
					c0.4-2.7,1.9-5.7,3.6-7.9c0.7-1,1.7-1.9,2.2-3c0.5-1.2,0.3-2.8-0.8-3.4c0.9,0.6-2,2.1-2.6,1.8c-0.6-0.4-1.7-3.1-2.3-3.7
					c-1.7-1.7-4.9-2.9-5.3-5.7c-0.1-1.7,0.7-4.1-0.9-4.4c0.7,1.1-3.9,2.3-5,1.8c-1.3-0.6-0.8-2-1.2-3.2c-0.3-1.3-0.6-2.5-1.5-3.4
					c-1.9-1.6-3.5-0.2-4.9-2.1c-0.7-0.7-0.4-1.8-0.6-2.7c0.1-3.2,0.2-6.2,0.4-9.2c0.1-2.1,1.1-4.9,3.1-4.4c0.9,0.3,1.3,1,2.1,1.4
					c2.6,1.2,5.4-2.5,7.7-1.2c0.9,0.3,1.3,1,1.9,1.7c1.2,1.3,2.9,1.7,4.4,1.4c1.5-0.6,2.7-2,2.7-3.6c-1.4,1.3-3.7,0.7-5.5-0.3
					c-1.8-1-3.5-2.4-5.5-2.4c-1.2,0.1-2.2,0.6-3.4,0.3c-2.7-0.4-3.5-4-3.6-7c-2.8,0.5-5.9-1.6-6.5-4.4c-3.7,6.7-9.6,12.3-16.7,15.3
					c1,1.3,3.2,1,5.5,0.4c2.9-0.7,3.3,2.2,7.2,2.3c-0.7,3.3,2.1,6.3,1.7,9.5C755.7,394.8,754.2,396.5,752.5,397.9z M737.9,376.5
					c7.7-4,13.8-11.1,16.6-19.3c-3.6,0.2-4.6,1.8-7.7,0.1c-1.4-0.8-4.5,0.5-5,0c-1-0.7-0.3-2.4,0.4-3.4c7.1-10.4,14-20.7,21.1-31.1
					c1.4-2.1,3.6-4.6,6.1-3.8c2.1,0.8,2.7,3.3,3.1,5.4c2.5,10.9,10.3,20.4,20.5,24.9c2.4,1,5.3,2.6,4.5,5c-0.3,1.1-3.4,1.5-4.4,2.2
					c-3.5,2.3-5.7,2.6-9.7,2c0.1,8.3,7.2,16.1,15.5,16.8c1.7,0.2,3.9,0.2,4.7,1.8c0.9,1.6-0.5,3.7-2.2,4.7c-1.8,1-3.8,1.5-4.8,3.1
					c-0.5,0.5,1.1,3-0.5,4.4c-1.3,1.2-3.9,1-5.4,1c-4.3,0.1-8.4-1.4-12.4-2.6c4.5,11.8,12.2,23,23.2,29c2,1.2,4.3,4.4,2.8,6.1
					c-0.5,0.6-1.4,0.9-2.2,0.9c-3.7,0.7-7.5,1.5-11.3,2.1c6.4,6,14.8,6.3,23.1,9.1c1.1,0.4,2.3,0.8,3.4,0.4c1.5-0.4,2.6-1.5,3.3-2.8
					c3.9-5,8-7.7,11.8-12.6c-4-1-10.2-0.3-11.7-2.9c-0.9-1.3-3.4-1.1-3.5-2.8c0-1.9,2.2-2.6,4.1-3.1c7.6-2.2,12.8-10.4,11.5-18.3
					c-4.8,2.4-10,0-14.2-3.6c-2.9-2.5-4.5-3-3-5.3c1.3-2.3,4.2-3,6.8-3.9c8.7-2.9,16.2-8.9,20.9-16.7c-3.3,0.4-6.9-1.7-8.2-4.9
					c-2.5,1.2-8.1-0.1-6.8-2.3c0.9-1.2,20-15.5,25.3-26.7c0.4-1.1,0.8-2.2,1.9-3c3.2-2.5,7.6,1.2,8.9,5.1c1.2,3.7,1.2,8.4,4.1,11.2
					c0.7,0.6,1.7,1.3,2.6,2v-59.9H705.7c-3.6,12.8-7.7,26-14.2,37.6c-4.2,9.9-4.6,13.2-3.7,13.7c4.8,2.4,27.6,15.1,31.4,17.5
					c3.8,2.4,8.6,7.7,12,17.3C731.2,371.1,734.7,373.9,737.9,376.5z M1008.5,802.7l43-157H915.9V240.4H714.6
					c-0.1,2.7-0.3,5.4-0.7,8.1c-0.1,1-0.3,2-0.5,3.1h191.1v405.3h132.3l-39.2,143c-1.1,4-4.7,6.8-9,6.8h-84.1v71.7
					c0,3.4-1.9,6.5-4.8,8.1l-298.9,162.8l-299-162.8c-3-1.7-4.8-4.7-4.8-8.1v-71.7H214c-1.4,0-2.7-0.3-4-0.9c0.1,0,0.1,0.1,0.2,0.1
					c-0.2-0.1-0.4-0.2-0.5-0.3c-0.1,0-0.1-0.1-0.2-0.1c-2.1-1.2-3.7-3.2-4.5-5.6l-40-143h132.1V626c-4-0.9-7.8-1.8-11.2-2.7v22.3
					H150.2l44,157.3c2.5,8.8,10.5,15,19.7,15h72v60.6c0,7.4,4,14.4,10.6,17.9l299,162.7l5.3,3l5.3-3l299.1-162.8
					c6.5-3.5,10.6-10.4,10.6-17.9v-60.6h72.9C998,817.8,1006.1,811.5,1008.5,802.7z M983.4,745.5l27.3-57.1h-21.6l-15.6,36.8
					l-15.7-36.8h-21.8l27.4,57.1v27.6h20.1V745.5z M951.9,773v-17.7h-35.3v-67h-20.1V773H951.9z M884.9,773v-17.7h-35.3v-67h-20.1
					V773H884.9z M871.1,864v-57.3H330.6V864l179.1,97.6l21,4.1l5.3-15.6l27.3,26.3c2.5,2.5,6.9,0.4,6.1-2.9l-10.9-50.9l20,8.5
					l24.1-37.6l24.1,37.6l20-8.5l-10.9,50.9c-0.6,3.3,3.7,5.3,6.1,2.9l27.3-26.3l5.3,15.6l15.2-3.1L871.1,864z M871.1,591.5V467.8
					c-8.9-0.2-11-12.7-12-20c-1-6.6-6.9-12.2-13.7-12.6c0.9-1.8,4-3.5,3-5.2c-1.1-1.5-6.1-2.7-6.6-5.9c-0.6-3.1,1.3-6.4,4.3-7.6
					c1.4,2.2,0.7,4.5,3.5,5c1.4,0.1,1.2-2.3,2.6-2.6c1.6-0.3,1.8-1,1.1-3.3c-0.5-1.8,1.8-2.4,3.1-2.7c2-0.4,3.2-3.7,3-5.9
					c-5.2,2.1-7.1-9.5-12.6-8.4c-2,0.4-1.8,2.2-3.2,3.4c-1.6,1.3-5.7,1.4-5.8-0.5c-1.5,5.6-10.8,10.3-11.8,11.6
					c-1.7,2.1,4.2,3.9,6.8,3.8c1.3-0.1,2-1.4,3-2.2c3.2,1.8,2.2,6.9-0.2,9.6c-2.2,2.9-5.5,5.6-5.6,9.2c0.1,2.8,2.3,6.1,0.8,8.7
					c-1.4,2.7-5.9,3.1-6.5,6.2c-0.3,1.1,0.1,2.6-0.5,3.7c-0.7,1.5-2.8,1.7-4.5,1.6c-6.4-0.4-16.5-11.1-28.7-13.8
					c6.7,10.2,19.8,37.1,23.7,40.1c4.3,3.4,21.1,28.3,25.4,34.5s10.6,25,14.9,30.2C858,549.1,866.8,577,871.1,591.5z M869.2,639.6
					c-1-1.9-1.9-19.2-4.8-25.4c-2.9-6.2-9.1-10.6-10.1-12.5c-1-1.9,0-5.8,1.4-8.2c1.4-2.4-1.9-9.1-3.4-13.4s-6.2-22.1-9.6-31.2
					c-3.4-9.1-19.7-36-23-38.9c-3.4-2.9-19.7-22.6-21.1-24c-1.4-1.4-1-4.8-2.4-11c-1.4-6.2-15.4-28.3-19.7-34.1
					c-4.3-5.8-22.1-13.4-24.5-15.4c-2.4-1.9-2.9-8.2-5.8-16.3c-2.9-8.2-12-17.3-15.4-20.2c1,12.5-3.8,27.4-3.4,31.7
					c0.5,4.3-1.4,18.2-0.5,23c1,4.8,9.1,16.3,12,18.7c2.9,2.4,10.6,18.7,15.8,22.6c5.3,3.8,24.5,29.8,25.4,32.6
					c1,2.9,11.5,7.7,13.9,8.6c2.4,1,9.6,8.2,11,10.6c7.7,0,17.8,1.9,18.2,3.8c0.2,0.9-4.3,1.9-7.7,4.3c-3.6,2.5-5.3,7.7-2.4,8.6
					c6.2-1,18.2,1.4,17.3,2.4c-1.2,1.2-3.4,3.4-6.2,5.3c-1.5,1-0.5,4.6-0.5,5.8c0,2.9,10.1,24.5,9.6,26.9c-0.5,2.4-5.8,7.2-5.8,9.6
					s12.5,1,12,2.9c-0.5,1.9-3.4,4.3-4.8,6.2c-1.4,1.9-1,7.7-3.4,11.5c-2.4,3.8-0.5,9.1-1.9,15.8c1.9-1.4,16.8-6.7,23.5-6.7
					S860.5,635.2,869.2,639.6z M859.5,337.4c0.1-0.9,0.1-2-0.1-2.7c-0.1-0.5-0.3-0.8-0.6-1c-0.4-0.2-1,0.2-1.4,0.6
					c-1.3,1.4-1.6,3.4-2.2,5.2c-1.3,4.2-4.2,7.8-7.9,10.1c-2.2,1.2-6.2,3.4-5.4,4.6c0.7,1,1.5,2.1,0.7,3.2c-0.3,0.4-1.2,2,0.8,2
					c1.4,0,3.4-2.4,5.2-1.9c0.9,0.2,2.3,2.8,1.5,3.8c-0.8,0.9-2.7,5.2-2.8,6.8c-0.2,3.1-2.1,5.9-4.9,7.4c-1.7,0.8-3.6,1.3-5.5,1.9
					c-4.9,1.7-8.9,5-12.9,8.3c-0.2,0.2-0.6,0.5-0.6,0.9c0,0.8,1.5,0.3,1.9,1c0.8,1.3,1.2,2.4,2.5,1.9c1.3-0.5,2.5,1.1,3.9,1
					c1.2-0.1,2-0.7,3-1.6s1.9-1.6,3-1.9c1.1-0.2,2.6,0.5,2.7,1.6c0,0.8-0.2,1.5-0.7,2.1c-0.6,0.9-0.9,1.8-1.1,2.7
					c-0.3,1.2,0.3,3.5,1.5,2.9c0.8-0.4,4.1-4.9,6.5-5.6c2.7-0.9,5.6,0.7,8,2.3c0.5,0.4,0.9,0.6,1.6,0.4c0.4-0.1,0.4-0.4,0.6-0.7
					c0.8-1.8,0.2-3.9-0.9-5.5c-1-1.7-2.4-3-3-5c-1.5,1.4-3.1,2.4-5.2,3c-0.7,0.2-1.8,0.3-2-0.6c-0.3-0.4,0.1-0.9,0.4-1.3
					c0.8-1.1-0.7-2.7-0.6-3.8c0-1.1,2.2-2.2,2.8-3c1.1-1.5,1-2.7,1.2-4.4c0.7-4.5,3.4-8.6,3.5-12.9c0.1-2.8-0.7-4.8,0.5-7.3
					c1.5-3.4,3.1-7,4.6-10.5c0.5-1.2,1-2.1,1.1-3.3C859.4,337.7,859.4,337.5,859.5,337.4z M820.2,773.1l-25.9-84.6h-27.7l-25.7,84.6
					h20.8l4.8-17.9h27l5,17.9H820.2z M704,656.9h101.8c-8.1-16.3-5-25.9-7.8-31c-2.9-5.3-7.7-11.5-11-14.9c-3.4-3.4-4.1-10.3-6-13.7
					c-1.9-3.4-2.4-12.5-4.8-15.8c-2.4-3.4-7.9-24.7-9.4-27.6c-1.4-2.9-12-7.7-14.9-10.6c-2.9-2.9-5.3-6.2-9.1-11s-39.8-32.1-44.6-35
					c-4.8-2.9-8.2-0.5-13.9-1.9c-2.9,3.4-9.1,10.6-13.4,17.3s-24,30.2-32.6,37.4c-8.3,7-31.3,47.3-44,66l90.3,16.9
					c3.1,0.5,5.8,2.3,7.5,5C694.8,642.5,699.6,650,704,656.9z M767,326.5c0.2-1.3-3.7,4-4.8,7.2c-1.1,3.2-8.1,14.9-10.2,15.8
					c-1.8,0.8,1.1,3.8,2.6,3c1.7-0.8,4.2-3.3,5-3.5c0.9-0.2-0.5,3.1,1.9,3.1c2.4,0,1.3-5.7,1.2-8.6
					C762.7,340.9,766.9,328.4,767,326.5z M730,773l-14.5-30.5c7.8-1.4,11.6-6.6,11.6-16.2v-21.2c0-11.4-5.5-16.7-16.8-16.7H663V773
					h20.1v-29.1h11.8l14.2,29.1H730z M718,401.6c2.9-5.8,4.3-21.1,4.3-22.6c0-1.4-2.9-9.1-5.8-12c-2.9-2.9-23.5-15.4-30.7-19.2
					c0,0-5.8,23-8.6,33.6c2.9,2.4,10.1,10.6,13.4,14.9c3.4,4.3,11.5,18.7,14.4,30.7C705.1,427,715.2,407.3,718,401.6z M705.8,239.8
					c0.4-0.3,0.5-1.8,0.4-3.4c-0.1-1.5-0.3-3-0.3-3.6c-0.6-4.8-1.7-9.7-3.2-14.4c-3-9.6-6.9-18.9-12-27.3c-5-8.2-11.3-15-20.2-19.3
					c-8.8-4.3-18.4-7.2-28.3-8.8c-9.9-1.7-20-2.1-30.1-1.6c-9.2,0.5-18.9,1.5-27.8,4.2c-10.1,3-18.3,8.8-26,15.8
					c-5.7,5.4-15.7,17.7-15.7,17.7s6.7-1.9,8.4-3c5.4-3.3,9.1-4.8,14.2-8.9c5.6-4.5,10.5-7.9,17.5-8.3c2.2-0.1,4.5-0.1,6.7,0.2
					c4.4,0.5,8.7,1.6,12.9,4.3c1,0.7,2.1,1.4,3,2.6c1.7,2,2.5,5,2.5,7.6c0,1.1-11.4,27.5,1.5,29.9c2.1,0.5,11.2,2.4,23.6-5.6
					c20.8-13.5,46.1-20.4,55-10c9.4,11.2,10.9,27.1,10.8,35.7C701.1,242.6,703.5,241.4,705.8,239.8z M699.5,277.9
					c1.1-4.8,2.1-9.5,2.9-14.2c-1.7,1.3-3.7,2.5-5.9,3.8c-3.4,20.2-13,49.3-19.7,64.1c0.7-1.3,2.1-2.3,3-3.4
					c1.9-2.2,3.5-4.6,4.9-7.1c2.5-4.4,4.4-9.1,6.1-13.8c1.8-4.8,3.4-9.7,4.8-14.5C697,287.9,698.3,282.8,699.5,277.9z M690.1,656.9
					l-6.1-10c-1.1-1.8-2.9-3-4.9-3.3l-151.4-27.7c-2.4-0.4-4.8,0.2-6.8,1.5l-29.8,20.4c-2.7,2-4.1,5.1-4.5,8.4
					c-0.5,4.3-1,7.7-1.3,10.5H690.1z M679.2,487c0-3.8-3.4-28.8-5.8-37.9c-2.9-10.9-13.4-34.1-16.8-38.9l-5.8,6.7
					c0,0,10,23.6,14.4,33.1c2.9,6.2,9.1,32.6,10.1,42.2C675.3,492.3,676.8,491.3,679.2,487z M675.8,230.3c0-3.6-0.2-7.1-0.8-6.9
					c-23.5,9.9-48.5,17.9-74,17.1c-3.8-0.1-7.9-0.6-10.8-3.1c-3.2-2.8-4-7.5-3.8-11.8c0.5-12.8,4.1-22,10.9-32.9
					c-2.4-3.3-6.8-4.3-10.8-5.1c-3.7-0.7-6.7-1.3-10.3,0c-3.1,1.1-6.7,4.3-8.9,6.7c-9.5,10-15.3,16.9-24.8,27
					c-2.1,2.3-5.6,4.6-8,2.7c-1.2-1-1.5-2.7-1.6-4.3c-0.4-6,0.3-12.1,2.1-17.8c-2.2,1-3.8,3-5.2,5c-7.9,11.1-16,24.2-23.9,35.3
					c19.4-3.6,39.8-4.2,58.9,0.6c10.2,2.6,20.1,5.3,29.9,9.1c4.6,1.8,9.3,3.6,14.3,3.9c5.5,0.4,10.9-1.1,16.2-2.6
					c15.7-4.4,31.4-8.7,47.1-13.1c0.9-0.3,1.9-0.6,2.5-1.3c0.4-0.6,0.6-1.3,0.7-2C675.6,236.4,675.7,233.4,675.8,230.3z
					 M670.4,278.9c-1.9,0.4-3.6,0.6-5.3,0.7c-0.2,0.2-0.3,0.4-0.4,0.6c-24.7,32.1-41.8,50.3-61.7,50.8
					c-19.7,0.6-20.7-14.8-38.7-18.3c-13.8-2.8-15.1,8.4-22.4,4.5c-12-6.4-11.5-31.1-9.1-64.9c-2.2,0-2.9,0.1-5.1,0.2
					c-0.1,2.3,0,0.8-0.2,3.1c-0.3,7.7-0.8,14.6-0.8,22.4c0.1,7.7,0.4,15.4,1.1,23.1c0.7,7.6,1.8,15.1,3.3,22.7l0.2,1.1l-0.3,1.1
					c-1.5,5.7-2.9,11.8-3.7,17.4c-0.2,1.4-0.3,2.8-0.4,4.1c0,0.6,0,1.1,0.2,1.6c0,0,2.4,7.1,3.4,9.9c2.2,5.7,12.3,28,13,29.3
					c0.4,0.9,1,1.8,1.4,2.6c2.3,1.2,4.7,2.1,7.2,3.1c2.8,1.2,5.8,2.1,8.9,3.1c3.5,1,9.8,2.8,12.1,2.2c3-0.9,49.8-31.1,49.8-31.1
					l0.5-4.6c0,0-50.2,28.1-52.6,28.1c-3,0-21.4-7-21.4-7s-5.2-9.9-11.7-28.1c-0.6-1.6,7.9-10.2,9.5-9.9c2.5,0.4,11,1.7,13.5,2.6
					c0.5,0.2,6.6,5.4,14.2,10.8l6.8,6.1l45.4-37.7C644.6,315.1,662,295.2,670.4,278.9z M625.4,549.4c3.4-2.9,23-19.7,28.8-33.1
					c-4.3,5.8-34.5,27.8-37.4,32.1s-16.3,25.9-19.2,28.8c-2.5,2.5-17,27.2-22,35.5l10.8,2c6.6-11,25.8-46,27.5-49.5
					C615.8,561.4,622.1,552.2,625.4,549.4z M597.5,745.5l27.2-57.1h-21.6l-15.6,36.8l-15.7-36.8h-21.8l27.4,57.1l0.1,27.6h20.1
					V745.5z M601,416.4c0,0-1.9-1.9-6.2-8.2c-2.4,13.4-18.2,55.7-23,67.2s-23,38.9-26.9,47.5s-22.6,35-28.3,45.6
					c-7,12.8-9.1,20.2-11.5,25.9c-2.4,5.8-4.3,10.1-9.6,24l10.1-8.2c0,0,3.1-8.2,5.8-14.9c3.8-9.6,5.8-10.6,8.6-16.3
					c2.9-5.8,26.9-43.7,34.5-56.6c2.9-4.8,18.7-28.8,22.6-37.4C581.4,475,598.1,426,601,416.4z M556.1,305.9
					c1.3-14.2,4.3-45.5,4.3-45.5c-5.6-6.4-12.8-8.4-21.4-7.8c-1,6.6-1.7,43.4,0.9,50.7c1.4,3.6,3.3,5.7,5.5,5.7
					C549.1,308.9,550.8,306.3,556.1,305.9z M541.3,773.1v-17.4H503v-17.3h30.7v-17.2H503v-15.3h38.3v-17.4h-58.4v84.8H541.3z
					 M530.2,382.8c-0.5-1-0.9-2.1-1.4-3.1c-0.6-1.3-1.2-2.6-1.8-3.9c-17.8,5.4-43.7,15-59.5,22c-18.5,8.1-25,15.8-35.5,20.6
					c0,0-13,19.2-18.2,25c-2.1,9.7-7.6,28.7-9.5,39.7c-9.9,22.3-21.6,50.3-22.2,53.4c-0.9,4.8-6.8,20.9-11.5,32.1
					c2.8,1.2,6.7,2.2,10.8,3.1c2-8.5,5.2-25.1,6-28.5c1-4.3,7.2-20.2,10.1-29.8c0,0,9.7-26.5,15.7-44.4c4.6-10.3,9.6-22.2,14.5-29.5
					c14.3-10.8,36.5-27.4,47.5-34.1C489.3,396.8,518.4,386.9,530.2,382.8z M521.5,324.4c-0.5-2.7-1-5.4-1.4-8.1
					c-21.5,0.8-71.4,4.3-77,5.1c-6.7,1-27.8,7.7-30.7,12.5c4.3,5.8,15.8,13,20.2,23.5c2.4,1.9,6.6,1.8,8.6,1
					c6.1-2.6,49.9-19,78.3-25.4c0-0.1,0.1-0.3,0.1-0.4C520.1,329.8,520.8,327.1,521.5,324.4z M518.8,306.5c-0.2-1.6-0.3-3.2-0.5-4.8
					c-0.5-5.5-0.8-11.1-1-16.6H330.6v89.1c22.4-17,56.2-40.3,58.7-41.7c3.4-1.9,6.2-3.8,11.5-2.9c0,0,5.3-3.8,7.7-6.2
					s25.9-13.4,43.2-14.9c17.3-1.4,41.7-1.7,49.9-1.9C507.7,306.4,513.6,306.4,518.8,306.5z M497,251.6l-0.8-11.2H285.9v177.3
					c3.7-4.1,7.5-8.3,11.2-12.3V251.6H497z M481.3,625.7l3.5-2.9c0,0-7.2-8.2-9.6-10.6c-2.4-2.4-10.1-9.6-13-11
					c-2.9-1.4-13.4-4.3-23-4.8l3.8,6.7c0,0,12.5,1,17.3,2.9C465.2,607.9,478.1,621.8,481.3,625.7z M475.8,630l-29.4-12
					c0.9,6.9-0.4,11.5-1.4,14.9l25.3,11.8C471.4,637.2,473.2,633.6,475.8,630z M471.4,773v-17.7h-35.3v-67H416V773H471.4z
					 M434.7,610.5c0.2-5-5-12.2-5-12.2L397,582c0,0-17.3,0-27.4-3.4c-10.1-3.4-42.7-27.4-56.6-32.6c-4.8-1.8-57.1-2.4-57.1-2.4
					c-3-0.1-5.2,2.7-4.4,5.6c4.3,14.9,15.6,53.9,19.5,58.5c4.8,5.8,104.8,25.2,123.1,28.6c6.2-1,18.2-4.3,24.5-10.1l-135.1-23.8
					l-3.1-9.4l91.4,5.5C371.8,598.5,415.3,606.9,434.7,610.5z M411.4,394.8c2.9-1.9,3.8-12.5,3.8-19.2s-10.6-28.8-13.4-31.2
					c-2.9-2.4-6.2-0.5-12,1.4c-5.8,1.9-28.3,20.2-33.6,25.9c-5.3,5.8-18.2,12.5-35,27.4c-16.8,14.9-38.4,37.2-38.4,44.1
					c3.8-1.4,9.6-3.4,14.4-2.4c4.8,1,15.4,8.2,19.2,13.9c1.4-1.4,3.8-4.6,3.8-7.2c0-2.9-0.5-8.2,0-11.5c0.5-3.4,9.6-6.2,14.4-9.6
					c4.8-3.4,23-12.5,30.7-12c7.2,0.5,13.9-4.3,18.2-6.2c4.3-1.9,4.3-7.7,13-8.6C403.7,398.8,408.5,396.8,411.4,394.8z M404.4,773
					v-17.7h-35.3v-67h-20.1V773H404.4z M384.3,487.7c1.4-8.2,4.3-22.1,7.2-33.6c-4.3,0.5-9.6,2.4-16.8,10.1s-22.1,16.3-26.9,20.2
					s-7.7,10.1-15.4,13.9c0.5,3.4,1,13.9,0,19.2c-0.9,4.8,2.2,18.7,3.1,29.1c7.2,4.6,14.9,9.6,21.2,13.6c8-17.7,13.9-31.6,14.6-34.5
					C373.3,516.5,382.9,495.9,384.3,487.7z M338.4,773.1l-25.9-84.6h-27.7l-25.7,84.6h20.8l4.8-17.9h27l5,17.9H338.4z M297.2,483.1
					c1-1.9-9.6-11.5-10.6-13.4s0-9.6,3.8-17.3c-3.8-1.9-16.3,3.8-18.7,5.8c-2.4,1.9-9.1,22.6-10.1,25.9c-1,3.4-0.5,18.2-1,22.1
					c-0.5,3.8,2.4,17.8,4.3,25.9c0,0,18.7,0.5,24.5,0c-1.4-1.9,0-23,1-25.9c1-2.9-4.8-11-4.3-13
					C286.7,491.3,296.3,485.1,297.2,483.1z M244.1,773l26-84.6h-21.3l-15.9,63.3l-15.9-63.3h-21.8l26,84.6H244.1z"/>
				<path class="st0" d="M871.1,806.7V864l-181.3,98.7l-15.2,3.1l-5.3-15.6L642,976.5c-2.5,2.4-6.7,0.4-6.1-2.9l10.9-50.9l-20,8.5
					l-24.1-37.6l-24.1,37.6l-20-8.5l10.9,50.9c0.7,3.3-3.7,5.4-6.1,2.9l-27.3-26.3l-5.3,15.6l-21-4.1L330.6,864v-57.3H871.1z
					 M743.9,869.5v-31.2c0-7.1-3.3-10.4-10.4-10.4h-17.4c-7.1,0-10.4,3.3-10.4,10.4v31.2c0,7.1,3.4,10.5,10.4,10.4h17.4
					C740.6,879.9,743.9,876.6,743.9,869.5z M695.9,880l-10.7-20.6c6-0.5,9-3.8,9-10.4v-10.7c0-7.1-3.3-10.4-10.4-10.4h-26.1V880h7.2
					v-20.5h12.6l10.6,20.5H695.9z M644.1,869.5v-41.7h-7.2v41.5c0,3.1-1.2,4.1-4.1,4.1h-14.9c-3,0-4-1.2-4-4.1v-41.5h-7.2v41.7
					c0,7.1,3.3,10.5,10.5,10.4h16.5C640.8,879.9,644.1,876.6,644.1,869.5z M594.6,869.5v-31.2c0-7.1-3.3-10.4-10.4-10.4h-26.9v52
					h26.9C591.2,879.9,594.6,876.6,594.6,869.5z M542.9,880v-52.1h-6.8v40.6l-24.8-40.6h-7.8V880h6.8v-41.4l25.4,41.4H542.9z
					 M492.2,834.5v-6.6h-33.8l-0.1,52.3h33.8v-6.6h-26.6v-16.9h22.2v-6.6h-22.1v-15.7H492.2z"/>
				<path class="st0" d="M871.1,467.8v123.7c-4.3-14.4-13.1-42.4-16.5-46.7c-4.3-5.3-10.6-24-14.9-30.2s-21.1-31.2-25.4-34.5
					c-3.8-3-17-29.9-23.7-40.1c12.2,2.7,22.3,13.3,28.7,13.8c1.7,0.2,3.8-0.1,4.5-1.6c0.6-1,0.2-2.5,0.5-3.7c0.6-3.1,5-3.5,6.5-6.2
					c1.4-2.6-0.8-5.8-0.8-8.7c0.1-3.6,3.4-6.3,5.6-9.2c2.4-2.8,3.4-7.8,0.2-9.6c-1,0.7-1.7,2.1-3,2.2c-2.6,0.1-8.5-1.7-6.8-3.8
					c1-1.3,10.3-6,11.8-11.6c0,1.9,4.2,1.8,5.8,0.5c1.5-1.2,1.3-3,3.2-3.4c5.4-1.1,7.4,10.5,12.6,8.4c0.2,2.2-1,5.5-3,5.9
					c-1.3,0.3-3.6,0.9-3.1,2.7c0.7,2.3,0.5,2.9-1.1,3.3c-1.4,0.3-1.2,2.7-2.6,2.6c-2.7-0.5-2.1-2.8-3.5-5c-3,1.2-4.9,4.5-4.3,7.6
					c0.5,3.2,5.5,4.3,6.6,5.9c1,1.8-2.1,3.4-3,5.2c6.8,0.4,12.7,6,13.7,12.6C860.1,455.1,862.2,467.6,871.1,467.8z"/>
				<path class="st0" d="M859.4,334.7c0.2,0.8,0.2,1.8,0.1,2.7c0,0.1-0.1,0.3-0.1,0.4c-0.1,1.1-0.6,2.1-1.1,3.3
					c-1.5,3.5-3.1,7.1-4.6,10.5c-1.2,2.6-0.4,4.5-0.5,7.3c-0.2,4.3-2.9,8.4-3.5,12.9c-0.3,1.7-0.2,2.9-1.2,4.4c-0.7,0.8-2.8,2-2.8,3
					c-0.1,1,1.4,2.7,0.6,3.8c-0.3,0.4-0.7,0.9-0.4,1.3c0.2,0.9,1.2,0.8,2,0.6c2-0.6,3.7-1.5,5.2-3c0.6,2,1.9,3.4,3,5
					c1,1.7,1.6,3.7,0.9,5.5c-0.2,0.3-0.2,0.5-0.6,0.7c-0.6,0.2-1.1,0-1.6-0.4c-2.3-1.6-5.3-3.2-8-2.3c-2.4,0.7-5.6,5.2-6.5,5.6
					c-1.2,0.6-1.7-1.7-1.5-2.9c0.2-0.9,0.5-1.8,1.1-2.7c0.5-0.6,0.8-1.2,0.7-2.1c-0.1-1.1-1.6-1.8-2.7-1.6c-1.1,0.3-2.1,1.1-3,1.9
					s-1.8,1.5-3,1.6c-1.4,0.1-2.6-1.5-3.9-1c-1.3,0.5-1.7-0.5-2.5-1.9c-0.4-0.7-1.8-0.2-1.9-1c0-0.5,0.4-0.7,0.6-0.9
					c3.9-3.2,8-6.6,12.9-8.3c1.9-0.6,3.8-1.1,5.5-1.9c2.8-1.5,4.6-4.3,4.9-7.4c0.1-1.6,2-5.8,2.8-6.8c0.8-0.9-0.6-3.5-1.5-3.8
					c-1.9-0.5-3.8,1.9-5.2,1.9c-2,0-1.1-1.6-0.8-2c0.8-1.1,0-2.2-0.7-3.2c-0.8-1.1,3.2-3.4,5.4-4.6c3.6-2.4,6.5-5.9,7.9-10.1
					c0.6-1.7,1-3.8,2.2-5.2c0.4-0.4,1-0.8,1.4-0.6C859.1,333.9,859.2,334.2,859.4,334.7z"/>
				<path class="st0" d="M805.7,656.9H704c-4.4-6.8-9.2-14.4-12.1-18.9c-1.7-2.6-4.4-4.5-7.5-5l-90.3-16.9
					c12.8-18.7,35.7-59.1,44-66c8.6-7.2,28.3-30.7,32.6-37.4s10.6-13.9,13.4-17.3c5.8,1.4,9.1-1,13.9,1.9c4.8,2.9,40.8,30.2,44.6,35
					s6.2,8.2,9.1,11c2.9,2.9,13.4,7.7,14.9,10.6c1.4,2.9,7,24.2,9.4,27.6c2.4,3.4,2.9,12.5,4.8,15.8c1.9,3.4,2.6,10.3,6,13.7
					c3.4,3.4,8.2,9.6,11,14.9C800.7,631,797.7,640.6,805.7,656.9z"/>
				<polygon class="st0" points="780.1,705 788.9,738.1 771.1,738.1 				"/>
				<path class="st0" d="M784.8,414.7c1,0.6,1.3,2.2,0.8,3.4c-0.5,1.2-1.5,2-2.2,3c-1.7,2.3-3.1,5.2-3.6,7.9
					c-7.8-6.7-17.7-15.1-20.7-20c-1.5-2.5-3.9-6.7-6.6-11.1c1.7-1.4,3.2-3,3.6-5.2c0.4-3.2-2.5-6.2-1.7-9.5c-4-0.1-4.3-3-7.2-2.3
					c-2.3,0.5-4.5,0.9-5.5-0.4c7.1-3,13-8.6,16.7-15.3c0.6,2.9,3.7,5,6.5,4.4c0.1,3,0.9,6.6,3.6,7c1.1,0.3,2.2-0.2,3.4-0.3
					c2,0,3.7,1.4,5.5,2.4c1.8,1,4.1,1.6,5.5,0.3c0,1.6-1.2,3-2.7,3.6c-1.5,0.4-3.2,0-4.4-1.4c-0.5-0.7-1-1.4-1.9-1.7
					c-2.3-1.3-5.1,2.4-7.7,1.2c-0.8-0.4-1.3-1.1-2.1-1.4c-2-0.6-3,2.3-3.1,4.4c-0.2,3-0.3,6.1-0.4,9.2c0.1,1-0.1,2,0.6,2.7
					c1.4,2,3,0.5,4.9,2.1c0.9,0.9,1.2,2.1,1.5,3.4c0.3,1.2-0.1,2.6,1.2,3.2c1.2,0.5,5.7-0.7,5-1.8c1.6,0.4,0.8,2.8,0.9,4.4
					c0.4,2.8,3.6,4,5.3,5.7c0.7,0.6,1.7,3.3,2.3,3.7C782.7,416.8,785.7,415.2,784.8,414.7z"/>
				<path class="st0" d="M762.2,333.6c1.1-3.2,5-8.4,4.8-7.2c-0.1,1.9-4.2,14.4-4.2,17.1c0.1,2.8,1.1,8.5-1.2,8.6
					c-2.3-0.1-1-3.3-1.9-3.1c-0.9,0.2-3.3,2.7-5,3.5c-1.5,0.8-4.5-2.2-2.6-3C754,348.6,761.1,336.8,762.2,333.6z"/>
				<path class="st0" d="M743.9,838.3v31.2c0,7.1-3.3,10.4-10.4,10.4h-17.4c-7,0.1-10.4-3.3-10.4-10.4v-31.2
					c0-7.1,3.3-10.4,10.4-10.4h17.4C740.6,827.9,743.9,831.2,743.9,838.3z M737,869.3v-30.8c0-2.9-1.1-4.1-4.1-4.1H717
					c-3,0-4,1.1-4,4.1v30.8c0,2.9,1.1,4.1,4,4.1h15.8C735.8,873.4,737,872.4,737,869.3z"/>
				<path class="st0" d="M737,838.5v30.8c0,3.1-1.2,4.1-4.1,4.1H717c-3,0-4-1.2-4-4.1v-30.8c0-3.1,1.1-4.1,4-4.1h15.8
					C735.9,834.4,737,835.6,737,838.5z"/>
				<path class="st0" d="M706.8,707.8V725c0,1.8-0.6,2.2-2.2,2.2l-21.5,0.1v-21.8h21.5C706.3,705.6,706.8,706,706.8,707.8z"/>
				<path class="st0" d="M685.1,859.4l10.7,20.6h-7.8l-10.6-20.5h-12.6V880h-7.2v-52.1h26.1c7.1,0,10.4,3.3,10.4,10.4V849
					C694.1,855.6,691.1,858.9,685.1,859.4z M687,849v-10.6c0-2.9-1.1-4.1-4.1-4.1h-18.2V853h18.2C685.8,853,687,852,687,849z"/>
				<path class="st0" d="M687,838.4V849c0,2.9-1.2,4-4.1,4h-18.2v-18.7h18.2C685.9,834.3,687,835.5,687,838.4z"/>
				<path class="st0" d="M644.1,827.8v41.7c0,7.1-3.3,10.4-10.4,10.4h-16.5c-7.2,0.1-10.5-3.3-10.5-10.4v-41.7h7.2v41.5
					c0,2.9,1.1,4.1,4,4.1h14.9c3,0,4.1-1.1,4.1-4.1v-41.5H644.1z"/>
				<path class="st0" d="M599.4,341.6l-20.9,13.2l-13.8-9.7l3.2-23.2c0,0,11.2,12.8,15.8,15.3C588.5,339.9,597,341.5,599.4,341.6z"
					/>
				<path class="st0" d="M594.6,838.3v31.2c0,7.1-3.3,10.4-10.4,10.4h-26.9v-52h26.9C591.2,827.9,594.6,831.2,594.6,838.3z
					 M587.5,869.3v-30.8c0-2.9-1.1-4.1-4.1-4.1h-18.9v39h18.9C586.3,873.4,587.5,872.4,587.5,869.3z"/>
				<path class="st0" d="M587.5,838.5v30.8c0,3.1-1.2,4.1-4.1,4.1h-18.9v-39h18.9C586.4,834.4,587.5,835.6,587.5,838.5z"/>
				<path class="st0" d="M555.7,320.3L535,349.8l-1.8-5.1l3.6-18.2c0,0,3.7,2.4,6.5,1.1C546.4,326.1,555.4,320.4,555.7,320.3z"/>
				<polygon class="st0" points="542.9,827.9 542.9,880 535.7,880 510.4,838.7 510.4,880 503.5,880 503.5,827.9 511.3,827.9 
					536.1,868.5 536.1,827.9 				"/>
				<path class="st0" d="M496.3,240.4l0.8,11.2H297.1v153.7c-3.7,4-7.6,8.2-11.2,12.3V240.4H496.3z"/>
				<polygon class="st0" points="492.2,827.9 492.2,834.5 465.6,834.5 465.6,850.2 487.7,850.2 487.7,856.8 465.5,856.8 
					465.5,873.7 492.1,873.7 492.1,880.3 458.3,880.3 458.4,827.9 				"/>
				<path class="st0" d="M391.5,454.1c-2.9,11.5-5.8,25.4-7.2,33.6c-1.4,8.2-11,28.8-13,37.9c-0.6,2.9-6.6,16.8-14.6,34.5
					c-6.3-4-14-8.9-21.2-13.6c-0.9-10.4-4-24.3-3.1-29.1c1-5.3,0.5-15.8,0-19.2c7.7-3.8,10.6-10.1,15.4-13.9s19.7-12.5,26.9-20.2
					S387.2,454.6,391.5,454.1z"/>
				<polygon class="st0" points="298.3,705 307.1,738.1 289.3,738.1 				"/>
				<path class="st0" d="M208.7,805.1c-0.9-0.7-1.8-1.5-2.4-2.5C206.9,803.5,207.7,804.4,208.7,805.1z M205,799.9
					c0.7,2.4,2.4,4.4,4.5,5.6c0.1,0,0.1,0.1,0.2,0.1c0.2,0.1,0.3,0.2,0.5,0.3c-0.1,0-0.1-0.1-0.2-0.1c1.2,0.6,2.6,0.9,4,0.9h83.1
					v71.7c0,3.4,1.9,6.5,4.8,8.1l299,162.8l298.9-162.8c3-1.7,4.8-4.7,4.8-8.1v-71.7h84.1c4.3,0,7.9-2.8,9-6.8l39.2-143H904.6V251.6
					H713.5c0.2-1,0.3-2,0.5-3.1c0.4-2.8,0.6-5.5,0.7-8.1h201.2v405.3h135.7l-43,157c-2.5,8.8-10.5,15.1-19.7,15.1H916v60.6
					c0,7.5-4.1,14.4-10.6,17.9l-299.1,162.8l-5.3,3l-5.3-3l-299-162.7c-6.6-3.5-10.6-10.5-10.6-17.9v-60.6h-72
					c-9.2,0-17.2-6.1-19.7-15l-44-157.3h135.7v-22.3c3.5,0.9,7.2,1.8,11.2,2.7v30.9H165L205,799.9z"/>
				<path class="st0" d="M206.2,802.6c0.7,0.9,1.6,1.8,2.4,2.5C207.7,804.4,206.9,803.5,206.2,802.6z"/>
			</g>
		</g>
		<g>
			<g>
				<path class="st1" d="M274.9,620.3c-4.1-1.3-7.2-2.6-8.9-3.7c-10.3-7.1-21-51.2-25.2-71.1c-1.3-6,3.3-11.7,9.4-11.7l5.3,0
					c-2-4.3-4.9-18.2-5.3-21.7c-0.5-3.8,1-9.6,1-13s-1-10.6-1-15.4c0-4.8,3.8-14.4,3.8-18.7s10.6-18.7,12.5-23
					c0.5-1,1.5-2.6,2.9-4.6c1.4-2,3.3-4.3,5.5-6.9V229.4l43.9-0.1l33.1-36.9l33.6,19.7c6-4.6,6.6-5.4,13-9.6l-4.8-39.3l88.8-40.3
					l21.1,27.8c12.4-3.3,24.1-6.8,36.9-8.6l6.9-28.8h106.3l7.7,29.3c12.3,2.1,24.5,5.1,36.5,8.6l21.1-28.3l89.3,40.8l-5.3,38.9
					c4.3,3.1,8.3,5.8,12.5,9.1l34.1-19.2l33.6,36.9l44-0.1v405.3h139.3l-46.9,171.2c-3.8,13.8-16.3,23.3-30.6,23.3h-61.6v49.4
					c0,11.7-6.4,22.3-16.5,27.8l-299,162.8l-10.7,5.8l-10.7-5.8l-299-162.8c-10.2-5.5-16.5-16.3-16.5-27.8V829H214
					c-14.1,0-26.7-9.5-30.5-23.1l-47.9-171.2h139.3V620.3z M752.5,397.9c2.7,4.5,5.1,8.6,6.6,11.1c2.9,4.9,12.9,13.3,20.7,20
					c0.4-2.7,1.9-5.7,3.6-7.9c0.7-1,1.7-1.9,2.2-3c0.5-1.2,0.3-2.8-0.8-3.4c0.9,0.6-2,2.1-2.6,1.8c-0.6-0.4-1.7-3.1-2.3-3.7
					c-1.7-1.7-4.9-2.9-5.3-5.7c-0.1-1.7,0.7-4.1-0.9-4.4c0.7,1.1-3.9,2.3-5,1.8c-1.3-0.6-0.8-2-1.2-3.2c-0.3-1.3-0.6-2.5-1.5-3.4
					c-1.9-1.6-3.5-0.2-4.9-2.1c-0.7-0.7-0.4-1.8-0.6-2.7c0.1-3.2,0.2-6.2,0.4-9.2c0.1-2.1,1.1-4.9,3.1-4.4c0.9,0.3,1.3,1,2.1,1.4
					c2.6,1.2,5.4-2.5,7.7-1.2c0.9,0.3,1.3,1,1.9,1.7c1.2,1.3,2.9,1.7,4.4,1.4c1.5-0.6,2.7-2,2.7-3.6c-1.4,1.3-3.7,0.7-5.5-0.3
					c-1.8-1-3.5-2.4-5.5-2.4c-1.2,0.1-2.2,0.6-3.4,0.3c-2.7-0.4-3.5-4-3.6-7c-2.8,0.5-5.9-1.6-6.5-4.4c-3.7,6.7-9.6,12.3-16.7,15.3
					c1,1.3,3.2,1,5.5,0.4c2.9-0.7,3.3,2.2,7.2,2.3c-0.7,3.3,2.1,6.3,1.7,9.5C755.7,394.8,754.2,396.5,752.5,397.9z M737.9,376.5
					c7.7-4,13.8-11.1,16.6-19.3c-3.6,0.2-4.6,1.8-7.7,0.1c-1.4-0.8-4.5,0.5-5,0c-1-0.7-0.3-2.4,0.4-3.4c7.1-10.4,14-20.7,21.1-31.1
					c1.4-2.1,3.6-4.6,6.1-3.8c2.1,0.8,2.7,3.3,3.1,5.4c2.5,10.9,10.3,20.4,20.5,24.9c2.4,1,5.3,2.6,4.5,5c-0.3,1.1-3.4,1.5-4.4,2.2
					c-3.5,2.3-5.7,2.6-9.7,2c0.1,8.3,7.2,16.1,15.5,16.8c1.7,0.2,3.9,0.2,4.7,1.8c0.9,1.6-0.5,3.7-2.2,4.7c-1.8,1-3.8,1.5-4.8,3.1
					c-0.5,0.5,1.1,3-0.5,4.4c-1.3,1.2-3.9,1-5.4,1c-4.3,0.1-8.4-1.4-12.4-2.6c4.5,11.8,12.2,23,23.2,29c2,1.2,4.3,4.4,2.8,6.1
					c-0.5,0.6-1.4,0.9-2.2,0.9c-3.7,0.7-7.5,1.5-11.3,2.1c6.4,6,14.8,6.3,23.1,9.1c1.1,0.4,2.3,0.8,3.4,0.4c1.5-0.4,2.6-1.5,3.3-2.8
					c3.9-5,8-7.7,11.8-12.6c-4-1-10.2-0.3-11.7-2.9c-0.9-1.3-3.4-1.1-3.5-2.8c0-1.9,2.2-2.6,4.1-3.1c7.6-2.2,12.8-10.4,11.5-18.3
					c-4.8,2.4-10,0-14.2-3.6c-2.9-2.5-4.5-3-3-5.3c1.3-2.3,4.2-3,6.8-3.9c8.7-2.9,16.2-8.9,20.9-16.7c-3.3,0.4-6.9-1.7-8.2-4.9
					c-2.5,1.2-8.1-0.1-6.8-2.3c0.9-1.2,20-15.5,25.3-26.7c0.4-1.1,0.8-2.2,1.9-3c3.2-2.5,7.6,1.2,8.9,5.1c1.2,3.7,1.2,8.4,4.1,11.2
					c0.7,0.6,1.7,1.3,2.6,2v-59.9H705.7c-3.6,12.8-7.7,26-14.2,37.6c-4.2,9.9-4.6,13.2-3.7,13.7c4.8,2.4,27.6,15.1,31.4,17.5
					c3.8,2.4,8.6,7.7,12,17.3C731.2,371.1,734.7,373.9,737.9,376.5z M1008.5,802.7l43-157H915.9V240.4H714.6
					c-0.1,2.7-0.3,5.4-0.7,8.1c-0.1,1-0.3,2-0.5,3.1h191.1v405.3h132.3l-39.2,143c-1.1,4-4.7,6.8-9,6.8h-84.1v71.7
					c0,3.4-1.9,6.5-4.8,8.1l-298.9,162.8l-299-162.8c-3-1.7-4.8-4.7-4.8-8.1v-71.7H214c-1.4,0-2.7-0.3-4-0.9c0.1,0,0.1,0.1,0.2,0.1
					c-0.2-0.1-0.4-0.2-0.5-0.3c-0.1,0-0.1-0.1-0.2-0.1c-2.1-1.2-3.7-3.2-4.5-5.6l-40-143h132.1V626c-4-0.9-7.8-1.8-11.2-2.7v22.3
					H150.2l44,157.3c2.5,8.8,10.5,15,19.7,15h72v60.6c0,7.4,4,14.4,10.6,17.9l299,162.7l5.3,3l5.3-3l299.1-162.8
					c6.5-3.5,10.6-10.4,10.6-17.9v-60.6h72.9C998,817.8,1006.1,811.5,1008.5,802.7z M983.4,745.5l27.3-57.1h-21.6l-15.6,36.8
					l-15.7-36.8h-21.8l27.4,57.1v27.6h20.1V745.5z M951.9,773v-17.7h-35.3v-67h-20.1V773H951.9z M884.9,773v-17.7h-35.3v-67h-20.1
					V773H884.9z M871.1,864v-57.3H330.6V864l179.1,97.6l21,4.1l5.3-15.6l27.3,26.3c2.5,2.5,6.9,0.4,6.1-2.9l-10.9-50.9l20,8.5
					l24.1-37.6l24.1,37.6l20-8.5l-10.9,50.9c-0.6,3.3,3.7,5.3,6.1,2.9l27.3-26.3l5.3,15.6l15.2-3.1L871.1,864z M871.1,591.5V467.8
					c-8.9-0.2-11-12.7-12-20c-1-6.6-6.9-12.2-13.7-12.6c0.9-1.8,4-3.5,3-5.2c-1.1-1.5-6.1-2.7-6.6-5.9c-0.6-3.1,1.3-6.4,4.3-7.6
					c1.4,2.2,0.7,4.5,3.5,5c1.4,0.1,1.2-2.3,2.6-2.6c1.6-0.3,1.8-1,1.1-3.3c-0.5-1.8,1.8-2.4,3.1-2.7c2-0.4,3.2-3.7,3-5.9
					c-5.2,2.1-7.1-9.5-12.6-8.4c-2,0.4-1.8,2.2-3.2,3.4c-1.6,1.3-5.7,1.4-5.8-0.5c-1.5,5.6-10.8,10.3-11.8,11.6
					c-1.7,2.1,4.2,3.9,6.8,3.8c1.3-0.1,2-1.4,3-2.2c3.2,1.8,2.2,6.9-0.2,9.6c-2.2,2.9-5.5,5.6-5.6,9.2c0.1,2.8,2.3,6.1,0.8,8.7
					c-1.4,2.7-5.9,3.1-6.5,6.2c-0.3,1.1,0.1,2.6-0.5,3.7c-0.7,1.5-2.8,1.7-4.5,1.6c-6.4-0.4-16.5-11.1-28.7-13.8
					c6.7,10.2,19.8,37.1,23.7,40.1c4.3,3.4,21.1,28.3,25.4,34.5s10.6,25,14.9,30.2C858,549.1,866.8,577,871.1,591.5z M869.2,639.6
					c-1-1.9-1.9-19.2-4.8-25.4c-2.9-6.2-9.1-10.6-10.1-12.5c-1-1.9,0-5.8,1.4-8.2c1.4-2.4-1.9-9.1-3.4-13.4s-6.2-22.1-9.6-31.2
					c-3.4-9.1-19.7-36-23-38.9c-3.4-2.9-19.7-22.6-21.1-24c-1.4-1.4-1-4.8-2.4-11c-1.4-6.2-15.4-28.3-19.7-34.1
					c-4.3-5.8-22.1-13.4-24.5-15.4c-2.4-1.9-2.9-8.2-5.8-16.3c-2.9-8.2-12-17.3-15.4-20.2c1,12.5-3.8,27.4-3.4,31.7
					c0.5,4.3-1.4,18.2-0.5,23c1,4.8,9.1,16.3,12,18.7c2.9,2.4,10.6,18.7,15.8,22.6c5.3,3.8,24.5,29.8,25.4,32.6
					c1,2.9,11.5,7.7,13.9,8.6c2.4,1,9.6,8.2,11,10.6c7.7,0,17.8,1.9,18.2,3.8c0.2,0.9-4.3,1.9-7.7,4.3c-3.6,2.5-5.3,7.7-2.4,8.6
					c6.2-1,18.2,1.4,17.3,2.4c-1.2,1.2-3.4,3.4-6.2,5.3c-1.5,1-0.5,4.6-0.5,5.8c0,2.9,10.1,24.5,9.6,26.9c-0.5,2.4-5.8,7.2-5.8,9.6
					s12.5,1,12,2.9c-0.5,1.9-3.4,4.3-4.8,6.2c-1.4,1.9-1,7.7-3.4,11.5c-2.4,3.8-0.5,9.1-1.9,15.8c1.9-1.4,16.8-6.7,23.5-6.7
					S860.5,635.2,869.2,639.6z M859.5,337.4c0.1-0.9,0.1-2-0.1-2.7c-0.1-0.5-0.3-0.8-0.6-1c-0.4-0.2-1,0.2-1.4,0.6
					c-1.3,1.4-1.6,3.4-2.2,5.2c-1.3,4.2-4.2,7.8-7.9,10.1c-2.2,1.2-6.2,3.4-5.4,4.6c0.7,1,1.5,2.1,0.7,3.2c-0.3,0.4-1.2,2,0.8,2
					c1.4,0,3.4-2.4,5.2-1.9c0.9,0.2,2.3,2.8,1.5,3.8c-0.8,0.9-2.7,5.2-2.8,6.8c-0.2,3.1-2.1,5.9-4.9,7.4c-1.7,0.8-3.6,1.3-5.5,1.9
					c-4.9,1.7-8.9,5-12.9,8.3c-0.2,0.2-0.6,0.5-0.6,0.9c0,0.8,1.5,0.3,1.9,1c0.8,1.3,1.2,2.4,2.5,1.9c1.3-0.5,2.5,1.1,3.9,1
					c1.2-0.1,2-0.7,3-1.6s1.9-1.6,3-1.9c1.1-0.2,2.6,0.5,2.7,1.6c0,0.8-0.2,1.5-0.7,2.1c-0.6,0.9-0.9,1.8-1.1,2.7
					c-0.3,1.2,0.3,3.5,1.5,2.9c0.8-0.4,4.1-4.9,6.5-5.6c2.7-0.9,5.6,0.7,8,2.3c0.5,0.4,0.9,0.6,1.6,0.4c0.4-0.1,0.4-0.4,0.6-0.7
					c0.8-1.8,0.2-3.9-0.9-5.5c-1-1.7-2.4-3-3-5c-1.5,1.4-3.1,2.4-5.2,3c-0.7,0.2-1.8,0.3-2-0.6c-0.3-0.4,0.1-0.9,0.4-1.3
					c0.8-1.1-0.7-2.7-0.6-3.8c0-1.1,2.2-2.2,2.8-3c1.1-1.5,1-2.7,1.2-4.4c0.7-4.5,3.4-8.6,3.5-12.9c0.1-2.8-0.7-4.8,0.5-7.3
					c1.5-3.4,3.1-7,4.6-10.5c0.5-1.2,1-2.1,1.1-3.3C859.4,337.7,859.4,337.5,859.5,337.4z M820.2,773.1l-25.9-84.6h-27.7l-25.7,84.6
					h20.8l4.8-17.9h27l5,17.9H820.2z M704,656.9h101.8c-8.1-16.3-5-25.9-7.8-31c-2.9-5.3-7.7-11.5-11-14.9c-3.4-3.4-4.1-10.3-6-13.7
					c-1.9-3.4-2.4-12.5-4.8-15.8c-2.4-3.4-7.9-24.7-9.4-27.6c-1.4-2.9-12-7.7-14.9-10.6c-2.9-2.9-5.3-6.2-9.1-11s-39.8-32.1-44.6-35
					c-4.8-2.9-8.2-0.5-13.9-1.9c-2.9,3.4-9.1,10.6-13.4,17.3s-24,30.2-32.6,37.4c-8.3,7-31.3,47.3-44,66l90.3,16.9
					c3.1,0.5,5.8,2.3,7.5,5C694.8,642.5,699.6,650,704,656.9z M767,326.5c0.2-1.3-3.7,4-4.8,7.2c-1.1,3.2-8.1,14.9-10.2,15.8
					c-1.8,0.8,1.1,3.8,2.6,3c1.7-0.8,4.2-3.3,5-3.5c0.9-0.2-0.5,3.1,1.9,3.1c2.4,0,1.3-5.7,1.2-8.6
					C762.7,340.9,766.9,328.4,767,326.5z M730,773l-14.5-30.5c7.8-1.4,11.6-6.6,11.6-16.2v-21.2c0-11.4-5.5-16.7-16.8-16.7H663V773
					h20.1v-29.1h11.8l14.2,29.1H730z M718,401.6c2.9-5.8,4.3-21.1,4.3-22.6c0-1.4-2.9-9.1-5.8-12c-2.9-2.9-23.5-15.4-30.7-19.2
					c0,0-5.8,23-8.6,33.6c2.9,2.4,10.1,10.6,13.4,14.9c3.4,4.3,11.5,18.7,14.4,30.7C705.1,427,715.2,407.3,718,401.6z M705.8,239.8
					c0.4-0.3,0.5-1.8,0.4-3.4c-0.1-1.5-0.3-3-0.3-3.6c-0.6-4.8-1.7-9.7-3.2-14.4c-3-9.6-6.9-18.9-12-27.3c-5-8.2-11.3-15-20.2-19.3
					c-8.8-4.3-18.4-7.2-28.3-8.8c-9.9-1.7-20-2.1-30.1-1.6c-9.2,0.5-18.9,1.5-27.8,4.2c-10.1,3-18.3,8.8-26,15.8
					c-5.7,5.4-15.7,17.7-15.7,17.7s6.7-1.9,8.4-3c5.4-3.3,9.1-4.8,14.2-8.9c5.6-4.5,10.5-7.9,17.5-8.3c2.2-0.1,4.5-0.1,6.7,0.2
					c4.4,0.5,8.7,1.6,12.9,4.3c1,0.7,2.1,1.4,3,2.6c1.7,2,2.5,5,2.5,7.6c0,1.1-11.4,27.5,1.5,29.9c2.1,0.5,11.2,2.4,23.6-5.6
					c20.8-13.5,46.1-20.4,55-10c9.4,11.2,10.9,27.1,10.8,35.7C701.1,242.6,703.5,241.4,705.8,239.8z M699.5,277.9
					c1.1-4.8,2.1-9.5,2.9-14.2c-1.7,1.3-3.7,2.5-5.9,3.8c-3.4,20.2-13,49.3-19.7,64.1c0.7-1.3,2.1-2.3,3-3.4
					c1.9-2.2,3.5-4.6,4.9-7.1c2.5-4.4,4.4-9.1,6.1-13.8c1.8-4.8,3.4-9.7,4.8-14.5C697,287.9,698.3,282.8,699.5,277.9z M690.1,656.9
					l-6.1-10c-1.1-1.8-2.9-3-4.9-3.3l-151.4-27.7c-2.4-0.4-4.8,0.2-6.8,1.5l-29.8,20.4c-2.7,2-4.1,5.1-4.5,8.4
					c-0.5,4.3-1,7.7-1.3,10.5H690.1z M679.2,487c0-3.8-3.4-28.8-5.8-37.9c-2.9-10.9-13.4-34.1-16.8-38.9l-5.8,6.7
					c0,0,10,23.6,14.4,33.1c2.9,6.2,9.1,32.6,10.1,42.2C675.3,492.3,676.8,491.3,679.2,487z M675.8,230.3c0-3.6-0.2-7.1-0.8-6.9
					c-23.5,9.9-48.5,17.9-74,17.1c-3.8-0.1-7.9-0.6-10.8-3.1c-3.2-2.8-4-7.5-3.8-11.8c0.5-12.8,4.1-22,10.9-32.9
					c-2.4-3.3-6.8-4.3-10.8-5.1c-3.7-0.7-6.7-1.3-10.3,0c-3.1,1.1-6.7,4.3-8.9,6.7c-9.5,10-15.3,16.9-24.8,27
					c-2.1,2.3-5.6,4.6-8,2.7c-1.2-1-1.5-2.7-1.6-4.3c-0.4-6,0.3-12.1,2.1-17.8c-2.2,1-3.8,3-5.2,5c-7.9,11.1-16,24.2-23.9,35.3
					c19.4-3.6,39.8-4.2,58.9,0.6c10.2,2.6,20.1,5.3,29.9,9.1c4.6,1.8,9.3,3.6,14.3,3.9c5.5,0.4,10.9-1.1,16.2-2.6
					c15.7-4.4,31.4-8.7,47.1-13.1c0.9-0.3,1.9-0.6,2.5-1.3c0.4-0.6,0.6-1.3,0.7-2C675.6,236.4,675.7,233.4,675.8,230.3z
					 M670.4,278.9c-1.9,0.4-3.6,0.6-5.3,0.7c-0.2,0.2-0.3,0.4-0.4,0.6c-24.7,32.1-41.8,50.3-61.7,50.8
					c-19.7,0.6-20.7-14.8-38.7-18.3c-13.8-2.8-15.1,8.4-22.4,4.5c-12-6.4-11.5-31.1-9.1-64.9c-2.2,0-2.9,0.1-5.1,0.2
					c-0.1,2.3,0,0.8-0.2,3.1c-0.3,7.7-0.8,14.6-0.8,22.4c0.1,7.7,0.4,15.4,1.1,23.1c0.7,7.6,1.8,15.1,3.3,22.7l0.2,1.1l-0.3,1.1
					c-1.5,5.7-2.9,11.8-3.7,17.4c-0.2,1.4-0.3,2.8-0.4,4.1c0,0.6,0,1.1,0.2,1.6c0,0,2.4,7.1,3.4,9.9c2.2,5.7,12.3,28,13,29.3
					c0.4,0.9,1,1.8,1.4,2.6c2.3,1.2,4.7,2.1,7.2,3.1c2.8,1.2,5.8,2.1,8.9,3.1c3.5,1,9.8,2.8,12.1,2.2c3-0.9,49.8-31.1,49.8-31.1
					l0.5-4.6c0,0-50.2,28.1-52.6,28.1c-3,0-21.4-7-21.4-7s-5.2-9.9-11.7-28.1c-0.6-1.6,7.9-10.2,9.5-9.9c2.5,0.4,11,1.7,13.5,2.6
					c0.5,0.2,6.6,5.4,14.2,10.8l6.8,6.1l45.4-37.7C644.6,315.1,662,295.2,670.4,278.9z M625.4,549.4c3.4-2.9,23-19.7,28.8-33.1
					c-4.3,5.8-34.5,27.8-37.4,32.1s-16.3,25.9-19.2,28.8c-2.5,2.5-17,27.2-22,35.5l10.8,2c6.6-11,25.8-46,27.5-49.5
					C615.8,561.4,622.1,552.2,625.4,549.4z M597.5,745.5l27.2-57.1h-21.6l-15.6,36.8l-15.7-36.8h-21.8l27.4,57.1l0.1,27.6h20.1
					V745.5z M601,416.4c0,0-1.9-1.9-6.2-8.2c-2.4,13.4-18.2,55.7-23,67.2s-23,38.9-26.9,47.5s-22.6,35-28.3,45.6
					c-7,12.8-9.1,20.2-11.5,25.9c-2.4,5.8-4.3,10.1-9.6,24l10.1-8.2c0,0,3.1-8.2,5.8-14.9c3.8-9.6,5.8-10.6,8.6-16.3
					c2.9-5.8,26.9-43.7,34.5-56.6c2.9-4.8,18.7-28.8,22.6-37.4C581.4,475,598.1,426,601,416.4z M556.1,305.9
					c1.3-14.2,4.3-45.5,4.3-45.5c-5.6-6.4-12.8-8.4-21.4-7.8c-1,6.6-1.7,43.4,0.9,50.7c1.4,3.6,3.3,5.7,5.5,5.7
					C549.1,308.9,550.8,306.3,556.1,305.9z M541.3,773.1v-17.4H503v-17.3h30.7v-17.2H503v-15.3h38.3v-17.4h-58.4v84.8H541.3z
					 M530.2,382.8c-0.5-1-0.9-2.1-1.4-3.1c-0.6-1.3-1.2-2.6-1.8-3.9c-17.8,5.4-43.7,15-59.5,22c-18.5,8.1-25,15.8-35.5,20.6
					c0,0-13,19.2-18.2,25c-2.1,9.7-7.6,28.7-9.5,39.7c-9.9,22.3-21.6,50.3-22.2,53.4c-0.9,4.8-6.8,20.9-11.5,32.1
					c2.8,1.2,6.7,2.2,10.8,3.1c2-8.5,5.2-25.1,6-28.5c1-4.3,7.2-20.2,10.1-29.8c0,0,9.7-26.5,15.7-44.4c4.6-10.3,9.6-22.2,14.5-29.5
					c14.3-10.8,36.5-27.4,47.5-34.1C489.3,396.8,518.4,386.9,530.2,382.8z M521.5,324.4c-0.5-2.7-1-5.4-1.4-8.1
					c-21.5,0.8-71.4,4.3-77,5.1c-6.7,1-27.8,7.7-30.7,12.5c4.3,5.8,15.8,13,20.2,23.5c2.4,1.9,6.6,1.8,8.6,1
					c6.1-2.6,49.9-19,78.3-25.4c0-0.1,0.1-0.3,0.1-0.4C520.1,329.8,520.8,327.1,521.5,324.4z M518.8,306.5c-0.2-1.6-0.3-3.2-0.5-4.8
					c-0.5-5.5-0.8-11.1-1-16.6H330.6v89.1c22.4-17,56.2-40.3,58.7-41.7c3.4-1.9,6.2-3.8,11.5-2.9c0,0,5.3-3.8,7.7-6.2
					s25.9-13.4,43.2-14.9c17.3-1.4,41.7-1.7,49.9-1.9C507.7,306.4,513.6,306.4,518.8,306.5z M497,251.6l-0.8-11.2H285.9v177.3
					c3.7-4.1,7.5-8.3,11.2-12.3V251.6H497z M481.3,625.7l3.5-2.9c0,0-7.2-8.2-9.6-10.6c-2.4-2.4-10.1-9.6-13-11
					c-2.9-1.4-13.4-4.3-23-4.8l3.8,6.7c0,0,12.5,1,17.3,2.9C465.2,607.9,478.1,621.8,481.3,625.7z M475.8,630l-29.4-12
					c0.9,6.9-0.4,11.5-1.4,14.9l25.3,11.8C471.4,637.2,473.2,633.6,475.8,630z M471.4,773v-17.7h-35.3v-67H416V773H471.4z
					 M434.7,610.5c0.2-5-5-12.2-5-12.2L397,582c0,0-17.3,0-27.4-3.4c-10.1-3.4-42.7-27.4-56.6-32.6c-4.8-1.8-57.1-2.4-57.1-2.4
					c-3-0.1-5.2,2.7-4.4,5.6c4.3,14.9,15.6,53.9,19.5,58.5c4.8,5.8,104.8,25.2,123.1,28.6c6.2-1,18.2-4.3,24.5-10.1l-135.1-23.8
					l-3.1-9.4l91.4,5.5C371.8,598.5,415.3,606.9,434.7,610.5z M411.4,394.8c2.9-1.9,3.8-12.5,3.8-19.2s-10.6-28.8-13.4-31.2
					c-2.9-2.4-6.2-0.5-12,1.4c-5.8,1.9-28.3,20.2-33.6,25.9c-5.3,5.8-18.2,12.5-35,27.4c-16.8,14.9-38.4,37.2-38.4,44.1
					c3.8-1.4,9.6-3.4,14.4-2.4c4.8,1,15.4,8.2,19.2,13.9c1.4-1.4,3.8-4.6,3.8-7.2c0-2.9-0.5-8.2,0-11.5c0.5-3.4,9.6-6.2,14.4-9.6
					c4.8-3.4,23-12.5,30.7-12c7.2,0.5,13.9-4.3,18.2-6.2c4.3-1.9,4.3-7.7,13-8.6C403.7,398.8,408.5,396.8,411.4,394.8z M404.4,773
					v-17.7h-35.3v-67h-20.1V773H404.4z M384.3,487.7c1.4-8.2,4.3-22.1,7.2-33.6c-4.3,0.5-9.6,2.4-16.8,10.1s-22.1,16.3-26.9,20.2
					s-7.7,10.1-15.4,13.9c0.5,3.4,1,13.9,0,19.2c-0.9,4.8,2.2,18.7,3.1,29.1c7.2,4.6,14.9,9.6,21.2,13.6c8-17.7,13.9-31.6,14.6-34.5
					C373.3,516.5,382.9,495.9,384.3,487.7z M338.4,773.1l-25.9-84.6h-27.7l-25.7,84.6h20.8l4.8-17.9h27l5,17.9H338.4z M297.2,483.1
					c1-1.9-9.6-11.5-10.6-13.4s0-9.6,3.8-17.3c-3.8-1.9-16.3,3.8-18.7,5.8c-2.4,1.9-9.1,22.6-10.1,25.9c-1,3.4-0.5,18.2-1,22.1
					c-0.5,3.8,2.4,17.8,4.3,25.9c0,0,18.7,0.5,24.5,0c-1.4-1.9,0-23,1-25.9c1-2.9-4.8-11-4.3-13
					C286.7,491.3,296.3,485.1,297.2,483.1z M244.1,773l26-84.6h-21.3l-15.9,63.3l-15.9-63.3h-21.8l26,84.6H244.1z"/>
				<path class="st0" d="M871.1,806.7V864l-181.3,98.7l-15.2,3.1l-5.3-15.6L642,976.5c-2.5,2.4-6.7,0.4-6.1-2.9l10.9-50.9l-20,8.5
					l-24.1-37.6l-24.1,37.6l-20-8.5l10.9,50.9c0.7,3.3-3.7,5.4-6.1,2.9l-27.3-26.3l-5.3,15.6l-21-4.1L330.6,864v-57.3H871.1z
					 M743.9,869.5v-31.2c0-7.1-3.3-10.4-10.4-10.4h-17.4c-7.1,0-10.4,3.3-10.4,10.4v31.2c0,7.1,3.4,10.5,10.4,10.4h17.4
					C740.6,879.9,743.9,876.6,743.9,869.5z M695.9,880l-10.7-20.6c6-0.5,9-3.8,9-10.4v-10.7c0-7.1-3.3-10.4-10.4-10.4h-26.1V880h7.2
					v-20.5h12.6l10.6,20.5H695.9z M644.1,869.5v-41.7h-7.2v41.5c0,3.1-1.2,4.1-4.1,4.1h-14.9c-3,0-4-1.2-4-4.1v-41.5h-7.2v41.7
					c0,7.1,3.3,10.5,10.5,10.4h16.5C640.8,879.9,644.1,876.6,644.1,869.5z M594.6,869.5v-31.2c0-7.1-3.3-10.4-10.4-10.4h-26.9v52
					h26.9C591.2,879.9,594.6,876.6,594.6,869.5z M542.9,880v-52.1h-6.8v40.6l-24.8-40.6h-7.8V880h6.8v-41.4l25.4,41.4H542.9z
					 M492.2,834.5v-6.6h-33.8l-0.1,52.3h33.8v-6.6h-26.6v-16.9h22.2v-6.6h-22.1v-15.7H492.2z"/>
				<path class="st0" d="M871.1,467.8v123.7c-4.3-14.4-13.1-42.4-16.5-46.7c-4.3-5.3-10.6-24-14.9-30.2s-21.1-31.2-25.4-34.5
					c-3.8-3-17-29.9-23.7-40.1c12.2,2.7,22.3,13.3,28.7,13.8c1.7,0.2,3.8-0.1,4.5-1.6c0.6-1,0.2-2.5,0.5-3.7c0.6-3.1,5-3.5,6.5-6.2
					c1.4-2.6-0.8-5.8-0.8-8.7c0.1-3.6,3.4-6.3,5.6-9.2c2.4-2.8,3.4-7.8,0.2-9.6c-1,0.7-1.7,2.1-3,2.2c-2.6,0.1-8.5-1.7-6.8-3.8
					c1-1.3,10.3-6,11.8-11.6c0,1.9,4.2,1.8,5.8,0.5c1.5-1.2,1.3-3,3.2-3.4c5.4-1.1,7.4,10.5,12.6,8.4c0.2,2.2-1,5.5-3,5.9
					c-1.3,0.3-3.6,0.9-3.1,2.7c0.7,2.3,0.5,2.9-1.1,3.3c-1.4,0.3-1.2,2.7-2.6,2.6c-2.7-0.5-2.1-2.8-3.5-5c-3,1.2-4.9,4.5-4.3,7.6
					c0.5,3.2,5.5,4.3,6.6,5.9c1,1.8-2.1,3.4-3,5.2c6.8,0.4,12.7,6,13.7,12.6C860.1,455.1,862.2,467.6,871.1,467.8z"/>
				<path class="st0" d="M859.4,334.7c0.2,0.8,0.2,1.8,0.1,2.7c0,0.1-0.1,0.3-0.1,0.4c-0.1,1.1-0.6,2.1-1.1,3.3
					c-1.5,3.5-3.1,7.1-4.6,10.5c-1.2,2.6-0.4,4.5-0.5,7.3c-0.2,4.3-2.9,8.4-3.5,12.9c-0.3,1.7-0.2,2.9-1.2,4.4c-0.7,0.8-2.8,2-2.8,3
					c-0.1,1,1.4,2.7,0.6,3.8c-0.3,0.4-0.7,0.9-0.4,1.3c0.2,0.9,1.2,0.8,2,0.6c2-0.6,3.7-1.5,5.2-3c0.6,2,1.9,3.4,3,5
					c1,1.7,1.6,3.7,0.9,5.5c-0.2,0.3-0.2,0.5-0.6,0.7c-0.6,0.2-1.1,0-1.6-0.4c-2.3-1.6-5.3-3.2-8-2.3c-2.4,0.7-5.6,5.2-6.5,5.6
					c-1.2,0.6-1.7-1.7-1.5-2.9c0.2-0.9,0.5-1.8,1.1-2.7c0.5-0.6,0.8-1.2,0.7-2.1c-0.1-1.1-1.6-1.8-2.7-1.6c-1.1,0.3-2.1,1.1-3,1.9
					s-1.8,1.5-3,1.6c-1.4,0.1-2.6-1.5-3.9-1c-1.3,0.5-1.7-0.5-2.5-1.9c-0.4-0.7-1.8-0.2-1.9-1c0-0.5,0.4-0.7,0.6-0.9
					c3.9-3.2,8-6.6,12.9-8.3c1.9-0.6,3.8-1.1,5.5-1.9c2.8-1.5,4.6-4.3,4.9-7.4c0.1-1.6,2-5.8,2.8-6.8c0.8-0.9-0.6-3.5-1.5-3.8
					c-1.9-0.5-3.8,1.9-5.2,1.9c-2,0-1.1-1.6-0.8-2c0.8-1.1,0-2.2-0.7-3.2c-0.8-1.1,3.2-3.4,5.4-4.6c3.6-2.4,6.5-5.9,7.9-10.1
					c0.6-1.7,1-3.8,2.2-5.2c0.4-0.4,1-0.8,1.4-0.6C859.1,333.9,859.2,334.2,859.4,334.7z"/>
				<path class="st0" d="M805.7,656.9H704c-4.4-6.8-9.2-14.4-12.1-18.9c-1.7-2.6-4.4-4.5-7.5-5l-90.3-16.9
					c12.8-18.7,35.7-59.1,44-66c8.6-7.2,28.3-30.7,32.6-37.4s10.6-13.9,13.4-17.3c5.8,1.4,9.1-1,13.9,1.9c4.8,2.9,40.8,30.2,44.6,35
					s6.2,8.2,9.1,11c2.9,2.9,13.4,7.7,14.9,10.6c1.4,2.9,7,24.2,9.4,27.6c2.4,3.4,2.9,12.5,4.8,15.8c1.9,3.4,2.6,10.3,6,13.7
					c3.4,3.4,8.2,9.6,11,14.9C800.7,631,797.7,640.6,805.7,656.9z"/>
				<polygon class="st1" points="780.1,705 788.9,738.1 771.1,738.1 				"/>
				<path class="st0" d="M784.8,414.7c1,0.6,1.3,2.2,0.8,3.4c-0.5,1.2-1.5,2-2.2,3c-1.7,2.3-3.1,5.2-3.6,7.9
					c-7.8-6.7-17.7-15.1-20.7-20c-1.5-2.5-3.9-6.7-6.6-11.1c1.7-1.4,3.2-3,3.6-5.2c0.4-3.2-2.5-6.2-1.7-9.5c-4-0.1-4.3-3-7.2-2.3
					c-2.3,0.5-4.5,0.9-5.5-0.4c7.1-3,13-8.6,16.7-15.3c0.6,2.9,3.7,5,6.5,4.4c0.1,3,0.9,6.6,3.6,7c1.1,0.3,2.2-0.2,3.4-0.3
					c2,0,3.7,1.4,5.5,2.4c1.8,1,4.1,1.6,5.5,0.3c0,1.6-1.2,3-2.7,3.6c-1.5,0.4-3.2,0-4.4-1.4c-0.5-0.7-1-1.4-1.9-1.7
					c-2.3-1.3-5.1,2.4-7.7,1.2c-0.8-0.4-1.3-1.1-2.1-1.4c-2-0.6-3,2.3-3.1,4.4c-0.2,3-0.3,6.1-0.4,9.2c0.1,1-0.1,2,0.6,2.7
					c1.4,2,3,0.5,4.9,2.1c0.9,0.9,1.2,2.1,1.5,3.4c0.3,1.2-0.1,2.6,1.2,3.2c1.2,0.5,5.7-0.7,5-1.8c1.6,0.4,0.8,2.8,0.9,4.4
					c0.4,2.8,3.6,4,5.3,5.7c0.7,0.6,1.7,3.3,2.3,3.7C782.7,416.8,785.7,415.2,784.8,414.7z"/>
				<path class="st0" d="M762.2,333.6c1.1-3.2,5-8.4,4.8-7.2c-0.1,1.9-4.2,14.4-4.2,17.1c0.1,2.8,1.1,8.5-1.2,8.6
					c-2.3-0.1-1-3.3-1.9-3.1c-0.9,0.2-3.3,2.7-5,3.5c-1.5,0.8-4.5-2.2-2.6-3C754,348.6,761.1,336.8,762.2,333.6z"/>
				<path class="st2" d="M743.9,838.3v31.2c0,7.1-3.3,10.4-10.4,10.4h-17.4c-7,0.1-10.4-3.3-10.4-10.4v-31.2
					c0-7.1,3.3-10.4,10.4-10.4h17.4C740.6,827.9,743.9,831.2,743.9,838.3z M737,869.3v-30.8c0-2.9-1.1-4.1-4.1-4.1H717
					c-3,0-4,1.1-4,4.1v30.8c0,2.9,1.1,4.1,4,4.1h15.8C735.8,873.4,737,872.4,737,869.3z"/>
				<path class="st0" d="M737,838.5v30.8c0,3.1-1.2,4.1-4.1,4.1H717c-3,0-4-1.2-4-4.1v-30.8c0-3.1,1.1-4.1,4-4.1h15.8
					C735.9,834.4,737,835.6,737,838.5z"/>
				<path class="st1" d="M706.8,707.8V725c0,1.8-0.6,2.2-2.2,2.2l-21.5,0.1v-21.8h21.5C706.3,705.6,706.8,706,706.8,707.8z"/>
				<path class="st2" d="M685.1,859.4l10.7,20.6h-7.8l-10.6-20.5h-12.6V880h-7.2v-52.1h26.1c7.1,0,10.4,3.3,10.4,10.4V849
					C694.1,855.6,691.1,858.9,685.1,859.4z M687,849v-10.6c0-2.9-1.1-4.1-4.1-4.1h-18.2V853h18.2C685.8,853,687,852,687,849z"/>
				<path class="st0" d="M687,838.4V849c0,2.9-1.2,4-4.1,4h-18.2v-18.7h18.2C685.9,834.3,687,835.5,687,838.4z"/>
				<path class="st2" d="M644.1,827.8v41.7c0,7.1-3.3,10.4-10.4,10.4h-16.5c-7.2,0.1-10.5-3.3-10.5-10.4v-41.7h7.2v41.5
					c0,2.9,1.1,4.1,4,4.1h14.9c3,0,4.1-1.1,4.1-4.1v-41.5H644.1z"/>
				<path class="st1" d="M599.4,341.6l-20.9,13.2l-13.8-9.7l3.2-23.2c0,0,11.2,12.8,15.8,15.3C588.5,339.9,597,341.5,599.4,341.6z"
					/>
				<path class="st2" d="M594.6,838.3v31.2c0,7.1-3.3,10.4-10.4,10.4h-26.9v-52h26.9C591.2,827.9,594.6,831.2,594.6,838.3z
					 M587.5,869.3v-30.8c0-2.9-1.1-4.1-4.1-4.1h-18.9v39h18.9C586.3,873.4,587.5,872.4,587.5,869.3z"/>
				<path class="st0" d="M587.5,838.5v30.8c0,3.1-1.2,4.1-4.1,4.1h-18.9v-39h18.9C586.4,834.4,587.5,835.6,587.5,838.5z"/>
				<path class="st1" d="M555.7,320.3L535,349.8l-1.8-5.1l3.6-18.2c0,0,3.7,2.4,6.5,1.1C546.4,326.1,555.4,320.4,555.7,320.3z"/>
				<polygon class="st2" points="542.9,827.9 542.9,880 535.7,880 510.4,838.7 510.4,880 503.5,880 503.5,827.9 511.3,827.9 
					536.1,868.5 536.1,827.9 				"/>
				<path class="st0" d="M496.3,240.4l0.8,11.2H297.1v153.7c-3.7,4-7.6,8.2-11.2,12.3V240.4H496.3z"/>
				<polygon class="st2" points="492.2,827.9 492.2,834.5 465.6,834.5 465.6,850.2 487.7,850.2 487.7,856.8 465.5,856.8 
					465.5,873.7 492.1,873.7 492.1,880.3 458.3,880.3 458.4,827.9 				"/>
				<path class="st0" d="M391.5,454.1c-2.9,11.5-5.8,25.4-7.2,33.6c-1.4,8.2-11,28.8-13,37.9c-0.6,2.9-6.6,16.8-14.6,34.5
					c-6.3-4-14-8.9-21.2-13.6c-0.9-10.4-4-24.3-3.1-29.1c1-5.3,0.5-15.8,0-19.2c7.7-3.8,10.6-10.1,15.4-13.9s19.7-12.5,26.9-20.2
					S387.2,454.6,391.5,454.1z"/>
				<polygon class="st1" points="298.3,705 307.1,738.1 289.3,738.1 				"/>
				<path class="st0" d="M208.7,805.1c-0.9-0.7-1.8-1.5-2.4-2.5C206.9,803.5,207.7,804.4,208.7,805.1z M205,799.9
					c0.7,2.4,2.4,4.4,4.5,5.6c0.1,0,0.1,0.1,0.2,0.1c0.2,0.1,0.3,0.2,0.5,0.3c-0.1,0-0.1-0.1-0.2-0.1c1.2,0.6,2.6,0.9,4,0.9h83.1
					v71.7c0,3.4,1.9,6.5,4.8,8.1l299,162.8l298.9-162.8c3-1.7,4.8-4.7,4.8-8.1v-71.7h84.1c4.3,0,7.9-2.8,9-6.8l39.2-143H904.6V251.6
					H713.5c0.2-1,0.3-2,0.5-3.1c0.4-2.8,0.6-5.5,0.7-8.1h201.2v405.3h135.7l-43,157c-2.5,8.8-10.5,15.1-19.7,15.1H916v60.6
					c0,7.5-4.1,14.4-10.6,17.9l-299.1,162.8l-5.3,3l-5.3-3l-299-162.7c-6.6-3.5-10.6-10.5-10.6-17.9v-60.6h-72
					c-9.2,0-17.2-6.1-19.7-15l-44-157.3h135.7v-22.3c3.5,0.9,7.2,1.8,11.2,2.7v30.9H165L205,799.9z"/>
				<path class="st1" d="M206.2,802.6c0.7,0.9,1.6,1.8,2.4,2.5C207.7,804.4,206.9,803.5,206.2,802.6z"/>
			</g>
		</g>
	</g>
</g>
<rect x="1200.5" y="-0.5" class="st1" width="1200" height="1200"/>
<g>
	<path class="st2" d="M1936.9,391.9c1,1.2,3.1,1,5.3,0.4c2.8-0.7,2.9,1.9,7,2.3c-0.7,3.2,2,6.1,1.7,9.2c-0.4,2.1-1.9,3.7-3.5,5
		c-0.2-0.3-0.4-0.6-0.5-0.9c2.8,4.7,5.4,9.1,6.9,11.7c2.8,4.7,12.5,12.9,20,19.3c0.4-2.7,1.8-5.5,3.5-7.7c0.7-1,1.7-1.8,2.2-2.9
		s0.3-2.7-0.7-3.3c0.9,0.5-2,2.1-2.6,1.7c-0.6-0.4-1.6-3-2.3-3.6c-1.7-1.6-4.7-2.8-5.1-5.5c-0.1-1.6,0.7-4-0.8-4.3
		c0.7,1.1-3.7,2.2-4.9,1.7c-1.2-0.6-0.8-1.9-1.1-3.1c-0.3-1.2-0.6-2.4-1.4-3.3c-1.8-1.6-3.4-0.2-4.8-2.1c-0.6-0.7-0.4-1.7-0.5-2.6
		c0.1-3.1,0.2-6,0.4-8.9c0.1-2,1.1-4.8,3-4.2c0.8,0.3,1.3,1,2.1,1.4c2.5,1.1,5.2-2.5,7.5-1.2c0.8,0.3,1.3,1,1.8,1.7
		c1.2,1.3,2.8,1.7,4.3,1.3c1.5-0.6,2.6-1.9,2.6-3.5c-1.3,1.3-3.6,0.7-5.3-0.3c-1.7-1-3.3-2.4-5.3-2.3c-1.2,0.1-2.2,0.5-3.3,0.3
		c-2.7-0.4-3.4-3.8-3.5-6.7c-2.7,0.5-5.7-1.5-6.3-4.3C1949.5,383.6,1943.7,389,1936.9,391.9z"/>
	<path class="st2" d="M2016.8,457.8c-0.2,1.1,0.1,2.5-0.5,3.6c-0.7,1.4-2.7,1.7-4.3,1.5c-6.2-0.4-16-10.7-27.8-13.3
		c6.4,9.9,19.2,36,22.9,38.8c4.2,3.3,20.4,27.4,24.6,33.5c4.2,6,10.2,24.2,14.4,29.3c3.4,4.1,11.9,31.2,16,45.2V476.5
		c-8.6-0.2-10.6-12.3-11.6-19.4c-0.9-6.4-6.7-11.8-13.2-12.2c0.9-1.7,3.8-3.4,2.9-5.1c-1-1.5-5.9-2.6-6.4-5.7
		c-0.6-3,1.3-6.2,4.2-7.4c1.3,2.1,0.7,4.4,3.3,4.9c1.4,0.1,1.2-2.2,2.5-2.5c1.6-0.3,1.7-1,1.1-3.2c-0.5-1.7,1.8-2.3,3-2.6
		c1.9-0.4,3.1-3.6,2.9-5.7c-5,2.1-6.9-9.2-12.2-8.1c-1.9,0.4-1.7,2.1-3.1,3.3c-1.5,1.2-5.6,1.4-5.6-0.5c-1.5,5.4-10.5,9.9-11.5,11.2
		c-1.6,2,4.1,3.8,6.6,3.7c1.3-0.1,1.9-1.4,2.9-2.1c3.1,1.7,2.1,6.7-0.2,9.3c-2.1,2.8-5.3,5.4-5.5,8.9c0.1,2.8,2.2,5.9,0.8,8.4
		C2021.7,454.4,2017.4,454.8,2016.8,457.8z"/>
	<path class="st2" d="M1956.7,346.6c-1,3.1-7.9,14.4-9.9,15.3c-1.8,0.7,1.1,3.7,2.5,2.9c1.7-0.8,4-3.2,4.9-3.3c0.8-0.2-0.5,3,1.8,3
		c2.3,0,1.3-5.5,1.2-8.3c0-2.6,4-14.7,4.1-16.5C1961.5,338.4,1957.7,343.5,1956.7,346.6z"/>
	<path class="st2" d="M1922.8,453.3c0.9,4.6,8.8,15.8,11.6,18.1c2.8,2.3,10.2,18.1,15.3,21.8c5.1,3.7,23.7,28.8,24.6,31.6
		c0.9,2.8,11.2,7.4,13.5,8.4c2.3,0.9,9.3,7.9,10.7,10.2c7.4,0,17.2,1.9,17.7,3.7c0.2,0.9-4.2,1.9-7.4,4.2c-3.4,2.5-5.1,7.4-2.3,8.4
		c6-0.9,17.7,1.4,16.7,2.3c-1.2,1.2-3.3,3.3-6,5.1c-1.5,1-0.5,4.5-0.5,5.6c0,2.8,9.8,23.7,9.3,26c-0.5,2.3-5.6,7-5.6,9.3
		c0,2.3,12.1,0.9,11.6,2.8c-0.5,1.9-3.3,4.2-4.6,6c-1.4,1.9-0.9,7.4-3.3,11.2c-2.3,3.7-0.5,8.8-1.9,15.3c1.9-1.4,16.3-6.5,22.8-6.5
		s7,1.9,15.3,6c-0.9-1.9-1.9-18.6-4.6-24.6c-2.8-6-8.8-10.2-9.8-12.1c-0.9-1.9,0-5.6,1.4-7.9c1.4-2.3-1.9-8.8-3.3-13
		s-6-21.4-9.3-30.2c-3.3-8.8-19.1-34.9-22.3-37.6c-3.3-2.8-19.1-21.8-20.4-23.2c-1.4-1.4-0.9-4.6-2.3-10.7c-1.4-6-14.9-27.4-19.1-33
		c-4.2-5.6-21.4-13-23.7-14.9c-2.3-1.9-2.8-7.9-5.6-15.8c-2.8-7.9-11.6-16.7-14.9-19.5c0.9,12.1-3.7,26.5-3.3,30.7
		C1923.7,435.2,1921.8,448.6,1922.8,453.3z"/>
	<path class="st2" d="M2039,379.9c-0.2,3-2,5.7-4.7,7.2c-1.7,0.8-3.5,1.3-5.3,1.9c-4.7,1.7-8.7,4.9-12.5,8c-0.2,0.2-0.6,0.4-0.5,0.9
		c0,0.8,1.4,0.3,1.8,1c0.8,1.3,1.2,2.3,2.4,1.8c1.3-0.5,2.5,1.1,3.8,1c1.2-0.1,2-0.7,2.9-1.5c0.9-0.8,1.8-1.5,2.9-1.8
		c1.1-0.2,2.5,0.5,2.6,1.5c0,0.8-0.2,1.4-0.7,2c-0.5,0.9-0.9,1.7-1.1,2.6c-0.3,1.2,0.3,3.4,1.4,2.8c0.8-0.4,3.9-4.7,6.3-5.4
		c2.6-0.9,5.4,0.7,7.7,2.2c0.5,0.3,0.9,0.5,1.5,0.3c0.4-0.1,0.4-0.4,0.6-0.7c0.7-1.8,0.2-3.7-0.8-5.3c-1-1.6-2.3-2.9-2.9-4.9
		c-1.5,1.4-3,2.3-5,2.9c-0.7,0.2-1.8,0.3-1.9-0.6c-0.3-0.4,0.1-0.9,0.4-1.3c0.8-1.1-0.7-2.7-0.5-3.7c0-1,2.1-2.2,2.7-2.9
		c1-1.5,0.9-2.6,1.2-4.3c0.6-4.3,3.3-8.3,3.4-12.5c0.1-2.7-0.7-4.6,0.5-7.1c1.4-3.3,3-6.7,4.5-10.2c0.5-1.1,0.9-2.1,1.1-3.2
		c0-0.1,0.1-0.3,0.1-0.4c0.1-0.9,0.1-1.9-0.1-2.6c-0.1-0.5-0.3-0.8-0.6-0.9c-0.4-0.2-1,0.2-1.4,0.6c-1.2,1.3-1.6,3.3-2.2,5
		c-1.3,4.1-4.1,7.5-7.6,9.8c-2.1,1.1-6,3.3-5.2,4.4c0.7,1,1.5,2.1,0.7,3.1c-0.3,0.4-1.2,1.9,0.7,1.9c1.4,0,3.3-2.3,5.1-1.8
		c0.9,0.2,2.2,2.7,1.5,3.6C2041,374.2,2039.1,378.3,2039,379.9z"/>
	<path class="st2" d="M1746.8,322.7c3.5-0.1,5.2-2.6,10.4-3c1.3-13.8,4.2-44,4.2-44c-5.4-6.2-12.4-8.2-20.7-7.6
		c-1,6.4-1.6,42.1,0.8,49.1C1742.8,320.7,1744.6,322.7,1746.8,322.7z"/>
	<polygon class="st2" points="1742.8,707 1742.8,690.1 1686.2,690.1 1686.2,772.2 1742.8,772.2 1742.8,755.3 1705.7,755.3 
		1705.7,738.5 1735.4,738.5 1735.4,721.9 1705.7,721.9 1705.7,707 	"/>
	<polygon class="st2" points="1772.3,690.2 1751.1,690.2 1777.6,745.5 1777.8,772.2 1797.2,772.2 1797.2,745.5 1823.5,690.2 
		1802.6,690.2 1787.5,725.9 	"/>
	<path class="st2" d="M1674,647.8c1.1-7.3,2.9-10.7,5.3-14.2l-28.5-11.6c0.8,6.7-0.4,11.1-1.3,14.4L1674,647.8z"/>
	<path class="st2" d="M1881.2,503.2c-2.8,3.3-8.8,10.2-13,16.7c-4.2,6.5-23.2,29.3-31.6,36.2c-8.1,6.7-30.3,45.8-42.7,63.9
		l87.4,16.3c3,0.5,5.6,2.3,7.3,4.8c2.8,4.4,7.5,11.7,11.7,18.3h98.6c-7.8-15.8-4.9-25.1-7.6-30c-2.8-5.1-7.4-11.2-10.7-14.4
		c-3.3-3.3-4-10-5.8-13.2s-2.3-12.1-4.6-15.3c-2.3-3.3-7.7-23.9-9.1-26.7c-1.4-2.8-11.6-7.4-14.4-10.2c-2.8-2.8-5.1-6-8.8-10.7
		c-3.7-4.6-38.6-31.1-43.2-33.9C1890,502.3,1886.7,504.6,1881.2,503.2z"/>
	<path class="st2" d="M1881,650c-1-1.7-2.8-2.9-4.7-3.2L1729.5,620c-2.3-0.4-4.7,0.1-6.6,1.5l-28.8,19.8c-2.6,1.9-3.9,4.9-4.3,8.2
		c-0.5,4.2-0.9,7.5-1.3,10.2h198.4L1881,650z"/>
	<path class="st2" d="M1961,690.2l-24.9,82h20.1l4.7-17.4h26.2l4.8,17.4h21l-25-82H1961z M1965.3,738.3l8.7-32.1l8.6,32.1H1965.3z"
		/>
	<path class="st2" d="M1840.3,969.2l26.4-25.5l5.1,15.1l14.8-3l175.5-95.6v-55.5h-523.4v55.5l173.5,94.5l20.4,4l5.1-15.1l26.4,25.5
		c2.4,2.4,6.6,0.3,5.9-2.9l-10.5-49.3l19.3,8.2l23.3-36.4l23.3,36.4l19.3-8.2l-10.5,49.3C1833.8,969.5,1837.9,971.5,1840.3,969.2z
		 M1695.2,831.7h-25.7v15.2h21.4v6.4h-21.5v16.3h25.7v6.4h-32.7l0.1-50.7h32.7V831.7z M1744.4,875.8h-7l-24.6-40.1v40.1h-6.6v-50.5
		h7.5l24,39.3v-39.3h6.6V875.8z M1794.3,865.6c0,6.9-3.2,10-10.1,10h-26.1v-50.4h26.1c6.9,0,10.1,3.2,10.1,10V865.6z M1842.4,865.6
		c0,6.9-3.2,10-10.1,10h-16c-7,0.1-10.2-3.2-10.2-10v-40.4h7v40.2c0,2.9,1,4,3.9,4h14.4c2.9,0,4-1,4-4v-40.2h7V865.6z M1902.1,835.4
		c0-6.9,3.2-10,10.1-10h16.8c6.9,0,10.1,3.2,10.1,10v30.3c0,6.9-3.2,10-10.1,10h-16.8c-6.7,0.1-10.1-3.2-10.1-10V835.4z
		 M1855.4,825.3h25.3c6.9,0,10.1,3.2,10.1,10v10.4c0,6.4-2.9,9.6-8.7,10l10.4,20h-7.5l-10.3-19.9h-12.2v19.9h-7V825.3z"/>
	<path class="st2" d="M1883.9,845.8v-10.3c0-2.9-1-4-4-4h-17.6v18.2h17.6C1882.7,849.6,1883.9,848.6,1883.9,845.8z"/>
	<path class="st2" d="M1783.5,831.6h-18.3v37.8h18.3c2.9,0,4-1,4-4v-29.8C1787.5,832.7,1786.4,831.6,1783.5,831.6z"/>
	<path class="st2" d="M1729.6,268.1c-0.1,2.3,0,0.8-0.2,3c-0.3,7.4-0.8,14.2-0.7,21.7c0.1,7.5,0.4,14.9,1,22.3
		c0.7,7.4,1.8,14.6,3.2,22l0.2,1l-0.3,1c-1.5,5.5-2.8,11.4-3.6,16.9c-0.2,1.4-0.3,2.7-0.4,4c0,0.6,0,1.1,0.2,1.5
		c0,0,2.3,6.9,3.3,9.5c2.1,5.5,11.9,27.1,12.6,28.4c0.4,0.9,0.9,1.7,1.4,2.5c2.2,1.1,4.6,2.1,7,3c2.7,1.1,5.6,2,8.6,3
		c3.4,1,9.4,2.8,11.7,2.1c3-0.9,48.2-30.1,48.2-30.1l0.4-4.5c0,0-48.7,27.2-51,27.2c-2.9,0-20.7-6.7-20.7-6.7s-5.1-9.6-11.4-27.2
		c-0.6-1.6,7.6-9.9,9.2-9.6c2.5,0.4,10.6,1.6,13.1,2.5c0.5,0.2,6.4,5.3,13.7,10.5l6.6,5.9l43.9-36.6c17.1-12.8,33.9-32,42.1-47.7
		c-1.8,0.4-3.5,0.6-5.1,0.7c-0.2,0.2-0.3,0.4-0.4,0.6c-23.9,31.1-40.5,48.7-59.8,49.2c-19.1,0.6-20-14.3-37.5-17.8
		c-13.4-2.7-14.7,8.2-21.7,4.3c-11.6-6.2-11.1-30.1-8.8-62.8C1732.4,267.9,1731.8,267.9,1729.6,268.1z M1768.6,335.2
		c0,0,10.9,12.4,15.3,14.9c4.6,2.6,12.8,4.1,15.2,4.2l-20.3,12.7l-13.3-9.4L1768.6,335.2z M1738.4,339.6c0,0,3.6,2.3,6.3,1
		c3-1.4,12-7,12-7l-20,28.6l-1.8-5L1738.4,339.6z"/>
	<path class="st2" d="M1766,204.9c5.4-4.4,10.2-7.6,16.9-8c2.1-0.1,4.3-0.1,6.4,0.1c4.2,0.5,8.4,1.5,12.5,4.1c1,0.7,2,1.4,2.9,2.5
		c1.7,1.9,2.4,4.8,2.5,7.3c0,1.1-11,26.7,1.4,29c2,0.5,10.9,2.4,22.9-5.5c20.1-13.1,44.7-19.8,53.2-9.7
		c9.1,10.8,10.6,26.3,10.4,34.6c2.3-0.9,4.7-2.1,7-3.6c0.4-0.3,0.4-1.7,0.3-3.2c-0.1-1.4-0.3-2.9-0.3-3.5c-0.5-4.6-1.7-9.4-3.1-14
		c-2.9-9.3-6.7-18.3-11.6-26.5c-4.8-8-11-14.6-19.5-18.7c-8.6-4.2-17.8-7-27.4-8.5c-9.6-1.6-19.4-2-29.1-1.5
		c-8.9,0.4-18.3,1.5-26.9,4c-9.8,2.9-17.7,8.5-25.1,15.3c-5.6,5.2-15.2,17.2-15.2,17.2s6.5-1.9,8.1-2.9
		C1757.4,210.3,1761,208.8,1766,204.9z"/>
	<path class="st2" d="M1494.3,754.9h26.2l4.8,17.4h21l-25-82h-26.9l-24.9,82h20.1L1494.3,754.9z M1507.4,706.2l8.6,32.1h-17.3
		L1507.4,706.2z"/>
	<path class="st2" d="M1645.8,370.6c5.9-2.5,48.3-18.4,75.9-24.6c0-0.1,0.1-0.3,0.1-0.4c0.5-2.6,1.2-5.2,1.9-7.9
		c-0.5-2.6-0.9-5.2-1.3-7.8c-20.8,0.8-69.2,4.2-74.6,5c-6.5,0.9-27,7.4-29.7,12.1c4.2,5.6,15.3,12.5,19.5,22.8
		C1639.7,371.5,1643.9,371.4,1645.8,370.6z"/>
	<path class="st2" d="M1593.7,549.5c0.9-4.2,7-19.5,9.8-28.8c0,0,9.4-25.7,15.2-43c4.4-10,9.3-21.5,14-28.6
		c13.9-10.4,35.3-26.5,46-33c13.7-8.3,41.8-17.9,53.2-21.9c-0.4-1-0.9-2-1.3-3c-0.5-1.3-1.1-2.5-1.7-3.8
		c-17.2,5.2-42.4,14.6-57.6,21.3c-17.9,7.9-24.2,15.3-34.4,20c0,0-12.5,18.6-17.7,24.2c-2,9.4-7.3,27.8-9.2,38.4
		c-9.6,21.6-20.9,48.7-21.5,51.8c-0.8,4.6-6.6,20.3-11.2,31.1c2.7,1.2,6.5,2.2,10.5,3C1589.9,568.9,1593,552.8,1593.7,549.5z"/>
	<polygon class="st2" points="1444.1,751.4 1428.6,690.1 1407.5,690.1 1432.6,772.1 1454.9,772.1 1480.1,690.1 1459.5,690.1 	"/>
	<path class="st2" d="M1543.6,552.8c7,4.5,14.4,9.3,20.5,13.1c7.7-17.2,13.5-30.6,14.1-33.4c1.9-8.8,11.2-28.8,12.5-36.7
		c1.4-7.9,4.2-21.4,7-32.5c-4.2,0.5-9.3,2.3-16.3,9.8c-7,7.4-21.4,15.8-26,19.5c-4.6,3.7-7.4,9.8-14.9,13.5c0.5,3.3,0.9,13.5,0,18.6
		C1539.7,529.3,1542.7,542.7,1543.6,552.8z"/>
	<polygon class="st2" points="1556.6,690.1 1556.6,772.1 1610.2,772.1 1610.2,755 1576,755 1576,690.1 	"/>
	<path class="st2" d="M1912.9,869.4h15.3c2.9,0,4-1,4-4v-29.8c0-2.9-1-4-4-4h-15.3c-2.9,0-3.9,1-3.9,4v29.8
		C1909,868.2,1910.1,869.4,1912.9,869.4z"/>
	<path class="st2" d="M1506.4,450.5c4.6,0.9,14.9,7.9,18.6,13.5c1.4-1.4,3.7-4.5,3.7-7c0-2.8-0.5-7.9,0-11.2c0.5-3.3,9.3-6,13.9-9.3
		c4.6-3.3,22.3-12.1,29.7-11.6c7,0.5,13.5-4.2,17.7-6c4.2-1.9,4.2-7.4,12.5-8.4c6.9-0.8,11.6-2.8,14.4-4.6s3.7-12.1,3.7-18.6
		s-10.2-27.9-13-30.2s-6-0.5-11.6,1.4c-5.6,1.9-27.4,19.5-32.5,25.1c-5.1,5.6-17.7,12.1-33.9,26.5s-37.2,36.1-37.2,42.8
		C1496.1,451.4,1501.7,449.6,1506.4,450.5z"/>
	<path class="st2" d="M1506.3,267.1L1506.3,267.1l193.6,0l-0.8-10.8h-203.7V428c3.6-4,7.3-8.1,10.9-12V267.1z"/>
	<path class="st2" d="M1538.7,385.9c21.7-16.5,54.4-39,56.9-40.4c3.3-1.9,6-3.7,11.2-2.8c0,0,5.1-3.7,7.4-6
		c2.3-2.3,25.1-13,41.8-14.4c16.7-1.4,40.4-1.7,48.3-1.9c5.9-0.1,11.6-0.2,16.6-0.1c-0.2-1.5-0.3-3.1-0.5-4.6
		c-0.5-5.4-0.8-10.8-0.9-16.1h-180.8V385.9z"/>
	<path class="st2" d="M1888.3,335.9c-4.1,9.6-4.5,12.8-3.6,13.2c4.6,2.3,26.7,14.6,30.4,17c3.7,2.3,8.4,7.4,11.6,16.7
		c0,0,3.4,2.7,6.4,5.2c7.5-3.8,13.3-10.7,16-18.7c-3.5,0.2-4.5,1.7-7.5,0.1c-1.3-0.8-4.3,0.5-4.8,0c-1-0.7-0.3-2.3,0.4-3.3
		c6.9-10.1,13.6-20.1,20.5-30.1c1.4-2.1,3.5-4.5,5.9-3.7c2,0.8,2.6,3.2,3,5.3c2.4,10.6,10,19.8,19.9,24.1c2.3,1,5.1,2.5,4.4,4.9
		c-0.2,1.1-3.3,1.4-4.3,2.1c-3.4,2.2-5.5,2.5-9.4,2c0.1,8,6.9,15.6,15,16.2c1.7,0.2,3.7,0.2,4.5,1.7c0.9,1.6-0.5,3.6-2.2,4.5
		c-1.7,1-3.6,1.5-4.7,3c-0.4,0.5,1.1,2.9-0.5,4.2c-1.3,1.2-3.8,1-5.2,1c-4.1,0.1-8.1-1.4-12-2.5c4.4,11.4,11.8,22.2,22.5,28.1
		c1.9,1.1,4.2,4.3,2.8,5.9c-0.5,0.6-1.3,0.8-2.1,0.9c-3.6,0.7-7.3,1.4-11,2.1c6.2,5.8,14.3,6.1,22.4,8.9c1.1,0.4,2.2,0.7,3.3,0.4
		c1.5-0.4,2.5-1.5,3.2-2.7c3.7-4.9,7.8-7.5,11.5-12.2c-3.9-1-9.9-0.3-11.4-2.8c-0.9-1.2-3.3-1.1-3.4-2.7c0-1.8,2.2-2.5,4-3
		c7.3-2.1,12.4-10.1,11.1-17.7c-4.7,2.4-9.7,0-13.7-3.5c-2.8-2.5-4.4-2.9-2.9-5.1c1.3-2.2,4.1-3,6.6-3.8c8.4-2.8,15.7-8.7,20.3-16.2
		c-3.2,0.4-6.7-1.6-7.9-4.8c-2.4,1.2-7.9-0.1-6.6-2.2c0.8-1.2,19.4-15,24.5-25.8c0.4-1.1,0.8-2.1,1.8-2.9c3.1-2.4,7.4,1.1,8.6,4.9
		c1.1,3.6,1.1,8.1,3.9,10.8c0.7,0.6,1.6,1.3,2.6,1.9v-58H1902C1898.5,312,1894.5,324.7,1888.3,335.9z"/>
	<path class="st2" d="M1498.9,538.8c-1.4-1.9,0-22.3,0.9-25.1c0.9-2.8-4.6-10.7-4.2-12.5s9.8-7.9,10.7-9.8s-9.3-11.2-10.2-13
		s0-9.3,3.7-16.7c-3.7-1.9-15.8,3.7-18.1,5.6c-2.3,1.9-8.8,21.8-9.8,25.1c-0.9,3.3-0.5,17.7-0.9,21.4s2.3,17.2,4.2,25.1
		C1475.2,538.8,1493.4,539.3,1498.9,538.8z"/>
	<path class="st2" d="M1765.6,258.7c9.9,2.5,19.5,5.1,29,8.8c4.5,1.7,9,3.5,13.8,3.8c5.3,0.4,10.5-1.1,15.7-2.5
		c15.2-4.2,30.4-8.4,45.6-12.6c0.9-0.3,1.9-0.5,2.4-1.3c0.4-0.5,0.5-1.2,0.6-1.9c0.1-0.5,0.2-3.4,0.2-6.4c0-3.4-0.1-6.9-0.7-6.7
		c-22.8,9.6-47,17.3-71.7,16.5c-3.7-0.1-7.6-0.5-10.4-3c-3.1-2.7-3.8-7.3-3.7-11.4c0.5-12.4,4-21.3,10.6-31.8
		c-2.4-3.1-6.6-4.1-10.4-4.9c-3.6-0.7-6.5-1.2-10,0c-3,1.1-6.4,4.2-8.6,6.5c-9.2,9.7-14.9,16.4-24,26.1c-2.1,2.2-5.4,4.5-7.7,2.6
		c-1.2-1-1.5-2.7-1.6-4.2c-0.4-5.8,0.3-11.7,2-17.3c-2.2,0.9-3.6,2.9-5,4.9c-7.7,10.7-15.5,23.5-23.2,34.2
		C1727.3,254.6,1747,254,1765.6,258.7z"/>
	<polygon class="st2" points="2086.8,690.1 2086.8,772.1 2140.4,772.1 2140.4,755 2106.2,755 2106.2,690.1 	"/>
	<path class="st2" d="M1623.9,629.9l-130.8-23l-3-9.1l88.5,5.3c0,0,42.1,8.1,60.9,11.6c0.2-4.9-4.9-11.9-4.9-11.9l-31.6-15.8
		c0,0-16.7,0-26.5-3.3s-41.4-26.5-54.8-31.6c-4.7-1.8-55.3-2.3-55.3-2.3c-2.9-0.1-5,2.6-4.2,5.4c4.1,14.5,15.1,52.2,18.9,56.7
		c4.6,5.6,101.5,24.4,119.2,27.7C1606.3,638.7,1617.9,635.5,1623.9,629.9z"/>
	<polygon class="st2" points="2170.9,772.2 2170.9,745.5 2197.3,690.2 2176.4,690.2 2161.3,725.9 2146.1,690.2 2125,690.2 
		2151.5,745.5 2151.5,772.2 	"/>
	<path class="st2" d="M2105.5,256.3h-194.9c-0.1,2.6-0.3,5.2-0.6,7.9c-0.1,1-0.3,2-0.5,3h185.1v392.5h128.1l-38,138.5
		c-1,3.9-4.6,6.6-8.7,6.6h-81.4v69.4c0,3.3-1.8,6.3-4.7,7.9l-289.4,157.7L1511,882.1c-2.9-1.6-4.7-4.6-4.7-7.9v-69.4h-80.5
		c-1.4,0-2.7-0.3-3.8-0.9c0.1,0,0.1,0.1,0.2,0.1c-0.2-0.1-0.4-0.2-0.5-0.3c-0.1,0-0.1-0.1-0.2-0.1c-2-1.2-3.6-3.1-4.3-5.5
		l-38.8-138.5h128v-29.9c-3.9-0.9-7.5-1.7-10.9-2.6v21.6H1364l42.7,152.3c2.4,8.6,10.2,14.5,19.1,14.5h69.8v58.7
		c0,7.2,3.9,13.9,10.3,17.4l289.6,157.6l5.1,2.9l5.1-2.9l289.7-157.7c6.3-3.4,10.3-10,10.3-17.4v-58.7h70.6
		c8.9,0,16.7-6.1,19.1-14.6l41.6-152.1h-131.4V256.3z M1418.3,800.8c0.7,0.9,1.5,1.7,2.4,2.4
		C1419.7,802.5,1418.9,801.7,1418.3,800.8z"/>
	<path class="st2" d="M1851.7,133.1l7.4,28.3c11.9,2.1,23.8,4.9,35.3,8.4l20.4-27.4l86.4,39.5l-5.1,37.6c4.1,3,8.1,5.6,12.1,8.8
		l33-18.6l32.5,35.8l42.6-0.1V638h134.9l-45.4,165.8c-3.7,13.4-15.8,22.6-29.6,22.6h-59.7v47.8c0,11.3-6.2,21.6-16,26.9L1811,1058.8
		l-10.4,5.6l-10.4-5.6l-289.6-157.7c-9.8-5.4-16-15.8-16-26.9v-47.8h-58.9c-13.6,0-25.8-9.2-29.5-22.4l-46.4-165.8h134.9v-14
		c-4-1.3-7-2.5-8.6-3.6c-10-6.9-20.3-49.6-24.5-68.9c-1.2-5.8,3.2-11.3,9.1-11.3l5.1,0c-1.9-4.2-4.7-17.6-5.1-21
		c-0.5-3.7,0.9-9.3,0.9-12.5c0-3.3-0.9-10.2-0.9-14.9c0-4.6,3.7-13.9,3.7-18.1s10.2-18.1,12.1-22.3c0.9-2,4-6.1,8.1-11.1V245.7
		l42.5-0.1l32.1-35.8l32.5,19.1c5.8-4.5,6.4-5.2,12.5-9.3l-4.6-38.1l86-39l20.4,27c12-3.2,23.3-6.5,35.8-8.4l6.7-27.9H1851.7
		 M1860.3,121.9h-8.6h-103h-8.8l-2.1,8.5l-5,20.7c-7.7,1.5-15.1,3.5-22.3,5.4l-15.9-21l-5.4-7.1l-8.1,3.7l-86,39l-7.5,3.4l1,8.1
		l3.8,31.4c-0.5,0.4-1,0.8-1.5,1.2l-26-15.2l-7.9-4.6l-6.1,6.8l-28.8,32.1l-37.6,0.1l-11.1,0v11.1v190.7c-4.8,6.1-6.4,8.8-7.2,10.6
		c-0.4,0.9-2.2,3.7-3.5,5.8c-6.4,10.2-9.5,15.6-9.5,20.9c-0.1,1-0.9,3.9-1.4,5.8c-1.1,4.2-2.3,8.6-2.3,12.4c0,3,0.3,6.5,0.6,9.6
		c0.2,2,0.4,4.2,0.4,5.2c0,0.6-0.2,2.1-0.4,3.3c-0.4,3.3-0.9,7-0.5,10.6c0.2,1.7,1,6,2.1,10.6c-2.7,1.3-5,3.2-6.9,5.6
		c-3.9,4.8-5.4,11.1-4.1,17.2c1.8,8.4,5.5,24.8,10.3,40.1c2.5,8.1,5.1,14.9,7.5,20.2c2.6,5.7,5.2,9.8,8.1,12.7h-116.8h-14.7l4,14.2
		l46.4,165.8c5,18,21.6,30.5,40.2,30.5h47.7v36.7c0,15.3,8.4,29.4,21.8,36.7l289.6,157.7l0,0l0,0l10.4,5.6l5.3,2.8l5.3-2.8l10.4-5.6
		l0,0l0,0l289.6-157.7c13.5-7.3,21.8-21.4,21.8-36.7v-36.7h48.5c9.1,0,18.1-3,25.4-8.6c7.3-5.5,12.6-13.4,15-22.2l45.4-165.8
		l3.9-14.1h-14.6h-123.8V245.4v-11.2l-11.2,0l-37.6,0.1l-29.2-32.1l-6-6.6l-7.7,4.4l-26.6,15c-0.3-0.2-0.7-0.5-1-0.7l4.2-31l1.1-8.2
		l-7.5-3.4l-86.4-39.5l-8.2-3.7l-5.4,7.2l-15.9,21.3c-7.5-2-14.8-3.8-22-5.2l-5.6-21.5L1860.3,121.9L1860.3,121.9z"/>
	<path class="st2" d="M1882.8,360.3c0,0-5.6,22.3-8.4,32.5c2.8,2.3,9.8,10.2,13,14.4s11.2,18.1,13.9,29.7c0,0,9.8-19.1,12.5-24.6
		s4.2-20.4,4.2-21.8s-2.8-8.8-5.6-11.6C1909.8,376.1,1889.8,364,1882.8,360.3z"/>
	<path class="st2" d="M1688.1,626.6c0,0-7-7.9-9.3-10.2c-2.3-2.3-9.8-9.3-12.5-10.7c-2.8-1.4-13-4.2-22.3-4.6l3.7,6.5
		c0,0,12.1,0.9,16.7,2.8c4.6,1.9,17.2,15.3,20.3,19.1L1688.1,626.6z"/>
	<path class="st2" d="M1892.2,307c1.4-4.7,2.6-9.6,3.8-14.4c1-4.6,2-9.2,2.8-13.7c-1.6,1.3-3.5,2.4-5.7,3.7
		c-3.2,19.5-12.5,47.8-19,62.1c0.7-1.3,2-2.2,2.9-3.3c1.8-2.1,3.3-4.5,4.7-6.9c2.4-4.2,4.2-8.8,5.9-13.4
		C1889.4,316.4,1890.8,311.7,1892.2,307z"/>
	<path class="st2" d="M1880.1,743.9h11.4l13.7,28.2h20.2l-14.1-29.6c7.5-1.4,11.2-6.4,11.2-15.6v-20.6c0-11.1-5.4-16.2-16.2-16.2
		h-45.7v82h19.4V743.9z M1880.1,706.8h20.8c1.6,0,2.2,0.5,2.2,2.2v16.7c0,1.7-0.6,2.2-2.2,2.2l-20.8,0.1V706.8z"/>
	<path class="st2" d="M1772.2,483.9c-4.6,11.2-22.3,37.6-26,46c-3.7,8.4-21.8,33.9-27.4,44.1c-6.8,12.4-8.8,19.5-11.2,25.1
		c-2.3,5.6-4.2,9.8-9.3,23.2l9.8-7.9c0,0,3-7.9,5.6-14.4c3.7-9.3,5.6-10.2,8.4-15.8s26-42.3,33.5-54.8c2.8-4.7,18.1-27.9,21.8-36.2
		c4.3-9.7,20.4-57.2,23.2-66.5c0,0-1.9-1.9-6-7.9C1792.2,431.9,1776.8,472.8,1772.2,483.9z"/>
	<path class="st2" d="M1786.5,618.8c6.4-10.7,24.9-44.6,26.6-47.9c1.9-3.7,7.9-12.5,11.2-15.3c3.3-2.8,22.3-19.1,27.9-32.1
		c-4.2,5.6-33.5,27-36.2,31.1c-2.8,4.2-15.8,25.1-18.6,27.9c-2.4,2.4-16.5,26.4-21.3,34.3L1786.5,618.8z"/>
	<polygon class="st2" points="1621.4,690.1 1621.4,772.1 1675.1,772.1 1675.1,755 1640.9,755 1640.9,690.1 	"/>
	<polygon class="st2" points="2075.6,755 2041.4,755 2041.4,690.1 2021.9,690.1 2021.9,772.1 2075.6,772.1 	"/>
	<path class="st2" d="M1854.4,420.7l-5.6,6.5c0,0,9.7,22.8,13.9,32.1c2.8,6,8.8,31.6,9.8,40.9c0,0,1.4-0.9,3.7-5.1
		c0-3.7-3.3-27.9-5.6-36.7C1867.9,447.9,1857.7,425.4,1854.4,420.7z"/>
</g>
</svg>
